<svg xmlns="http://www.w3.org/2000/svg" xmlns:xlink="http://www.w3.org/1999/xlink" width="108" height="108" viewBox="0 0 108 108">
  <defs>
    <filter id="Trazado_904820" x="0" y="0" width="108" height="108" filterUnits="userSpaceOnUse">
      <feOffset dy="3" input="SourceAlpha"/>
      <feGaussianBlur stdDeviation="3" result="blur"/>
      <feFlood flood-opacity="0.161"/>
      <feComposite operator="in" in2="blur"/>
      <feComposite in="SourceGraphic"/>
    </filter>
  </defs>
  <g id="Grupo_1229419" data-name="Grupo 1229419" transform="translate(-620 -542)">
    <g id="Grupo_1211546" data-name="Grupo 1211546" transform="translate(629 548)">
      <g id="Grupo_1173585" data-name="Grupo 1173585" transform="translate(0 0)">
        <g id="Grupo_1173428" data-name="Grupo 1173428">
          <g id="Grupo_1171958" data-name="Grupo 1171958">
            <g id="Grupo_1167341" data-name="Grupo 1167341">
              <g id="Grupo_1166792" data-name="Grupo 1166792">
                <g transform="matrix(1, 0, 0, 1, -9, -6)" filter="url(#Trazado_904820)">
                  <g id="Trazado_904820-2" data-name="Trazado 904820" transform="translate(9 6)" fill="#e5fdfa">
                    <path d="M 44.99999618530273 88.50003814697266 C 39.12687301635742 88.50003814697266 33.43022155761719 87.35011291503906 28.06829643249512 85.08219909667969 C 22.88852119445801 82.89134979248047 18.23629570007324 79.75462341308594 14.24084663391113 75.75917053222656 C 10.24540901184082 71.76372528076172 7.108683586120605 67.11149597167969 4.917821407318115 61.93172454833984 C 2.649921178817749 56.56979751586914 1.499996185302734 50.87314605712891 1.499996185302734 45.00002288818359 C 1.499996185302734 39.12689971923828 2.649921178817749 33.43024826049805 4.917821407318115 28.06832313537598 C 7.108683586120605 22.88854789733887 10.24540901184082 18.2363224029541 14.24084663391113 14.24087333679199 C 18.23629570007324 10.24543571472168 22.88852119445801 7.108710289001465 28.06829643249512 4.917848110198975 C 33.43022155761719 2.649947881698608 39.12687301635742 1.500022888183594 44.99999618530273 1.500022888183594 C 50.87311935424805 1.500022888183594 56.56977081298828 2.649947881698608 61.93169784545898 4.917848110198975 C 67.11147308349609 7.108710289001465 71.76369476318359 10.24543571472168 75.75914764404297 14.24087333679199 C 79.75458526611328 18.2363224029541 82.89131164550781 22.88854789733887 85.08216857910156 28.06832313537598 C 87.35007476806641 33.43024826049805 88.5 39.12689971923828 88.5 45.00002288818359 C 88.5 50.87314605712891 87.35007476806641 56.56979751586914 85.08216857910156 61.93172454833984 C 82.89131164550781 67.11149597167969 79.75458526611328 71.76372528076172 75.75914764404297 75.75917053222656 C 71.76369476318359 79.75462341308594 67.11147308349609 82.89134979248047 61.93169784545898 85.08219909667969 C 56.56977081298828 87.35011291503906 50.87311935424805 88.50003814697266 44.99999618530273 88.50003814697266 Z" stroke="none"/>
                    <path d="M 44.99999618530273 3.000007629394531 C 39.32870864868164 3.000007629394531 33.82865142822266 4.110069274902344 28.65262603759766 6.299354553222656 C 23.65165710449219 8.414581298828125 19.15968322753906 11.44335174560547 15.301513671875 15.30153656005859 C 11.44333648681641 19.15970611572266 8.414566040039062 23.65166473388672 6.299339294433594 28.65265274047852 C 4.110054016113281 33.82867813110352 2.999992370605469 39.3287353515625 2.999992370605469 45.00002288818359 C 2.999992370605469 50.67131042480469 4.110054016113281 56.17135238647461 6.299339294433594 61.34739685058594 C 8.414566040039062 66.34836578369141 11.44333648681641 70.84032440185547 15.301513671875 74.69850921630859 C 19.15968322753906 78.55667877197266 23.65165710449219 81.58544921875 28.65262603759766 83.70068359375 C 33.82865142822266 85.88996887207031 39.32870864868164 87.00002288818359 44.99999618530273 87.00002288818359 C 50.67128372192383 87.00002288818359 56.17134094238281 85.88996887207031 61.34736633300781 83.70068359375 C 66.34834289550781 81.58544921875 70.84030914306641 78.55667877197266 74.69847869873047 74.69850921630859 C 78.55665588378906 70.84032440185547 81.58542633056641 66.34836578369141 83.70065307617188 61.34739685058594 C 85.88993835449219 56.17135238647461 87 50.67131042480469 87 45.00002288818359 C 87 39.3287353515625 85.88993835449219 33.82867813110352 83.70065307617188 28.65265274047852 C 81.58542633056641 23.65166473388672 78.55665588378906 19.15970611572266 74.69847869873047 15.30153656005859 C 70.84030914306641 11.44335174560547 66.34834289550781 8.414581298828125 61.34736633300781 6.299354553222656 C 56.17134094238281 4.110069274902344 50.67128372192383 3.000007629394531 44.99999618530273 3.000007629394531 M 44.99999618530273 7.62939453125e-06 C 69.85281372070312 7.62939453125e-06 90 20.14720916748047 90 45.00002288818359 C 90 69.85282135009766 69.85281372070312 90.00002288818359 44.99999618530273 90.00002288818359 C 20.14717864990234 90.00002288818359 -7.62939453125e-06 69.85282135009766 -7.62939453125e-06 45.00002288818359 C -7.62939453125e-06 20.14720916748047 20.14717864990234 7.62939453125e-06 44.99999618530273 7.62939453125e-06 Z" stroke="none" fill="#098576"/>
                  </g>
                </g>
              </g>
            </g>
          </g>
        </g>
      </g>
    </g>
    <g id="_5._Responsive" data-name="5. Responsive" transform="translate(646.135 568.01)">
      <path id="Trazado_1064306" data-name="Trazado 1064306" d="M60.051,345.679a6.716,6.716,0,0,1-6.716,6.716H14.716A6.716,6.716,0,0,1,8,345.679,1.679,1.679,0,0,1,9.679,344H58.372A1.679,1.679,0,0,1,60.051,345.679Z" transform="translate(-7.16 -307.9)" fill="#f6f6f6"/>
      <path id="Trazado_1064307" data-name="Trazado 1064307" d="M324.988,345.679a6.716,6.716,0,0,1-6.716,6.716H304V344h19.309A1.679,1.679,0,0,1,324.988,345.679Z" transform="translate(-272.098 -307.9)" fill="#dcdcdc"/>
      <path id="Trazado_1064308" data-name="Trazado 1064308" d="M53.335,357.168H14.716a6.717,6.717,0,0,1-6.5-5.022,1.667,1.667,0,0,0-.216.824,6.716,6.716,0,0,0,6.716,6.716H53.335a6.716,6.716,0,0,0,6.716-6.716,1.666,1.666,0,0,0-.216-.823A6.716,6.716,0,0,1,53.335,357.168Z" transform="translate(-7.16 -315.192)" fill="#dcdcdc"/>
      <path id="Trazado_1064309" data-name="Trazado 1064309" d="M46.174,346.074H34.421a.84.84,0,1,1,0-1.679H46.174a5.883,5.883,0,0,0,5.877-5.877.84.84,0,0,0-.84-.84H2.519a.84.84,0,0,0-.84.84A5.883,5.883,0,0,0,7.556,344.4H31.063a.84.84,0,1,1,0,1.679H7.556A7.564,7.564,0,0,1,0,338.519,2.519,2.519,0,0,1,2.519,336H51.212a2.519,2.519,0,0,1,2.519,2.519,7.564,7.564,0,0,1-7.556,7.556Z" transform="translate(0 -300.74)"/>
      <path id="Trazado_1064310" data-name="Trazado 1064310" d="M199.112,344l-1.259,3.142a1.679,1.679,0,0,1-1.259,1.028c-.21.039.606.027-9.777.027a1.679,1.679,0,0,1-1.556-1.056L184,344Z" transform="translate(-164.691 -307.9)" fill="#596060"/>
      <path id="Trazado_1064311" data-name="Trazado 1064311" d="M306.519,344l-1.259,3.142A1.679,1.679,0,0,1,304,348.17V344Z" transform="translate(-272.098 -307.9)" fill="#4c5657"/>
      <path id="Trazado_1064312" data-name="Trazado 1064312" d="M189.116,341.877h-9.48a2.5,2.5,0,0,1-2.338-1.584l-1.259-3.142A.839.839,0,0,1,176.82,336h15.112a.839.839,0,0,1,.78,1.154l-1.259,3.142A2.5,2.5,0,0,1,189.116,341.877Zm-11.056-4.2.8,1.994a.839.839,0,0,0,.78.525h9.48a.839.839,0,0,0,.78-.525l.8-1.994Z" transform="translate(-157.511 -300.74)"/>
      <path id="Trazado_1064313" data-name="Trazado 1064313" d="M72.693,11.358v31.9H24v-31.9A3.358,3.358,0,0,1,27.358,8H69.335A3.358,3.358,0,0,1,72.693,11.358Z" transform="translate(-21.481 -7.16)" fill="#dcdcdc"/>
      <path id="Trazado_1064314" data-name="Trazado 1064314" d="M323.309,192.244v15.707H304V197.877A5.883,5.883,0,0,1,309.877,192H321.63A5.838,5.838,0,0,1,323.309,192.244Z" transform="translate(-272.098 -171.851)" fill="#bbb"/>
      <path id="Trazado_1064315" data-name="Trazado 1064315" d="M24,320H72.693v2.519H24Z" transform="translate(-21.481 -286.419)" fill="#bbb"/>
      <path id="Trazado_1064316" data-name="Trazado 1064316" d="M65.532,36.939H16.84A.84.84,0,0,1,16,36.1V4.2A4.2,4.2,0,0,1,20.2,0H62.174a4.2,4.2,0,0,1,4.2,4.2V19.309a.84.84,0,1,1-1.679,0V4.2a2.519,2.519,0,0,0-2.519-2.519H20.2A2.519,2.519,0,0,0,17.679,4.2V35.26H64.693V24.346a.84.84,0,0,1,1.679,0V36.1A.84.84,0,0,1,65.532,36.939Z" transform="translate(-14.321 0)"/>
      <path id="Trazado_1064317" data-name="Trazado 1064317" d="M56,40H97.977V71.9H56Z" transform="translate(-50.123 -35.802)" fill="#a8edfd"/>
      <path id="Trazado_1064318" data-name="Trazado 1064318" d="M319.951,192v15.951H304V197.877A5.883,5.883,0,0,1,309.877,192Z" transform="translate(-272.098 -171.851)" fill="#8bd4de"/>
      <path id="Trazado_1064319" data-name="Trazado 1064319" d="M56,320H97.977v2.519H56Z" transform="translate(-50.123 -286.419)" fill="#8bd4de"/>
      <path id="Trazado_1064320" data-name="Trazado 1064320" d="M90.816,65.581H48.84a.84.84,0,0,1-.84-.84V32.84a.84.84,0,0,1,.84-.84H90.816a.84.84,0,0,1,.84.84v31.9A.84.84,0,0,1,90.816,65.581ZM49.679,63.9h40.3V33.679h-40.3Z" transform="translate(-42.963 -28.642)"/>
      <rect id="Rectángulo_423821" data-name="Rectángulo 423821" width="18.312" height="29.877" rx="3" transform="translate(34.575 23.01)" fill="#6fc3e2"/>
      <path id="Trazado_1064321" data-name="Trazado 1064321" d="M343.112,451.358H331.358A3.358,3.358,0,0,1,328,448v2.519a3.358,3.358,0,0,0,3.358,3.358h11.753a3.358,3.358,0,0,0,3.358-3.358V448A3.358,3.358,0,0,1,343.112,451.358Z" transform="translate(-293.579 -400.986)" fill="#62acc7"/>
      <path id="Trazado_1064322" data-name="Trazado 1064322" d="M335.951,239.9H324.2a4.2,4.2,0,0,1-4.2-4.2V212.2a4.2,4.2,0,0,1,4.2-4.2h11.753a4.2,4.2,0,0,1,4.2,4.2V235.7A4.2,4.2,0,0,1,335.951,239.9ZM324.2,209.679a2.519,2.519,0,0,0-2.519,2.519V235.7a2.519,2.519,0,0,0,2.519,2.519h11.753a2.519,2.519,0,0,0,2.519-2.519V212.2a2.519,2.519,0,0,0-2.519-2.519Z" transform="translate(-286.419 -186.172)"/>
      <path id="Trazado_1064323" data-name="Trazado 1064323" d="M375.924,219.358h-5.772a1.679,1.679,0,0,1-1.628-1.272L368,216h10.074l-.525,2.086A1.679,1.679,0,0,1,375.924,219.358Z" transform="translate(-329.381 -193.333)" fill="#596060"/>
      <path id="Trazado_1064324" data-name="Trazado 1064324" d="M368.756,213.037h-5.772a2.518,2.518,0,0,1-2.443-1.907l-.525-2.087a.84.84,0,0,1,.815-1.043h10.074a.84.84,0,0,1,.814,1.043l-.525,2.086A2.519,2.519,0,0,1,368.756,213.037Zm-6.848-3.358.26,1.043a.84.84,0,0,0,.814.636h5.772a.839.839,0,0,0,.814-.636l.26-1.043Z" transform="translate(-322.213 -186.172)"/>
      <path id="Trazado_1064325" data-name="Trazado 1064325" d="M104,88h13.433v21.828H104Z" transform="translate(-93.086 -78.765)" fill="#e9a648"/>
      <path id="Trazado_1064326" data-name="Trazado 1064326" d="M104,272h13.433v2.519H104Z" transform="translate(-93.086 -243.456)" fill="#d08840"/>
      <path id="Trazado_1064327" data-name="Trazado 1064327" d="M110.272,103.507H96.84a.84.84,0,0,1-.84-.84V80.84a.84.84,0,0,1,.84-.84h13.433a.84.84,0,0,1,.84.84v21.828A.84.84,0,0,1,110.272,103.507Zm-12.593-1.679h11.753V81.679H97.679Z" transform="translate(-85.926 -71.605)"/>
      <path id="Trazado_1064328" data-name="Trazado 1064328" d="M110.384,103.7a.839.839,0,0,1-.716-.4L96.236,81.477a.84.84,0,0,1,1.429-.879L111.1,102.425a.84.84,0,0,1-.714,1.279Z" transform="translate(-86.038 -71.802)"/>
      <path id="Trazado_1064329" data-name="Trazado 1064329" d="M96.853,103.308a.84.84,0,0,1-.714-1.279L109.572,80.2a.84.84,0,1,1,1.429.879L97.569,102.909A.84.84,0,0,1,96.853,103.308Z" transform="translate(-85.939 -71.406)"/>
      <path id="Trazado_1064330" data-name="Trazado 1064330" d="M286.272,81.679H272.84a.84.84,0,1,1,0-1.679h13.433a.84.84,0,0,1,0,1.679Z" transform="translate(-243.456 -71.605)"/>
      <path id="Trazado_1064331" data-name="Trazado 1064331" d="M286.272,121.679H272.84a.84.84,0,1,1,0-1.679h13.433a.84.84,0,0,1,0,1.679Z" transform="translate(-243.456 -107.407)"/>
      <path id="Trazado_1064332" data-name="Trazado 1064332" d="M286.272,161.679H272.84a.84.84,0,1,1,0-1.679h13.433a.84.84,0,0,1,0,1.679Z" transform="translate(-243.456 -143.209)"/>
      <path id="Trazado_1064333" data-name="Trazado 1064333" d="M360,280h11.753v11.753H360Z" transform="translate(-322.221 -250.616)" fill="#e9a648"/>
      <path id="Trazado_1064334" data-name="Trazado 1064334" d="M360,368h11.753v2.519H360Z" transform="translate(-322.221 -329.381)" fill="#d08840"/>
      <path id="Trazado_1064335" data-name="Trazado 1064335" d="M364.593,285.433H352.84a.84.84,0,0,1-.84-.84V272.84a.84.84,0,0,1,.84-.84h11.753a.84.84,0,0,1,.84.84v11.753A.84.84,0,0,1,364.593,285.433Zm-10.914-1.679h10.074V273.679H353.679Z" transform="translate(-315.061 -243.456)"/>
      <path id="Trazado_1064336" data-name="Trazado 1064336" d="M364.589,285.429a.84.84,0,0,1-.594-.246L352.242,273.43a.84.84,0,0,1,1.188-1.188L365.183,284a.84.84,0,0,1-.594,1.434Z" transform="translate(-315.057 -243.452)"/>
      <path id="Trazado_1064337" data-name="Trazado 1064337" d="M352.834,285.429A.84.84,0,0,1,352.24,284l11.753-11.753a.84.84,0,0,1,1.188,1.188l-11.753,11.753A.84.84,0,0,1,352.834,285.429Z" transform="translate(-315.055 -243.452)"/>
      <path id="Trazado_1064338" data-name="Trazado 1064338" d="M354.519,417.679H352.84a.84.84,0,0,1,0-1.679h1.679a.84.84,0,0,1,0,1.679Z" transform="translate(-315.061 -372.344)"/>
      <path id="Trazado_1064339" data-name="Trazado 1064339" d="M407.556,417.679H400.84a.84.84,0,1,1,0-1.679h6.716a.84.84,0,0,1,0,1.679Z" transform="translate(-358.023 -372.344)"/>
      <path id="Trazado_1064340" data-name="Trazado 1064340" d="M354.519,449.679H352.84a.84.84,0,0,1,0-1.679h1.679a.84.84,0,0,1,0,1.679Z" transform="translate(-315.061 -400.986)"/>
      <path id="Trazado_1064341" data-name="Trazado 1064341" d="M407.556,449.679H400.84a.84.84,0,1,1,0-1.679h6.716a.84.84,0,0,1,0,1.679Z" transform="translate(-358.023 -400.986)"/>
      <path id="Trazado_1064342" data-name="Trazado 1064342" d="M252.2,453.037H248.84a.84.84,0,0,1-.84-.84V448.84a.84.84,0,1,1,1.679,0v2.519H252.2a.84.84,0,1,1,0,1.679Z" transform="translate(-221.974 -400.986)"/>
    </g>
  </g>
</svg>
