<svg xmlns="http://www.w3.org/2000/svg" xmlns:xlink="http://www.w3.org/1999/xlink" width="214" height="235.107" viewBox="0 0 214 235.107">
  <defs>
    <linearGradient id="linear-gradient" x1="0.5" x2="0.5" y2="1" gradientUnits="objectBoundingBox">
      <stop offset="0" stop-color="#903cdf"/>
      <stop offset="1" stop-color="#481e70"/>
    </linearGradient>
    <clipPath id="clip-path">
      <rect id="Rectángulo_423853" data-name="Rectángulo 423853" width="188.42" height="235.107" fill="none"/>
    </clipPath>
    <clipPath id="clip-path-3">
      <rect id="Rectángulo_423845" data-name="Rectángulo 423845" width="136.14" height="7.247" fill="none"/>
    </clipPath>
  </defs>
  <g id="Grupo_1229454" data-name="Grupo 1229454" transform="translate(-268 -1390.141)">
    <rect id="Rectángulo_423504" data-name="Rectángulo 423504" width="214" height="56" rx="9" transform="translate(268 1494)" fill="url(#linear-gradient)"/>
    <g id="Grupo_1229453" data-name="Grupo 1229453" transform="translate(280.79 1390.141)">
      <g id="Grupo_1229452" data-name="Grupo 1229452" clip-path="url(#clip-path)">
        <g id="Grupo_1229451" data-name="Grupo 1229451">
          <g id="Grupo_1229450" data-name="Grupo 1229450" clip-path="url(#clip-path)">
            <path id="Trazado_1064343" data-name="Trazado 1064343" d="M93.885,52.637A41.017,41.017,0,1,1,52.867,11.619,41.017,41.017,0,0,1,93.885,52.637Z" transform="translate(-4.055 -3.975)" fill="none" stroke="#bababa" stroke-linecap="round" stroke-linejoin="round" stroke-width="0.977" stroke-dasharray="2.923 2.923"/>
            <circle id="Elipse_14063" data-name="Elipse 14063" cx="37.484" cy="37.484" r="37.484" transform="translate(99.875 68.244)" fill="none" stroke="#bababa" stroke-linecap="round" stroke-linejoin="round" stroke-width="0.977" stroke-dasharray="2.934 2.934"/>
            <path id="Trazado_1064344" data-name="Trazado 1064344" d="M200.039,36.7a23.458,23.458,0,1,1-23.458-23.457A23.458,23.458,0,0,1,200.039,36.7Z" transform="translate(-52.392 -4.533)" fill="none" stroke="#bababa" stroke-linecap="round" stroke-linejoin="round" stroke-width="0.977" stroke-dasharray="2.947 2.947"/>
            <path id="Trazado_1064345" data-name="Trazado 1064345" d="M107.662,163.688A20.889,20.889,0,1,1,86.774,142.8,20.888,20.888,0,0,1,107.662,163.688Z" transform="translate(-22.543 -48.859)" fill="none" stroke="#bababa" stroke-linecap="round" stroke-linejoin="round" stroke-width="0.977" stroke-dasharray="2.933 2.933"/>
            <path id="Trazado_1064346" data-name="Trazado 1064346" d="M81.222,110.142c.088-.984.141-1.977.141-2.985,0-.52-.016-1.039-.039-1.555-6.606-3.425-7.6-7.079-3.381-13.131a33.369,33.369,0,0,0-2.093-3.64c-7.419.651-10.036-1.968-9.384-9.386a33.024,33.024,0,0,0-3.641-2.093c-6.053,4.213-9.707,3.223-13.133-3.384-.516-.025-1.036-.039-1.558-.039-1,0-2,.052-2.978.139-3.121,6.479-6.7,7.537-12.7,3.788A33.143,33.143,0,0,0,28.713,80.2c.6,6.706-1.87,9.266-8.563,9.049a33.165,33.165,0,0,0-2.2,4.02c3.507,5.358,2.594,8.823-2.992,12.07-.032.6-.051,1.208-.051,1.817,0,1.08.056,2.145.156,3.2,5.459,2.988,6.438,6.373,3.35,11.658a33.541,33.541,0,0,0,2.472,4.15c6.019-.177,8.428,2.232,8.251,8.249a33.082,33.082,0,0,0,4.15,2.472c5.283-3.084,8.669-2.107,11.656,3.349,1.052.1,2.118.155,3.194.155.612,0,1.219-.02,1.824-.051,3.246-5.581,6.711-6.494,12.065-2.991a33.364,33.364,0,0,0,4.021-2.2c-.215-6.69,2.343-9.162,9.046-8.562a33.2,33.2,0,0,0,2.346-3.744c-3.745-5.994-2.688-9.573,3.787-12.692M48.133,130.419a23.261,23.261,0,1,1,23.26-23.262,23.261,23.261,0,0,1-23.26,23.262" transform="translate(-5.099 -25.295)" fill="#91b508"/>
            <path id="Trazado_1064347" data-name="Trazado 1064347" d="M236.807,110.142c.089-.984.141-1.977.141-2.985,0-.52-.016-1.039-.039-1.555-6.606-3.425-7.6-7.079-3.382-13.131a33.263,33.263,0,0,0-2.093-3.64c-7.419.651-10.037-1.968-9.384-9.386a32.964,32.964,0,0,0-3.641-2.093c-6.053,4.213-9.708,3.223-13.133-3.384-.517-.025-1.036-.039-1.558-.039-1,0-2,.052-2.979.139-3.121,6.479-6.7,7.537-12.7,3.788A33.194,33.194,0,0,0,184.3,80.2c.6,6.706-1.87,9.266-8.563,9.049a33.081,33.081,0,0,0-2.2,4.02c3.507,5.358,2.594,8.823-2.991,12.07-.032.6-.052,1.208-.052,1.817,0,1.08.056,2.145.157,3.2,5.459,2.988,6.438,6.373,3.35,11.658a33.541,33.541,0,0,0,2.472,4.15c6.019-.177,8.428,2.232,8.251,8.249a33.121,33.121,0,0,0,4.15,2.472c5.284-3.084,8.67-2.107,11.656,3.349,1.052.1,2.118.155,3.194.155.612,0,1.219-.02,1.823-.051,3.246-5.581,6.711-6.494,12.065-2.991a33.33,33.33,0,0,0,4.023-2.2c-.216-6.69,2.343-9.162,9.045-8.562a33.2,33.2,0,0,0,2.347-3.744c-3.745-5.994-2.688-9.573,3.787-12.692m-33.088,20.277a23.261,23.261,0,1,1,23.26-23.262,23.261,23.261,0,0,1-23.26,23.262" transform="translate(-58.334 -25.295)" fill="#f27c00"/>
            <path id="Trazado_1064348" data-name="Trazado 1064348" d="M159.166,45.845c.089-.984.141-1.976.141-2.984,0-.521-.016-1.039-.039-1.554-6.605-3.427-7.595-7.08-3.381-13.133a33.424,33.424,0,0,0-2.093-3.639c-7.419.649-10.037-1.967-9.384-9.387a33.284,33.284,0,0,0-3.641-2.093c-6.053,4.213-9.707,3.223-13.133-3.384-.516-.024-1.036-.039-1.558-.039-1,0-2,.053-2.979.141-3.12,6.478-6.7,7.536-12.7,3.787a33.28,33.28,0,0,0-3.743,2.345c.6,6.707-1.87,9.267-8.564,9.05a33.017,33.017,0,0,0-2.2,4.019C99.4,34.331,98.485,37.8,92.9,41.043c-.032.6-.051,1.208-.051,1.818,0,1.08.055,2.145.156,3.2,5.459,2.987,6.438,6.373,3.35,11.658a33.548,33.548,0,0,0,2.472,4.149c6.019-.176,8.428,2.233,8.251,8.249a33.136,33.136,0,0,0,4.15,2.472c5.283-3.085,8.669-2.107,11.656,3.348,1.051.1,2.117.155,3.194.155.612,0,1.219-.019,1.824-.052,3.246-5.581,6.711-6.493,12.064-2.989a33.475,33.475,0,0,0,4.023-2.2c-.216-6.689,2.343-9.162,9.045-8.562a33.143,33.143,0,0,0,2.346-3.744c-3.744-5.994-2.688-9.572,3.787-12.693M126.078,66.121a23.26,23.26,0,1,1,23.26-23.26,23.26,23.26,0,0,1-23.26,23.26" transform="translate(-31.769 -3.296)" fill="#00a4e8"/>
            <path id="Trazado_1064349" data-name="Trazado 1064349" d="M153.639,21.554A21.733,21.733,0,1,1,131.728,0a21.733,21.733,0,0,1,21.911,21.553" transform="translate(-37.697 0)" fill="#91b508"/>
            <path id="Trazado_1064350" data-name="Trazado 1064350" d="M123.358,30.038l-5.085.2-.745,5.069,22.436,16.342a21.583,21.583,0,0,0,6.251-2.768l3.593-4.629L124.751,26Z" transform="translate(-40.213 -8.896)" fill="#6b850a"/>
            <path id="Trazado_1064351" data-name="Trazado 1064351" d="M151.9,26l-4.307,5.524-3.909-4.22-1.017,8L157.94,46.43a21.7,21.7,0,0,0,6.366-11.394Z" transform="translate(-48.814 -8.896)" fill="#6b850a"/>
            <path id="Trazado_1064352" data-name="Trazado 1064352" d="M138.6,26,134.96,27.35l-.722,7.957,18.191,13.25a21.84,21.84,0,0,0,6.8-7.535Z" transform="translate(-45.93 -8.896)" fill="#6b850a"/>
            <path id="Trazado_1064353" data-name="Trazado 1064353" d="M170.321,32.691,161.135,26l-1.927,9.305,8.355,6.086a21.587,21.587,0,0,0,2.758-8.7" transform="translate(-54.474 -8.896)" fill="#6b850a"/>
            <path id="Trazado_1064354" data-name="Trazado 1064354" d="M124.779,35.268h-1.8V31.162h-3.654v4.106h-1.8V26h1.8v3.676h3.654V26h1.8Z" transform="translate(-40.213 -8.896)" fill="#fff"/>
            <path id="Trazado_1064355" data-name="Trazado 1064355" d="M137.26,27.6H134.7v7.666h-1.821V27.6h-2.564V26h6.948Z" transform="translate(-44.587 -8.896)" fill="#fff"/>
            <path id="Trazado_1064356" data-name="Trazado 1064356" d="M151.892,35.262H150.13V29.069L147.207,34,144.4,29.023v6.239h-1.764V25.983h2.03l2.575,4.6,2.691-4.6h1.96Z" transform="translate(-48.804 -8.89)" fill="#fff"/>
            <path id="Trazado_1064357" data-name="Trazado 1064357" d="M165.627,35.268h-6.275V26h1.833v7.527h4.442Z" transform="translate(-54.523 -8.896)" fill="#fff"/>
            <path id="Trazado_1064358" data-name="Trazado 1064358" d="M263.812,108.76a21.733,21.733,0,1,1-21.734-21.733,21.733,21.733,0,0,1,21.734,21.733" transform="translate(-75.392 -29.777)" fill="#00a4e8"/>
            <path id="Trazado_1064359" data-name="Trazado 1064359" d="M267.921,111.83l.4,3.531,6.661,6.328-8.751,1.045,8.96,7.047a21.638,21.638,0,0,0,4.321-13.008,21.92,21.92,0,0,0-.226-3.11l-4.088-3.215Z" transform="translate(-91.092 -37.791)" fill="#0079a7"/>
            <path id="Trazado_1064360" data-name="Trazado 1064360" d="M257.352,110.45l-7.278,1.381.4,3.531,6.661,6.328-8.751,1.045,15.382,12.1a21.769,21.769,0,0,0,8.879-12.358Z" transform="translate(-84.986 -37.791)" fill="#0079a7"/>
            <path id="Trazado_1064361" data-name="Trazado 1064361" d="M262.568,129.244l-24.105-18.956-10.126,2.442,1.064,9.95,19.549,15.374a21.73,21.73,0,0,0,13.619-8.809" transform="translate(-78.126 -37.736)" fill="#0079a7"/>
            <path id="Trazado_1064362" data-name="Trazado 1064362" d="M239.318,120.807a8.091,8.091,0,0,1-2.643,2.106,7.5,7.5,0,0,1-3.424.782,7.874,7.874,0,0,1-5.5-2.2,7.511,7.511,0,0,1-1.653-2.389,7.51,7.51,0,0,1,0-5.9,7.574,7.574,0,0,1,4.119-4.006,7.928,7.928,0,0,1,3.034-.581,7.519,7.519,0,0,1,3.424.781,7.916,7.916,0,0,1,2.588,2.034l-1.943,2a5.1,5.1,0,0,0-1.735-1.553,4.9,4.9,0,0,0-4.25-.2,5.11,5.11,0,0,0-1.571,1.054,4.989,4.989,0,0,0-1.063,1.544,4.683,4.683,0,0,0,0,3.742,4.978,4.978,0,0,0,1.063,1.543,5.1,5.1,0,0,0,1.571,1.054,4.756,4.756,0,0,0,1.917.391,4.614,4.614,0,0,0,2.379-.609,5.4,5.4,0,0,0,1.726-1.608Z" transform="translate(-77.154 -37.164)" fill="#fff"/>
            <path id="Trazado_1064363" data-name="Trazado 1064363" d="M258.067,119.6a3.534,3.534,0,0,1-.355,1.553,4.109,4.109,0,0,1-.989,1.3,4.955,4.955,0,0,1-1.508.9,5.318,5.318,0,0,1-1.925.335,11.714,11.714,0,0,1-1.7-.109,7.347,7.347,0,0,1-1.416-.344,6.755,6.755,0,0,1-1.272-.609,11.836,11.836,0,0,1-1.262-.9l2-2.016a5.721,5.721,0,0,0,1.707,1.027,5.374,5.374,0,0,0,1.817.3,2.327,2.327,0,0,0,.754-.119,2.089,2.089,0,0,0,.618-.317,1.566,1.566,0,0,0,.418-.472,1.2,1.2,0,0,0,.154-.6,1.452,1.452,0,0,0-.127-.618,1.507,1.507,0,0,0-.455-.528,4.6,4.6,0,0,0-.908-.517q-.58-.262-1.489-.59a13.741,13.741,0,0,1-1.535-.664,5.341,5.341,0,0,1-1.29-.9,4.114,4.114,0,0,1-.89-1.235,3.86,3.86,0,0,1-.335-1.671,3.908,3.908,0,0,1,.372-1.708,4,4,0,0,1,1.018-1.335,4.728,4.728,0,0,1,1.507-.864,5.5,5.5,0,0,1,1.862-.308,7.933,7.933,0,0,1,2.816.435,6.152,6.152,0,0,1,2.035,1.272l-1.962,1.981a3.918,3.918,0,0,0-1.217-.81,4.06,4.06,0,0,0-1.58-.281,2.288,2.288,0,0,0-.772.126,2.039,2.039,0,0,0-.608.336,1.671,1.671,0,0,0-.409.491,1.205,1.205,0,0,0-.155.589,1.343,1.343,0,0,0,.146.628,1.673,1.673,0,0,0,.49.545,4.882,4.882,0,0,0,.917.527q.572.262,1.426.572a10.879,10.879,0,0,1,1.871.836,5.208,5.208,0,0,1,1.272,1,3.543,3.543,0,0,1,.727,1.226,4.678,4.678,0,0,1,.236,1.535" transform="translate(-84.731 -37.155)" fill="#fff"/>
            <path id="Trazado_1064364" data-name="Trazado 1064364" d="M275.85,119.6a3.534,3.534,0,0,1-.355,1.553,4.1,4.1,0,0,1-.99,1.3,4.944,4.944,0,0,1-1.508.9,5.319,5.319,0,0,1-1.926.335,11.71,11.71,0,0,1-1.7-.109,7.354,7.354,0,0,1-1.417-.344,6.8,6.8,0,0,1-1.272-.609,11.9,11.9,0,0,1-1.262-.9l2-2.016a5.715,5.715,0,0,0,1.708,1.027,5.369,5.369,0,0,0,1.817.3,2.326,2.326,0,0,0,.753-.119,2.1,2.1,0,0,0,.618-.317,1.574,1.574,0,0,0,.418-.472,1.208,1.208,0,0,0,.153-.6,1.442,1.442,0,0,0-.127-.618,1.5,1.5,0,0,0-.454-.528,4.6,4.6,0,0,0-.909-.517q-.581-.262-1.49-.59a13.826,13.826,0,0,1-1.534-.664,5.337,5.337,0,0,1-1.289-.9,4.1,4.1,0,0,1-.89-1.235,3.851,3.851,0,0,1-.337-1.671,3.909,3.909,0,0,1,.373-1.708,4,4,0,0,1,1.017-1.335,4.739,4.739,0,0,1,1.508-.864,5.5,5.5,0,0,1,1.861-.308,7.937,7.937,0,0,1,2.816.435,6.158,6.158,0,0,1,2.035,1.272l-1.962,1.981a3.926,3.926,0,0,0-1.217-.81,4.063,4.063,0,0,0-1.581-.281,2.285,2.285,0,0,0-.772.126,2.043,2.043,0,0,0-.608.336,1.658,1.658,0,0,0-.409.491,1.212,1.212,0,0,0-.155.589,1.358,1.358,0,0,0,.145.628,1.686,1.686,0,0,0,.491.545,4.861,4.861,0,0,0,.917.527q.572.262,1.426.572a10.847,10.847,0,0,1,1.87.836,5.229,5.229,0,0,1,1.273,1,3.564,3.564,0,0,1,.727,1.226,4.714,4.714,0,0,1,.236,1.535" transform="translate(-90.815 -37.155)" fill="#fff"/>
            <path id="Trazado_1064365" data-name="Trazado 1064365" d="M43.467,108.76A21.734,21.734,0,1,1,21.733,87.027,21.734,21.734,0,0,1,43.467,108.76" transform="translate(0 -29.777)" fill="#f27c00"/>
            <path id="Trazado_1064366" data-name="Trazado 1064366" d="M11.715,120.486l-4.321.835,21.987,17.27a21.583,21.583,0,0,0,4.817-1.8l3.414-5.167L13.235,112.481Z" transform="translate(-2.53 -38.486)" fill="#ae5d00"/>
            <path id="Trazado_1064367" data-name="Trazado 1064367" d="M55.449,122.605,42.41,112.364l-3.1,7.594-2.464,2.248L49.994,132.5a21.682,21.682,0,0,0,5.454-9.892" transform="translate(-12.608 -38.446)" fill="#ae5d00"/>
            <path id="Trazado_1064368" data-name="Trazado 1064368" d="M58.06,119.387l-9.007-7.074-3.665,7.628-2.464,2.248,10.758,8.423a21.622,21.622,0,0,0,4.377-11.224" transform="translate(-14.687 -38.428)" fill="#ae5d00"/>
            <path id="Trazado_1064369" data-name="Trazado 1064369" d="M45.517,129.737l-14.24-11.184-.233-.182-.189-.149-.187-.139-7.336-5.769-3.664,7.627L17.2,122.188l19.258,15.077a21.8,21.8,0,0,0,9.055-7.527" transform="translate(-5.886 -38.428)" fill="#ae5d00"/>
            <path id="Trazado_1064370" data-name="Trazado 1064370" d="M13.219,118.876a3.52,3.52,0,0,1-.351,1.658,3.359,3.359,0,0,1-.854,1.07,3.149,3.149,0,0,1-1.076.577,3.614,3.614,0,0,1-1.026.172,3.388,3.388,0,0,1-1.592-.393,3.76,3.76,0,0,1-1.26-1.044l1.253-1.243a1.767,1.767,0,0,0,.64.616,1.65,1.65,0,0,0,.81.22,1.541,1.541,0,0,0,.554-.1,1.566,1.566,0,0,0,.485-.3,1.471,1.471,0,0,0,.344-.48,1.573,1.573,0,0,0,.129-.652v-6.626h1.942Z" transform="translate(-2.416 -38.44)" fill="#fff"/>
            <path id="Trazado_1064371" data-name="Trazado 1064371" d="M28.006,122.164H25.917l-.91-1.968H20.238l-.922,1.968h-2.09l4.646-9.835H23.36Zm-3.749-3.553-1.635-3.541-1.659,3.541Z" transform="translate(-5.894 -38.434)" fill="#fff"/>
            <path id="Trazado_1064372" data-name="Trazado 1064372" d="M40.465,112.33l-3.723,9.835H34.995l-3.81-9.835H33.3l2.558,6.909,2.519-6.909Z" transform="translate(-10.67 -38.434)" fill="#fff"/>
            <path id="Trazado_1064373" data-name="Trazado 1064373" d="M53.643,122.164H51.554l-.91-1.968H45.875l-.922,1.968H42.863l4.646-9.835H49Zm-3.749-3.553L48.26,115.07l-1.66,3.541Z" transform="translate(-14.666 -38.434)" fill="#fff"/>
            <rect id="Rectángulo_423824" data-name="Rectángulo 423824" width="5.873" height="42.79" transform="translate(93.202 158.299)" fill="#757474"/>
            <rect id="Rectángulo_423825" data-name="Rectángulo 423825" width="7.48" height="18.022" transform="translate(92.398 193.492)" fill="#464545"/>
            <rect id="Rectángulo_423826" data-name="Rectángulo 423826" width="9.35" height="15.169" transform="translate(91.462 198.484)" fill="#2e2e2d"/>
            <path id="Trazado_1064374" data-name="Trazado 1064374" d="M141.41,230.813a.87.87,0,0,1,0-1.7h5.755a.871.871,0,0,1,0,1.7Z" transform="translate(-48.148 -78.391)" fill="#222221"/>
            <path id="Trazado_1064375" data-name="Trazado 1064375" d="M141.41,233.4a.869.869,0,0,1,0-1.7h5.755a.87.87,0,0,1,0,1.7Z" transform="translate(-48.148 -79.277)" fill="#222221"/>
            <path id="Trazado_1064376" data-name="Trazado 1064376" d="M141.41,235.988a.871.871,0,0,1,0-1.7h5.755a.872.872,0,0,1,0,1.7Z" transform="translate(-48.148 -80.161)" fill="#222221"/>
            <path id="Trazado_1064377" data-name="Trazado 1064377" d="M141.41,238.58a.872.872,0,0,1,0-1.705h5.755a.872.872,0,0,1,0,1.705Z" transform="translate(-48.148 -81.048)" fill="#222221"/>
            <path id="Trazado_1064378" data-name="Trazado 1064378" d="M141.41,241.168a.869.869,0,0,1,0-1.7h5.755a.87.87,0,0,1,0,1.7Z" transform="translate(-48.148 -81.935)" fill="#222221"/>
            <path id="Trazado_1064379" data-name="Trazado 1064379" d="M141.41,243.758a.872.872,0,0,1,0-1.705h5.755a.872.872,0,0,1,0,1.705Z" transform="translate(-48.148 -82.82)" fill="#222221"/>
            <path id="Trazado_1064380" data-name="Trazado 1064380" d="M160.6,175.376a31.518,31.518,0,0,1-61.544,0c-3.633-15.153,9.989-32.36,30.772-32.376,20.783.016,34.4,17.222,30.772,32.376" transform="translate(-33.693 -48.928)" fill="#2e2e2d"/>
            <path id="Trazado_1064381" data-name="Trazado 1064381" d="M161.087,260.4c-.474-3.271-3.023-6.626-5.737-7.3-8.384-2.15-16.966-4.15-25.483-3.8-8.524-.355-17.1,1.645-25.483,3.8-2.714.674-5.266,4.028-5.737,7.3s1.448,4.981,4.33,4a94.228,94.228,0,0,1,26.89-4.781,94.241,94.241,0,0,1,26.891,4.781c2.881.976,4.8-.726,4.329-4" transform="translate(-33.729 -85.287)" fill="#2e2e2d"/>
            <rect id="Rectángulo_423827" data-name="Rectángulo 423827" width="3.275" height="4.542" transform="translate(121.996 218.047)" fill="#757474"/>
            <path id="Trazado_1064382" data-name="Trazado 1064382" d="M189.6,339.447a3.454,3.454,0,1,1-3.454-3.454,3.455,3.455,0,0,1,3.454,3.454" transform="translate(-62.508 -114.962)" fill="#2e2e2d"/>
            <path id="Trazado_1064383" data-name="Trazado 1064383" d="M183.05,338.525a2.915,2.915,0,0,1,5.688,0h1.087a3.984,3.984,0,0,0-7.864,0Z" transform="translate(-62.259 -114.684)" fill="#222221"/>
            <rect id="Rectángulo_423828" data-name="Rectángulo 423828" width="3.275" height="4.542" transform="translate(67.49 218.047)" fill="#757474"/>
            <path id="Trazado_1064384" data-name="Trazado 1064384" d="M106.742,339.447a3.454,3.454,0,1,1-3.458-3.454,3.455,3.455,0,0,1,3.458,3.454" transform="translate(-34.158 -114.962)" fill="#2e2e2d"/>
            <path id="Trazado_1064385" data-name="Trazado 1064385" d="M100.192,338.525a2.915,2.915,0,0,1,5.688,0h1.09a3.983,3.983,0,0,0-7.862,0Z" transform="translate(-33.91 -114.684)" fill="#222221"/>
            <path id="Trazado_1064386" data-name="Trazado 1064386" d="M175.08,328.339c0,1.327-24.332-1.238-26.735-1.238S144,326.025,144,324.7s1.945-2.4,4.343-2.4,26.735,4.71,26.735,6.036" transform="translate(-49.271 -110.278)" fill="#2e2e2d"/>
            <path id="Trazado_1064387" data-name="Trazado 1064387" d="M101.038,328.339c0,1.327,24.332-1.238,26.732-1.238s4.344-1.076,4.344-2.4-1.942-2.4-4.344-2.4-26.732,4.71-26.732,6.036" transform="translate(-34.571 -110.278)" fill="#2e2e2d"/>
            <rect id="Rectángulo_423829" data-name="Rectángulo 423829" width="3.275" height="5.03" transform="translate(94.649 224.102)" fill="#757474"/>
            <path id="Trazado_1064388" data-name="Trazado 1064388" d="M148.022,349.388a3.454,3.454,0,1,1-3.454-3.454,3.454,3.454,0,0,1,3.454,3.454" transform="translate(-48.283 -118.363)" fill="#2e2e2d"/>
            <path id="Trazado_1064389" data-name="Trazado 1064389" d="M141.477,348.466a2.917,2.917,0,0,1,5.69,0h1.087a3.984,3.984,0,0,0-7.864,0Z" transform="translate(-48.035 -118.086)" fill="#222221"/>
            <path id="Trazado_1064390" data-name="Trazado 1064390" d="M147.542,316.359a14.457,14.457,0,0,1-5.667-.287c.124,3.269.422,11.416,1.324,16.318.425,2.306,2.878,2.327,3.234.064a135.687,135.687,0,0,0,1.11-16.1" transform="translate(-48.543 -108.146)" fill="#2e2e2d"/>
            <rect id="Rectángulo_423830" data-name="Rectángulo 423830" width="28.613" height="39.346" transform="translate(81.881 73.431)" fill="#411a0d"/>
            <rect id="Rectángulo_423831" data-name="Rectángulo 423831" width="7.214" height="7.68" transform="translate(92.254 92.965)" fill="#f7b97e"/>
            <path id="Trazado_1064391" data-name="Trazado 1064391" d="M149.135,190.787l1.9-20.176V154.923l-1.9-1.543-7.483-1.478h-6.573l-7.48,1.478-1.91,1.067v16.165l1.9,20.176-4.309,23.41h30.159Z" transform="translate(-42.182 -51.974)" fill="#dd1a1e"/>
            <path id="Trazado_1064392" data-name="Trazado 1064392" d="M165.463,156.489v12.992L178.212,193.6l8.659,2.425Z" transform="translate(-56.614 -53.543)" fill="#f7b97e"/>
            <path id="Trazado_1064393" data-name="Trazado 1064393" d="M158.9,97.813s2.875-.105,3.248,4.334,2.44,19.405-9.47,25.8c0,0-3.532-24.595,6.223-30.135" transform="translate(-52.025 -33.467)" fill="#411a0d"/>
            <path id="Trazado_1064394" data-name="Trazado 1064394" d="M148.415,95.007s-1.7-5.394-10.832-5.394S115.51,96.3,124.4,116.887a18.246,18.246,0,0,0,9.633,9.272Z" transform="translate(-41.543 -30.662)" fill="#411a0d"/>
            <path id="Trazado_1064395" data-name="Trazado 1064395" d="M164.563,123.813h.526c.528,0,.9-.924,1.06-1.384a11.734,11.734,0,0,0,.555-2.287c.064-.569-.112-1.545-.839-1.545a1.673,1.673,0,0,0-1.3.851Z" transform="translate(-56.306 -40.579)" fill="#ffc994"/>
            <path id="Trazado_1064396" data-name="Trazado 1064396" d="M124.671,123.813h-.52c-.535,0-.907-.924-1.066-1.384a11.454,11.454,0,0,1-.551-2.287c-.067-.569.107-1.545.835-1.545a1.669,1.669,0,0,1,1.3.851Z" transform="translate(-41.921 -40.579)" fill="#ffc994"/>
            <path id="Trazado_1064397" data-name="Trazado 1064397" d="M151.186,103.253a11.48,11.48,0,0,0-4.931-7.807,14.476,14.476,0,0,0-8.043-2.146h-.232a14.468,14.468,0,0,0-8.046,2.146A11.48,11.48,0,0,0,125,103.253s-1.878,7.8,1.373,14.912a16.759,16.759,0,0,0,5.249,7.131c2.532,2.142,4.333,2.861,6.442,2.861l.026,0,.026,0c2.113,0,3.914-.719,6.445-2.861a16.784,16.784,0,0,0,5.249-7.131c3.249-7.112,1.373-14.912,1.373-14.912" transform="translate(-42.586 -31.923)" fill="#ffc994"/>
            <path id="Trazado_1064398" data-name="Trazado 1064398" d="M150.758,108.81a5.782,5.782,0,0,0,.853,2.178s0-1.013,0-2.083c.237-1.637,1.252-10.8-4.514-14.926-5.873-4.206-9.939-3.749-14.113-1.772-4.025.983-9,4.291-8.861,14.664v4.079a7.325,7.325,0,0,0,1.021-3.258h12.835v-6.2a20.981,20.981,0,0,0,9.569,7.576s-4.757-3.379-5.231-7.879c0,0,.687,4.149,8.445,7.619" transform="translate(-42.467 -31.05)" fill="#5f2515"/>
            <path id="Trazado_1064399" data-name="Trazado 1064399" d="M151.223,118.622a19.335,19.335,0,0,0-3.1-.837,5.508,5.508,0,0,0-.581-.1,12.743,12.743,0,0,0-2.757-.139c-3.421.234-4.535,1.382-4.881,1.961h-2.22c-.347-.579-1.46-1.727-4.879-1.961a12.763,12.763,0,0,0-2.761.139c-.216.027-.4.059-.572.1a19.568,19.568,0,0,0-3.107.84l-.268.1.563,1.1.087.088.107-.045c.035-.015.445-.194.641-.266a9.531,9.531,0,0,0-.144,2.063c0,3.231,1.451,3.494,4.312,3.494,2.287,0,5.243.39,6.015-2.387a4.871,4.871,0,0,0,.186-2.11h1.864a4.874,4.874,0,0,0,.182,2.11c.775,2.777,3.729,2.387,6.021,2.387,2.858,0,4.31-.264,4.31-3.494a9.75,9.75,0,0,0-.142-2.066c.185.072.494.2.582.231l.113.047.685-1.155Zm-13.916,3.864c-.7,2.718-3.535,2.307-5.743,2.307-2.639,0-3.818-.062-3.818-3.281,0-1.41,0-2.354.466-2.908a12.724,12.724,0,0,1,4.546-.619,7.494,7.494,0,0,1,3.994,1.178,2.45,2.45,0,0,1,.422.505,3.639,3.639,0,0,1,.134,2.818m8.716,2.311c-2.2,0-5.017.4-5.717-2.33a3.671,3.671,0,0,1,.13-2.833,2.48,2.48,0,0,1,.405-.5,7.413,7.413,0,0,1,4-1.2c.222-.016.445-.025.67-.025a13.3,13.3,0,0,1,3.859.652c.457.557.457,1.5.457,2.921,0,3.24-1.17,3.311-3.8,3.311" transform="translate(-43.145 -40.211)" fill="#201f1e"/>
            <path id="Trazado_1064400" data-name="Trazado 1064400" d="M123.422,246.608v6.914a3.787,3.787,0,0,0,3.971,3.568h21.951a3.784,3.784,0,0,0,3.966-3.568v-6.914Z" transform="translate(-42.229 -84.378)" fill="#1b1b23"/>
            <path id="Trazado_1064401" data-name="Trazado 1064401" d="M158.446,304.532l3.425-54.96a6.892,6.892,0,0,0-13.757,0l3.427,54.96Z" transform="translate(-50.678 -83.18)" fill="#292936"/>
            <path id="Trazado_1064402" data-name="Trazado 1064402" d="M135.5,304.532l3.431-54.96a6.893,6.893,0,0,0-13.76,0l3.428,54.96Z" transform="translate(-42.828 -83.18)" fill="#292936"/>
            <path id="Trazado_1064403" data-name="Trazado 1064403" d="M135.148,333.5h-6.526s-6.419,12.853-3.06,12.853h12.65c3.118,0-2.846-11.942-2.846-11.942Z" transform="translate(-42.629 -114.107)" fill="#c18b52"/>
            <path id="Trazado_1064404" data-name="Trazado 1064404" d="M139.11,349.983a11.788,11.788,0,0,0-14.506.049c.061.688.347,1.113.954,1.113h12.654c.6,0,.861-.445.9-1.162" transform="translate(-42.634 -118.903)" fill="#45140d"/>
            <path id="Trazado_1064405" data-name="Trazado 1064405" d="M137.774,314.686h-8.72l.731,14.434,7.316.12Z" transform="translate(-44.157 -107.671)" fill="#c18b52"/>
            <path id="Trazado_1064406" data-name="Trazado 1064406" d="M135.46,329s.017-9.655,2.156-15.746c.506-1.431-1.5-2.295-3.852-2.295-1.884,0-5,.234-4.373,2.295A30.789,30.789,0,0,1,130.9,329a4.322,4.322,0,0,0,4.555,0" transform="translate(-44.243 -106.395)" fill="#8c5139"/>
            <path id="Trazado_1064407" data-name="Trazado 1064407" d="M136.829,336.92a6.6,6.6,0,0,1-1.278-.322,11.888,11.888,0,0,1-1.214-.491,11.644,11.644,0,0,1-1.17-.624,7.316,7.316,0,0,1-1.106-.794,6.754,6.754,0,0,1,1.277.324,12.172,12.172,0,0,1,1.214.489,12.929,12.929,0,0,1,1.168.626,7.849,7.849,0,0,1,1.109.793" transform="translate(-45.185 -114.515)" fill="#2e0d04"/>
            <path id="Trazado_1064408" data-name="Trazado 1064408" d="M132.06,336.92a7.758,7.758,0,0,1,1.107-.793,12.452,12.452,0,0,1,1.17-.626,12.107,12.107,0,0,1,1.214-.489,6.741,6.741,0,0,1,1.277-.324,7.369,7.369,0,0,1-1.109.794,12.373,12.373,0,0,1-2.382,1.116,6.58,6.58,0,0,1-1.277.322" transform="translate(-45.185 -114.515)" fill="#45140d"/>
            <path id="Trazado_1064409" data-name="Trazado 1064409" d="M136.961,333.05a8.273,8.273,0,0,1-1.407-.318c-.46-.143-.91-.3-1.359-.489s-.878-.395-1.308-.628a8.761,8.761,0,0,1-1.258-.8,8.268,8.268,0,0,1,1.408.316c.459.145.914.305,1.356.494s.883.4,1.312.624a8.722,8.722,0,0,1,1.257.8" transform="translate(-45.038 -113.192)" fill="#2e0d04"/>
            <path id="Trazado_1064410" data-name="Trazado 1064410" d="M131.628,333.05a8.8,8.8,0,0,1,1.258-.8c.43-.229.87-.439,1.309-.624s.9-.349,1.358-.494a8.347,8.347,0,0,1,1.407-.316,8.748,8.748,0,0,1-1.256.8,14.086,14.086,0,0,1-1.312.628c-.442.186-.9.347-1.358.489a8.11,8.11,0,0,1-1.405.318" transform="translate(-45.037 -113.192)" fill="#45140d"/>
            <path id="Trazado_1064411" data-name="Trazado 1064411" d="M137.073,328.87a9.3,9.3,0,0,1-1.517-.319c-.5-.141-.991-.3-1.471-.488s-.962-.395-1.431-.626a9.987,9.987,0,0,1-1.381-.8,9.39,9.39,0,0,1,1.52.315c.5.143.985.3,1.471.492s.96.395,1.43.627a9.623,9.623,0,0,1,1.379.8" transform="translate(-44.916 -111.76)" fill="#2e0d04"/>
            <path id="Trazado_1064412" data-name="Trazado 1064412" d="M131.273,328.87a9.728,9.728,0,0,1,1.382-.8c.468-.232.948-.442,1.43-.627s.974-.349,1.472-.492a9.4,9.4,0,0,1,1.516-.315,9.878,9.878,0,0,1-1.378.8c-.47.232-.948.442-1.431.626s-.974.347-1.471.488a9.321,9.321,0,0,1-1.52.319" transform="translate(-44.916 -111.76)" fill="#45140d"/>
            <path id="Trazado_1064413" data-name="Trazado 1064413" d="M137.152,324.69a10.394,10.394,0,0,1-1.6-.318c-.523-.138-1.037-.3-1.549-.488s-1.014-.393-1.512-.628a10.445,10.445,0,0,1-1.465-.8,9.954,9.954,0,0,1,1.6.317c.524.14,1.038.3,1.55.489s1.014.393,1.514.627a10.858,10.858,0,0,1,1.463.8" transform="translate(-44.832 -110.33)" fill="#2e0d04"/>
            <path id="Trazado_1064414" data-name="Trazado 1064414" d="M131.028,324.69a10.683,10.683,0,0,1,1.465-.8c.5-.234,1-.442,1.512-.627s1.026-.349,1.549-.489a9.934,9.934,0,0,1,1.6-.317,10.573,10.573,0,0,1-1.463.8c-.5.235-1.005.446-1.514.628s-1.026.35-1.549.488a10.4,10.4,0,0,1-1.6.318" transform="translate(-44.832 -110.33)" fill="#45140d"/>
            <path id="Trazado_1064415" data-name="Trazado 1064415" d="M137.263,320.527a11.632,11.632,0,0,1-1.708-.312c-.56-.143-1.118-.3-1.667-.489s-1.093-.395-1.633-.627a12.055,12.055,0,0,1-1.587-.8,11.506,11.506,0,0,1,1.714.315c.557.139,1.115.3,1.664.488s1.092.395,1.633.627a12.827,12.827,0,0,1,1.584.8" transform="translate(-44.708 -108.906)" fill="#2e0d04"/>
            <path id="Trazado_1064416" data-name="Trazado 1064416" d="M130.667,320.527a13.276,13.276,0,0,1,1.589-.8c.537-.232,1.083-.441,1.63-.627s1.107-.349,1.668-.488a11.545,11.545,0,0,1,1.708-.315,11.513,11.513,0,0,1-1.583.8c-.54.232-1.08.443-1.633.627s-1.107.346-1.665.489a11.638,11.638,0,0,1-1.714.312" transform="translate(-44.708 -108.906)" fill="#45140d"/>
            <path id="Trazado_1064417" data-name="Trazado 1064417" d="M137.447,340.38a8.955,8.955,0,0,0-1.8-.866,5.714,5.714,0,0,0-1.868-.29,6.236,6.236,0,0,0-1.873.316,8.5,8.5,0,0,0-1.812.841,5.1,5.1,0,0,1,1.711-1.271,4.831,4.831,0,0,1,1.968-.462,4.509,4.509,0,0,1,1.974.438,5.351,5.351,0,0,1,1.7,1.3" transform="translate(-44.511 -115.87)" fill="#45140d"/>
            <path id="Trazado_1064418" data-name="Trazado 1064418" d="M158.093,333.5h-6.526s-6.422,12.853-3.066,12.853h12.653c3.121,0-2.847-11.942-2.847-11.942Z" transform="translate(-50.478 -114.107)" fill="#c18b52"/>
            <path id="Trazado_1064419" data-name="Trazado 1064419" d="M162.05,349.983a11.784,11.784,0,0,0-14.5.049c.064.688.347,1.113.954,1.113h12.656c.6,0,.861-.445.893-1.162" transform="translate(-50.484 -118.903)" fill="#45140d"/>
            <path id="Trazado_1064420" data-name="Trazado 1064420" d="M160.717,314.686H152l.734,14.434,7.309.12Z" transform="translate(-52.007 -107.671)" fill="#c18b52"/>
            <path id="Trazado_1064421" data-name="Trazado 1064421" d="M158.4,329s.017-9.655,2.156-15.746c.5-1.431-1.5-2.295-3.856-2.295-1.881,0-4.994.234-4.37,2.295A30.821,30.821,0,0,1,153.847,329a4.321,4.321,0,0,0,4.555,0" transform="translate(-52.094 -106.395)" fill="#8c5139"/>
            <path id="Trazado_1064422" data-name="Trazado 1064422" d="M159.772,336.92a6.55,6.55,0,0,1-1.278-.322,12.114,12.114,0,0,1-1.216-.491,12.446,12.446,0,0,1-1.168-.624,7.2,7.2,0,0,1-1.1-.794,6.627,6.627,0,0,1,1.272.324,11.862,11.862,0,0,1,1.214.489,12.458,12.458,0,0,1,1.171.626,7.817,7.817,0,0,1,1.11.793" transform="translate(-53.036 -114.515)" fill="#2e0d04"/>
            <path id="Trazado_1064423" data-name="Trazado 1064423" d="M155.006,336.92a7.626,7.626,0,0,1,1.1-.793c.387-.232.774-.439,1.168-.626a12.475,12.475,0,0,1,1.216-.489,6.7,6.7,0,0,1,1.278-.324,7.375,7.375,0,0,1-1.11.794,11.87,11.87,0,0,1-1.171.624,11.531,11.531,0,0,1-1.214.491,6.47,6.47,0,0,1-1.272.322" transform="translate(-53.036 -114.515)" fill="#45140d"/>
            <path id="Trazado_1064424" data-name="Trazado 1064424" d="M159.907,333.05a8.084,8.084,0,0,1-1.408-.318c-.462-.143-.913-.3-1.358-.489a14.4,14.4,0,0,1-1.312-.628,8.9,8.9,0,0,1-1.257-.8,8.428,8.428,0,0,1,1.41.316c.454.145.907.305,1.352.494s.885.4,1.312.624a9.289,9.289,0,0,1,1.26.8" transform="translate(-52.888 -113.192)" fill="#2e0d04"/>
            <path id="Trazado_1064425" data-name="Trazado 1064425" d="M154.572,333.05a8.906,8.906,0,0,1,1.257-.8c.431-.229.87-.439,1.312-.624s.9-.349,1.355-.494a8.242,8.242,0,0,1,1.41-.316,9.244,9.244,0,0,1-1.26.8,13.917,13.917,0,0,1-1.312.628c-.445.186-.9.347-1.355.489a8.28,8.28,0,0,1-1.408.318" transform="translate(-52.888 -113.192)" fill="#45140d"/>
            <path id="Trazado_1064426" data-name="Trazado 1064426" d="M160.016,328.87a9.306,9.306,0,0,1-1.52-.319c-.495-.141-.986-.3-1.472-.488s-.956-.395-1.428-.626a10.332,10.332,0,0,1-1.384-.8,9.349,9.349,0,0,1,1.523.315c.494.143.985.3,1.471.492s.957.395,1.428.627a9.69,9.69,0,0,1,1.382.8" transform="translate(-52.764 -111.76)" fill="#2e0d04"/>
            <path id="Trazado_1064427" data-name="Trazado 1064427" d="M154.211,328.87a10.054,10.054,0,0,1,1.385-.8c.47-.232.948-.442,1.427-.627s.978-.349,1.472-.492a9.427,9.427,0,0,1,1.52-.315,9.949,9.949,0,0,1-1.381.8c-.471.232-.945.442-1.428.626s-.978.347-1.471.488a9.3,9.3,0,0,1-1.524.319" transform="translate(-52.764 -111.76)" fill="#45140d"/>
            <path id="Trazado_1064428" data-name="Trazado 1064428" d="M160.094,324.69a10.386,10.386,0,0,1-1.6-.318q-.784-.207-1.55-.488c-.511-.182-1.014-.393-1.511-.628a10.6,10.6,0,0,1-1.466-.8,9.86,9.86,0,0,1,1.6.317c.526.14,1.04.3,1.549.489s1.02.393,1.518.627a10.973,10.973,0,0,1,1.462.8" transform="translate(-52.681 -110.33)" fill="#2e0d04"/>
            <path id="Trazado_1064429" data-name="Trazado 1064429" d="M153.97,324.69a10.847,10.847,0,0,1,1.466-.8q.745-.35,1.511-.627c.509-.188,1.027-.349,1.549-.489a9.962,9.962,0,0,1,1.6-.317,10.721,10.721,0,0,1-1.462.8,16.318,16.318,0,0,1-1.518.628c-.509.186-1.023.35-1.549.488a10.292,10.292,0,0,1-1.6.318" transform="translate(-52.682 -110.33)" fill="#45140d"/>
            <path id="Trazado_1064430" data-name="Trazado 1064430" d="M160.21,320.527a11.51,11.51,0,0,1-1.711-.312c-.561-.143-1.118-.3-1.668-.489s-1.092-.395-1.63-.627a11.549,11.549,0,0,1-1.587-.8,11.475,11.475,0,0,1,1.708.315q.845.208,1.668.488t1.63.627a12.94,12.94,0,0,1,1.589.8" transform="translate(-52.56 -108.906)" fill="#2e0d04"/>
            <path id="Trazado_1064431" data-name="Trazado 1064431" d="M153.614,320.527a12.861,12.861,0,0,1,1.587-.8q.807-.348,1.63-.627c.549-.187,1.106-.349,1.668-.488a11.432,11.432,0,0,1,1.711-.315,11.548,11.548,0,0,1-1.59.8c-.534.232-1.081.443-1.629.627s-1.1.346-1.668.489a11.631,11.631,0,0,1-1.708.312" transform="translate(-52.56 -108.906)" fill="#45140d"/>
            <path id="Trazado_1064432" data-name="Trazado 1064432" d="M160.389,340.38a8.946,8.946,0,0,0-1.806-.866,5.7,5.7,0,0,0-1.864-.29,6.225,6.225,0,0,0-1.873.316,8.572,8.572,0,0,0-1.812.841,5.1,5.1,0,0,1,1.708-1.271,4.856,4.856,0,0,1,1.972-.462,4.5,4.5,0,0,1,1.974.438,5.308,5.308,0,0,1,1.7,1.3" transform="translate(-52.361 -115.87)" fill="#45140d"/>
            <path id="Trazado_1064433" data-name="Trazado 1064433" d="M186.31,214.069,164.136,217.3l-.312-4.246,19.677-3.839Z" transform="translate(-56.053 -71.585)" fill="#f7b97e"/>
            <path id="Trazado_1064434" data-name="Trazado 1064434" d="M154.768,215.514a.66.66,0,1,0-.1-1.317l-5.44.4a.662.662,0,1,0,.1,1.32Z" transform="translate(-50.85 -73.288)" fill="#f7b97e"/>
            <path id="Trazado_1064435" data-name="Trazado 1064435" d="M159.961,213.446c.4.231,1.847.1,2.072-.572l-3.219-1.892a.72.72,0,0,0-1.041.281.9.9,0,0,0,.391,1.114Z" transform="translate(-53.959 -72.149)" fill="#f7b97e"/>
            <path id="Trazado_1064436" data-name="Trazado 1064436" d="M154.473,217.722a.66.66,0,0,0,.612-.707.666.666,0,0,0-.71-.613l-6.278.462a.661.661,0,1,0,.1,1.318Z" transform="translate(-50.462 -74.042)" fill="#f7b97e"/>
            <path id="Trazado_1064437" data-name="Trazado 1064437" d="M154.915,219.925a.661.661,0,1,0-.1-1.318l-5.783.426a.661.661,0,1,0,.1,1.318Z" transform="translate(-50.783 -74.797)" fill="#f7b97e"/>
            <path id="Trazado_1064438" data-name="Trazado 1064438" d="M155.951,221.863a.526.526,0,1,0-.078-1.049l-4.544.336a.527.527,0,0,0-.488.561.533.533,0,0,0,.566.487Z" transform="translate(-51.611 -75.552)" fill="#f7b97e"/>
            <path id="Trazado_1064439" data-name="Trazado 1064439" d="M156.167,214.129l4.965-.366a.567.567,0,0,1,.641.482l.321,4.362a.569.569,0,0,1-.564.567l-4.968.366Z" transform="translate(-53.433 -73.139)" fill="#f7b97e"/>
            <path id="Trazado_1064440" data-name="Trazado 1064440" d="M115.789,156.489v12.992L103.044,193.6l-8.662,2.425Z" transform="translate(-32.293 -53.543)" fill="#f7b97e"/>
            <path id="Trazado_1064441" data-name="Trazado 1064441" d="M94.381,214.069l22.174,3.235.312-4.246-19.674-3.839Z" transform="translate(-32.293 -71.585)" fill="#f7b97e"/>
            <path id="Trazado_1064442" data-name="Trazado 1064442" d="M134.1,215.514a.66.66,0,1,1,.1-1.317l5.44.4a.667.667,0,0,1,.612.71.66.66,0,0,1-.708.61Z" transform="translate(-45.674 -73.288)" fill="#f7b97e"/>
            <path id="Trazado_1064443" data-name="Trazado 1064443" d="M130.173,213.446c-.393.231-1.847.1-2.072-.572l3.219-1.892a.715.715,0,0,1,1.037.281.887.887,0,0,1-.387,1.114Z" transform="translate(-43.83 -72.149)" fill="#f7b97e"/>
            <path id="Trazado_1064444" data-name="Trazado 1064444" d="M133.96,217.722a.662.662,0,0,1,.1-1.32l6.278.462a.661.661,0,0,1-.1,1.318Z" transform="translate(-45.626 -74.042)" fill="#f7b97e"/>
            <path id="Trazado_1064445" data-name="Trazado 1064445" d="M133.778,219.925a.661.661,0,1,1,.093-1.318l5.789.426a.661.661,0,1,1-.1,1.318Z" transform="translate(-45.562 -74.797)" fill="#f7b97e"/>
            <path id="Trazado_1064446" data-name="Trazado 1064446" d="M133.527,221.863a.526.526,0,1,1,.075-1.049l4.546.336a.518.518,0,0,1,.482.561.525.525,0,0,1-.56.487Z" transform="translate(-45.519 -75.552)" fill="#f7b97e"/>
            <path id="Trazado_1064447" data-name="Trazado 1064447" d="M133.136,214.129l-4.968-.366a.567.567,0,0,0-.639.482l-.321,4.362a.572.572,0,0,0,.566.567l4.965.366Z" transform="translate(-43.525 -73.139)" fill="#f7b97e"/>
            <path id="Trazado_1064448" data-name="Trazado 1064448" d="M125.2,121.069a19.508,19.508,0,0,1-1.081-3.008h-.485c-.532,0-.905-.924-1.061-1.384a11.34,11.34,0,0,1-.552-2.287c-.066-.57.109-1.545.835-1.545a.569.569,0,0,1,.072.011v-2.209h0a19.482,19.482,0,0,1,1.639-8.846c0-.007,0-.012.006-.014s-3.422,1.411-3.422,6.681V123.8c0,8.079,4.121,17.012,1.641,21.511,0,0,11.373,2.158,12.032-14.525a11.837,11.837,0,0,1-4.381-2.59,16.758,16.758,0,0,1-5.246-7.131" transform="translate(-41.452 -34.827)" fill="#411a0d"/>
            <rect id="Rectángulo_423832" data-name="Rectángulo 423832" width="136.14" height="4.925" transform="translate(26.14 152.092)" fill="#2e2e2d"/>
            <rect id="Rectángulo_423833" data-name="Rectángulo 423833" width="136.14" height="7.788" transform="translate(26.14 144.305)" fill="#d2d1d1"/>
            <g id="Grupo_1229449" data-name="Grupo 1229449" transform="translate(26.14 144.576)" style="mix-blend-mode: multiply;isolation: isolate">
              <g id="Grupo_1229448" data-name="Grupo 1229448">
                <g id="Grupo_1229447" data-name="Grupo 1229447" clip-path="url(#clip-path-3)">
                  <rect id="Rectángulo_423834" data-name="Rectángulo 423834" width="136.14" height="0.488" transform="translate(0 2.142)" fill="#bababa"/>
                  <rect id="Rectángulo_423835" data-name="Rectángulo 423835" width="136.14" height="0.757" transform="translate(0 0.466)" fill="#bababa"/>
                  <rect id="Rectángulo_423836" data-name="Rectángulo 423836" width="136.14" height="0.487" transform="translate(0 5.955)" fill="#bababa"/>
                  <rect id="Rectángulo_423837" data-name="Rectángulo 423837" width="136.14" height="0.216" transform="translate(0 3.893)" fill="#bababa"/>
                  <rect id="Rectángulo_423838" data-name="Rectángulo 423838" width="136.14" height="0.216" transform="translate(0 1.501)" fill="#bababa"/>
                  <rect id="Rectángulo_423839" data-name="Rectángulo 423839" width="136.14" height="0.217" transform="translate(0)" fill="#bababa"/>
                  <rect id="Rectángulo_423840" data-name="Rectángulo 423840" width="136.14" height="0.217" transform="translate(0 6.625)" fill="#bababa"/>
                  <rect id="Rectángulo_423841" data-name="Rectángulo 423841" width="136.14" height="0.218" transform="translate(0 7.029)" fill="#bababa"/>
                  <rect id="Rectángulo_423842" data-name="Rectángulo 423842" width="136.14" height="0.22" transform="translate(0 4.485)" fill="#bababa"/>
                  <rect id="Rectángulo_423843" data-name="Rectángulo 423843" width="136.14" height="0.216" transform="translate(0 5.286)" fill="#bababa"/>
                  <rect id="Rectángulo_423844" data-name="Rectángulo 423844" width="136.14" height="0.405" transform="translate(0 2.954)" fill="#bababa"/>
                </g>
              </g>
            </g>
            <rect id="Rectángulo_423846" data-name="Rectángulo 423846" width="4.925" height="77.178" transform="translate(44.819 152.092)" fill="#272726"/>
            <rect id="Rectángulo_423847" data-name="Rectángulo 423847" width="3.006" height="3.142" transform="translate(45.71 229.271)" fill="#8c8b8b"/>
            <path id="Trazado_1064449" data-name="Trazado 1064449" d="M73.917,355.988H66l2.289-2.694H71.3Z" transform="translate(-22.584 -120.881)" fill="#272726"/>
            <rect id="Rectángulo_423848" data-name="Rectángulo 423848" width="4.925" height="77.178" transform="translate(137.794 152.092)" fill="#272726"/>
            <rect id="Rectángulo_423849" data-name="Rectángulo 423849" width="3.006" height="3.142" transform="translate(138.684 229.271)" fill="#8c8b8b"/>
            <path id="Trazado_1064450" data-name="Trazado 1064450" d="M215.25,355.988h-7.913l2.289-2.694h3.006Z" transform="translate(-70.941 -120.881)" fill="#272726"/>
            <path id="Rectángulo_423850" data-name="Rectángulo 423850" d="M4.857,0H68.185a4.859,4.859,0,0,1,4.859,4.859V38.725a4.856,4.856,0,0,1-4.856,4.856H4.858A4.858,4.858,0,0,1,0,38.723V4.857A4.857,4.857,0,0,1,4.857,0Z" transform="translate(59.58 90.786)" fill="#a3a3a3"/>
            <path id="Trazado_1064451" data-name="Trazado 1064451" d="M153.585,200.836H122.332l6.5-27.871h18.255Z" transform="translate(-41.857 -59.181)" fill="#d2d1d1"/>
            <rect id="Rectángulo_423851" data-name="Rectángulo 423851" width="40.183" height="2.815" transform="translate(76.01 141.49)" fill="#a3a3a3"/>
          </g>
        </g>
      </g>
    </g>
  </g>
</svg>
