<svg xmlns="http://www.w3.org/2000/svg" xmlns:xlink="http://www.w3.org/1999/xlink" width="224.861" height="213.537" viewBox="0 0 224.861 213.537">
  <defs>
    <linearGradient id="linear-gradient" x1="0.5" x2="0.5" y2="1" gradientUnits="objectBoundingBox">
      <stop offset="0" stop-color="#903cdf"/>
      <stop offset="1" stop-color="#481e70"/>
    </linearGradient>
    <clipPath id="clip-path">
      <rect id="Rectángulo_423918" data-name="Rectángulo 423918" width="224.861" height="213.537" fill="none"/>
    </clipPath>
    <clipPath id="clip-path-3">
      <rect id="Rectángulo_423900" data-name="Rectángulo 423900" width="95.362" height="166.275" fill="none"/>
    </clipPath>
  </defs>
  <g id="Grupo_1230152" data-name="Grupo 1230152" transform="translate(-1102.139 -1413.057)">
    <g id="Grupo_1230151" data-name="Grupo 1230151">
      <rect id="Rectángulo_423506" data-name="Rectángulo 423506" width="214" height="56" rx="9" transform="translate(1113 1494)" fill="url(#linear-gradient)"/>
      <g id="Grupo_1229586" data-name="Grupo 1229586" transform="translate(1102.139 1413.057)">
        <g id="Grupo_1229585" data-name="Grupo 1229585" clip-path="url(#clip-path)">
          <g id="Grupo_1229584" data-name="Grupo 1229584">
            <g id="Grupo_1229583" data-name="Grupo 1229583" clip-path="url(#clip-path)">
              <path id="Trazado_1064589" data-name="Trazado 1064589" d="M166.124,181.926H75.181a6.417,6.417,0,0,1-6.417-6.417V13.651a6.417,6.417,0,0,1,6.417-6.417h90.943a6.417,6.417,0,0,1,6.417,6.417V175.509a6.417,6.417,0,0,1-6.417,6.417" transform="translate(-27.436 -2.886)" fill="#430f76"/>
              <path id="Trazado_1064590" data-name="Trazado 1064590" d="M171.129,16.444V178.3a2.214,2.214,0,0,1-2.212,2.212H77.973a2.212,2.212,0,0,1-2.206-2.212V16.444a2.211,2.211,0,0,1,2.206-2.206h90.945a2.212,2.212,0,0,1,2.212,2.206" transform="translate(-30.23 -5.681)" fill="#5c7cef"/>
              <path id="Trazado_1064591" data-name="Trazado 1064591" d="M165.739,78.454a31.65,31.65,0,1,0-31.65,31.65,31.651,31.651,0,0,0,31.65-31.65" transform="translate(-40.872 -18.674)" fill="#fff"/>
              <line id="Línea_4574" data-name="Línea 4574" y1="4.619" transform="translate(92.356 32.616)" fill="none" stroke="#430f76" stroke-linecap="round" stroke-linejoin="round" stroke-width="1"/>
              <path id="Trazado_1064592" data-name="Trazado 1064592" d="M153.957,53.7a.859.859,0,1,0-.859.859.859.859,0,0,0,.859-.859" transform="translate(-60.742 -21.082)" fill="#430f76"/>
              <path id="Trazado_1064593" data-name="Trazado 1064593" d="M157.029,127.721H135.335a2.585,2.585,0,0,1-2.586-2.586v-1.487a2.585,2.585,0,0,1,2.586-2.586h21.695a2.585,2.585,0,0,1,2.586,2.586v1.487a2.585,2.585,0,0,1-2.586,2.586" transform="translate(-52.966 -48.303)" fill="#430f76"/>
              <path id="Trazado_1064594" data-name="Trazado 1064594" d="M154.555,65.941H149.28V62.714a2.048,2.048,0,0,1,2.048-2.048h1.179a2.048,2.048,0,0,1,2.048,2.048Z" transform="translate(-59.561 -24.205)" fill="#89f9db"/>
              <path id="Trazado_1064595" data-name="Trazado 1064595" d="M120.09,97.613h-4.47A3.616,3.616,0,0,1,112,94v-2.08A3.616,3.616,0,0,1,115.62,88.3h4.47Z" transform="translate(-44.689 -35.232)" fill="#89f9db"/>
              <path id="Trazado_1064596" data-name="Trazado 1064596" d="M184.742,97.613h4.47A3.616,3.616,0,0,0,192.828,94v-2.08a3.616,3.616,0,0,0-3.616-3.616h-4.47Z" transform="translate(-73.71 -35.232)" fill="#89f9db"/>
              <path id="Trazado_1064597" data-name="Trazado 1064597" d="M162.384,90.526c0,9.852-9.7,17.846-21.669,17.846a25.834,25.834,0,0,1-3.9-.294c-6.463-.959-11.934-4.295-15.029-8.869a15.148,15.148,0,0,1,.162-17.606l.209.147a5.185,5.185,0,0,0,3.057,3.622A13.779,13.779,0,0,0,130,86.385a175.208,175.208,0,0,0,21.894-.116,9.506,9.506,0,0,0,2.84-.426c2.066-.75,3.336-2.778,4.411-4.705a15.53,15.53,0,0,1,3.235,9.388" transform="translate(-47.498 -32.373)" fill="#e4e5f8"/>
              <path id="Trazado_1064598" data-name="Trazado 1064598" d="M161.075,75.523c-1.076,1.927-2.345,3.955-4.411,4.705a9.482,9.482,0,0,1-2.84.426,175.1,175.1,0,0,1-21.894.116,13.775,13.775,0,0,1-4.79-1.013,5.186,5.186,0,0,1-3.057-3.622l-.209-.147c3.745-5.332,10.749-8.923,18.767-8.923,7.785,0,14.619,3.382,18.434,8.459" transform="translate(-49.425 -26.758)" fill="#361fa0"/>
              <path id="Trazado_1064599" data-name="Trazado 1064599" d="M146.636,105.012a6.623,6.623,0,0,0,10.173.074" transform="translate(-58.506 -41.899)" fill="none" stroke="#430f76" stroke-linecap="round" stroke-linejoin="round" stroke-width="1"/>
              <path id="Trazado_1064600" data-name="Trazado 1064600" d="M139.029,98.385a1.628,1.628,0,1,0-1.628,1.628,1.628,1.628,0,0,0,1.628-1.628" transform="translate(-54.172 -38.605)" fill="#430f76"/>
              <path id="Trazado_1064601" data-name="Trazado 1064601" d="M169.009,98.385a1.628,1.628,0,1,1,1.628,1.628,1.628,1.628,0,0,1-1.628-1.628" transform="translate(-67.433 -38.605)" fill="#430f76"/>
              <path id="Trazado_1064602" data-name="Trazado 1064602" d="M138.632,117.985v2.09c-6.462-.96-11.934-4.3-15.029-8.869h8.25a6.778,6.778,0,0,1,6.779,6.779" transform="translate(-49.316 -44.37)" fill="#5c7cef"/>
              <path id="Trazado_1064603" data-name="Trazado 1064603" d="M161.59,117.985v2.09c6.462-.96,11.934-4.3,15.029-8.869h-8.25a6.778,6.778,0,0,0-6.779,6.779" transform="translate(-64.473 -44.37)" fill="#5c7cef"/>
              <g id="Grupo_1229582" data-name="Grupo 1229582" transform="translate(45.537 8.557)" opacity="0.14">
                <g id="Grupo_1229581" data-name="Grupo 1229581">
                  <g id="Grupo_1229580" data-name="Grupo 1229580" clip-path="url(#clip-path-3)">
                    <path id="Trazado_1064604" data-name="Trazado 1064604" d="M171.129,16.444v69.08l-65.943,94.989H77.973a2.212,2.212,0,0,1-2.206-2.212V127.1L154.319,14.238h14.6a2.212,2.212,0,0,1,2.212,2.206" transform="translate(-75.767 -14.238)" fill="#fff"/>
                  </g>
                </g>
              </g>
              <path id="Trazado_1064605" data-name="Trazado 1064605" d="M82.65,138.45v-7.216a2.18,2.18,0,0,0-3.961-1.257l-6.87,9.731a2.18,2.18,0,0,1-1.781.923H34.782a2.179,2.179,0,0,0-2.179,2.18v28.531a2.179,2.179,0,0,0,2.179,2.18h69.968a2.179,2.179,0,0,0,2.179-2.18V142.81a2.179,2.179,0,0,0-2.179-2.18H84.829a2.18,2.18,0,0,1-2.18-2.18" transform="translate(-13.008 -51.49)" fill="#ff9c00"/>
              <rect id="Rectángulo_423901" data-name="Rectángulo 423901" width="34.803" height="4.767" transform="translate(27.705 96.218)" fill="#361fa0"/>
              <rect id="Rectángulo_423902" data-name="Rectángulo 423902" width="21.444" height="4.767" transform="translate(66.551 96.218)" fill="#5c7cef"/>
              <rect id="Rectángulo_423903" data-name="Rectángulo 423903" width="21.107" height="4.767" transform="translate(27.705 103.569)" fill="#fff"/>
              <rect id="Rectángulo_423904" data-name="Rectángulo 423904" width="24.025" height="4.767" transform="translate(53.248 103.569)" fill="#5c7cef"/>
              <rect id="Rectángulo_423905" data-name="Rectángulo 423905" width="6.393" height="4.767" transform="translate(81.602 103.569)" fill="#fff"/>
              <rect id="Rectángulo_423906" data-name="Rectángulo 423906" width="15.715" height="4.767" transform="translate(27.705 110.922)" fill="#5c7cef"/>
              <rect id="Rectángulo_423907" data-name="Rectángulo 423907" width="22.151" height="4.767" transform="translate(47.49 110.922)" fill="#361fa0"/>
              <rect id="Rectángulo_423908" data-name="Rectángulo 423908" width="13.739" height="4.74" transform="translate(74.256 110.922)" fill="#5c7cef"/>
              <path id="Trazado_1064606" data-name="Trazado 1064606" d="M171.67,201.79v-7.563a2.18,2.18,0,0,0-4.005-1.191l-6.495,9.946a2.178,2.178,0,0,1-1.825.989H125.523a2.18,2.18,0,0,0-2.18,2.18v28.531a2.18,2.18,0,0,0,2.18,2.18h69.968a2.18,2.18,0,0,0,2.18-2.18V206.15a2.18,2.18,0,0,0-2.18-2.18H173.85a2.18,2.18,0,0,1-2.18-2.18" transform="translate(-49.213 -76.623)" fill="#a09c53"/>
              <rect id="Rectángulo_423909" data-name="Rectángulo 423909" width="34.803" height="4.767" transform="translate(106.636 149.361)" fill="#afb4e8"/>
              <rect id="Rectángulo_423910" data-name="Rectángulo 423910" width="21.444" height="4.767" transform="translate(81.149 149.361)" fill="#fff"/>
              <rect id="Rectángulo_423911" data-name="Rectángulo 423911" width="21.107" height="4.767" transform="translate(120.332 142.009)" fill="#361fa0"/>
              <rect id="Rectángulo_423912" data-name="Rectángulo 423912" width="24.025" height="4.767" transform="translate(91.871 142.009)" fill="#5c7cef"/>
              <rect id="Rectángulo_423913" data-name="Rectángulo 423913" width="6.393" height="4.767" transform="translate(81.149 142.009)" fill="#361fa0"/>
              <rect id="Rectángulo_423914" data-name="Rectángulo 423914" width="15.715" height="4.767" transform="translate(125.724 134.657)" fill="#5c7cef"/>
              <rect id="Rectángulo_423915" data-name="Rectángulo 423915" width="22.151" height="4.767" transform="translate(99.502 134.657)" fill="#e4e5f8"/>
              <rect id="Rectángulo_423916" data-name="Rectángulo 423916" width="13.739" height="4.74" transform="translate(81.149 134.684)" fill="#5c7cef"/>
              <path id="Trazado_1064607" data-name="Trazado 1064607" d="M58.616,286.545H12.743A12.743,12.743,0,0,1,0,273.8V233.552a12.743,12.743,0,0,1,12.743-12.743H58.616a12.742,12.742,0,0,1,12.743,12.743V273.8a12.743,12.743,0,0,1-12.743,12.743" transform="translate(0 -88.101)" fill="#361fa0"/>
              <path id="Trazado_1064608" data-name="Trazado 1064608" d="M59.184,280.664H39.139a5.347,5.347,0,0,1-5.347-5.347V255.272a5.347,5.347,0,0,1,5.347-5.347H59.184a5.347,5.347,0,0,1,5.347,5.347v20.045a5.347,5.347,0,0,1-5.347,5.347" transform="translate(-13.483 -99.718)" fill="#fff"/>
              <path id="Trazado_1064609" data-name="Trazado 1064609" d="M59.724,278.178H48.417a2.322,2.322,0,0,1-2.322-2.322V264.549a2.322,2.322,0,0,1,2.322-2.322H59.724a2.322,2.322,0,0,1,2.322,2.322v11.307a2.321,2.321,0,0,1-2.322,2.322" transform="translate(-18.391 -104.626)" fill="#bcf275"/>
              <line id="Línea_4575" data-name="Línea 4575" y1="9.561" transform="translate(26.087 140.645)" fill="none" stroke="#89f9db" stroke-miterlimit="10" stroke-width="4"/>
              <line id="Línea_4576" data-name="Línea 4576" y1="9.561" transform="translate(30.891 140.645)" fill="none" stroke="#89f9db" stroke-miterlimit="10" stroke-width="4"/>
              <line id="Línea_4577" data-name="Línea 4577" y1="9.561" transform="translate(35.695 140.645)" fill="none" stroke="#89f9db" stroke-miterlimit="10" stroke-width="4"/>
              <line id="Línea_4578" data-name="Línea 4578" y1="9.561" transform="translate(40.499 140.645)" fill="none" stroke="#89f9db" stroke-miterlimit="10" stroke-width="4"/>
              <line id="Línea_4579" data-name="Línea 4579" y1="9.561" transform="translate(45.303 140.645)" fill="none" stroke="#89f9db" stroke-miterlimit="10" stroke-width="4"/>
              <line id="Línea_4580" data-name="Línea 4580" x1="9.561" transform="translate(10.748 175.168)" fill="none" stroke="#89f9db" stroke-miterlimit="10" stroke-width="4"/>
              <line id="Línea_4581" data-name="Línea 4581" x1="9.561" transform="translate(10.748 170.364)" fill="none" stroke="#89f9db" stroke-miterlimit="10" stroke-width="4"/>
              <line id="Línea_4582" data-name="Línea 4582" x1="9.561" transform="translate(10.748 165.56)" fill="none" stroke="#89f9db" stroke-miterlimit="10" stroke-width="4"/>
              <line id="Línea_4583" data-name="Línea 4583" x1="9.561" transform="translate(10.748 160.756)" fill="none" stroke="#89f9db" stroke-miterlimit="10" stroke-width="4"/>
              <line id="Línea_4584" data-name="Línea 4584" x1="9.561" transform="translate(10.748 155.952)" fill="none" stroke="#89f9db" stroke-miterlimit="10" stroke-width="4"/>
              <line id="Línea_4585" data-name="Línea 4585" y2="9.561" transform="translate(45.271 180.946)" fill="none" stroke="#89f9db" stroke-miterlimit="10" stroke-width="4"/>
              <line id="Línea_4586" data-name="Línea 4586" y2="9.561" transform="translate(40.467 180.946)" fill="none" stroke="#89f9db" stroke-miterlimit="10" stroke-width="4"/>
              <line id="Línea_4587" data-name="Línea 4587" y2="9.561" transform="translate(35.663 180.946)" fill="none" stroke="#89f9db" stroke-miterlimit="10" stroke-width="4"/>
              <line id="Línea_4588" data-name="Línea 4588" y2="9.561" transform="translate(30.859 180.946)" fill="none" stroke="#89f9db" stroke-miterlimit="10" stroke-width="4"/>
              <line id="Línea_4589" data-name="Línea 4589" y2="9.561" transform="translate(26.055 180.946)" fill="none" stroke="#89f9db" stroke-miterlimit="10" stroke-width="4"/>
              <line id="Línea_4590" data-name="Línea 4590" x2="9.561" transform="translate(51.049 155.984)" fill="none" stroke="#89f9db" stroke-miterlimit="10" stroke-width="4"/>
              <line id="Línea_4591" data-name="Línea 4591" x2="9.561" transform="translate(51.049 160.788)" fill="none" stroke="#89f9db" stroke-miterlimit="10" stroke-width="4"/>
              <line id="Línea_4592" data-name="Línea 4592" x2="9.561" transform="translate(51.049 165.592)" fill="none" stroke="#89f9db" stroke-miterlimit="10" stroke-width="4"/>
              <line id="Línea_4593" data-name="Línea 4593" x2="9.561" transform="translate(51.049 170.396)" fill="none" stroke="#89f9db" stroke-miterlimit="10" stroke-width="4"/>
              <line id="Línea_4594" data-name="Línea 4594" x2="9.561" transform="translate(51.049 175.2)" fill="none" stroke="#89f9db" stroke-miterlimit="10" stroke-width="4"/>
              <path id="Trazado_1064610" data-name="Trazado 1064610" d="M307.813,51.62c1.254,4.5,4.3,8.281,7.553,11.647-7.709,5.085-13.8,12.2-22.08,15.532a.249.249,0,0,1-.069.031c-.317.132-.642.248-.968.372-.038-.085-.078-.163-.108-.248a121.541,121.541,0,0,1-4.6-12.39,5.338,5.338,0,0,1-6.919,1.068,9.842,9.842,0,0,1-1.787-1.664,61.485,61.485,0,0,1-7.6-10.556,20.872,20.872,0,0,0-3.173.828,1.466,1.466,0,0,1-.905.085c-.472-.154-.658-.719-.728-1.215-.534-3.645,1.347-7.329.8-10.974a21.14,21.14,0,0,0-1.084-3.661c-1.262-3.637-2.058-7.623-1.03-11.33,1.555-5.611,7.174-9.473,12.955-10.153s11.6,1.385,16.546,4.458a20.84,20.84,0,0,1,6.068,5.286,22.368,22.368,0,0,1,2.182,3.923,51.949,51.949,0,0,1,3.939,13.265,52.142,52.142,0,0,0,1.006,5.7" transform="translate(-105.591 -7.527)" fill="#ffbea2"/>
              <path id="Trazado_1064611" data-name="Trazado 1064611" d="M316.629,62.053a5.957,5.957,0,0,1-3.917,1.858,2.216,2.216,0,0,1-1.792-.519" transform="translate(-124.054 -24.759)" fill="none" stroke="#430f76" stroke-linecap="round" stroke-linejoin="round" stroke-width="1"/>
              <path id="Trazado_1064612" data-name="Trazado 1064612" d="M308.443,101.527l.046.1a.265.265,0,0,1-.07.031c-.317.132-.642.248-.967.371a120.442,120.442,0,0,1-4.705-12.638A66.4,66.4,0,0,0,312.8,76.081c-.588,8.621-1.207,17.4-4.357,25.446" transform="translate(-120.793 -30.356)" fill="#430f76"/>
              <path id="Trazado_1064613" data-name="Trazado 1064613" d="M272.164,56.353a6.515,6.515,0,0,1,4.123-.885,8.288,8.288,0,0,1,1.709.413,11.634,11.634,0,0,1,1.938.878" transform="translate(-108.591 -22.113)" fill="none" stroke="#430f76" stroke-linecap="round" stroke-linejoin="round" stroke-width="1"/>
              <path id="Trazado_1064614" data-name="Trazado 1064614" d="M276.595,60.342l-.4.728a4.6,4.6,0,0,0,1.96,2.542.719.719,0,0,0,.4.084.687.687,0,0,0,.491-.6,1.961,1.961,0,0,0-.233-1.264,4.064,4.064,0,0,0-.821-1.015,2.14,2.14,0,0,0-.733-.5c-.282-.1-.606-.072-.661.028" transform="translate(-110.199 -24.04)" fill="#430f76"/>
              <path id="Trazado_1064615" data-name="Trazado 1064615" d="M312.831,287.514l-.078.24a163.207,163.207,0,0,0-4.086,15.826l-.24-.054a29.2,29.2,0,0,1-4.6-1.463,16.819,16.819,0,0,1-8.258-8.551,23.9,23.9,0,0,1-1.741-11.841c.41.031.828.07,1.238.116a36.053,36.053,0,0,1,7.832,1.672c2.291.8,4.465,1.9,6.7,2.84,1.06.441,2.143.844,3.235,1.215" transform="translate(-117.187 -112.384)" fill="#5c7cef"/>
              <path id="Trazado_1064616" data-name="Trazado 1064616" d="M330.741,294.148a30.9,30.9,0,0,0,9.937,1.292l.038.4c-3.715,10.479-7.484,21.321-6.772,32.527q-10.076.893-20.214,1a159.571,159.571,0,0,1,2.925-21.909,163.219,163.219,0,0,1,4.086-15.826l.078-.24c3.242,1.1,6.586,1.927,9.921,2.755" transform="translate(-125.176 -116.263)" fill="#5c7cef"/>
              <path id="Trazado_1064617" data-name="Trazado 1064617" d="M298.861,303.365l.24.054a159.487,159.487,0,0,0-2.925,21.909,257.811,257.811,0,0,1-26.444-1.076s-.016-28.178.232-42.27a57.4,57.4,0,0,1,14.294-.472A23.892,23.892,0,0,0,286,293.351a16.813,16.813,0,0,0,8.257,8.551,29.162,29.162,0,0,0,4.6,1.463" transform="translate(-107.62 -112.223)" fill="#5c7cef"/>
              <path id="Trazado_1064618" data-name="Trazado 1064618" d="M290.709,108.679c.325-.124.65-.24.968-.371a.271.271,0,0,0,.069-.031c8.281-3.328,14.372-10.447,22.08-15.532,6.779,4.883,10.122,13.017,12.359,21.065a75.006,75.006,0,0,1,1.8,31.761c-.6,3.777-1.493,7.492-2.306,11.221a300.142,300.142,0,0,0-5.743,37.264c-.665,7.313-.874,15.323,3.475,21.235a13.319,13.319,0,0,1-3.862.89,30.893,30.893,0,0,1-9.936-1.292c-3.336-.828-6.679-1.656-9.921-2.755-1.091-.371-2.174-.774-3.235-1.215-2.236-.936-4.411-2.043-6.7-2.84a36.023,36.023,0,0,0-7.832-1.671c-.41-.046-.828-.085-1.238-.116a57.405,57.405,0,0,0-14.294.472,55.556,55.556,0,0,0-5.61,1.177c.8-4.767,1.284-8.962,1.772-13.157a180.117,180.117,0,0,0,1.524-18.465c.1-6.33-.464-12.684.155-18.983,1.045-10.54,5.363-20.5,10.587-29.718,4.056-7.159,8.822-14.132,15.439-19.03l.341-.154c.031.085.07.162.108.248" transform="translate(-104.05 -37.004)" fill="#82264b"/>
              <path id="Trazado_1064619" data-name="Trazado 1064619" d="M320.737,291.792a163.222,163.222,0,0,0-4.086,15.826,159.478,159.478,0,0,0-2.925,21.909c0,.046-.008.085-.008.132" transform="translate(-125.171 -116.422)" fill="none" stroke="#430f76" stroke-linecap="round" stroke-linejoin="round" stroke-width="1"/>
              <path id="Trazado_1064620" data-name="Trazado 1064620" d="M293.832,281.568c0,.023-.008.038-.008.062a23.9,23.9,0,0,0,1.741,11.841,16.821,16.821,0,0,0,8.258,8.552,29.2,29.2,0,0,0,4.6,1.463" transform="translate(-117.187 -112.343)" fill="none" stroke="#430f76" stroke-linecap="round" stroke-linejoin="round" stroke-width="1"/>
              <path id="Trazado_1064621" data-name="Trazado 1064621" d="M325.667,134.865c-2.958,8.691-4.85,17.7-6.736,26.688a94.833,94.833,0,0,0-2.015,12.231,9.6,9.6,0,0,0,.176,3.33,9.4,9.4,0,0,0,1.478,2.791,40.177,40.177,0,0,0,8,8.445" transform="translate(-126.422 -53.81)" fill="none" stroke="#430f76" stroke-linecap="round" stroke-linejoin="round" stroke-width="1"/>
              <path id="Trazado_1064622" data-name="Trazado 1064622" d="M211.2,139.216q6.315,8.277,13.319,15.989l-.046.124c-2.337-.882-4.675-1.733-7.028-2.569l.031-.093c-3.057-3.514-6.114-7.035-9.063-10.587a2.607,2.607,0,0,1,1.146-1.594,15.553,15.553,0,0,0,1.641-1.269" transform="translate(-83.155 -55.546)" fill="#89f9db"/>
              <path id="Trazado_1064623" data-name="Trazado 1064623" d="M256.315,181.249c-1.292.727-1.78,2.26-2.02,3.707-.673,3.985-.078,8.173-1.277,12.026a86.686,86.686,0,0,1-12.321-9.936,20.29,20.29,0,0,0-4.21-3.3c-1.912-1.029-4.1-1.4-6.137-2.167a26.2,26.2,0,0,1-4.148-2.059,10.066,10.066,0,0,1-3.181-2.561,3.868,3.868,0,0,1-.565-3.877l.131-.209c-.069-.046-.131-.085-.2-.132a7.564,7.564,0,0,1-2.686-2.662,3.212,3.212,0,0,1,.255-3.575l.078-.147c-.581-.31-1.153-.611-1.733-.913a7.27,7.27,0,0,1-3.05-2.376c-.673-1.123-.534-2.84.627-3.437a3.637,3.637,0,0,1,2.833.194l1.3.465c2.353.836,4.69,1.687,7.028,2.569q3.11,1.161,6.207,2.368c-1.563-1.439-3.134-2.8-4.705-4.156a3.745,3.745,0,0,1-1.022-1.161,1.308,1.308,0,0,1,.132-1.447,1.561,1.561,0,0,1,1.138-.371,7.858,7.858,0,0,1,3.985,1.532c2.229,1.409,4.4,2.918,6.555,4.427a6.213,6.213,0,0,1,1.316,1.1,6.361,6.361,0,0,1,1,2.043c.874,2.492,1.8,5.1,3.753,6.865a14.864,14.864,0,0,0,2.477,1.718c2.778,1.672,5.665,3.8,8.443,5.472" transform="translate(-85.722 -63.078)" fill="#ffbea2"/>
              <path id="Trazado_1064624" data-name="Trazado 1064624" d="M281.478,33.733c1.34-.039,2.68-.078,4.127-.112.281-2.518.656-5.241,2.441-7.04a3.049,3.049,0,0,1,2.493-1.041,3.375,3.375,0,0,1,1.98,1.331,9.429,9.429,0,0,1,.767,10.634c2.139,1.67,5.461.942,7.379-.978s2.7-4.69,3.1-7.374a28.029,28.029,0,0,0-2.986-18,8.763,8.763,0,0,0-2.358-2.848c-2.008-1.437-4.694-1.332-7.347-1-2.134-2.26-4.352-4.58-7.207-5.809A21.551,21.551,0,0,0,276.794.141a26.586,26.586,0,0,0-6.481.113A22.722,22.722,0,0,0,265.3,1.878a27.817,27.817,0,0,0-8.343,5.187,14.208,14.208,0,0,0-4.516,8.555c-.34,3.2,1.158,6.91,4.251,7.808,2.093.607,4.322-.2,6.273-1.171s3.893-2.143,6.065-2.316a11.611,11.611,0,0,1,6.076,1.605,6.039,6.039,0,0,1,2,1.43,6.609,6.609,0,0,1,.992,2.007c1.072,2.982,2.144,5.963,3.385,8.749" transform="translate(-100.702 0)" fill="#361fa0"/>
              <path id="Trazado_1064625" data-name="Trazado 1064625" d="M281.495,82.542c1.866-.941,7.126-3.254,7.742-9.055" transform="translate(-112.314 -29.321)" fill="none" stroke="#430f76" stroke-linecap="round" stroke-linejoin="round" stroke-width="1"/>
              <path id="Trazado_1064626" data-name="Trazado 1064626" d="M302.341,114.369c5.311.467,10.62-1.364,15.157-4.164s8.409-6.535,12.229-10.253a20.816,20.816,0,0,0,3.076-3.48" transform="translate(-120.631 -38.491)" fill="none" stroke="#430f76" stroke-linecap="round" stroke-linejoin="round" stroke-width="1"/>
              <path id="Trazado_1064627" data-name="Trazado 1064627" d="M220.594,170.326c.581.3,1.153.6,1.733.913q2.972,1.556,5.951,3.119" transform="translate(-88.015 -67.959)" fill="none" stroke="#430f76" stroke-linecap="round" stroke-linejoin="round" stroke-width="1"/>
              <path id="Trazado_1064628" data-name="Trazado 1064628" d="M222.9,172.09a3.212,3.212,0,0,0-.255,3.576,7.568,7.568,0,0,0,2.685,2.662c.07.046.132.085.2.132a24.449,24.449,0,0,0,3.483,1.9" transform="translate(-88.667 -68.662)" fill="none" stroke="#430f76" stroke-linecap="round" stroke-linejoin="round" stroke-width="1"/>
              <path id="Trazado_1064629" data-name="Trazado 1064629" d="M330.381,210.821a50.691,50.691,0,0,1-5.959,11.322c-2.585,3.4-6.176,6.229-10.378,7.05-4.744.929-9.6-.781-13.984-2.8a90.862,90.862,0,0,1-21.7-14.023v-.016c1.2-3.854.6-8.04,1.277-12.026.24-1.447.728-2.979,2.02-3.707q10.135,3.657,20.508,6.632" transform="translate(-111.063 -78.45)" fill="none" stroke="#430f76" stroke-linecap="round" stroke-linejoin="round" stroke-width="1"/>
              <path id="Trazado_1064630" data-name="Trazado 1064630" d="M240.672,118.279H204.113a6.622,6.622,0,0,1-6.622-6.623V99.809a6.622,6.622,0,0,1,6.622-6.622h36.559a6.622,6.622,0,0,1,6.623,6.622v11.848a6.623,6.623,0,0,1-6.623,6.623" transform="translate(-78.797 -37.181)" fill="#e4e5f8"/>
              <path id="Trazado_1064631" data-name="Trazado 1064631" d="M220.764,115.889l-10.69-4.747v-1.819l10.69-5.35v3.14l-6.555,2.992,6.555,2.665Z" transform="translate(-83.818 -41.485)" fill="#430f76"/>
              <path id="Trazado_1064632" data-name="Trazado 1064632" d="M240.6,100.841l-5.762,15.891h-3.658l5.762-15.891Z" transform="translate(-92.237 -40.235)" fill="#430f76"/>
              <path id="Trazado_1064633" data-name="Trazado 1064633" d="M249.988,112.77l6.555-2.665-6.555-2.992v-3.14l10.69,5.35v1.819l-10.69,4.747Z" transform="translate(-99.743 -41.484)" fill="#430f76"/>
            </g>
          </g>
        </g>
      </g>
    </g>
  </g>
</svg>
