<svg xmlns="http://www.w3.org/2000/svg" width="98.462" height="84.422" viewBox="0 0 98.462 84.422">
  <g id="Grupo_1229425" data-name="Grupo 1229425" transform="translate(-1064.173 -5258.905)">
    <g id="Grupo_1228978" data-name="Grupo 1228978" transform="translate(63.105 2394.124)">
      <circle id="Elipse_12863" data-name="Elipse 12863" cx="27.545" cy="27.545" r="27.545" transform="translate(1001.068 2864.781)" fill="#c3b7ef"/>
    </g>
    <g id="facial-recognition_8171209" transform="translate(1069.791 5230.197)">
      <path id="Trazado_1064333" data-name="Trazado 1064333" d="M380.935,290.91a12.317,12.317,0,0,1-6.378,7.569" transform="translate(-304.765 -209.817)" fill="none" stroke="#000" stroke-linecap="round" stroke-linejoin="round" stroke-miterlimit="10" stroke-width="2"/>
      <path id="Trazado_1064334" data-name="Trazado 1064334" d="M44.313,244.392a11.938,11.938,0,0,1-6.788-10.7c0-5.135,3.039-7.924,6.788-7.924" transform="translate(-24.93 -155.73)" fill="none" stroke="#000" stroke-linecap="round" stroke-linejoin="round" stroke-miterlimit="10" stroke-width="2"/>
      <path id="Trazado_1064335" data-name="Trazado 1064335" d="M81.018,173.162c-1.995-2.552-3.492-5.976-3.492-11.205V132.149h0a18.471,18.471,0,0,1,1.274-6.638" transform="translate(-58.142 -72.487)" fill="none" stroke="#000" stroke-linecap="round" stroke-linejoin="round" stroke-miterlimit="10" stroke-width="2"/>
      <path id="Trazado_1064336" data-name="Trazado 1064336" d="M172.5,284.9v9.4c0,8.367-3.833,12.112-7.4,15.059-5.818,4.8-12.426,7.6-17.8,7.6-4.856,0-10.718-2.282-16.1-6.265" transform="translate(-102.706 -204.831)" fill="none" stroke="#000" stroke-linecap="round" stroke-linejoin="round" stroke-miterlimit="10" stroke-width="2"/>
      <path id="Trazado_1064337" data-name="Trazado 1064337" d="M103.117,47.635c4.225-5.42,11.389-9.427,20.861-9.427,15.823,0,25.2,11.178,25.2,21.454v2.084" transform="translate(-79.39 0)" fill="none" stroke="#000" stroke-linecap="round" stroke-linejoin="round" stroke-miterlimit="10" stroke-width="2"/>
      <path id="Trazado_1064339" data-name="Trazado 1064339" d="M187.412,380.465c-4.565,4.085-15.283,4.085-19.848,0" transform="translate(-132.9 -284.174)" fill="none" stroke="#000" stroke-linecap="round" stroke-linejoin="round" stroke-miterlimit="10" stroke-width="2"/>
      <path id="Trazado_1064340" data-name="Trazado 1064340" d="M117.778,215.139a14.234,14.234,0,0,1,13.582,0" transform="translate(-91.563 -145.473)" fill="none" stroke="#000" stroke-linecap="round" stroke-linejoin="round" stroke-miterlimit="10" stroke-width="2"/>
      <path id="Trazado_1064341" data-name="Trazado 1064341" d="M265,213.929a14.377,14.377,0,0,0-10.725,1.21" transform="translate(-204.895 -145.474)" fill="none" stroke="#000" stroke-linecap="round" stroke-linejoin="round" stroke-miterlimit="10" stroke-width="2"/>
      <path id="Trazado_1064342" data-name="Trazado 1064342" d="M91.844,159.452v16.122A2.546,2.546,0,0,1,89.3,178.12H10.046A2.546,2.546,0,0,1,7.5,175.575V128.057a2.546,2.546,0,0,1,2.546-2.546H89.3a2.546,2.546,0,0,1,2.546,2.546v26.3" transform="translate(0 -72.487)" fill="none" stroke="#000" stroke-linecap="round" stroke-linejoin="round" stroke-miterlimit="10" stroke-width="2"/>
      <g id="Grupo_1229424" data-name="Grupo 1229424" transform="translate(64.58 60.593)">
        <circle id="Elipse_14064" data-name="Elipse 14064" cx="10.25" cy="10.25" r="10.25" fill="none" stroke="#000" stroke-linecap="round" stroke-linejoin="round" stroke-miterlimit="10" stroke-width="2"/>
        <line id="Línea_4559" data-name="Línea 4559" y2="20.5" transform="translate(10.25)" fill="none" stroke="#000" stroke-linecap="round" stroke-linejoin="round" stroke-miterlimit="10" stroke-width="2"/>
        <line id="Línea_4560" data-name="Línea 4560" x1="7.248" y1="7.248" transform="translate(10.25 10.25)" fill="none" stroke="#000" stroke-linecap="round" stroke-linejoin="round" stroke-miterlimit="10" stroke-width="2"/>
      </g>
      <line id="Línea_4561" data-name="Línea 4561" x2="17.458" transform="translate(14.288 59.812)" fill="none" stroke="#000" stroke-linecap="round" stroke-linejoin="round" stroke-miterlimit="10" stroke-width="2"/>
      <path id="Trazado_1064343" data-name="Trazado 1064343" d="M341.956,341.776H327.892l-10.983-10.983" transform="translate(-256.9 -242.931)" fill="none" stroke="#000" stroke-linecap="round" stroke-linejoin="round" stroke-miterlimit="10" stroke-width="2"/>
      <line id="Línea_4562" data-name="Línea 4562" x1="10.67" transform="translate(74.386 92.057)" fill="none" stroke="#000" stroke-linecap="round" stroke-linejoin="round" stroke-miterlimit="10" stroke-width="2"/>
      <line id="Línea_4563" data-name="Línea 4563" x1="5.579" transform="translate(79.477 86.965)" fill="none" stroke="#000" stroke-linecap="round" stroke-linejoin="round" stroke-miterlimit="10" stroke-width="2"/>
      <line id="Línea_4564" data-name="Línea 4564" y2="3.332" transform="translate(35.141 75.765)" fill="none" stroke="#000" stroke-linecap="round" stroke-linejoin="round" stroke-miterlimit="10" stroke-width="2"/>
      <line id="Línea_4565" data-name="Línea 4565" y2="3.332" transform="translate(54.035 75.765)" fill="none" stroke="#000" stroke-linecap="round" stroke-linejoin="round" stroke-miterlimit="10" stroke-width="2"/>
    </g>
  </g>
</svg>
