<svg xmlns="http://www.w3.org/2000/svg" width="101.415" height="90.228" viewBox="0 0 101.415 90.228">
  <g id="Grupo_1229428" data-name="Grupo 1229428" transform="translate(-1064.173 -5714.206)">
    <g id="Grupo_1228983" data-name="Grupo 1228983" transform="translate(63.105 2849.425)">
      <circle id="Elipse_12863" data-name="Elipse 12863" cx="27.545" cy="27.545" r="27.545" transform="translate(1001.068 2864.781)" fill="#c3b7ef"/>
    </g>
    <g id="_x30_7_Copyright_digital" transform="translate(1079.318 5726.643)">
      <g id="Grupo_1229427" data-name="Grupo 1229427" transform="translate(0 5)">
        <path id="Trazado_1064344" data-name="Trazado 1064344" d="M67.942,39.184a5.334,5.334,0,0,0-3.328.929,5.4,5.4,0,0,0-4.76-3.625,5.325,5.325,0,0,0-4,1.472c-.117.111-.228.226-.334.348a5.384,5.384,0,0,0-6.738-1.1V28.621a5.511,5.511,0,0,0-5.1-5.613,5.33,5.33,0,0,0-4,1.472A5.419,5.419,0,0,0,38,28.392v36.4a6.747,6.747,0,0,0,6.74,6.74H66.307a6.748,6.748,0,0,0,6.74-6.74V44.8a5.511,5.511,0,0,0-5.1-5.613Zm2.409,25.6a4.049,4.049,0,0,1-4.044,4.044H44.74A4.049,4.049,0,0,1,40.7,64.787v-36.4a2.7,2.7,0,0,1,2.7-2.7c.049,0,.1,0,.147,0a2.856,2.856,0,0,1,2.549,2.921V47.264a1.348,1.348,0,0,0,2.7,0V41.872a2.7,2.7,0,1,1,5.392,0v5.392a1.348,1.348,0,1,0,2.7,0V41.872a2.7,2.7,0,0,1,2.843-2.692A2.856,2.856,0,0,1,62.263,42.1v5.163a1.348,1.348,0,0,0,2.7,0v-2.7A2.7,2.7,0,0,1,67.8,41.876,2.856,2.856,0,0,1,70.351,44.8Z" transform="translate(13.223 1.263)"/>
        <path id="Trazado_1064345" data-name="Trazado 1064345" d="M6,37.872A18.872,18.872,0,1,0,24.872,19,18.892,18.892,0,0,0,6,37.872Zm35.047,0A16.176,16.176,0,1,1,24.872,21.7,16.194,16.194,0,0,1,41.047,37.872Z" transform="translate(2.088 -0.128)"/>
        <path id="Trazado_1064346" data-name="Trazado 1064346" d="M12,35.784a10.776,10.776,0,0,0,20.513,4.625,1.348,1.348,0,1,0-2.433-1.161,8.09,8.09,0,1,1,0-6.927,1.348,1.348,0,0,0,2.433-1.161A10.775,10.775,0,0,0,12,35.784Z" transform="translate(4.176 1.959)"/>
        <path id="Trazado_1064347" data-name="Trazado 1064347" d="M47.179,67.007H4.044A1.35,1.35,0,0,1,2.7,65.659V18.48h72.79V41.4a1.348,1.348,0,1,0,2.7,0V9.044A4.049,4.049,0,0,0,74.138,5H14.828a1.348,1.348,0,1,0,0,2.7H74.138a1.35,1.35,0,0,1,1.348,1.348v6.74H2.7V9.044A1.35,1.35,0,0,1,4.044,7.7H9.436a1.348,1.348,0,1,0,0-2.7H4.044A4.049,4.049,0,0,0,0,9.044V65.659A4.049,4.049,0,0,0,4.044,69.7H47.179a1.348,1.348,0,1,0,0-2.7Z" transform="translate(0 -5)"/>
        <circle id="Elipse_14066" data-name="Elipse 14066" cx="1.5" cy="1.5" r="1.5" transform="translate(12.682 5.357)"/>
        <ellipse id="Elipse_14072" data-name="Elipse 14072" cx="1" cy="1.5" rx="1" ry="1.5" transform="translate(7.682 5.357)"/>
        <circle id="Elipse_14073" data-name="Elipse 14073" cx="1.5" cy="1.5" r="1.5" transform="translate(18.682 5.357)"/>
        <path id="Trazado_1064348" data-name="Trazado 1064348" d="M61.787,11.7a1.348,1.348,0,1,0,0-2.7H21.348a1.348,1.348,0,1,0,0,2.7Z" transform="translate(6.959 -3.608)"/>
      </g>
    </g>
  </g>
</svg>
