<svg xmlns="http://www.w3.org/2000/svg" width="96.84" height="100.965" viewBox="0 0 96.84 100.965">
  <g id="Grupo_1229434" data-name="Grupo 1229434" transform="translate(-407.637 -5943.264)">
    <g id="Grupo_1228985" data-name="Grupo 1228985" transform="translate(-593.431 3078.483)">
      <circle id="Elipse_12863" data-name="Elipse 12863" cx="27.545" cy="27.545" r="27.545" transform="translate(1001.068 2864.781)" fill="#c3b7ef"/>
    </g>
    <g id="error_8083294" transform="translate(401.348 5952.794)">
      <g id="Grupo_1229433" data-name="Grupo 1229433" transform="translate(25 7.5)">
        <path id="Trazado_1064349" data-name="Trazado 1064349" d="M101.048,411.667v12.744a2.654,2.654,0,0,1-2.654,2.654H44.654A2.654,2.654,0,0,1,42,424.411v-4.227" transform="translate(-39.18 -344.63)" fill="none" stroke="#000" stroke-linecap="round" stroke-linejoin="round" stroke-miterlimit="10" stroke-width="3"/>
        <path id="Trazado_1064350" data-name="Trazado 1064350" d="M42,24.225V10.154A2.654,2.654,0,0,1,44.654,7.5h53.74a2.654,2.654,0,0,1,2.654,2.654V30.9" transform="translate(-39.18 -7.5)" fill="none" stroke="#000" stroke-linecap="round" stroke-linejoin="round" stroke-miterlimit="10" stroke-width="3"/>
        <line id="Línea_4566" data-name="Línea 4566" y1="28.781" transform="translate(2.82 22.886)" fill="none" stroke="#000" stroke-linecap="round" stroke-linejoin="round" stroke-miterlimit="10" stroke-width="3"/>
        <line id="Línea_4567" data-name="Línea 4567" x1="58.504" transform="translate(3.133 9.952)" fill="none" stroke="#000" stroke-linecap="round" stroke-linejoin="round" stroke-miterlimit="10" stroke-width="3"/>
        <path id="Trazado_1064351" data-name="Trazado 1064351" d="M81.821,12.808h0a2.488,2.488,0,0,1-2.488-2.488V7.5h4.976v2.82A2.488,2.488,0,0,1,81.821,12.808Z" transform="translate(-70.321 -7.5)" fill="none" stroke="#000" stroke-linecap="round" stroke-linejoin="round" stroke-miterlimit="10" stroke-width="3"/>
        <path id="Trazado_1064352" data-name="Trazado 1064352" d="M137.155,12.808h0a2.488,2.488,0,0,1-2.488-2.488V7.5h4.976v2.82A2.488,2.488,0,0,1,137.155,12.808Z" transform="translate(-116.477 -7.5)" fill="none" stroke="#000" stroke-linecap="round" stroke-linejoin="round" stroke-miterlimit="10" stroke-width="3"/>
        <path id="Trazado_1064353" data-name="Trazado 1064353" d="M192.488,12.808h0A2.488,2.488,0,0,1,190,10.32V7.5h4.976v2.82A2.488,2.488,0,0,1,192.488,12.808Z" transform="translate(-162.632 -7.5)" fill="none" stroke="#000" stroke-linecap="round" stroke-linejoin="round" stroke-miterlimit="10" stroke-width="3"/>
        <path id="Trazado_1064354" data-name="Trazado 1064354" d="M250.173,194.948H225.542a3.048,3.048,0,0,1-3.061-3.035V177.786a.626.626,0,0,0-.28-.521l-5.062-3.371a.311.311,0,0,1,0-.518L222.2,170a.626.626,0,0,0,.28-.521V155.356a3.048,3.048,0,0,1,3.061-3.035h33.181a3.048,3.048,0,0,1,3.061,3.035v36.557a3.048,3.048,0,0,1-3.061,3.035H256" transform="translate(-185.154 -128.3)" fill="none" stroke="#000" stroke-linecap="round" stroke-linejoin="round" stroke-miterlimit="10" stroke-width="3"/>
        <path id="Trazado_1064355" data-name="Trazado 1064355" d="M306.088,226.145l-11.46,17.544a1.069,1.069,0,0,0,.895,1.654h22.92a1.069,1.069,0,0,0,.895-1.654l-11.46-17.544A1.069,1.069,0,0,0,306.088,226.145Z" transform="translate(-249.759 -189.475)" fill="none" stroke="#000" stroke-linecap="round" stroke-linejoin="round" stroke-miterlimit="10" stroke-width="3"/>
        <g id="Grupo_1229429" data-name="Grupo 1229429" transform="translate(57.224 42.929)">
          <line id="Línea_4568" data-name="Línea 4568" y2="5.215" fill="none" stroke="#000" stroke-linecap="round" stroke-linejoin="round" stroke-miterlimit="10" stroke-width="3"/>
          <line id="Línea_4569" data-name="Línea 4569" y2="0.415" transform="translate(0 8.625)" fill="none" stroke="#000" stroke-linecap="round" stroke-linejoin="round" stroke-miterlimit="10" stroke-width="3"/>
        </g>
        <g id="Grupo_1229430" data-name="Grupo 1229430" transform="translate(11.009 17.929)">
          <line id="Línea_4570" data-name="Línea 4570" x2="6.033" fill="none" stroke="#000" stroke-linecap="round" stroke-linejoin="round" stroke-miterlimit="10" stroke-width="3"/>
          <line id="Línea_4571" data-name="Línea 4571" x2="14.928" transform="translate(0 4.349)" fill="none" stroke="#000" stroke-linecap="round" stroke-linejoin="round" stroke-miterlimit="10" stroke-width="3"/>
          <line id="Línea_4572" data-name="Línea 4572" x2="12.875" transform="translate(0 8.699)" fill="none" stroke="#000" stroke-linecap="round" stroke-linejoin="round" stroke-miterlimit="10" stroke-width="3"/>
        </g>
        <g id="Grupo_1229431" data-name="Grupo 1229431" transform="translate(11.009 34.958)">
          <line id="Línea_4573" data-name="Línea 4573" x2="6.033" fill="none" stroke="#000" stroke-linecap="round" stroke-linejoin="round" stroke-miterlimit="10" stroke-width="3"/>
          <line id="Línea_4574" data-name="Línea 4574" x2="14.928" transform="translate(0 4.349)" fill="none" stroke="#000" stroke-linecap="round" stroke-linejoin="round" stroke-miterlimit="10" stroke-width="3"/>
          <line id="Línea_4575" data-name="Línea 4575" x2="12.875" transform="translate(0 8.699)" fill="none" stroke="#000" stroke-linecap="round" stroke-linejoin="round" stroke-miterlimit="10" stroke-width="3"/>
        </g>
        <path id="Trazado_1064356" data-name="Trazado 1064356" d="M50.875,344.221H26a1,1,0,0,1-1-1V322a1,1,0,0,1,1-1h24.88a1,1,0,0,1,1,1v21.231A1,1,0,0,1,50.875,344.221Z" transform="translate(-25 -269.001)" fill="none" stroke="#000" stroke-linecap="round" stroke-linejoin="round" stroke-miterlimit="10" stroke-width="3"/>
        <g id="Grupo_1229432" data-name="Grupo 1229432" transform="translate(8.782 58.69)">
          <line id="Línea_4576" data-name="Línea 4576" x1="9.305" y2="9.305" fill="none" stroke="#000" stroke-linecap="round" stroke-linejoin="round" stroke-miterlimit="10" stroke-width="3"/>
          <line id="Línea_4577" data-name="Línea 4577" x1="9.305" y1="9.305" fill="none" stroke="#000" stroke-linecap="round" stroke-linejoin="round" stroke-miterlimit="10" stroke-width="3"/>
        </g>
      </g>
    </g>
  </g>
</svg>
