<svg xmlns="http://www.w3.org/2000/svg" xmlns:xlink="http://www.w3.org/1999/xlink" width="400" height="520" viewBox="0 0 400 520">
  <defs>
    <clipPath id="clip-path">
      <rect id="Rectángulo_424360" data-name="Rectángulo 424360" width="400" height="520" transform="translate(180 829)" fill="#5c2c88" opacity="0.52"/>
    </clipPath>
    <linearGradient id="linear-gradient" x1="0.5" x2="0.5" y2="1" gradientUnits="objectBoundingBox">
      <stop offset="0" stop-color="#903cdf"/>
      <stop offset="1" stop-color="#481e70"/>
    </linearGradient>
    <filter id="Elipse_13849" x="27" y="38" width="116" height="116" filterUnits="userSpaceOnUse">
      <feOffset dy="3" input="SourceAlpha"/>
      <feGaussianBlur stdDeviation="3" result="blur"/>
      <feFlood flood-opacity="0.161"/>
      <feComposite operator="in" in2="blur"/>
      <feComposite in="SourceGraphic"/>
    </filter>
    <filter id="Elipse_14075" x="251" y="343" width="158" height="158" filterUnits="userSpaceOnUse">
      <feOffset dy="3" input="SourceAlpha"/>
      <feGaussianBlur stdDeviation="3" result="blur-2"/>
      <feFlood flood-opacity="0.161"/>
      <feComposite operator="in" in2="blur-2"/>
      <feComposite in="SourceGraphic"/>
    </filter>
    <clipPath id="clip-path-2">
      <rect id="Rectángulo_424342" data-name="Rectángulo 424342" width="417.454" height="410.187" fill="none"/>
    </clipPath>
    <clipPath id="clip-path-9">
      <rect id="Rectángulo_424359" data-name="Rectángulo 424359" width="408.586" height="401.474" fill="none"/>
    </clipPath>
  </defs>
  <g id="Enmascarar_grupo_1211604" data-name="Enmascarar grupo 1211604" transform="translate(-180 -829)" clip-path="url(#clip-path)">
    <rect id="Rectángulo_423570" data-name="Rectángulo 423570" width="278" height="517" rx="13" transform="translate(258 832)" fill="url(#linear-gradient)"/>
    <g transform="matrix(1, 0, 0, 1, 180, 829)" filter="url(#Elipse_13849)">
      <circle id="Elipse_13849-2" data-name="Elipse 13849" cx="49" cy="49" r="49" transform="translate(36 44)" fill="#f6ecfe"/>
    </g>
    <g transform="matrix(1, 0, 0, 1, 180, 829)" filter="url(#Elipse_14075)">
      <circle id="Elipse_14075-2" data-name="Elipse 14075" cx="70" cy="70" r="70" transform="translate(260 349)" fill="#f6ecfe"/>
    </g>
    <g id="Grupo_1229825" data-name="Grupo 1229825" transform="translate(171.273 899.871)">
      <g id="Grupo_1229826" data-name="Grupo 1229826">
        <g id="Grupo_1229825-2" data-name="Grupo 1229825" clip-path="url(#clip-path-2)">
          <line id="Línea_4602" data-name="Línea 4602" x2="393.45" transform="translate(12.002 338.194)" fill="none" stroke="#263238" stroke-linecap="round" stroke-linejoin="round" stroke-width="2.5"/>
        </g>
      </g>
      <g id="Grupo_1229828" data-name="Grupo 1229828">
        <g id="Grupo_1229827" data-name="Grupo 1229827" clip-path="url(#clip-path-2)">
          <path id="Trazado_1065729" data-name="Trazado 1065729" d="M423.058,122.6a12.3,12.3,0,0,0,1.476,3.064L421.9,128.6l4.682,4.187,2.633-2.942a12.346,12.346,0,0,0,3.209,1.127l.22,3.939,6.27-.35-.219-3.939a12.33,12.33,0,0,0,3.063-1.477l2.943,2.633,4.187-4.682-2.942-2.633a12.4,12.4,0,0,0,1.127-3.209l3.94-.22-.351-6.271-3.939.22a12.337,12.337,0,0,0-1.477-3.064l2.633-2.943-4.682-4.187-2.632,2.943a12.377,12.377,0,0,0-3.209-1.127l-.22-3.939-6.271.35.22,3.939a12.317,12.317,0,0,0-3.063,1.477l-2.944-2.633-4.186,4.682,2.943,2.633a12.338,12.338,0,0,0-1.129,3.209l-3.939.22.35,6.271Zm6.1-3.485a5.739,5.739,0,1,1,6.049,5.412A5.74,5.74,0,0,1,429.16,119.111Z" transform="translate(-40.438 -9.914)" fill="none" stroke="#9abae3" stroke-linecap="round" stroke-linejoin="round" stroke-width="2.5"/>
          <path id="Trazado_1065730" data-name="Trazado 1065730" d="M282.324,34.095a9.51,9.51,0,0,0,1.132,2.348L281.438,38.7l3.588,3.209,2.017-2.255a9.484,9.484,0,0,0,2.46.864l.168,3.019,4.805-.268-.168-3.018a9.449,9.449,0,0,0,2.348-1.133l2.256,2.018,3.209-3.588-2.256-2.018a9.48,9.48,0,0,0,.865-2.459l3.019-.168-.268-4.806-3.019.169a9.467,9.467,0,0,0-1.132-2.349l2.017-2.255L297.76,20.45l-2.017,2.256a9.447,9.447,0,0,0-2.459-.865l-.169-3.019-4.805.268.168,3.018a9.465,9.465,0,0,0-2.348,1.133l-2.256-2.017-3.208,3.588,2.255,2.017a9.443,9.443,0,0,0-.864,2.459l-3.019.168.267,4.806ZM287,31.423a4.4,4.4,0,1,1,4.637,4.148A4.4,4.4,0,0,1,287,31.423" transform="translate(-26.945 -1.818)" fill="#9abae3"/>
          <path id="Trazado_1065731" data-name="Trazado 1065731" d="M83.609,72.368l.3-11.164-7.013-.19a21.977,21.977,0,0,0-2.168-5.646l5.1-4.83-7.681-8.107-5.1,4.83a21.929,21.929,0,0,0-5.522-2.47l.19-7.013-11.164-.3-.19,7.013a21.943,21.943,0,0,0-5.646,2.168l-4.83-5.1-8.107,7.681,4.83,5.1a21.962,21.962,0,0,0-2.47,5.522l-7.013-.19-.3,11.164,7.013.19a21.943,21.943,0,0,0,2.168,5.646l-5.1,4.829,7.681,8.107,5.1-4.83a21.93,21.93,0,0,0,5.522,2.47l-.19,7.013,11.164.3.19-7.013a21.944,21.944,0,0,0,5.646-2.168l4.83,5.1L78.955,82.8l-4.83-5.1a21.93,21.93,0,0,0,2.47-5.522ZM55.092,76.223A10.207,10.207,0,1,1,65.57,66.295,10.207,10.207,0,0,1,55.092,76.223Z" transform="translate(-2.59 -3.619)" fill="none" stroke="#9abae3" stroke-linecap="round" stroke-linejoin="round" stroke-width="2.5"/>
        </g>
      </g>
      <g id="Grupo_1229830" data-name="Grupo 1229830">
        <g id="Grupo_1229829" data-name="Grupo 1229829" clip-path="url(#clip-path-2)">
          <path id="Trazado_1065732" data-name="Trazado 1065732" d="M310.979,79.4V329.223a17.723,17.723,0,0,1-17.721,17.722h-110.2c-.308,0-.608-.009-.909-.025s-.6-.033-.892-.067h-.024a17.731,17.731,0,0,1-15.9-17.63V79.4c0-9.636,7.694-18.279,17.279-18.547.15-.008.3-.008.45-.008h110.2c9.786,0,17.721,8.769,17.721,18.555" transform="translate(-15.965 -5.875)" fill="#9abae3"/>
          <path id="Trazado_1065733" data-name="Trazado 1065733" d="M168.311,331.592V81.765c0-9.636,7.694-18.28,17.279-18.547.15-.008,1.249-.008,1.4-.008h110.2c3.236,0,6.261,1.922,8.872,3.559a17.256,17.256,0,0,0-12.8-5.927h-110.2c-.15,0-.3,0-.451.008-9.585.267-17.279,8.911-17.279,18.546V329.224a17.7,17.7,0,0,0,8.4,15.062c-2.775-3.128-5.414-8.186-5.414-12.694" transform="translate(-15.965 -5.875)" fill="#fff"/>
          <path id="Trazado_1065734" data-name="Trazado 1065734" d="M310.979,79.4V329.223a17.723,17.723,0,0,1-17.721,17.722h-110.2c-.308,0-.608-.009-.909-.025s-.6-.033-.892-.067h-.024a17.731,17.731,0,0,1-15.9-17.63V79.4c0-9.636,7.694-18.279,17.279-18.547.15-.008.3-.008.45-.008h110.2C303.044,60.841,310.979,69.61,310.979,79.4Z" transform="translate(-15.965 -5.875)" fill="none" stroke="#263238" stroke-linecap="round" stroke-linejoin="round" stroke-width="2.5"/>
          <path id="Trazado_1065735" data-name="Trazado 1065735" d="M290.2,69.5H267.912a8.874,8.874,0,0,0-4.954,1.511,9.408,9.408,0,0,0-2.377,2.371c-.482.674-1.58.735-2.859.735H219.568a3.2,3.2,0,0,1-2.634-1.319,6.938,6.938,0,0,0-3.016-2.553l-.685-.278a6.354,6.354,0,0,0-2.39-.467H186.16c-7.2,0-13.033,5.319-13.033,11.88V328.46c0,6.561,5.835,11.879,13.033,11.879H290.2c7.122,0,12.895-5.263,12.895-11.754V81.252c0-6.491-5.773-11.754-12.895-11.754" transform="translate(-16.718 -6.711)" fill="#fff"/>
          <path id="Trazado_1065736" data-name="Trazado 1065736" d="M290.2,69.5H267.912a8.874,8.874,0,0,0-4.954,1.511,9.408,9.408,0,0,0-2.377,2.371c-.482.674-1.58.735-2.859.735H219.568a3.2,3.2,0,0,1-2.634-1.319,6.938,6.938,0,0,0-3.016-2.553l-.685-.278a6.354,6.354,0,0,0-2.39-.467H186.16c-7.2,0-13.033,5.319-13.033,11.88V328.46c0,6.561,5.835,11.879,13.033,11.879H290.2c7.122,0,12.895-5.263,12.895-11.754V81.252C303.094,74.761,297.321,69.5,290.2,69.5Z" transform="translate(-16.718 -6.711)" fill="none" stroke="#263238" stroke-linecap="round" stroke-linejoin="round" stroke-width="2.5"/>
          <path id="Rectángulo_424344" data-name="Rectángulo 424344" d="M10.219,0H40.485A10.218,10.218,0,0,1,50.7,10.218v26.6A10.218,10.218,0,0,1,40.485,47.039H10.219A10.219,10.219,0,0,1,0,36.82v-26.6A10.219,10.219,0,0,1,10.219,0Z" transform="translate(168.518 130.232)" fill="none" stroke="#ec644e" stroke-linecap="round" stroke-linejoin="round" stroke-width="2.5"/>
          <line id="Línea_4603" data-name="Línea 4603" x2="45.179" y2="41.731" transform="translate(171.227 132.941)" fill="none" stroke="#ec644e" stroke-linecap="round" stroke-linejoin="round" stroke-width="2.5"/>
          <line id="Línea_4604" data-name="Línea 4604" x1="45.082" y2="41.825" transform="translate(171.328 132.84)" fill="none" stroke="#ec644e" stroke-linecap="round" stroke-linejoin="round" stroke-width="2.5"/>
          <path id="Rectángulo_424345" data-name="Rectángulo 424345" d="M10.219,0H40.485A10.218,10.218,0,0,1,50.7,10.218v26.6A10.219,10.219,0,0,1,40.484,47.039H10.219A10.219,10.219,0,0,1,0,36.82v-26.6A10.219,10.219,0,0,1,10.219,0Z" transform="translate(223.794 130.232)" fill="none" stroke="#ec644e" stroke-linecap="round" stroke-linejoin="round" stroke-width="2.5"/>
          <line id="Línea_4605" data-name="Línea 4605" x2="45.179" y2="41.731" transform="translate(226.502 132.941)" fill="none" stroke="#ec644e" stroke-linecap="round" stroke-linejoin="round" stroke-width="2.5"/>
          <line id="Línea_4606" data-name="Línea 4606" x1="45.082" y2="41.825" transform="translate(226.603 132.84)" fill="none" stroke="#ec644e" stroke-linecap="round" stroke-linejoin="round" stroke-width="2.5"/>
          <rect id="Rectángulo_424346" data-name="Rectángulo 424346" width="24.134" height="22.39" rx="4.864" transform="translate(239.558 271.436)" fill="none" stroke="#ec644e" stroke-linecap="round" stroke-linejoin="round" stroke-width="2.5"/>
          <line id="Línea_4607" data-name="Línea 4607" x2="21.504" y2="19.862" transform="translate(240.848 272.725)" fill="none" stroke="#ec644e" stroke-linecap="round" stroke-linejoin="round" stroke-width="2.5"/>
          <line id="Línea_4608" data-name="Línea 4608" x1="21.458" y2="19.908" transform="translate(240.897 272.677)" fill="none" stroke="#ec644e" stroke-linecap="round" stroke-linejoin="round" stroke-width="2.5"/>
          <path id="Trazado_1065737" data-name="Trazado 1065737" d="M279.97,123.857H199.522a12.99,12.99,0,1,1,0-25.981H279.97a12.99,12.99,0,1,1,0,25.981Z" transform="translate(-18.012 -9.451)" fill="none" stroke="#ec644e" stroke-linecap="round" stroke-linejoin="round" stroke-width="2.5"/>
          <path id="Trazado_1065738" data-name="Trazado 1065738" d="M293.533,111.009a4.1,4.1,0,1,1-4.1-4.1A4.1,4.1,0,0,1,293.533,111.009Z" transform="translate(-27.554 -10.324)" fill="none" stroke="#ec644e" stroke-linecap="round" stroke-linejoin="round" stroke-width="2.5"/>
          <line id="Línea_4609" data-name="Línea 4609" x1="3.114" y2="3.319" transform="translate(255.89 103.977)" fill="none" stroke="#ec644e" stroke-linecap="round" stroke-linejoin="round" stroke-width="2.5"/>
          <path id="Rectángulo_424347" data-name="Rectángulo 424347" d="M8.061,0H96.923a8.06,8.06,0,0,1,8.06,8.06V30.124a8.061,8.061,0,0,1-8.061,8.061H8.061A8.061,8.061,0,0,1,0,30.125V8.061A8.061,8.061,0,0,1,8.061,0Z" transform="translate(168.518 264.323)" fill="none" stroke="#ec644e" stroke-linecap="round" stroke-linejoin="round" stroke-width="2.5"/>
          <line id="Línea_4610" data-name="Línea 4610" x2="32.216" transform="translate(180.835 275.228)" fill="none" stroke="#ec644e" stroke-linecap="round" stroke-linejoin="round" stroke-width="2.5"/>
          <line id="Línea_4611" data-name="Línea 4611" x2="49.273" transform="translate(180.835 281.964)" fill="none" stroke="#ec644e" stroke-linecap="round" stroke-linejoin="round" stroke-width="2.5"/>
          <line id="Línea_4612" data-name="Línea 4612" x2="49.273" transform="translate(180.835 288.452)" fill="none" stroke="#ec644e" stroke-linecap="round" stroke-linejoin="round" stroke-width="2.5"/>
          <path id="Trazado_1065739" data-name="Trazado 1065739" d="M243.04,273.82H194.929a8.4,8.4,0,0,1-8.4-8.4V217.143a8.4,8.4,0,0,1,8.4-8.4h31.81" transform="translate(-18.012 -20.157)" fill="none" stroke="#ec644e" stroke-linecap="round" stroke-linejoin="round" stroke-width="2.5"/>
          <path id="Trazado_1065740" data-name="Trazado 1065740" d="M231.037,208.745h56.375a8.4,8.4,0,0,1,8.4,8.4v48.279a8.4,8.4,0,0,1-8.4,8.4H247.338" transform="translate(-22.31 -20.157)" fill="none" stroke="#ec644e" stroke-linecap="round" stroke-linejoin="round" stroke-width="2.5"/>
          <line id="Línea_4613" data-name="Línea 4613" x2="100.487" y2="58.871" transform="translate(171.113 191.09)" fill="none" stroke="#ec644e" stroke-linecap="round" stroke-linejoin="round" stroke-width="2.5"/>
          <line id="Línea_4614" data-name="Línea 4614" x1="98.591" y2="58.871" transform="translate(172.061 191.09)" fill="none" stroke="#ec644e" stroke-linecap="round" stroke-linejoin="round" stroke-width="2.5"/>
        </g>
      </g>
      <g id="Grupo_1229832" data-name="Grupo 1229832">
        <g id="Grupo_1229831" data-name="Grupo 1229831" clip-path="url(#clip-path-2)">
          <path id="Trazado_1065741" data-name="Trazado 1065741" d="M180.789,10.9V138.475a9.214,9.214,0,0,1-9.214,9.213h-57.3c-.16,0-.316,0-.472-.012s-.313-.019-.464-.035h-.013a9.219,9.219,0,0,1-8.27-9.166V10.9c0-5.01,4-9.5,8.985-9.642.079,0,.156,0,.234,0h57.3c5.088,0,9.214,4.56,9.214,9.647" transform="translate(-10.145 -0.121)" fill="#ec644e"/>
          <path id="Trazado_1065742" data-name="Trazado 1065742" d="M107.345,141.161V12.033c0-5.01,3.225-8.729,8.21-8.868.079,0,.931,0,1.009,0H173.09c2.093,0,4.018,1.555,5.565,2.818-2.827-4.84-5.646-4.729-10.18-4.729h-54.2c-.078,0-.156,0-.234,0-4.984.139-8.985,4.634-8.985,9.643V138.474a9.191,9.191,0,0,0,3.486,7.209,9.158,9.158,0,0,1-1.2-4.523" transform="translate(-10.145 -0.121)" fill="#fff"/>
          <path id="Trazado_1065743" data-name="Trazado 1065743" d="M180.789,10.9V138.475a9.214,9.214,0,0,1-9.214,9.213h-57.3c-.16,0-.316,0-.472-.012s-.313-.019-.464-.035h-.013a9.219,9.219,0,0,1-8.27-9.166V10.9c0-5.01,4-9.5,8.985-9.642.079,0,.156,0,.234,0h57.3C176.663,1.25,180.789,5.81,180.789,10.9Z" transform="translate(-10.145 -0.121)" fill="none" stroke="#263238" stroke-linecap="round" stroke-linejoin="round" stroke-width="2.5"/>
          <path id="Trazado_1065744" data-name="Trazado 1065744" d="M169.115,6.977H157.964a4.437,4.437,0,0,0-2.478.756,4.713,4.713,0,0,0-1.19,1.186c-.24.337-.79.368-1.43.368H133.777a1.6,1.6,0,0,1-1.318-.66,3.462,3.462,0,0,0-1.509-1.277l-.342-.139a3.177,3.177,0,0,0-1.2-.234H117.063a6.252,6.252,0,0,0-6.521,5.944V136.54a6.252,6.252,0,0,0,6.521,5.944h52.052a6.186,6.186,0,0,0,6.451-5.881V12.857a6.186,6.186,0,0,0-6.451-5.88" transform="translate(-10.674 -0.674)" fill="#fff"/>
          <path id="Trazado_1065745" data-name="Trazado 1065745" d="M169.115,6.977H157.964a4.437,4.437,0,0,0-2.478.756,4.713,4.713,0,0,0-1.19,1.186c-.24.337-.79.368-1.43.368H133.777a1.6,1.6,0,0,1-1.318-.66,3.462,3.462,0,0,0-1.509-1.277l-.342-.139a3.177,3.177,0,0,0-1.2-.234H117.063a6.252,6.252,0,0,0-6.521,5.944V136.54a6.252,6.252,0,0,0,6.521,5.944h52.052a6.186,6.186,0,0,0,6.451-5.881V12.857A6.186,6.186,0,0,0,169.115,6.977Z" transform="translate(-10.674 -0.674)" fill="none" stroke="#263238" stroke-linecap="round" stroke-linejoin="round" stroke-width="2.5"/>
          <path id="Trazado_1065746" data-name="Trazado 1065746" d="M165.919,31.6H121.447a4.186,4.186,0,0,1,0-8.371h44.473a4.186,4.186,0,1,1,0,8.371" transform="translate(-11.323 -2.243)" fill="#fff"/>
          <path id="Trazado_1065747" data-name="Trazado 1065747" d="M165.919,31.6H121.447a4.186,4.186,0,0,1,0-8.371h44.473a4.186,4.186,0,1,1,0,8.371Z" transform="translate(-11.323 -2.243)" fill="none" stroke="#263238" stroke-linecap="round" stroke-linejoin="round" stroke-width="2.5"/>
          <path id="Trazado_1065748" data-name="Trazado 1065748" d="M169.72,26.769a1.6,1.6,0,1,1-2.039-.976,1.6,1.6,0,0,1,2.039.976" transform="translate(-16.089 -2.482)" fill="#fff"/>
          <path id="Trazado_1065749" data-name="Trazado 1065749" d="M169.72,26.769a1.6,1.6,0,1,1-2.039-.976A1.6,1.6,0,0,1,169.72,26.769Z" transform="translate(-16.089 -2.482)" fill="none" stroke="#263238" stroke-linecap="round" stroke-linejoin="round" stroke-width="1"/>
          <line id="Línea_4615" data-name="Línea 4615" x2="1.501" y2="1.296" transform="translate(153.193 26.008)" fill="none" stroke="#263238" stroke-linecap="round" stroke-linejoin="round" stroke-width="1"/>
          <path id="Trazado_1065750" data-name="Trazado 1065750" d="M166.566,135.029H124.033a3.824,3.824,0,0,1-3.823-3.823V117.484a3.824,3.824,0,0,1,3.823-3.823h42.533a3.824,3.824,0,0,1,3.823,3.823v13.721a3.824,3.824,0,0,1-3.823,3.823" transform="translate(-11.608 -10.976)" fill="#fff"/>
          <rect id="Rectángulo_424349" data-name="Rectángulo 424349" width="50.179" height="21.368" rx="4.232" transform="translate(108.602 102.686)" fill="none" stroke="#263238" stroke-linecap="round" stroke-linejoin="round" stroke-width="2.5"/>
          <path id="Trazado_1065751" data-name="Trazado 1065751" d="M169.628,125.265A5.269,5.269,0,1,1,164.359,120a5.269,5.269,0,0,1,5.269,5.269" transform="translate(-15.362 -11.587)" fill="#9abae3"/>
          <path id="Trazado_1065752" data-name="Trazado 1065752" d="M119.257,131.592h1.277a2.319,2.319,0,0,0,2.312-2.313v-8.285a2.319,2.319,0,0,0-2.312-2.312h-1.277a2.319,2.319,0,0,0-2.312,2.312v8.285a2.319,2.319,0,0,0,2.312,2.313" transform="translate(-11.293 -11.461)" fill="#ec644e"/>
          <line id="Línea_4616" data-name="Línea 4616" x2="13.327" transform="translate(117.777 110.176)" fill="none" stroke="#263238" stroke-linecap="round" stroke-linejoin="round" stroke-width="2.5"/>
          <line id="Línea_4617" data-name="Línea 4617" x2="22.259" transform="translate(117.623 113.774)" fill="none" stroke="#263238" stroke-linecap="round" stroke-linejoin="round" stroke-width="2.5"/>
          <line id="Línea_4618" data-name="Línea 4618" x2="22.259" transform="translate(117.623 117.403)" fill="none" stroke="#263238" stroke-linecap="round" stroke-linejoin="round" stroke-width="2.5"/>
          <path id="Trazado_1065753" data-name="Trazado 1065753" d="M169.863,76.3V99.532a4.036,4.036,0,0,1-4.043,4.043H123.391a4.036,4.036,0,0,1-4.043-4.043V76.3a4.041,4.041,0,0,1,4.043-4.043H165.82a4.041,4.041,0,0,1,4.043,4.043" transform="translate(-11.525 -6.978)" fill="#fff"/>
          <rect id="Rectángulo_424350" data-name="Rectángulo 424350" width="50.515" height="31.314" rx="4.475" transform="translate(107.823 65.283)" fill="none" stroke="#263238" stroke-linecap="round" stroke-linejoin="round" stroke-width="2.5"/>
          <path id="Trazado_1065754" data-name="Trazado 1065754" d="M169.863,88.026v12.6a4.036,4.036,0,0,1-4.043,4.044H123.391a4.037,4.037,0,0,1-4.043-4.044V97.955c2.889-1.875,6.994-4.717,10.092-6.893a7.688,7.688,0,0,1,8.822-.015l2.339,1.626a7.7,7.7,0,0,0,9.913-.938l5.662-5.808a7.707,7.707,0,0,1,10.371-.6Z" transform="translate(-11.525 -8.073)" fill="#ec644e"/>
          <rect id="Rectángulo_424351" data-name="Rectángulo 424351" width="50.515" height="31.314" rx="4.475" transform="translate(107.823 65.283)" fill="none" stroke="#263238" stroke-linecap="round" stroke-linejoin="round" stroke-width="2.5"/>
          <path id="Trazado_1065755" data-name="Trazado 1065755" d="M150.292,82.23a4.214,4.214,0,1,1-4.214-4.214,4.213,4.213,0,0,1,4.214,4.214" transform="translate(-13.699 -7.534)" fill="#ec644e"/>
          <path id="Trazado_1065756" data-name="Trazado 1065756" d="M142.9,44.244V60.06a3.3,3.3,0,0,1-3.3,3.3h-16.94a3.3,3.3,0,0,1-3.3-3.3V44.244a3.3,3.3,0,0,1,3.3-3.3h16.94a3.3,3.3,0,0,1,3.3,3.3" transform="translate(-11.525 -3.953)" fill="#fff"/>
          <rect id="Rectángulo_424352" data-name="Rectángulo 424352" width="23.548" height="22.424" rx="3.657" transform="translate(107.823 36.987)" fill="none" stroke="#263238" stroke-linecap="round" stroke-linejoin="round" stroke-width="2.5"/>
          <path id="Trazado_1065757" data-name="Trazado 1065757" d="M172.625,44.244V60.06a3.3,3.3,0,0,1-3.3,3.3h-16.94a3.3,3.3,0,0,1-3.3-3.3V44.244a3.3,3.3,0,0,1,3.3-3.3h16.94a3.3,3.3,0,0,1,3.3,3.3" transform="translate(-14.396 -3.953)" fill="#fff"/>
          <rect id="Rectángulo_424353" data-name="Rectángulo 424353" width="23.548" height="22.424" rx="3.657" transform="translate(134.681 36.987)" fill="none" stroke="#263238" stroke-linecap="round" stroke-linejoin="round" stroke-width="2.5"/>
        </g>
      </g>
      <g id="Grupo_1229834" data-name="Grupo 1229834">
        <g id="Grupo_1229833" data-name="Grupo 1229833" clip-path="url(#clip-path-2)">
          <path id="Trazado_1065758" data-name="Trazado 1065758" d="M429.638,27.926H388.292a4.183,4.183,0,0,0-4.14,4.224V58.7a4.184,4.184,0,0,0,4.14,4.225h13.29l-1.36,9.745a1.029,1.029,0,0,0,1.58,1.024l16.078-10.769h11.757A4.184,4.184,0,0,0,433.78,58.7V32.15a4.184,4.184,0,0,0-4.141-4.224" transform="translate(-37.096 -2.697)" fill="#fff"/>
          <path id="Trazado_1065759" data-name="Trazado 1065759" d="M429.638,27.926H388.292a4.183,4.183,0,0,0-4.14,4.224V58.7a4.184,4.184,0,0,0,4.14,4.225h13.29l-1.36,9.745a1.029,1.029,0,0,0,1.58,1.024l16.078-10.769h11.757A4.184,4.184,0,0,0,433.78,58.7V32.15A4.184,4.184,0,0,0,429.638,27.926Z" transform="translate(-37.096 -2.697)" fill="none" stroke="#263238" stroke-linecap="round" stroke-linejoin="round" stroke-width="2.5"/>
          <path id="Trazado_1065760" data-name="Trazado 1065760" d="M397.541,50.917a3.194,3.194,0,0,0,2.627,1.213,3.159,3.159,0,0,0,2.614-1.213,5.2,5.2,0,0,0,.962-3.315V37.948h3.9v9.78a7.763,7.763,0,0,1-2.1,5.841,8.112,8.112,0,0,1-10.768-.013,7.741,7.741,0,0,1-2.114-5.828v-9.78h3.9V47.6a5.144,5.144,0,0,0,.976,3.315" transform="translate(-37.918 -3.664)" fill="#ec644e"/>
          <path id="Trazado_1065761" data-name="Trazado 1065761" d="M423.359,37.947h4.7l-5.453,8.43,5.9,9.054h-4.754l-3.726-5.753-3.7,5.753h-4.7l5.879-8.955-5.478-8.529H416.7l3.328,5.178Z" transform="translate(-39.749 -3.664)" fill="#ec644e"/>
        </g>
      </g>
      <g id="Grupo_1229836" data-name="Grupo 1229836">
        <g id="Grupo_1229835" data-name="Grupo 1229835" clip-path="url(#clip-path-2)">
          <path id="Trazado_1065762" data-name="Trazado 1065762" d="M16.478,140.331H63.426a4.751,4.751,0,0,1,4.7,4.8v30.143a4.751,4.751,0,0,1-4.7,4.8H48.335l1.544,11.066a1.169,1.169,0,0,1-1.794,1.162L29.829,180.069H16.478a4.751,4.751,0,0,1-4.7-4.8V145.128a4.75,4.75,0,0,1,4.7-4.8" transform="translate(-1.137 -13.551)" fill="#fff"/>
          <path id="Trazado_1065763" data-name="Trazado 1065763" d="M16.478,140.331H63.426a4.751,4.751,0,0,1,4.7,4.8v30.143a4.751,4.751,0,0,1-4.7,4.8H48.335l1.544,11.066a1.169,1.169,0,0,1-1.794,1.162L29.829,180.069H16.478a4.751,4.751,0,0,1-4.7-4.8V145.128A4.75,4.75,0,0,1,16.478,140.331Z" transform="translate(-1.137 -13.551)" fill="none" stroke="#263238" stroke-linecap="round" stroke-linejoin="round" stroke-width="2.5"/>
          <path id="Trazado_1065764" data-name="Trazado 1065764" d="M34.088,166.387a3.627,3.627,0,0,0,2.983,1.378,3.588,3.588,0,0,0,2.968-1.378,5.894,5.894,0,0,0,1.093-3.764V151.66h4.43v11.106a8.816,8.816,0,0,1-2.385,6.632,8.4,8.4,0,0,1-6.106,2.315,8.423,8.423,0,0,1-6.121-2.329,8.79,8.79,0,0,1-2.4-6.618V151.66h4.43v10.963a5.839,5.839,0,0,0,1.109,3.764" transform="translate(-2.757 -14.645)" fill="#ec644e"/>
          <rect id="Rectángulo_424356" data-name="Rectángulo 424356" width="4.431" height="19.854" transform="translate(47.406 137.015)" fill="#ec644e"/>
        </g>
      </g>
      <g id="Grupo_1229838" data-name="Grupo 1229838">
        <g id="Grupo_1229837" data-name="Grupo 1229837" clip-path="url(#clip-path-2)">
          <path id="Trazado_1065765" data-name="Trazado 1065765" d="M379.353,85.262c-.981-.72-2.631.219-2.342,1.337.706,2.738,1.563,7.245.463,9.969-1.665,4.119.71,5.273,2.631,3.618s2.961-9.038,1.153-12.6a6.411,6.411,0,0,0-1.9-2.321" transform="translate(-36.396 -8.209)" fill="#263238"/>
          <path id="Trazado_1065766" data-name="Trazado 1065766" d="M379.353,85.262c-.981-.72-2.631.219-2.342,1.337.706,2.738,1.563,7.245.463,9.969-1.665,4.119.71,5.273,2.631,3.618s2.961-9.038,1.153-12.6A6.411,6.411,0,0,0,379.353,85.262Z" transform="translate(-36.396 -8.209)" fill="none" stroke="#263238" stroke-linecap="round" stroke-linejoin="round" stroke-width="2.5"/>
          <path id="Trazado_1065767" data-name="Trazado 1065767" d="M374.442,107.855a1.216,1.216,0,0,0,1.364,1.3,1.7,1.7,0,0,0,1.626-1.427,1.216,1.216,0,0,0-1.365-1.3,1.7,1.7,0,0,0-1.625,1.427" transform="translate(-36.158 -10.277)" fill="#263238"/>
          <path id="Trazado_1065768" data-name="Trazado 1065768" d="M374.442,107.855a1.216,1.216,0,0,0,1.364,1.3,1.7,1.7,0,0,0,1.626-1.427,1.216,1.216,0,0,0-1.365-1.3A1.7,1.7,0,0,0,374.442,107.855Z" transform="translate(-36.158 -10.277)" fill="none" stroke="#263238" stroke-linecap="round" stroke-linejoin="round" stroke-width="2.5"/>
          <path id="Trazado_1065769" data-name="Trazado 1065769" d="M411.618,382.418s14.768.652,12.913-2.544c-5.626-.315-6.734-1.978-12.223-2.215Z" transform="translate(-39.748 -36.469)" fill="#263238"/>
          <path id="Trazado_1065770" data-name="Trazado 1065770" d="M411.618,382.418s14.768.652,12.913-2.544c-5.626-.315-6.734-1.978-12.223-2.215Z" transform="translate(-39.748 -36.469)" fill="none" stroke="#263238" stroke-linecap="round" stroke-linejoin="round" stroke-width="2.5"/>
          <path id="Trazado_1065771" data-name="Trazado 1065771" d="M406,392.346l-30.236.022L361.4,405.921h48.923Z" transform="translate(-34.899 -37.887)" fill="#9abae3"/>
          <path id="Trazado_1065772" data-name="Trazado 1065772" d="M406,392.346l-30.236.022L361.4,405.921h48.923Z" transform="translate(-34.899 -37.887)" fill="none" stroke="#263238" stroke-linecap="round" stroke-linejoin="round" stroke-width="2.5"/>
          <path id="Trazado_1065773" data-name="Trazado 1065773" d="M364.908,334.47l10.212,52.287H406.34c1.279-19.962,8.5-28.934.472-51.354Z" transform="translate(-35.237 -32.298)" fill="#b5846b"/>
          <path id="Trazado_1065774" data-name="Trazado 1065774" d="M364.908,334.47l10.212,52.287H406.34c1.279-19.962,8.5-28.934.472-51.354Z" transform="translate(-35.237 -32.298)" fill="none" stroke="#263238" stroke-linecap="round" stroke-linejoin="round" stroke-width="2.5"/>
          <path id="Trazado_1065775" data-name="Trazado 1065775" d="M344.713,391.442H314.837l-18.069,14.391h50.757Z" transform="translate(-28.657 -37.8)" fill="#9abae3"/>
          <path id="Trazado_1065776" data-name="Trazado 1065776" d="M344.713,391.442H314.837l-18.069,14.391h50.757Z" transform="translate(-28.657 -37.8)" fill="none" stroke="#263238" stroke-linecap="round" stroke-linejoin="round" stroke-width="2.5"/>
          <path id="Trazado_1065777" data-name="Trazado 1065777" d="M311.022,333.542l4.206,52.287,30.861.022c1.279-19.961,8.863-28.956.831-51.376Z" transform="translate(-30.034 -32.209)" fill="#b5846b"/>
          <path id="Trazado_1065778" data-name="Trazado 1065778" d="M311.022,333.542l4.206,52.287,30.861.022c1.279-19.961,8.863-28.956.831-51.376Z" transform="translate(-30.034 -32.209)" fill="none" stroke="#263238" stroke-linecap="round" stroke-linejoin="round" stroke-width="2.5"/>
          <path id="Trazado_1065779" data-name="Trazado 1065779" d="M410.086,338.512c1.719-15.818,3.078-20.5-4.186-36.149-3.451-7.435,2.606-46.564-3.441-66.257H320.7c-15.193,38.289-15.246,60.3-15.256,68.383-.007,6.374,2.886,53.891,4.016,60.328.449,2.559,12.073,2.786,22.327-1.325,5.04-2.021,12.785-.491,21.309-.491.695,0-1.207-6.325-1.43-13.219-.359-11.092.451-25.247-.434-28.826-1.235-5-3.991-13.89-3.544-20.169,0,0,4.472-12.11,5.078-13.544l.412,12.223c1.324.866,13.451,65.987,13.451,65.987,1.279.633,14.452,4.082,24.08.566,14.977-5.469,25.213,1.978,23.474-.231-2.65-3.365-4.8-20.815-4.1-27.274" transform="translate(-29.495 -22.8)" fill="#ec644e"/>
          <path id="Trazado_1065780" data-name="Trazado 1065780" d="M313.624,364.817c-1.13-6.437-4.023-53.955-4.016-60.328.01-8.079.063-30.093,15.256-68.384H320.7c-15.193,38.29-15.246,60.305-15.256,68.384-.007,6.373,2.886,53.891,4.016,60.328.244,1.392,3.8,2.091,8.631,1.781-2.6-.206-4.3-.832-4.464-1.781" transform="translate(-29.495 -22.8)" fill="#fff"/>
          <path id="Trazado_1065781" data-name="Trazado 1065781" d="M345.073,376c3.6.134,7.63.508,11.848.508.05,0,.082-.04.107-.1-4.394-.193-8.478-.585-11.955-.407" transform="translate(-33.322 -36.304)" fill="#fff"/>
          <path id="Trazado_1065782" data-name="Trazado 1065782" d="M375.851,368.506s-10.1-54.024-10.887-59.749l-6.289-41.021c-.4.94-.96,21.888-.855,22.56l1.019,12.374c.785,5.724,12.844,65.837,12.844,65.837a46.506,46.506,0,0,0,16.041,2.069,43.963,43.963,0,0,1-11.873-2.069" transform="translate(-34.552 -25.854)" fill="#fff"/>
          <path id="Trazado_1065783" data-name="Trazado 1065783" d="M424.169,378.513a31.853,31.853,0,0,0-9.492-.809c7.159.478,11.2,3.2,10.053,1.749a5.371,5.371,0,0,1-.561-.94" transform="translate(-40.043 -36.466)" fill="#fff"/>
          <path id="Trazado_1065784" data-name="Trazado 1065784" d="M410.086,338.512c1.719-15.818,3.078-20.5-4.186-36.149-3.451-7.435,2.606-46.564-3.441-66.257H320.7c-15.193,38.289-15.246,60.3-15.256,68.383-.007,6.374,2.886,53.891,4.016,60.328.449,2.559,12.073,2.786,22.327-1.325,5.04-2.021,12.785-.491,21.309-.491.695,0-1.207-6.325-1.43-13.219-.359-11.092.451-25.247-.434-28.826-1.235-5-3.991-13.89-3.544-20.169,0,0,4.472-12.11,5.078-13.544l.058,1.7a96.03,96.03,0,0,0,2.223,17.547c3.768,17.006,11.582,58.963,11.582,58.963,1.279.633,14.452,4.082,24.08.566,14.977-5.469,25.213,1.978,23.474-.231C411.531,362.421,409.384,344.971,410.086,338.512Z" transform="translate(-29.495 -22.8)" fill="none" stroke="#263238" stroke-linecap="round" stroke-linejoin="round" stroke-width="2.5"/>
          <path id="Trazado_1065785" data-name="Trazado 1065785" d="M368.955,128.513c-4.143-.784,12.443-.323,13.67-3.554,1.136-2.99-18.062-13.49-34.073-13.712-7.318-.1-15.017,8.126-11.724,14.662.325.647.608,1.017.809.948,3.884-1.335-9.767,6.123-11.8,7.035l-.056.024c-.18.08-.367.171-.559.268-9.355,4.763-14.873,8.616-9.28,17.5l-17.079-22.1-24.013,19.267,19.991,32.881-3.6,1.8-.933,34.25,28.416-7.368c-14.069,12.794-7.44,23.188-7.44,23.188l-.788,10.927c2.966-.487,13.064,11.528,56.274,7.152,8.7-.881,16.919-3.953,24.742-7.852,3.209-1.6,8.545-1.936,16.063,4.029l-.695-13.594c7.148-7.089,2.615-20.007-1.943-36.342-4.063-14.554-13.38-26.093-12.039-33.258,3.169-16.929-6.519-32.847-23.945-36.144" transform="translate(-26.541 -10.742)" fill="#9abae3"/>
          <path id="Trazado_1065786" data-name="Trazado 1065786" d="M356.649,142.819l-3.635,7.988-3.431,5.921a24.085,24.085,0,0,1-2.98,4.111l-17.244,16.705-37.7,13.625-.408-5.682,1.58-.79a.03.03,0,0,0,.02-.01l1.99-1-19.994-32.877,24.015-19.274,3.3,4.28L278.883,151.7l19.974,31.086,20.4-6.971,2.55-.67.11-.03.03-.031a10.325,10.325,0,0,0,1.9-.84c4.59-3.6,19.024-15.653,22.325-21.244a33.6,33.6,0,0,1,6.961-8.251Z" transform="translate(-26.54 -12.702)" fill="#fff"/>
          <path id="Trazado_1065787" data-name="Trazado 1065787" d="M321.21,153.249c-5.592-8.884,5.226-12.738,14.582-17.5.192-.1.379-.188.558-.268l.057-.024c2.034-.912,15.685-8.37,11.8-7.035-.2.07-.483-.3-.809-.948-3.292-6.535,4.407-14.764,11.725-14.662a46.013,46.013,0,0,1,7.246.721,53.494,53.494,0,0,0-13.925-2.286c-7.318-.1-15.017,8.127-11.725,14.663.326.647.609,1.016.809.948,3.884-1.336-9.767,6.123-11.8,7.034l-.056.025c-.18.08-.367.17-.559.268-5.319,2.708-12.432,6.489-13.935,9.7Z" transform="translate(-30.435 -10.742)" fill="#fff"/>
          <path id="Trazado_1065788" data-name="Trazado 1065788" d="M318.757,255v-9.714s-5.944-12.716,8.126-25.51l-4.347,1.109c-10.1,11.388-7.44,23.188-7.44,23.188L314.309,255c1.821-.3,6.35,4.117,19.58,6.555-8.188-2.387-13.657-6.8-15.132-6.555" transform="translate(-30.351 -21.223)" fill="#fff"/>
          <path id="Trazado_1065789" data-name="Trazado 1065789" d="M415.778,258.632a28.258,28.258,0,0,1,5.408,3.451l-.126-2.483a13.372,13.372,0,0,0-5.281-.968" transform="translate(-40.15 -24.974)" fill="#fff"/>
          <path id="Trazado_1065790" data-name="Trazado 1065790" d="M368.955,128.513c-4.143-.784,12.443-.323,13.67-3.554,1.136-2.99-18.062-13.49-34.073-13.712-7.318-.1-15.017,8.126-11.724,14.662.325.647.608,1.017.809.948,3.884-1.335-9.767,6.123-11.8,7.035l-.056.024c-.18.08-.367.171-.559.268-9.355,4.763-14.873,8.616-9.28,17.5l-17.079-22.1-24.013,19.267,19.991,32.881-3.6,1.8-.933,34.25,28.416-7.368c-14.069,12.794-7.44,23.188-7.44,23.188l-.788,10.927c2.966-.487,13.064,11.528,56.274,7.152,8.7-.881,16.919-3.953,24.742-7.852,3.209-1.6,8.545-1.936,16.063,4.029l-.695-13.594c7.148-7.089,2.615-20.007-1.943-36.342-4.063-14.554-13.38-26.093-12.039-33.258C396.069,147.728,386.381,131.81,368.955,128.513Z" transform="translate(-26.541 -10.742)" fill="none" stroke="#263238" stroke-linecap="round" stroke-linejoin="round" stroke-width="2.5"/>
          <path id="Trazado_1065791" data-name="Trazado 1065791" d="M381.923,236.207s-15.4,4.851-28.343,4.821c-7.6-.02-26.625-2.661-26.625-2.661l1.7-16.094a45.166,45.166,0,0,0,10.725-7.091c5.761-1.83,10.682-3.831,14.423-6.331,1.55-1.03,2.97-2.091,4.29-3.17l5.739-.52s-.61,9.932,5.021,12.733a53.3,53.3,0,0,0,9.972,3.86Z" transform="translate(-31.572 -19.811)" fill="#ec644e"/>
          <path id="Trazado_1065792" data-name="Trazado 1065792" d="M381.923,236.207s-15.4,4.851-28.343,4.821c-7.6-.02-26.625-2.661-26.625-2.661l1.7-16.094a45.166,45.166,0,0,0,10.725-7.091c5.761-1.83,10.682-3.831,14.423-6.331,1.55-1.03,2.97-2.091,4.29-3.17l5.739-.52s-.61,9.932,5.021,12.733a53.3,53.3,0,0,0,9.972,3.86Z" transform="translate(-31.572 -19.811)" fill="none" stroke="#263238" stroke-linecap="round" stroke-linejoin="round" stroke-width="2.5"/>
          <path id="Trazado_1065793" data-name="Trazado 1065793" d="M355.337,134.269a11.508,11.508,0,0,1-3.033.826c-3.287.4-5.834-1-6.168-3.744-.43-3.549,2.993-8,7.643-9.934a8.763,8.763,0,0,1,6.646-.432,4.031,4.031,0,0,1,2.557,3.342c.426,3.552-2.993,8-7.645,9.942" transform="translate(-33.421 -11.638)" fill="#263238"/>
          <path id="Trazado_1065794" data-name="Trazado 1065794" d="M355.337,134.269a11.508,11.508,0,0,1-3.033.826c-3.287.4-5.834-1-6.168-3.744-.43-3.549,2.993-8,7.643-9.934a8.763,8.763,0,0,1,6.646-.432,4.031,4.031,0,0,1,2.557,3.342C363.407,127.879,359.988,132.327,355.337,134.269Z" transform="translate(-33.421 -11.638)" fill="none" stroke="#263238" stroke-linecap="round" stroke-linejoin="round" stroke-width="2.5"/>
          <path id="Trazado_1065795" data-name="Trazado 1065795" d="M362.4,117.356a15.725,15.725,0,0,1-1.743,4.81c-2.769,4.948-8,7.86-13.3,6.86-6.845-1.292-11.214-8.616-9.747-16.35a14.99,14.99,0,0,1,6.3-9.8,11.754,11.754,0,0,1,8.737-1.88c6.848,1.3,11.215,8.616,9.76,16.358" transform="translate(-32.574 -9.734)" fill="#b5846b"/>
          <path id="Trazado_1065796" data-name="Trazado 1065796" d="M352.252,128.494c-6.845-1.292-11.215-8.617-9.748-16.351a14.989,14.989,0,0,1,6.3-9.8,12.635,12.635,0,0,1,2.977-1.463,11.838,11.838,0,0,0-7.873,2,14.99,14.99,0,0,0-6.3,9.8c-1.467,7.734,2.9,15.059,9.748,16.351a11.38,11.38,0,0,0,5.756-.411c-.286-.032-.573-.069-.859-.123" transform="translate(-32.574 -9.735)" fill="#fff"/>
          <path id="Trazado_1065797" data-name="Trazado 1065797" d="M362.4,117.356a15.725,15.725,0,0,1-1.743,4.81c-2.769,4.948-8,7.86-13.3,6.86-6.845-1.292-11.214-8.616-9.747-16.35a14.99,14.99,0,0,1,6.3-9.8,11.754,11.754,0,0,1,8.737-1.88C359.491,102.3,363.858,109.614,362.4,117.356Z" transform="translate(-32.574 -9.734)" fill="none" stroke="#263238" stroke-linecap="round" stroke-linejoin="round" stroke-width="2.5"/>
          <path id="Trazado_1065798" data-name="Trazado 1065798" d="M363.081,117.356a15.725,15.725,0,0,1-1.743,4.81c-3.934-.341-3.1-6.069-6.384-7.153-5.068-1.674-8.5-3.528-9.786-6.292a9.562,9.562,0,0,1-.585-5.842,11.754,11.754,0,0,1,8.737-1.88c6.848,1.3,11.215,8.616,9.76,16.358" transform="translate(-33.252 -9.734)" fill="#263238"/>
          <path id="Trazado_1065799" data-name="Trazado 1065799" d="M363.081,117.356a15.725,15.725,0,0,1-1.743,4.81c-3.934-.341-3.1-6.069-6.384-7.153-5.068-1.674-8.5-3.528-9.786-6.292a9.562,9.562,0,0,1-.585-5.842,11.754,11.754,0,0,1,8.737-1.88C360.169,102.3,364.536,109.614,363.081,117.356Z" transform="translate(-33.252 -9.734)" fill="none" stroke="#263238" stroke-linecap="round" stroke-linejoin="round" stroke-width="2.5"/>
          <path id="Trazado_1065800" data-name="Trazado 1065800" d="M358.306,269.778c-.222,8.862-.845,17.719-.5,26.586" transform="translate(-34.542 -26.051)" fill="none" stroke="#263238" stroke-linecap="round" stroke-linejoin="round" stroke-width="2.5"/>
          <path id="Trazado_1065801" data-name="Trazado 1065801" d="M323.411,216.581c5.661-1.42,10.923-2.791,15.623-4.291,5.761-1.83,10.682-3.831,14.423-6.331,1.55-1.03,2.971-2.09,4.29-3.17,10.2-8.341,14.063-17.753,21.835-23.705a67.957,67.957,0,0,1,6-3.87" transform="translate(-31.23 -16.919)" fill="none" stroke="#263238" stroke-linecap="round" stroke-linejoin="round" stroke-width="2.5"/>
          <path id="Trazado_1065802" data-name="Trazado 1065802" d="M294.748,185.3a.031.031,0,0,0,.02-.01c.25-.07,2.651-.83,6.011-1.9,7.041-2.241,18.313-5.88,22.954-7.641.05-.02.1-.04.14-.06a10.5,10.5,0,0,0,1.9-.84c4.59-3.6,19.024-15.654,22.324-21.245a33.6,33.6,0,0,1,6.962-8.251,41.266,41.266,0,0,1,12.753-7.562" transform="translate(-28.462 -13.306)" fill="none" stroke="#263238" stroke-linecap="round" stroke-linejoin="round" stroke-width="2.5"/>
          <path id="Trazado_1065803" data-name="Trazado 1065803" d="M403.48,244.861c-17.708-.627-28.5,7.043-41.263,8-14.032,1.053-38.375-2.969-47.036-6.368" transform="translate(-30.435 -23.642)" fill="none" stroke="#263238" stroke-linecap="round" stroke-linejoin="round" stroke-width="2.5"/>
          <path id="Trazado_1065804" data-name="Trazado 1065804" d="M403.632,269.163c1.7,10.143.7,21.145,1.7,31.147,0,8,5,14,5,22-2,15-4,30.006,1.684,43.877" transform="translate(-38.977 -25.992)" fill="none" stroke="#263238" stroke-linecap="round" stroke-linejoin="round" stroke-width="2.5"/>
          <path id="Trazado_1065805" data-name="Trazado 1065805" d="M344.163,278.335c-4.807,11.3-9.21,22.758-8.4,34.863,1,9,8,16,7,25.005-1,7-3,13-3,20,0,3,2,6,3.981,7.861" transform="translate(-32.413 -26.877)" fill="none" stroke="#263238" stroke-linecap="round" stroke-linejoin="round" stroke-width="2.5"/>
          <path id="Trazado_1065806" data-name="Trazado 1065806" d="M328.651,159.884c-.556,5.848.575,18.185-1.7,17.968" transform="translate(-31.572 -15.439)" fill="none" stroke="#263238" stroke-linecap="round" stroke-linejoin="round" stroke-width="2.5"/>
          <path id="Trazado_1065807" data-name="Trazado 1065807" d="M339.223,191.131c.395-4.155-5.3-13.253-12.274-11.385" transform="translate(-31.572 -17.333)" fill="none" stroke="#263238" stroke-linecap="round" stroke-linejoin="round" stroke-width="2.5"/>
          <path id="Trazado_1065808" data-name="Trazado 1065808" d="M351.178,380.507s6.2-.4,6.256-3.678c-5.536-.077-6.037-.267-6.037-.267Z" transform="translate(-33.912 -36.363)" fill="#263238"/>
          <path id="Trazado_1065809" data-name="Trazado 1065809" d="M351.178,380.507s6.2-.4,6.256-3.678c-5.536-.077-6.037-.267-6.037-.267Z" transform="translate(-33.912 -36.363)" fill="none" stroke="#263238" stroke-linecap="round" stroke-linejoin="round" stroke-width="2.5"/>
          <path id="Trazado_1065810" data-name="Trazado 1065810" d="M415.842,263.872s6.161,2.206,5.35-1.775c-.328-1.608-5.35-3.329-5.35-3.329Z" transform="translate(-40.156 -24.988)" fill="#263238"/>
          <path id="Trazado_1065811" data-name="Trazado 1065811" d="M415.842,263.872s6.161,2.206,5.35-1.775c-.328-1.608-5.35-3.329-5.35-3.329Z" transform="translate(-40.156 -24.988)" fill="none" stroke="#263238" stroke-linecap="round" stroke-linejoin="round" stroke-width="2.5"/>
          <path id="Trazado_1065812" data-name="Trazado 1065812" d="M329.567,133.306a14.021,14.021,0,0,1-4.241,8.392c-.35.33-.72.66-1.12.97L255.55,198.344l-16.956-22.162,68.379-55.819a14.087,14.087,0,0,1,22.594,12.943" transform="translate(-23.04 -11.338)" fill="#ec644e"/>
          <path id="Trazado_1065813" data-name="Trazado 1065813" d="M283.578,147.49v-5.674l-44.985,36.721L255.549,200.7l.934-.758L242.2,181.269Z" transform="translate(-23.04 -13.695)" fill="#fff"/>
          <path id="Trazado_1065814" data-name="Trazado 1065814" d="M314.53,119.513a14.151,14.151,0,0,0-1.221.85l-9.089,7.421v5.674L316.914,123.1a13.886,13.886,0,0,1,1.22-.85,14.107,14.107,0,0,1,14.02-.434,14.1,14.1,0,0,0-17.623-2.3" transform="translate(-29.377 -11.338)" fill="#fff"/>
          <path id="Trazado_1065815" data-name="Trazado 1065815" d="M329.567,133.306a14.021,14.021,0,0,1-4.241,8.392c-.35.33-.72.66-1.12.97L255.55,198.344l-16.956-22.162,68.379-55.819a14.087,14.087,0,0,1,22.594,12.943Z" transform="translate(-23.04 -11.338)" fill="none" stroke="#263238" stroke-linecap="round" stroke-linejoin="round" stroke-width="2.5"/>
          <path id="Trazado_1065816" data-name="Trazado 1065816" d="M254.98,204.765l-13.842.9-11.316.732,3.562-10.767,4.362-13.167Z" transform="translate(-22.193 -17.619)" fill="#fff"/>
          <path id="Trazado_1065817" data-name="Trazado 1065817" d="M254.98,204.765l-13.842.9-11.316.732,3.562-10.767,4.362-13.167Z" transform="translate(-22.193 -17.619)" fill="none" stroke="#263238" stroke-linecap="round" stroke-linejoin="round" stroke-width="2.5"/>
          <path id="Trazado_1065818" data-name="Trazado 1065818" d="M234.811,207.877l-4.989.323,1.57-4.747a3.372,3.372,0,1,1,3.419,4.424" transform="translate(-22.193 -19.423)" fill="#ec644e"/>
          <path id="Trazado_1065819" data-name="Trazado 1065819" d="M234.811,207.877l-4.989.323,1.57-4.747a3.372,3.372,0,1,1,3.419,4.424Z" transform="translate(-22.193 -19.423)" fill="none" stroke="#263238" stroke-linecap="round" stroke-linejoin="round" stroke-width="2.5"/>
          <path id="Trazado_1065820" data-name="Trazado 1065820" d="M331.394,141.922c-.35.33-.72.66-1.12.97L318.512,152.5v-.01L301.428,130.4l11.613-9.812a14,14,0,0,1,1.22-.85Z" transform="translate(-29.107 -11.562)" fill="#fff"/>
          <path id="Trazado_1065821" data-name="Trazado 1065821" d="M331.394,141.922c-.35.33-.72.66-1.12.97L318.512,152.5v-.01L301.428,130.4l11.613-9.812a14,14,0,0,1,1.22-.85Z" transform="translate(-29.107 -11.562)" fill="none" stroke="#263238" stroke-linecap="round" stroke-linejoin="round" stroke-width="2.5"/>
          <line id="Línea_4619" data-name="Línea 4619" x2="17.317" y2="21.669" transform="translate(276.086 115.655)" fill="none" stroke="#263238" stroke-linecap="round" stroke-linejoin="round" stroke-width="2.5"/>
          <line id="Línea_4620" data-name="Línea 4620" x2="17.143" y2="22.186" transform="translate(280.873 111.574)" fill="none" stroke="#263238" stroke-linecap="round" stroke-linejoin="round" stroke-width="2.5"/>
          <path id="Trazado_1065822" data-name="Trazado 1065822" d="M250.447,192.829,245.168,186l56.357-46.531L306.8,146.3Z" transform="translate(-23.675 -13.467)" fill="none" stroke="#263238" stroke-linecap="round" stroke-linejoin="round" stroke-width="2.5"/>
          <path id="Trazado_1065823" data-name="Trazado 1065823" d="M258.381,202.254c-1.577.368-3.809.529-5.047,1.574a3.276,3.276,0,0,0-.715,3.382c.727,2.224,3.752,2.961,3.752,2.961s-3.7,1-2.765,4.008c.989,3.183,6.465,2.847,6.465,2.847s-3.5,4.729,2,6.454,27.01-4.562,27.01-4.562V192.6l-10.92,2.159s-21.726-8.4-17.453.778c1.106,2.374,7.115,4.106,7.115,4.106Z" transform="translate(-24.377 -18.468)" fill="#b5846b"/>
          <path id="Trazado_1065824" data-name="Trazado 1065824" d="M278.985,194.76s-21.175-8.18-17.581.458c2.694-3.232,17.581,2.518,17.581,2.518l10.92-2.158V192.6Z" transform="translate(-25.203 -18.469)" fill="#fff"/>
          <path id="Trazado_1065825" data-name="Trazado 1065825" d="M254.7,206.421c.332-.013.666-.023,1-.042a30.976,30.976,0,0,0,7.06-1.344c1.179-.349,2.346-.739,3.508-1.138.937-.323,1.9-.441,2.327-1.46a1.365,1.365,0,0,0-.762-1.9l-9.441,2.611c-1.577.368-3.81.529-5.047,1.574-.365.308-1.355,1.984-.384,1.836a15.5,15.5,0,0,1,1.739-.139" transform="translate(-24.387 -19.365)" fill="#fff"/>
          <path id="Trazado_1065826" data-name="Trazado 1065826" d="M258.381,202.254c-1.577.368-3.809.529-5.047,1.574a3.276,3.276,0,0,0-.715,3.382c.727,2.224,3.752,2.961,3.752,2.961s-3.7,1-2.765,4.008c.989,3.183,6.465,2.847,6.465,2.847s-3.5,4.729,2,6.454,26.219-3.2,26.219-3.2l.791-27.519-10.92,2s-21.726-8.4-17.453.778c1.106,2.374,7.115,4.106,7.115,4.106Z" transform="translate(-24.377 -18.468)" fill="none" stroke="#263238" stroke-linecap="round" stroke-linejoin="round" stroke-width="2.5"/>
          <path id="Trazado_1065827" data-name="Trazado 1065827" d="M256.792,211.982c2.675.561,7.286-.406,10.4-1.955" transform="translate(-24.797 -20.281)" fill="none" stroke="#263238" stroke-linecap="round" stroke-linejoin="round" stroke-width="2.5"/>
          <path id="Trazado_1065828" data-name="Trazado 1065828" d="M260.887,219.667a33.727,33.727,0,0,0,8.348-1.045" transform="translate(-25.193 -21.111)" fill="none" stroke="#263238" stroke-linecap="round" stroke-linejoin="round" stroke-width="2.5"/>
          <path id="Trazado_1065829" data-name="Trazado 1065829" d="M321.708,169.635a62.858,62.858,0,0,0-1.376-13.627" transform="translate(-30.933 -15.065)" fill="none" stroke="#263238" stroke-linecap="round" stroke-linejoin="round" stroke-width="2.5"/>
          <path id="Trazado_1065830" data-name="Trazado 1065830" d="M274.82,150.148s-1.661-12.962,3.53-13.544,1.916-5.8,7.751-6.54,1-6.216,8-5.235c7.156,1,8.913,10.043,3.452,10.184a9.43,9.43,0,0,1-2.118-.516s1.584,2.74-1.668,5.584c-2.043,1.787-4.917.75-4.917.75s-.175,5.356-4.751,4.418a24.889,24.889,0,0,0-3.2-.066Z" transform="translate(-26.514 -12.043)" fill="#b5846b"/>
          <path id="Trazado_1065831" data-name="Trazado 1065831" d="M274.82,150.148s-1.661-12.962,3.53-13.544,1.916-5.8,7.751-6.54,1-6.216,8-5.235c7.156,1,8.913,10.043,3.452,10.184a9.43,9.43,0,0,1-2.118-.516s1.584,2.74-1.668,5.584c-2.043,1.787-4.917.75-4.917.75s-.175,5.356-4.751,4.418a24.889,24.889,0,0,0-3.2-.066Z" transform="translate(-26.514 -12.043)" fill="none" stroke="#263238" stroke-linecap="round" stroke-linejoin="round" stroke-width="2.5"/>
          <path id="Trazado_1065832" data-name="Trazado 1065832" d="M297.055,136.8c0-2.027-4.861-7.337-9.72-6.182" transform="translate(-27.747 -12.598)" fill="none" stroke="#263238" stroke-linecap="round" stroke-linejoin="round" stroke-width="2.5"/>
          <path id="Trazado_1065833" data-name="Trazado 1065833" d="M289.411,142.052c-.344-1.736-4.528-5.385-9.057-4.585" transform="translate(-27.072 -13.264)" fill="none" stroke="#263238" stroke-linecap="round" stroke-linejoin="round" stroke-width="2.5"/>
          <path id="Trazado_1065834" data-name="Trazado 1065834" d="M282.175,147.341c.845,0-.949.027-1,.03-.082,0-2.041-.02-3.253-.03" transform="translate(-26.838 -14.228)" fill="none" stroke="#263238" stroke-linecap="round" stroke-linejoin="round" stroke-width="2.5"/>
          <path id="Trazado_1065835" data-name="Trazado 1065835" d="M284.77,138.789c-1.876,3.092,1.445,6.432,3.353,7.241" transform="translate(-27.445 -13.402)" fill="none" stroke="#263238" stroke-linecap="round" stroke-linejoin="round" stroke-width="2.5"/>
          <path id="Trazado_1065836" data-name="Trazado 1065836" d="M366.714,88.607a6.4,6.4,0,0,0-2.24-1.094c-4.364-1.163-7.785,3.556-5.755,7.591a2.943,2.943,0,0,1,.247.646,10.371,10.371,0,0,1-2.109,8.4c-.136.181-.283.348-.427.517,3.353,1.432,7.816-.036,10.63-3.728,3.214-4.218,3.059-9.741-.346-12.336" transform="translate(-34.419 -8.433)" fill="#263238"/>
          <path id="Trazado_1065837" data-name="Trazado 1065837" d="M366.714,88.607a6.4,6.4,0,0,0-2.24-1.094c-4.364-1.163-7.785,3.556-5.755,7.591a2.943,2.943,0,0,1,.247.646,10.371,10.371,0,0,1-2.109,8.4c-.136.181-.283.348-.427.517,3.353,1.432,7.816-.036,10.63-3.728C370.274,96.725,370.119,91.2,366.714,88.607Z" transform="translate(-34.419 -8.433)" fill="none" stroke="#263238" stroke-linecap="round" stroke-linejoin="round" stroke-width="2.5"/>
          <path id="Trazado_1065838" data-name="Trazado 1065838" d="M362.828,137.176c3.638-3.178,9.934-7.331,14.07-6.972" transform="translate(-35.036 -12.571)" fill="none" stroke="#263238" stroke-linecap="round" stroke-linejoin="round" stroke-width="2.5"/>
          <path id="Trazado_1065839" data-name="Trazado 1065839" d="M371.809,118.939c4.473,1.4,9.356,3.551,8.515,4.979-1.334,2.263-9.831-1-13.22,1.785-7.747,6.38-9.574,7.9-9.574,7.9" transform="translate(-34.525 -11.485)" fill="none" stroke="#263238" stroke-linecap="round" stroke-linejoin="round" stroke-width="2.5"/>
          <path id="Trazado_1065840" data-name="Trazado 1065840" d="M405.425,170.366a153.786,153.786,0,0,0-.847,18.847" transform="translate(-39.065 -16.451)" fill="none" stroke="#263238" stroke-linecap="round" stroke-linejoin="round" stroke-width="2.5"/>
          <path id="Trazado_1065841" data-name="Trazado 1065841" d="M354.39,141.816c-4.881,2.626-9.663,1.757-10.041,0" transform="translate(-33.252 -13.694)" fill="none" stroke="#263238" stroke-linecap="round" stroke-linejoin="round" stroke-width="2.5"/>
          <path id="Trazado_1065842" data-name="Trazado 1065842" d="M341.825,146.8c-1.73,5.618-12.486,11.816-5.3,23.174" transform="translate(-32.26 -14.176)" fill="none" stroke="#263238" stroke-linecap="round" stroke-linejoin="round" stroke-width="2.5"/>
          <path id="Trazado_1065843" data-name="Trazado 1065843" d="M349.254,147.341a2.6,2.6,0,0,0,2.219,2.084,29.662,29.662,0,0,0,3.263.171,6.925,6.925,0,0,1,5.2,3.293c1.274,2.136,1.283,4.76,1.427,7.245.2,3.5.992,7.313,5.111,7.524" transform="translate(-33.726 -14.228)" fill="none" stroke="#263238" stroke-linecap="round" stroke-linejoin="round" stroke-width="2.5"/>
        </g>
      </g>
      <g id="Grupo_1229840" data-name="Grupo 1229840" transform="translate(4.434 4.357)">
        <g id="Grupo_1229839" data-name="Grupo 1229839" clip-path="url(#clip-path-9)">
          <path id="Trazado_1065844" data-name="Trazado 1065844" d="M167.882,424.151H45.726V356.259A29.373,29.373,0,0,1,75.1,326.886h63.408a29.373,29.373,0,0,1,29.374,29.373Z" transform="translate(-5.293 -37.839)" fill="#ec644e"/>
          <path id="Trazado_1065845" data-name="Trazado 1065845" d="M167.882,424.151H45.726V356.259A29.373,29.373,0,0,1,75.1,326.886h63.408a29.373,29.373,0,0,1,29.374,29.373Z" transform="translate(-5.293 -37.839)" fill="none" stroke="#263238" stroke-linecap="round" stroke-linejoin="round" stroke-width="2.5"/>
          <path id="Trazado_1065846" data-name="Trazado 1065846" d="M186.685,382.016l3.778,41.481-25.949,1.857s.86-.606-6.351-12.03c-8.671-13.737-.026-28.117-.026-28.117Z" transform="translate(-17.862 -44.221)" fill="#fcd8c3"/>
          <path id="Trazado_1065847" data-name="Trazado 1065847" d="M186.685,382.016l3.778,41.481-25.949,1.857s.86-.606-6.351-12.03c-8.671-13.737-.026-28.117-.026-28.117Z" transform="translate(-17.862 -44.221)" fill="none" stroke="#263238" stroke-linecap="round" stroke-linejoin="round" stroke-width="2.5"/>
          <path id="Trazado_1065848" data-name="Trazado 1065848" d="M97.105,306.8s38.022-8.8,51.529-4.135,32.643,16.767,32.916,35.444c.238,16.183,9.259,63.188,9.259,63.188s-9.259-3.6-21.148,1.083c-12.183,4.8-26.99.962-26.99.962s.426-17.253-2.044-23.654c-2.181-5.651-3.2-24.263-2.644-26.736l.953-9.285Z" transform="translate(-11.24 -34.877)" fill="#9abae3"/>
          <path id="Trazado_1065849" data-name="Trazado 1065849" d="M190.807,401.3a23.478,23.478,0,0,0-5.924-1.2c-2.467-13.467-7.87-44.23-8.055-56.7-.274-18.675-19.409-30.781-32.912-35.449-9.435-3.254-30.807.053-42.85,2.343L97.1,306.8s38.023-8.8,51.534-4.138,32.637,16.774,32.912,35.449c.239,16.182,9.258,63.188,9.258,63.188" transform="translate(-11.24 -34.877)" fill="#fff"/>
          <path id="Trazado_1065850" data-name="Trazado 1065850" d="M195.3,412.955a25.121,25.121,0,0,1,6.873,1.258s-.063-.333-.179-.943a31.346,31.346,0,0,0-6.695-.315" transform="translate(-22.607 -47.796)" fill="#fff"/>
          <path id="Trazado_1065851" data-name="Trazado 1065851" d="M97.105,306.8s38.022-8.8,51.529-4.135,32.643,16.767,32.916,35.444c.238,16.183,9.259,63.188,9.259,63.188s-9.259-3.6-21.148,1.083c-12.183,4.8-26.99.962-26.99.962s.426-17.253-2.044-23.654c-2.181-5.651-3.2-24.263-2.644-26.736l.953-9.285Z" transform="translate(-11.24 -34.877)" fill="none" stroke="#263238" stroke-linecap="round" stroke-linejoin="round" stroke-width="2.5"/>
          <path id="Trazado_1065852" data-name="Trazado 1065852" d="M121.624,388.49l-19.618,33.739L79.3,409.534s1.051-.034,1.3-13.542c.3-16.242,15.416-23.513,15.416-23.513Z" transform="translate(-9.179 -43.117)" fill="#fcd8c3"/>
          <path id="Trazado_1065853" data-name="Trazado 1065853" d="M121.624,388.49l-19.618,33.739L79.3,409.534s1.051-.034,1.3-13.542c.3-16.242,15.416-23.513,15.416-23.513Z" transform="translate(-9.179 -43.117)" fill="none" stroke="#263238" stroke-linecap="round" stroke-linejoin="round" stroke-width="2.5"/>
          <path id="Trazado_1065854" data-name="Trazado 1065854" d="M78.117,414.386l22.707,12.7,11.6,21.255L69.079,425.928Z" transform="translate(-7.996 -47.968)" fill="#9abae3"/>
          <path id="Trazado_1065855" data-name="Trazado 1065855" d="M78.117,414.386l22.707,12.7,11.6,21.255L69.079,425.928Z" transform="translate(-7.996 -47.968)" fill="none" stroke="#263238" stroke-linecap="round" stroke-linejoin="round" stroke-width="2.5"/>
          <path id="Trazado_1065856" data-name="Trazado 1065856" d="M129.1,363.033c-.2.621-.4,1.231-.6,1.841a151.392,151.392,0,0,0-6.853,35.181.69.69,0,0,0-.1.01c-.67.041-2.843,4.02-14.64-1.043C93.5,393.268,73.245,397.26,73.064,395.7v-.01a.244.244,0,0,1,.04-.15c3.312-5.813,3-16.469,4.873-22.592,3.072-10.006,8.132-11.017,8.692-16.63v-.07c-.1-.19,3.625-7.264,3.625-7.264a.735.735,0,0,0-.01-.141l-4.7-5.593A8.978,8.978,0,0,0,82,340.5l-12.017-5.333a32.6,32.6,0,0,1-14.268-11.987c-1.982-3.072-1.621-19.071-1.621-19.071,5.832-3.433,5.823.951,10.466-2.512,10.016-7.484,33.569.741,33.569.741s6.994,3.342,14.989,7.854c10.276,5.784,22.193,13.488,23.033,18.471,1.5,8.855-.6,14.861-7.054,34.371" transform="translate(-6.259 -34.547)" fill="#9abae3"/>
          <path id="Trazado_1065857" data-name="Trazado 1065857" d="M141.614,329.076c-.84-4.987-12.76-12.689-23.035-18.472-7.994-4.51-14.988-7.852-14.988-7.852s-.858-.3-2.317-.734c2.75,1.371,7.357,3.731,12.353,6.552,10.275,5.783,22.195,13.485,23.035,18.472,1.5,8.851-.6,14.864-7.056,34.371-.195.619-.4,1.229-.6,1.839a151.677,151.677,0,0,0-6.853,35.184.767.767,0,0,0-.1.009c-.546.036-2.082,2.674-8.987.933v.347c11.18,4.6,13.28.789,13.938.754a.757.757,0,0,1,.1-.009,151.677,151.677,0,0,1,6.853-35.184c.2-.61.407-1.22.6-1.839,6.455-19.515,8.559-25.519,7.056-34.371" transform="translate(-11.723 -34.96)" fill="#fff"/>
          <path id="Trazado_1065858" data-name="Trazado 1065858" d="M63.128,303.872c-1.984,1.479-3.065,1.436-4.167,1.251.006-.521.012-.828.012-.828,2.73-1.606,4.1-1.395,5.323-1.176a11.334,11.334,0,0,0-1.168.752" transform="translate(-6.825 -35.071)" fill="#fff"/>
          <path id="Trazado_1065859" data-name="Trazado 1065859" d="M129.1,363.033c-.2.621-.4,1.231-.6,1.841a151.392,151.392,0,0,0-6.853,35.181.69.69,0,0,0-.1.01c-.67.041-2.843,4.02-14.64-1.043C93.5,393.268,73.245,397.26,73.064,395.7v-.01a.244.244,0,0,1,.04-.15c3.312-5.813,3-16.469,4.873-22.592,3.072-10.006,8.132-11.017,8.692-16.63v-.07c.032-.3,3.74-6.235,3.625-7.264a.735.735,0,0,0-.01-.141l-4.7-5.593A8.978,8.978,0,0,0,82,340.5l-12.017-5.333a32.6,32.6,0,0,1-14.268-11.987c-1.982-3.072-1.621-19.071-1.621-19.071,5.832-3.433,5.823.951,10.466-2.512,10.016-7.484,33.569.741,33.569.741s6.994,3.342,14.989,7.854c10.276,5.784,22.193,13.488,23.033,18.471C137.651,337.516,135.549,343.522,129.1,363.033Z" transform="translate(-6.259 -34.547)" fill="none" stroke="#263238" stroke-linecap="round" stroke-linejoin="round" stroke-width="2.5"/>
          <path id="Trazado_1065860" data-name="Trazado 1065860" d="M49.945,299.1C36,296.021,39.183,288.47,38.8,281.258a83.185,83.185,0,0,1,.414-10.026c-.1.057-.179.094-.179.094l1.218-10.7s-2.95-.794-2.734-2.319c.386-2.749,2.84-8.413,3.245-10.3.518-2.363,1.095-24.435,19.294-27.571,6.9-1.187,22.105-9.632,32.726-12.193,4.8-1.157,13.464,1.215,13.464,1.215s20.2,5.124,22.859,5.707a31.5,31.5,0,0,1,9.117,3.764c5.03,3.021,9.027,11.026,12.225,16.37,1.7,2.847,4.076,6.262,6.147,10.006a26.487,26.487,0,0,1,2.912,8.047l-1.66-.183c-1.041-.115-2.082-.264-3.1-.357-2.425-.225-3.73.193-6.612,1.5,0,0-6.943,3.078-9.926,3.128l-8.161.136a95.641,95.641,0,0,0,3.181,12.343,30.919,30.919,0,0,0,1.924,5.285,54.2,54.2,0,0,0,6.142,11.5l.005.008a7.2,7.2,0,0,0,.815,1.071,28.712,28.712,0,0,0,2.262,2.556l0,.006,1.783,3.13s-8.335-2.108-12.369-.956c-7.093,2.026-14.559,6.834-21.767,6.5a23.16,23.16,0,0,0-3.3.239,52.729,52.729,0,0,0-15.042-2.276c-13.608,0-31.3,7.571-41.426,16.138-4.377-6.566-1.156-13.76-2.316-14.016" transform="translate(-4.342 -24.069)" fill="#ec644e"/>
          <path id="Trazado_1065861" data-name="Trazado 1065861" d="M53.9,326.084q2-1.353,4.209-2.626c-1.415.99-2.741,2.007-3.953,3.033-.088-.133-.177-.274-.256-.407" transform="translate(-6.24 -37.442)" fill="#fff"/>
          <path id="Trazado_1065862" data-name="Trazado 1065862" d="M163.924,245.305c-2.069-3.74-4.448-7.154-6.146-10-3.2-5.35-7.2-13.352-12.229-16.376a31.5,31.5,0,0,0-9.117-3.758c-2.662-.584-22.858-5.712-22.858-5.712s-7.854-2.146-12.751-1.352v3.183a51.494,51.494,0,0,1,7.666,1.4s20.2,5.12,22.858,5.7a31.464,31.464,0,0,1,9.117,3.767c5.031,3.024,9.028,11.027,12.229,16.367,1.707,2.847,4.076,6.26,6.145,10.01a28.446,28.446,0,0,1,1.892,4.236,10.121,10.121,0,0,1,1.344.044c1.017.1,2.06.248,3.1.363l1.654.177a26.43,26.43,0,0,0-2.909-8.047" transform="translate(-11.671 -24.069)" fill="#fff"/>
          <path id="Trazado_1065863" data-name="Trazado 1065863" d="M54.926,224.642c5.818-4.758,21.656-5.511,26.3,10.594.434,1.807-3.239-4.666-9.3-7.977s-15.293-1.02-17-2.617" transform="translate(-6.358 -25.658)" fill="#fff"/>
          <path id="Trazado_1065864" data-name="Trazado 1065864" d="M49.945,299.1C36,296.021,39.183,288.47,38.8,281.258a83.185,83.185,0,0,1,.414-10.026c-.1.057-.179.094-.179.094l1.218-10.7s-2.95-.794-2.734-2.319c.386-2.749,2.84-8.413,3.245-10.3.518-2.363,1.095-24.435,19.294-27.571,6.9-1.187,22.105-9.632,32.726-12.193,4.8-1.157,13.464,1.215,13.464,1.215s20.2,5.124,22.859,5.707a31.5,31.5,0,0,1,9.117,3.764c5.03,3.021,9.266,10.89,12.225,16.37,1.538,2.847,4.076,6.262,6.147,10.006a26.487,26.487,0,0,1,2.912,8.047l-1.66-.183c-1.041-.115-2.082-.264-3.1-.357-2.425-.225-3.73.193-6.612,1.5,0,0-6.943,3.078-9.926,3.128l-8.161.136a95.641,95.641,0,0,0,3.181,12.343,30.919,30.919,0,0,0,1.924,5.285,54.2,54.2,0,0,0,6.142,11.5l.005.008a7.2,7.2,0,0,0,.815,1.071,28.712,28.712,0,0,0,2.262,2.556l0,.006,1.783,3.13s-8.335-2.108-12.369-.956c-7.093,2.026-14.559,6.834-21.767,6.5a23.16,23.16,0,0,0-3.3.239,52.729,52.729,0,0,0-15.042-2.276c-13.608,0-31.3,7.571-41.426,16.138C47.884,306.55,51.1,299.356,49.945,299.1Z" transform="translate(-4.342 -24.069)" fill="none" stroke="#263238" stroke-linecap="round" stroke-linejoin="round" stroke-width="2.5"/>
          <path id="Trazado_1065865" data-name="Trazado 1065865" d="M142.161,263.17c0-3.124.918-6.9,2.293-6.9" transform="translate(-16.456 -29.665)" fill="none" stroke="#263238" stroke-linecap="round" stroke-linejoin="round" stroke-width="2.5"/>
          <path id="Trazado_1065866" data-name="Trazado 1065866" d="M139.529,243.863s2.064,31.582,7.738,37.1-3.821,6.13-5.168,1.985-12.092-50.426-2.57-39.084" transform="translate(-15.7 -28.022)" fill="#fff"/>
          <path id="Trazado_1065867" data-name="Trazado 1065867" d="M165.852,430.784l25.948-1.858,23.113,13.736-48.141.982Z" transform="translate(-19.198 -49.651)" fill="#9abae3"/>
          <path id="Trazado_1065868" data-name="Trazado 1065868" d="M165.852,430.784l25.948-1.858,23.113,13.736-48.141.982Z" transform="translate(-19.198 -49.651)" fill="none" stroke="#263238" stroke-linecap="round" stroke-linejoin="round" stroke-width="2.5"/>
          <path id="Trazado_1065869" data-name="Trazado 1065869" d="M84.478,252.694c-.7,2.365-2.54,12.17-2.54,12.17l-9.613,1.708" transform="translate(-8.372 -29.251)" fill="none" stroke="#263238" stroke-linecap="round" stroke-linejoin="round" stroke-width="2.5"/>
          <path id="Trazado_1065870" data-name="Trazado 1065870" d="M140.039,255.082c.681,1.011,1.622,9.172,1.876,7.951" transform="translate(-16.21 -29.527)" fill="none" stroke="#263238" stroke-linecap="round" stroke-linejoin="round" stroke-width="2.5"/>
          <path id="Trazado_1065871" data-name="Trazado 1065871" d="M130.866,285.7a3.224,3.224,0,0,0-.007-.478c-.458-4.922-9.909-10.522-12.625-10.33a7.386,7.386,0,0,0-4.45,2.309s-1.158-1.15-4.075-.224c-2.292.727-2.968,1.526-3.167,1.925a11.65,11.65,0,0,0-2-.551c-3.267-.711-6.676,3.124-6.676,3.124l-25.438-1.524s.948-12.439.895-12.424l-6.768,1.059A67.353,67.353,0,0,1,40.4,267.526l-.01,0s-2.065,19.636-1.669,26.436c.48,8.269.511,11.279,23.718,13.924,6.58.751,24.609-.025,33.518,0a.337.337,0,0,1-.012-.032c4.648-.155,9.276-.937,12.264-3.036,4.709-3.307,5.709-10.8,5.925-13.806.058-.8.058-1.278.058-1.278a8.911,8.911,0,0,0,.908.974c.9.815,2.341,1.774,3.834,1.287a2.885,2.885,0,0,0,2.134-2.772,1.774,1.774,0,0,0-.009-.3s.441.056,1.142.1h.008c1.633.087,4.667.111,6.684-.791,0-.008,0-.008.008-.008a2.943,2.943,0,0,0,1.957-2.4c0-.038.007-.076.009-.115" transform="translate(-4.476 -30.967)" fill="#fcd8c3"/>
          <path id="Trazado_1065872" data-name="Trazado 1065872" d="M137.206,291.717l0,.03.137-.014-.14-.016" transform="translate(-15.882 -33.768)" fill="#fff"/>
          <path id="Trazado_1065873" data-name="Trazado 1065873" d="M73.861,268.581l1.99-.311c.03-.47.044-.75.037-.748l-6.769,1.059a67.167,67.167,0,0,1-8.293.756,67.36,67.36,0,0,0,13.035-.756" transform="translate(-7.041 -30.967)" fill="#fff"/>
          <path id="Trazado_1065874" data-name="Trazado 1065874" d="M130.328,293.613a8.908,8.908,0,0,1-.908-.974s0,.479-.058,1.278c-.021.294-.053.643-.092,1.015.05-.013.1-.016.151-.032a3.121,3.121,0,0,0,1.4-.879c-.176-.135-.345-.273-.493-.408" transform="translate(-14.964 -33.875)" fill="#fff"/>
          <path id="Trazado_1065875" data-name="Trazado 1065875" d="M40.389,267.523l.01,0a67.353,67.353,0,0,0,26.156,1.057l6.768-1.059c.053-.015-.894,12.424-.894,12.424l25.437,1.524s3.41-3.834,6.676-3.123a11.65,11.65,0,0,1,2,.551c.2-.4.875-1.2,3.167-1.925,2.917-.927,4.075.224,4.075.224a7.381,7.381,0,0,1,4.45-2.309c2.716-.192,12.167,5.408,12.625,10.33a2.861,2.861,0,0,1-1.958,3c-.009,0-.009,0-.009.008-2.017.9-5.05.879-6.684.791H122.2c-.7-.041-1.142-.1-1.142-.1a1.767,1.767,0,0,1,.009.3,2.885,2.885,0,0,1-2.134,2.773c-1.492.487-2.934-.471-3.834-1.287a8.84,8.84,0,0,1-.907-.974s0,.479-.058,1.278c-.218,3-1.218,10.5-5.925,13.806-2.99,2.1-7.617,2.882-12.265,3.036,0,.012.009.021.012.032-8.909-.025-26.938.751-33.518,0-23.207-2.646-23.238-5.655-23.718-13.924C38.324,287.159,40.389,267.523,40.389,267.523Z" transform="translate(-4.476 -30.967)" fill="none" stroke="#263238" stroke-linecap="round" stroke-linejoin="round" stroke-width="2.5"/>
          <path id="Trazado_1065876" data-name="Trazado 1065876" d="M130.9,290.186s.1-5.254-7.275-11.725" transform="translate(-14.31 -32.234)" fill="none" stroke="#263238" stroke-linecap="round" stroke-linejoin="round" stroke-width="2.5"/>
          <path id="Trazado_1065877" data-name="Trazado 1065877" d="M123.069,291.253s-1.353-5.467-7.738-10.575" transform="translate(-13.35 -32.49)" fill="none" stroke="#263238" stroke-linecap="round" stroke-linejoin="round" stroke-width="2.5"/>
          <path id="Trazado_1065878" data-name="Trazado 1065878" d="M121.445,289.694l1.007,3.2c.783,2.485-2.767,6.749-9.13-.7l-3.132-3.035" transform="translate(-12.755 -33.472)" fill="none" stroke="#263238" stroke-linecap="round" stroke-linejoin="round" stroke-width="2.5"/>
          <path id="Trazado_1065879" data-name="Trazado 1065879" d="M120.32,295.816c-5.035-5.894.21-9.158,0-9.158" transform="translate(-13.674 -33.182)" fill="none" stroke="#263238" stroke-linecap="round" stroke-linejoin="round" stroke-width="2.5"/>
          <line id="Línea_4621" data-name="Línea 4621" x1="20.137" transform="translate(60.159 249.718)" fill="none" stroke="#263238" stroke-linecap="round" stroke-linejoin="round" stroke-width="2.5"/>
          <path id="Trazado_1065880" data-name="Trazado 1065880" d="M115.459,309.087l75.28.574L207.3,262.678a5.146,5.146,0,0,0-4.815-6.856l-64.4-.491a5.147,5.147,0,0,0-4.893,3.436Z" transform="translate(-13.365 -29.556)" fill="#fff"/>
          <path id="Trazado_1065881" data-name="Trazado 1065881" d="M115.459,309.087l75.28.574L207.3,262.678a5.146,5.146,0,0,0-4.815-6.856l-64.4-.491a5.147,5.147,0,0,0-4.893,3.436Z" transform="translate(-13.365 -29.556)" fill="none" stroke="#263238" stroke-linecap="round" stroke-linejoin="round" stroke-width="2.5"/>
          <path id="Trazado_1065882" data-name="Trazado 1065882" d="M166.971,287.876a3.215,3.215,0,1,0,3.214-3.215,3.218,3.218,0,0,0-3.214,3.215" transform="translate(-19.328 -32.951)" fill="#263238"/>
          <path id="Trazado_1065883" data-name="Trazado 1065883" d="M101.625,321.539l84.395.643a2.758,2.758,0,1,0,.042-5.517l-84.395-.643a2.758,2.758,0,1,0-.042,5.517" transform="translate(-11.447 -36.581)" fill="#fff"/>
          <path id="Trazado_1065884" data-name="Trazado 1065884" d="M101.625,321.539l84.395.643a2.758,2.758,0,1,0,.042-5.517l-84.395-.643a2.758,2.758,0,1,0-.042,5.517Z" transform="translate(-11.447 -36.581)" fill="none" stroke="#263238" stroke-linecap="round" stroke-linejoin="round" stroke-width="2.5"/>
          <path id="Trazado_1065885" data-name="Trazado 1065885" d="M73.538,223.5a12.369,12.369,0,0,0-10.53-1.5" transform="translate(-7.294 -25.632)" fill="none" stroke="#263238" stroke-linecap="round" stroke-linejoin="round" stroke-width="2.5"/>
          <line id="Línea_4622" data-name="Línea 4622" x2="1.052" y2="13.372" transform="translate(123.668 212.403)" fill="none" stroke="#263238" stroke-linecap="round" stroke-linejoin="round" stroke-width="2.5"/>
          <path id="Trazado_1065886" data-name="Trazado 1065886" d="M98.456,351.192c-1.074,3.7-7.535,11.3-7.508,11.17" transform="translate(-10.528 -40.653)" fill="none" stroke="#263238" stroke-linecap="round" stroke-linejoin="round" stroke-width="2.5"/>
          <path id="Trazado_1065887" data-name="Trazado 1065887" d="M63.431,325.645c3.508,0,10.912-5.218,9.892-9.478" transform="translate(-7.343 -36.598)" fill="none" stroke="#263238" stroke-linecap="round" stroke-linejoin="round" stroke-width="2.5"/>
          <path id="Trazado_1065888" data-name="Trazado 1065888" d="M146.325,346.324s3.834-7.821,8.573-7.821" transform="translate(-16.938 -39.184)" fill="none" stroke="#263238" stroke-linecap="round" stroke-linejoin="round" stroke-width="2.5"/>
          <path id="Trazado_1065889" data-name="Trazado 1065889" d="M146.325,344.3s2.374-10.32,5.309-10.32" transform="translate(-16.938 -38.66)" fill="none" stroke="#263238" stroke-linecap="round" stroke-linejoin="round" stroke-width="2.5"/>
          <path id="Trazado_1065890" data-name="Trazado 1065890" d="M93.528,174.467a1.191,1.191,0,0,1,.706,2.134c-2.218,1.584-5.663,4.345-6.669,6.834-1.519,3.762-3.837,3.379-4.059,1.233s3.8-7.908,7.275-9.52a6.729,6.729,0,0,1,2.747-.681" transform="translate(-9.665 -20.196)" fill="#263238"/>
          <path id="Trazado_1065891" data-name="Trazado 1065891" d="M93.528,174.467a1.191,1.191,0,0,1,.706,2.134c-2.218,1.584-5.663,4.345-6.669,6.834-1.519,3.762-3.837,3.379-4.059,1.233s3.8-7.908,7.275-9.52A6.729,6.729,0,0,1,93.528,174.467Z" transform="translate(-9.665 -20.196)" fill="none" stroke="#263238" stroke-linecap="round" stroke-linejoin="round" stroke-width="2.5"/>
          <path id="Trazado_1065892" data-name="Trazado 1065892" d="M85.467,193.4a1.2,1.2,0,0,1-1.736.229,1.353,1.353,0,0,1-.172-1.835,1.2,1.2,0,0,1,1.737-.229,1.352,1.352,0,0,1,.172,1.835" transform="translate(-9.64 -22.143)" fill="#263238"/>
          <path id="Trazado_1065893" data-name="Trazado 1065893" d="M85.467,193.4a1.2,1.2,0,0,1-1.736.229,1.353,1.353,0,0,1-.172-1.835,1.2,1.2,0,0,1,1.737-.229A1.352,1.352,0,0,1,85.467,193.4Z" transform="translate(-9.64 -22.143)" fill="none" stroke="#263238" stroke-linecap="round" stroke-linejoin="round" stroke-width="2.5"/>
          <path id="Trazado_1065894" data-name="Trazado 1065894" d="M113.416,216.661c-.329,2.794-3.123,3.867-6.562,2.768a12.979,12.979,0,0,1-1.278-.5c-.13-.063-.263-.123-.4-.19-.3-.152-.613-.324-.9-.5-3.694-2.219-6.3-6.148-5.949-9.14a3.468,3.468,0,0,1,3.165-3.137,2.4,2.4,0,0,1,.263-.026c.121-.015.25-.021.38-.027a9.243,9.243,0,0,1,4.427,1.106c4.165,2.093,7.237,6.406,6.854,9.644" transform="translate(-11.378 -23.835)" fill="#263238"/>
          <path id="Trazado_1065895" data-name="Trazado 1065895" d="M113.416,216.661c-.329,2.794-3.123,3.867-6.562,2.768a12.979,12.979,0,0,1-1.278-.5c-.13-.063-.263-.123-.4-.19-.3-.152-.613-.324-.9-.5-3.694-2.219-6.3-6.148-5.949-9.14a3.468,3.468,0,0,1,3.165-3.137,2.4,2.4,0,0,1,.263-.026c.121-.015.25-.021.38-.027a9.243,9.243,0,0,1,4.427,1.106C110.727,209.109,113.8,213.423,113.416,216.661Z" transform="translate(-11.378 -23.835)" fill="none" stroke="#263238" stroke-linecap="round" stroke-linejoin="round" stroke-width="2.5"/>
          <path id="Trazado_1065896" data-name="Trazado 1065896" d="M94.568,203.81c.277.484.594.989.926,1.455.149.2.307.4.456.6a17.727,17.727,0,0,0,1.6,1.775c4.718,4.44,11.424,5.34,16.132,1.758,5.464-4.137,6.146-12.694,1.566-19.116a15.407,15.407,0,0,0-6.514-5.294c-.143-.057-.286-.113-.424-.161a3,3,0,0,0-.318-.118,5.347,5.347,0,0,0-.521-.187,12.379,12.379,0,0,0-4.1-.575q-.3,0-.581.031c-.19.019-.388.042-.577.061l-.583.094a10.612,10.612,0,0,0-3.655,1.4,8.785,8.785,0,0,0-.929.629c-5.044,3.818-6.015,11.457-2.484,17.656" transform="translate(-10.703 -21.292)" fill="#fcd8c3"/>
          <path id="Trazado_1065897" data-name="Trazado 1065897" d="M114.357,209.4a10.645,10.645,0,0,1-3.643,1.8c.177-.115.354-.239.522-.371,5.456-4.138,6.145-12.7,1.565-19.117a15.407,15.407,0,0,0-6.517-5.3c-.141-.053-.283-.115-.424-.159a2.3,2.3,0,0,0-.318-.115,3.661,3.661,0,0,0-.522-.186,12.33,12.33,0,0,0-4.094-.575q-.305,0-.584.027c-.195.018-.389.044-.575.062s-.389.062-.584.1a8.764,8.764,0,0,0-.928.212c.133-.088.265-.168.4-.248a10.527,10.527,0,0,1,3.652-1.4c.195-.035.389-.071.584-.1s.389-.044.575-.062.389-.027.584-.027a12.38,12.38,0,0,1,4.1.575,3.972,3.972,0,0,1,.513.186,1.689,1.689,0,0,1,.318.115c.141.044.283.106.424.159a15.3,15.3,0,0,1,6.517,5.3c4.58,6.42,3.9,14.979-1.565,19.117" transform="translate(-11.374 -21.292)" fill="#fff"/>
          <path id="Trazado_1065898" data-name="Trazado 1065898" d="M113.683,209.39c-4.455,3.4-10.711,2.76-15.37-1.081-.256-.218-.514-.435-.758-.668a17.275,17.275,0,0,1-1.6-1.782c-.157-.2-.311-.389-.459-.592a15.644,15.644,0,0,1-.923-1.458,14.592,14.592,0,0,1-.42-14.357c.118-.2.239-.4.368-.6.2-.292.415-.587.642-.869.214-.266.444-.518.686-.766.121-.124.25-.251.384-.37s.267-.237.4-.356.283-.224.42-.333a8.96,8.96,0,0,1,.928-.633,10.65,10.65,0,0,1,3.654-1.393c.2-.035.392-.066.584-.1s.391-.044.577-.063a3.669,3.669,0,0,1,.584-.025,12.005,12.005,0,0,1,4.1.569,4.942,4.942,0,0,1,.52.187,1.944,1.944,0,0,1,.318.119c.144.051.28.105.429.164a15.385,15.385,0,0,1,6.51,5.291C119.837,196.7,119.151,205.253,113.683,209.39Z" transform="translate(-10.703 -21.292)" fill="none" stroke="#263238" stroke-linecap="round" stroke-linejoin="round" stroke-width="2.5"/>
          <path id="Trazado_1065899" data-name="Trazado 1065899" d="M72.325,322.015a87.253,87.253,0,0,1,14.522,8.723c11.272,8.045,19.973,8.073,18.817,13S92.029,365.7,90.133,373.55s2.279,8.159,0,14.436-2.327,4.82-2.327,4.82" transform="translate(-8.372 -37.275)" fill="none" stroke="#263238" stroke-linecap="round" stroke-linejoin="round" stroke-width="2.5"/>
          <path id="Trazado_1065900" data-name="Trazado 1065900" d="M149.164,340.3s-2.349,12.046,0,22.607,5.007,14.641,4.933,22.487a78.678,78.678,0,0,0,2.2,16.889" transform="translate(-17.146 -39.392)" fill="none" stroke="#263238" stroke-linecap="round" stroke-linejoin="round" stroke-width="2.5"/>
          <path id="Trazado_1065901" data-name="Trazado 1065901" d="M119.538,223.87c0,3.848-4.713,7.136-9.348,4.57" transform="translate(-12.755 -25.914)" fill="none" stroke="#263238" stroke-linecap="round" stroke-linejoin="round" stroke-width="2.5"/>
          <path id="Trazado_1065902" data-name="Trazado 1065902" d="M109.645,182.01a3.484,3.484,0,1,0-6.7,1.33c-.05,0-.1,0-.149.006-.187.019-.382.041-.577.064s-.383.062-.584.1a10.876,10.876,0,0,0-3.654,1.393,9.132,9.132,0,0,0-.927.633c-.138.111-.287.216-.421.334s-.271.229-.4.356-.263.246-.384.37c-.242.248-.472.5-.686.765-.227.282-.439.578-.642.87-.083.138-.158.272-.243.411a2.144,2.144,0,0,1-.125.187,14.592,14.592,0,0,0,.42,14.357,15.835,15.835,0,0,0,.923,1.459c.148.2.3.393.459.592a17.35,17.35,0,0,0,1.6,1.781c.244.233.5.451.758.669.31-4.735,1.38-8.587,3.135-9.7,6.227-3.944,8.315-11.791,7.168-13.5a3.471,3.471,0,0,0,1.029-2.471" transform="translate(-10.703 -20.665)" fill="#263238"/>
          <path id="Trazado_1065903" data-name="Trazado 1065903" d="M109.645,182.01a3.484,3.484,0,1,0-6.7,1.33c-.05,0-.1,0-.149.006-.187.019-.382.041-.577.064s-.383.062-.584.1a10.876,10.876,0,0,0-3.654,1.393,9.132,9.132,0,0,0-.927.633c-.138.111-.287.216-.421.334s-.271.229-.4.356-.263.246-.384.37c-.242.248-.472.5-.686.765-.227.282-.439.578-.642.87-.083.138-.158.272-.243.411a2.144,2.144,0,0,1-.125.187,14.592,14.592,0,0,0,.42,14.357,15.835,15.835,0,0,0,.923,1.459c.148.2.3.393.459.592a17.35,17.35,0,0,0,1.6,1.781c.244.233.5.451.758.669.31-4.735,1.38-8.587,3.135-9.7,6.227-3.944,8.315-11.791,7.168-13.5A3.471,3.471,0,0,0,109.645,182.01Z" transform="translate(-10.703 -20.665)" fill="none" stroke="#263238" stroke-linecap="round" stroke-linejoin="round" stroke-width="2.5"/>
        </g>
      </g>
    </g>
  </g>
</svg>
