<svg xmlns="http://www.w3.org/2000/svg" width="85" height="78" viewBox="0 0 85 78">
  <g id="Grupo_1230135" data-name="Grupo 1230135" transform="translate(-180 -1581)">
    <rect id="Rectángulo_423591" data-name="Rectángulo 423591" width="85" height="78" rx="15" transform="translate(180 1581)" fill="#eddbfd"/>
    <path id="usabilidad_1_" data-name="usabilidad (1)" d="M43.777,22.151a.727.727,0,1,1-.552,1.344,7.189,7.189,0,0,0-5.7.1.727.727,0,1,1-.6-1.326,8.409,8.409,0,0,1,1.74-.576,8.59,8.59,0,0,1,5.111.455Zm-8.413-.892a10.106,10.106,0,0,1,2.47-1.022,10.3,10.3,0,0,1,5.315,0,10.1,10.1,0,0,1,2.47,1.022A.727.727,0,1,0,46.347,20a11.57,11.57,0,0,0-2.821-1.173,11.739,11.739,0,0,0-6.068,0A11.591,11.591,0,0,0,34.634,20a.727.727,0,0,0,.73,1.258ZM44.09,45.327a2.04,2.04,0,0,0-1.533.691V52.21a.521.521,0,0,1-1.043,0V34.1a2.049,2.049,0,0,0-3.069,0V52.21a.52.52,0,1,1-1.04,0V39.442a2.049,2.049,0,0,0-3.069,0V52.21a.52.52,0,0,1-1.04,0V43.758a2.049,2.049,0,0,0-3.069,0V52.21a.521.521,0,0,1-1.043,0V47.25A2.051,2.051,0,0,0,25.6,48.615v5.616a10.232,10.232,0,0,0,2.824,7.058h14.9a10.232,10.232,0,0,0,2.824-7.058V47.38a2.06,2.06,0,0,0-2.053-2.053Zm-.653,17.211H28.3a1.129,1.129,0,0,0-1.126,1.126v3.158A1.127,1.127,0,0,0,28.3,67.947H43.437a1.127,1.127,0,0,0,1.126-1.126V63.663A1.129,1.129,0,0,0,43.437,62.538ZM64.873,46.269A7.267,7.267,0,1,1,57.606,39c.151,0,.3.006.45.015l1.337-7.866a6.106,6.106,0,0,1-5.351-4.465l-8.768,2.731a4.843,4.843,0,0,1-2.51,5v-.789l-.316-.354a3.3,3.3,0,0,0-4.936,0l-.316.354v.059a4.824,4.824,0,0,1-1.542-3.542c0-.128.006-.255.016-.381L28.611,28.1a6.416,6.416,0,1,1,.23-1.7c0,.088,0,.174-.007.261L36,28.34a4.839,4.839,0,0,1,8.84-.318l8.988-2.8c0-.051,0-.1,0-.152A6.1,6.1,0,1,1,60.878,31.1l-1.385,8.149a7.271,7.271,0,0,1,5.38,7.021ZM23.455,26.4l1.483-1.483a.729.729,0,0,0-1.031-1.031l-1.483,1.483-1.483-1.483a.73.73,0,1,0-1.034,1.031L21.39,26.4l-1.483,1.486a.73.73,0,0,0,1.034,1.031l1.483-1.483,1.483,1.483a.729.729,0,0,0,1.031-1.031Zm36.106,1.208L63.6,23.563a.729.729,0,0,0-1.031-1.031L59.044,26.06,57.283,24.3a.729.729,0,0,0-1.031,1.031l2.275,2.278a.735.735,0,0,0,1.034,0ZM62.22,46.269a1.592,1.592,0,0,0-.753-1.353l-4.3-2.671a1.591,1.591,0,0,0-2.434,1.35V48.94a1.583,1.583,0,0,0,.821,1.391,1.554,1.554,0,0,0,.809.2,1.582,1.582,0,0,0,.8-.239l4.3-2.674a1.564,1.564,0,0,0,.552-.576,1.6,1.6,0,0,0,.2-.774ZM60.7,46.154l-4.3-2.674a.135.135,0,0,0-.065-.024.147.147,0,0,0-.071.021.122.122,0,0,0-.053.047.141.141,0,0,0-.015.071V48.94a.141.141,0,0,0,.015.071.122.122,0,0,0,.053.047.146.146,0,0,0,.071.021.135.135,0,0,0,.065-.024l4.3-2.671a.2.2,0,0,0,.05-.047.14.14,0,0,0,.012-.068.133.133,0,0,0-.012-.068.13.13,0,0,0-.05-.047Z" transform="translate(181.48 1578.053)" fill="#aa52f9" fill-rule="evenodd"/>
  </g>
</svg>
