<svg xmlns="http://www.w3.org/2000/svg" width="89.74" height="76.603" viewBox="0 0 89.74 76.603">
  <g id="Grupo_1229410" data-name="Grupo 1229410" transform="translate(-407.637 -3038.779)">
    <g id="Grupo_1228984" data-name="Grupo 1228984" transform="translate(-593.431 173.998)">
      <circle id="Elipse_12863" data-name="Elipse 12863" cx="27.545" cy="27.545" r="27.545" transform="translate(1001.068 2864.781)" fill="#c3b7ef"/>
    </g>
    <g id="folder_1679586" transform="translate(425.5 3053.63)">
      <path id="Trazado_1064225" data-name="Trazado 1064225" d="M111.746,56.1H114v2.124h-2.251Zm0,0" transform="translate(-96.059 -48.222)"/>
      <path id="Trazado_1064226" data-name="Trazado 1064226" d="M47.633,56.1h2.25v2.124h-2.25Zm0,0" transform="translate(-40.946 -48.222)"/>
      <path id="Trazado_1064227" data-name="Trazado 1064227" d="M209.226,135.789H207.1v3.438h-6.75V152.6h13.5v9.127H202.476V156.04h-2.124v7.812h6.75v3.438h2.123v-3.438h6.75V150.478h-13.5v-9.127h11.377v5.688h2.124v-7.812h-6.75Zm0,0" transform="translate(-172.226 -116.726)"/>
      <path id="Trazado_1064228" data-name="Trazado 1064228" d="M399.74,218.594l-1.5,1.5,1.562,1.562h-7.562v2.124H399.8l-1.562,1.562,1.5,1.5,4.126-4.126Zm0,0" transform="translate(-337.175 -187.907)"/>
      <path id="Trazado_1064229" data-name="Trazado 1064229" d="M42.565,220.1l-1.5-1.5-4.126,4.126,4.126,4.126,1.5-1.5L41,223.782h7.562v-2.124H41Zm0,0" transform="translate(-31.753 -187.907)"/>
      <path id="Trazado_1064230" data-name="Trazado 1064230" d="M336.141,56.1v2.124H358.7V71.785h2.124V56.1Zm0,0" transform="translate(-288.953 -48.222)"/>
      <path id="Trazado_1064231" data-name="Trazado 1064231" d="M200.256,224.577h-48.44V226.7H202.38V191.887h-2.124Zm0,0" transform="translate(-130.504 -164.949)"/>
      <path id="Trazado_1064232" data-name="Trazado 1064232" d="M2.123,2.124H25.2l3.286,5.751h-8.3V10H43.813V7.875H30.929L26.428,0H0V61.752H17.937V59.628H2.123Zm0,0" transform="translate(0 0)"/>
      <path id="Trazado_1064233" data-name="Trazado 1064233" d="M79.691,56.1h2.25v2.124h-2.25Zm0,0" transform="translate(-68.505 -48.222)"/>
      <path id="Trazado_1064234" data-name="Trazado 1064234" d="M360.184,240.422h2.25v2.124h-2.25Zm0,0" transform="translate(-309.62 -206.671)"/>
      <path id="Trazado_1064235" data-name="Trazado 1064235" d="M328.125,240.422h2.251v2.124h-2.251Zm0,0" transform="translate(-282.062 -206.671)"/>
      <path id="Trazado_1064236" data-name="Trazado 1064236" d="M135.789,240.422h2.25v2.124h-2.25Zm0,0" transform="translate(-116.727 -206.671)"/>
      <path id="Trazado_1064237" data-name="Trazado 1064237" d="M167.844,240.422h2.251v2.124h-2.251Zm0,0" transform="translate(-144.282 -206.671)"/>
      <path id="Trazado_1064238" data-name="Trazado 1064238" d="M445.886,93.717V88.156h-5.562v2.123h3.438v3.438Zm0,0" transform="translate(-378.51 -75.78)"/>
      <path id="Trazado_1064239" data-name="Trazado 1064239" d="M31.605,392.691h63v2.123h-63Zm0,0" transform="translate(-27.169 -337.563)"/>
    </g>
  </g>
</svg>
