<svg xmlns="http://www.w3.org/2000/svg" width="94.201" height="87.838" viewBox="0 0 94.201 87.838">
  <g id="Grupo_1229411" data-name="Grupo 1229411" transform="translate(-407.637 -3465.264)">
    <g id="Grupo_1228985" data-name="Grupo 1228985" transform="translate(-593.431 600.483)">
      <circle id="Elipse_12863" data-name="Elipse 12863" cx="27.545" cy="27.545" r="27.545" transform="translate(1001.068 2864.781)" fill="#c3b7ef"/>
    </g>
    <g id="connection_1908524" transform="translate(419 3470.264)">
      <path id="Trazado_1064240" data-name="Trazado 1064240" d="M30,5h5.389V7.695H30Z" transform="translate(9.724 1.042)"/>
      <path id="Trazado_1064241" data-name="Trazado 1064241" d="M36,5h2.695V7.695H36Z" transform="translate(11.808 1.042)"/>
      <path id="Trazado_1064242" data-name="Trazado 1064242" d="M26,5h2.695V7.695H26Z" transform="translate(8.335 1.042)"/>
      <path id="Trazado_1064243" data-name="Trazado 1064243" d="M81.491,15.473H66.671V6.042A4.042,4.042,0,0,0,62.629,2H22.21a4.042,4.042,0,0,0-4.042,4.042v9.431H3.347A1.347,1.347,0,0,0,2,16.82V70.712A1.347,1.347,0,0,0,3.347,72.06h14.82V78.8a4.042,4.042,0,0,0,4.042,4.042H62.629A4.042,4.042,0,0,0,66.671,78.8V72.06h14.82a1.347,1.347,0,0,0,1.347-1.347V16.82A1.347,1.347,0,0,0,81.491,15.473ZM20.862,6.042A1.347,1.347,0,0,1,22.21,4.695H62.629a1.347,1.347,0,0,1,1.347,1.347v9.431H61.281V11.431a1.347,1.347,0,0,0-1.347-1.347H24.9a1.347,1.347,0,0,0-1.347,1.347v4.042H20.862Zm37.724,9.431H26.251V12.778H58.587ZM63.976,78.8a1.347,1.347,0,0,1-1.347,1.347H22.21A1.347,1.347,0,0,1,20.862,78.8V72.06h2.695V76.1A1.347,1.347,0,0,0,24.9,77.449h35.03A1.347,1.347,0,0,0,61.281,76.1V72.06h2.695ZM26.251,72.06H58.587v2.695H26.251Zm53.892-2.695H4.695v-51.2H80.144Z" transform="translate(0 0)"/>
      <path id="Trazado_1064244" data-name="Trazado 1064244" d="M7.347,61.808H74.712a1.347,1.347,0,0,0,1.347-1.347V17.347A1.347,1.347,0,0,0,74.712,16H7.347A1.347,1.347,0,0,0,6,17.347V60.461A1.347,1.347,0,0,0,7.347,61.808ZM8.695,18.695H73.365V59.114H8.695Z" transform="translate(1.389 4.862)"/>
      <path id="Trazado_1064245" data-name="Trazado 1064245" d="M59.857,25.784l-5.389-5.389a1.335,1.335,0,0,0-.953-.383V20H37.347A1.347,1.347,0,0,0,36,21.347V53.683a1.347,1.347,0,0,0,1.347,1.347H58.9a1.347,1.347,0,0,0,1.347-1.347V26.737h-.012A1.335,1.335,0,0,0,59.857,25.784ZM54.862,24.6l.79.79h-.79ZM38.695,52.335V22.695H52.168v4.042a1.347,1.347,0,0,0,1.347,1.347h4.042V52.335Z" transform="translate(11.808 6.251)"/>
      <path id="Trazado_1064246" data-name="Trazado 1064246" d="M32,25h2.695v2.695H32Z" transform="translate(10.419 7.988)"/>
      <path id="Trazado_1064247" data-name="Trazado 1064247" d="M28,25h2.695v2.695H28Z" transform="translate(9.03 7.988)"/>
      <path id="Trazado_1064248" data-name="Trazado 1064248" d="M19.038,33.766,14.6,29.329H31.559V26.635H14.6L19.038,22.2l-1.905-1.905L10.4,27.03l.008.008a1.312,1.312,0,0,0-.008,1.9l6.737,6.737Z" transform="translate(2.777 6.353)"/>
      <path id="Trazado_1064249" data-name="Trazado 1064249" d="M11,39h2.695v2.695H11Z" transform="translate(3.126 12.85)"/>
      <path id="Trazado_1064250" data-name="Trazado 1064250" d="M15,39h2.695v2.695H15Z" transform="translate(4.515 12.85)"/>
      <path id="Trazado_1064251" data-name="Trazado 1064251" d="M40.153,41.039l.008-.008-6.737-6.737L31.519,36.2l4.438,4.435H19v2.695H35.957L31.52,47.766l1.905,1.905,6.737-6.737a1.312,1.312,0,0,0-.009-1.9Z" transform="translate(5.904 11.216)"/>
    </g>
  </g>
</svg>
