<svg xmlns="http://www.w3.org/2000/svg" xmlns:xlink="http://www.w3.org/1999/xlink" width="108" height="108" viewBox="0 0 108 108">
  <defs>
    <filter id="Trazado_904820" x="0" y="0" width="108" height="108" filterUnits="userSpaceOnUse">
      <feOffset dy="3" input="SourceAlpha"/>
      <feGaussianBlur stdDeviation="3" result="blur"/>
      <feFlood flood-opacity="0.161"/>
      <feComposite operator="in" in2="blur"/>
      <feComposite in="SourceGraphic"/>
    </filter>
  </defs>
  <g id="Grupo_1230127" data-name="Grupo 1230127" transform="translate(-620 -5192.616)">
    <g id="Grupo_1228987" data-name="Grupo 1228987" transform="translate(629 5198.616)">
      <g id="Grupo_1173585" data-name="Grupo 1173585" transform="translate(0 0)">
        <g id="Grupo_1173428" data-name="Grupo 1173428">
          <g id="Grupo_1171958" data-name="Grupo 1171958">
            <g id="Grupo_1167341" data-name="Grupo 1167341">
              <g id="Grupo_1166792" data-name="Grupo 1166792">
                <g transform="matrix(1, 0, 0, 1, -9, -6)" filter="url(#Trazado_904820)">
                  <g id="Trazado_904820-2" data-name="Trazado 904820" transform="translate(9 6)" fill="#e5fdfa">
                    <path d="M 44.99999618530273 88.5 C 39.12687301635742 88.5 33.43022155761719 87.35008239746094 28.06829643249512 85.08216857910156 C 22.88852119445801 82.89131927490234 18.23629570007324 79.75459289550781 14.24084663391113 75.75914001464844 C 10.24540901184082 71.76369476318359 7.108683586120605 67.11146545410156 4.917821407318115 61.93170547485352 C 2.649921178817749 56.56976699829102 1.499996185302734 50.87312698364258 1.499996185302734 45.00000381469727 C 1.499996185302734 39.12688064575195 2.649921178817749 33.43022918701172 4.917821407318115 28.06830406188965 C 7.108683586120605 22.88852882385254 10.24540901184082 18.23630332946777 14.24084663391113 14.24085426330566 C 18.23629570007324 10.24541664123535 22.88852119445801 7.108691215515137 28.06829643249512 4.917829036712646 C 33.43022155761719 2.64992880821228 39.12687301635742 1.500003814697266 44.99999618530273 1.500003814697266 C 50.87311935424805 1.500003814697266 56.56977081298828 2.64992880821228 61.93169784545898 4.917829036712646 C 67.11147308349609 7.108691215515137 71.76369476318359 10.24541664123535 75.75914764404297 14.24085426330566 C 79.75458526611328 18.23630332946777 82.89131164550781 22.88852882385254 85.08216857910156 28.06830406188965 C 87.35007476806641 33.43022918701172 88.5 39.12688064575195 88.5 45.00000381469727 C 88.5 50.87312698364258 87.35007476806641 56.56976699829102 85.08216857910156 61.93170547485352 C 82.89131164550781 67.11146545410156 79.75458526611328 71.76369476318359 75.75914764404297 75.75914001464844 C 71.76369476318359 79.75459289550781 67.11147308349609 82.89131927490234 61.93169784545898 85.08216857910156 C 56.56977081298828 87.35008239746094 50.87311935424805 88.5 44.99999618530273 88.5 Z" stroke="none"/>
                    <path d="M 44.99999618530273 3.000007629394531 C 39.32870864868164 3.000007629394531 33.82865142822266 4.110061645507812 28.65262603759766 6.299346923828125 C 23.65165710449219 8.414573669433594 19.15968322753906 11.44334411621094 15.301513671875 15.30152130126953 C 11.44333648681641 19.15969085693359 8.414566040039062 23.65166473388672 6.299339294433594 28.65263366699219 C 4.110054016113281 33.82865905761719 2.999992370605469 39.32871627807617 2.999992370605469 45.00000381469727 C 2.999992370605469 50.67129135131836 4.110054016113281 56.17133331298828 6.299339294433594 61.34737396240234 C 8.414566040039062 66.34834289550781 11.44333648681641 70.84030151367188 15.301513671875 74.698486328125 C 19.15968322753906 78.55666351318359 23.65165710449219 81.58543395996094 28.65262603759766 83.70066070556641 C 33.82865142822266 85.88994598388672 39.32870864868164 87 44.99999618530273 87 C 50.67128372192383 87 56.17134094238281 85.88994598388672 61.34736633300781 83.70066070556641 C 66.34834289550781 81.58543395996094 70.84030914306641 78.55666351318359 74.69847869873047 74.698486328125 C 78.55665588378906 70.84030151367188 81.58542633056641 66.34834289550781 83.70065307617188 61.34737396240234 C 85.88993835449219 56.17133331298828 87 50.67129135131836 87 45.00000381469727 C 87 39.32871627807617 85.88993835449219 33.82865905761719 83.70065307617188 28.65263366699219 C 81.58542633056641 23.65166473388672 78.55665588378906 19.15969085693359 74.69847869873047 15.30152130126953 C 70.84030914306641 11.44334411621094 66.34834289550781 8.414573669433594 61.34736633300781 6.299346923828125 C 56.17134094238281 4.110061645507812 50.67128372192383 3.000007629394531 44.99999618530273 3.000007629394531 M 44.99999618530273 7.62939453125e-06 C 69.85281372070312 7.62939453125e-06 90 20.14718627929688 90 45.00000381469727 C 90 69.85280609130859 69.85281372070312 90 44.99999618530273 90 C 20.14717864990234 90 -7.62939453125e-06 69.85280609130859 -7.62939453125e-06 45.00000381469727 C -7.62939453125e-06 20.14718627929688 20.14717864990234 7.62939453125e-06 44.99999618530273 7.62939453125e-06 Z" stroke="none" fill="#098576"/>
                  </g>
                </g>
              </g>
            </g>
          </g>
        </g>
      </g>
    </g>
    <g id="application_4941083" transform="translate(606.642 5214.489)">
      <path id="Trazado_1064265" data-name="Trazado 1064265" d="M89.456,56.691V10.258A2.758,2.758,0,0,0,86.7,7.5H57.734a2.758,2.758,0,0,0-2.758,2.758V56.691Z" transform="translate(-6.644 -6.647)" fill="#8ac9fe"/>
      <path id="Trazado_1064266" data-name="Trazado 1064266" d="M246.266,7.5h-3.678a2.758,2.758,0,0,1,2.758,2.758V29.727a3.562,3.562,0,0,0-.719,1.74l-.023.187-.149-.116a3.6,3.6,0,0,0-2.2-.754,3.557,3.557,0,0,0-2.532,1.049l-1.193,1.193a3.586,3.586,0,0,0-.295,4.73l.116.149-.187.023a3.587,3.587,0,0,0-3.136,3.553v1.687a3.587,3.587,0,0,0,3.136,3.553l.187.023-.116.149a3.586,3.586,0,0,0,.294,4.73l1.193,1.193a3.558,3.558,0,0,0,2.532,1.049,3.6,3.6,0,0,0,2.2-.754L244.6,53l.023.187a3.563,3.563,0,0,0,.719,1.74v1.769h3.678V10.258A2.758,2.758,0,0,0,246.266,7.5Z" transform="translate(-166.212 -6.647)" fill="#75cff9"/>
      <path id="Trazado_1064267" data-name="Trazado 1064267" d="M89.456,444.447v-4.6H54.976v4.6a2.758,2.758,0,0,0,2.758,2.758H86.7A2.759,2.759,0,0,0,89.456,444.447Z" transform="translate(-6.644 -389.805)" fill="#6c7fd8"/>
      <path id="Trazado_1064268" data-name="Trazado 1064268" d="M304.214,439.85v4.6a2.758,2.758,0,0,1-2.758,2.758h3.678a2.758,2.758,0,0,0,2.758-2.758v-4.6Z" transform="translate(-225.08 -389.805)" fill="#4f66d0"/>
      <path id="Trazado_1064269" data-name="Trazado 1064269" d="M92.128,46.491H89.14A1.839,1.839,0,0,1,87.3,44.652V41.664a1.839,1.839,0,0,1,1.839-1.839h2.988a1.839,1.839,0,0,1,1.839,1.839v2.988A1.839,1.839,0,0,1,92.128,46.491Z" transform="translate(-35.291 -35.294)" fill="#fe7ab6"/>
      <path id="Trazado_1064270" data-name="Trazado 1064270" d="M182.033,46.491h-2.988a1.839,1.839,0,0,1-1.839-1.839V41.664a1.839,1.839,0,0,1,1.839-1.839h2.988a1.839,1.839,0,0,1,1.839,1.839v2.988A1.839,1.839,0,0,1,182.033,46.491Z" transform="translate(-114.967 -35.294)" fill="#9be69d"/>
      <path id="Trazado_1064271" data-name="Trazado 1064271" d="M271.937,46.491h-2.988a1.839,1.839,0,0,1-1.839-1.839V41.664a1.839,1.839,0,0,1,1.839-1.839h2.988a1.839,1.839,0,0,1,1.839,1.839v2.988A1.839,1.839,0,0,1,271.937,46.491Z" transform="translate(-194.642 -35.294)" fill="#ffd15b"/>
      <path id="Trazado_1064272" data-name="Trazado 1064272" d="M92.128,137.405H89.14a1.839,1.839,0,0,1-1.839-1.839v-2.988a1.839,1.839,0,0,1,1.839-1.839h2.988a1.839,1.839,0,0,1,1.839,1.839v2.988A1.839,1.839,0,0,1,92.128,137.405Z" transform="translate(-35.291 -115.864)" fill="#9be69d"/>
      <path id="Trazado_1064273" data-name="Trazado 1064273" d="M182.033,137.405h-2.988a1.839,1.839,0,0,1-1.839-1.839v-2.988a1.839,1.839,0,0,1,1.839-1.839h2.988a1.839,1.839,0,0,1,1.839,1.839v2.988A1.839,1.839,0,0,1,182.033,137.405Z" transform="translate(-114.967 -115.864)" fill="#fe9738"/>
      <path id="Trazado_1064274" data-name="Trazado 1064274" d="M271.937,137.405h-2.988a1.839,1.839,0,0,1-1.839-1.839v-2.988a1.839,1.839,0,0,1,1.839-1.839h2.988a1.839,1.839,0,0,1,1.839,1.839v2.988A1.839,1.839,0,0,1,271.937,137.405Z" transform="translate(-194.642 -115.864)" fill="#4f66d0"/>
      <path id="Trazado_1064275" data-name="Trazado 1064275" d="M92.128,228.32H89.14a1.839,1.839,0,0,1-1.839-1.839v-2.988a1.839,1.839,0,0,1,1.839-1.839h2.988a1.839,1.839,0,0,1,1.839,1.839v2.988A1.839,1.839,0,0,1,92.128,228.32Z" transform="translate(-35.291 -196.435)" fill="#fe7ab6"/>
      <path id="Trazado_1064276" data-name="Trazado 1064276" d="M182.033,228.32h-2.988a1.839,1.839,0,0,1-1.839-1.839v-2.988a1.839,1.839,0,0,1,1.839-1.839h2.988a1.839,1.839,0,0,1,1.839,1.839v2.988A1.839,1.839,0,0,1,182.033,228.32Z" transform="translate(-114.967 -196.435)" fill="#ffd15b"/>
      <path id="Trazado_1064277" data-name="Trazado 1064277" d="M281.553,226.69V225a.85.85,0,0,0-.745-.844l-1.685-.211a.848.848,0,0,1-.706-.593,8.453,8.453,0,0,0-.619-1.5.848.848,0,0,1,.08-.919l1.042-1.34a.85.85,0,0,0-.07-1.123l-1.193-1.193a.85.85,0,0,0-1.123-.07l-1.34,1.042a.848.848,0,0,1-.919.08,8.44,8.44,0,0,0-1.5-.619.848.848,0,0,1-.593-.706l-.211-1.685a.85.85,0,0,0-.844-.745h-1.687a.85.85,0,0,0-.844.745l-.211,1.685a.848.848,0,0,1-.593.706,8.453,8.453,0,0,0-1.5.619.848.848,0,0,1-.919-.08l-1.34-1.042a.85.85,0,0,0-1.123.07l-1.193,1.193a.85.85,0,0,0-.07,1.123l1.042,1.34a.848.848,0,0,1,.08.919,8.436,8.436,0,0,0-.619,1.5.848.848,0,0,1-.706.593l-1.685.211a.85.85,0,0,0-.745.844v1.687a.85.85,0,0,0,.745.844l1.685.211a.848.848,0,0,1,.706.593,8.448,8.448,0,0,0,.619,1.5.848.848,0,0,1-.08.919l-1.042,1.34a.85.85,0,0,0,.07,1.123l1.193,1.193a.85.85,0,0,0,1.123.07l1.34-1.042a.848.848,0,0,1,.919-.08,8.437,8.437,0,0,0,1.5.619.848.848,0,0,1,.593.706l.211,1.685a.85.85,0,0,0,.844.745h1.687a.85.85,0,0,0,.844-.745l.211-1.685a.848.848,0,0,1,.593-.706,8.454,8.454,0,0,0,1.5-.619.848.848,0,0,1,.919.08l1.34,1.042a.85.85,0,0,0,1.123-.07l1.193-1.193a.85.85,0,0,0,.07-1.123l-1.042-1.34a.848.848,0,0,1-.08-.919,8.44,8.44,0,0,0,.619-1.5.848.848,0,0,1,.706-.593l1.685-.211A.85.85,0,0,0,281.553,226.69ZM270.29,230.1a4.25,4.25,0,1,1,4.25-4.25A4.25,4.25,0,0,1,270.29,230.1Z" transform="translate(-187.478 -190.168)" fill="#b6c4cf"/>
      <path id="Trazado_1064278" data-name="Trazado 1064278" d="M299.922,243.271l-1.685-.211a.848.848,0,0,1-.706-.593,8.454,8.454,0,0,0-.619-1.5.848.848,0,0,1,.08-.919l1.042-1.34a.85.85,0,0,0-.07-1.123l-1.193-1.193a.85.85,0,0,0-1.123-.07l-.433.337A10.874,10.874,0,0,1,293.13,247a4.266,4.266,0,0,1-2.047,1.861,10.877,10.877,0,0,1-9.6,1.421l-.715.919a.85.85,0,0,0,.07,1.123l1.193,1.193a.85.85,0,0,0,1.123.07l1.34-1.042a.848.848,0,0,1,.919-.08,8.438,8.438,0,0,0,1.5.619.848.848,0,0,1,.593.706l.211,1.685a.85.85,0,0,0,.844.745h1.687a.85.85,0,0,0,.844-.745l.211-1.685a.848.848,0,0,1,.593-.706,8.455,8.455,0,0,0,1.5-.619.848.848,0,0,1,.919.08l1.34,1.042a.85.85,0,0,0,1.123-.07l1.193-1.193a.85.85,0,0,0,.07-1.123l-1.042-1.34a.848.848,0,0,1-.08-.919,8.436,8.436,0,0,0,.619-1.5.848.848,0,0,1,.706-.593l1.685-.211a.85.85,0,0,0,.745-.844v-1.687A.851.851,0,0,0,299.922,243.271Z" transform="translate(-206.591 -209.28)" fill="#9facba"/>
      <g id="Grupo_1229413" data-name="Grupo 1229413" transform="translate(47.479 0)">
        <path id="Trazado_1064279" data-name="Trazado 1064279" d="M48.332,40.782a.853.853,0,0,0,.853-.853V3.611a1.907,1.907,0,0,1,1.9-1.9H80.053a1.907,1.907,0,0,1,1.906,1.9V7.252a.853.853,0,1,0,1.707,0V3.611A3.616,3.616,0,0,0,80.053,0H51.09a3.615,3.615,0,0,0-3.611,3.611V39.929a.853.853,0,0,0,.853.853Z" transform="translate(-47.479 0)"/>
        <path id="Trazado_1064280" data-name="Trazado 1064280" d="M88.174,35.017a2.7,2.7,0,0,0-2.692-2.692H82.493A2.7,2.7,0,0,0,79.8,35.017v2.988A2.7,2.7,0,0,0,82.493,40.7h2.988a2.7,2.7,0,0,0,2.692-2.692Zm-1.707,2.988a.987.987,0,0,1-.986.986H82.493a.987.987,0,0,1-.986-.986V35.017a.987.987,0,0,1,.986-.986h2.988a.987.987,0,0,1,.986.986Z" transform="translate(-76.124 -28.647)"/>
        <path id="Trazado_1064281" data-name="Trazado 1064281" d="M178.078,35.017a2.7,2.7,0,0,0-2.692-2.692H172.4a2.7,2.7,0,0,0-2.692,2.692v2.988A2.7,2.7,0,0,0,172.4,40.7h2.988a2.7,2.7,0,0,0,2.692-2.692Zm-1.707,2.988a.987.987,0,0,1-.986.986H172.4a.987.987,0,0,1-.986-.986V35.017a.987.987,0,0,1,.986-.986h2.988a.987.987,0,0,1,.986.986Z" transform="translate(-155.799 -28.647)"/>
        <path id="Trazado_1064282" data-name="Trazado 1064282" d="M267.983,35.017a2.7,2.7,0,0,0-2.692-2.692H262.3a2.7,2.7,0,0,0-2.692,2.692v2.988A2.7,2.7,0,0,0,262.3,40.7h2.988a2.7,2.7,0,0,0,2.692-2.692Zm-1.707,2.988a.987.987,0,0,1-.986.986H262.3a.987.987,0,0,1-.986-.986V35.017a.987.987,0,0,1,.986-.986h2.988a.987.987,0,0,1,.986.986Z" transform="translate(-235.474 -28.647)"/>
        <path id="Trazado_1064283" data-name="Trazado 1064283" d="M88.174,125.932a2.7,2.7,0,0,0-2.692-2.692H82.493a2.7,2.7,0,0,0-2.692,2.692v2.988a2.7,2.7,0,0,0,2.692,2.692h2.988a2.7,2.7,0,0,0,2.692-2.692Zm-1.707,2.988a.987.987,0,0,1-.986.986H82.493a.987.987,0,0,1-.986-.986v-2.988a.987.987,0,0,1,.986-.986h2.988a.987.987,0,0,1,.986.986Z" transform="translate(-76.124 -109.218)"/>
        <path id="Trazado_1064284" data-name="Trazado 1064284" d="M178.078,125.932a2.7,2.7,0,0,0-2.692-2.692H172.4a2.7,2.7,0,0,0-2.692,2.692v2.988a2.7,2.7,0,0,0,2.692,2.692h2.988a2.7,2.7,0,0,0,2.692-2.692Zm-1.707,2.988a.987.987,0,0,1-.986.986H172.4a.987.987,0,0,1-.986-.986v-2.988a.987.987,0,0,1,.986-.986h2.988a.987.987,0,0,1,.986.986Z" transform="translate(-155.799 -109.218)"/>
        <path id="Trazado_1064285" data-name="Trazado 1064285" d="M265.291,123.24H262.3a2.7,2.7,0,0,0-2.692,2.692v2.988a2.7,2.7,0,0,0,2.692,2.692h2.988a2.7,2.7,0,0,0,2.692-2.692v-2.988A2.7,2.7,0,0,0,265.291,123.24Zm.986,5.681a.987.987,0,0,1-.986.986H262.3a.987.987,0,0,1-.986-.986v-2.988a.987.987,0,0,1,.986-.986h2.988a.987.987,0,0,1,.986.986Z" transform="translate(-235.474 -109.218)"/>
        <path id="Trazado_1064286" data-name="Trazado 1064286" d="M85.482,214.154H82.493a2.7,2.7,0,0,0-2.692,2.692v2.988a2.7,2.7,0,0,0,2.692,2.692h2.988a2.7,2.7,0,0,0,2.692-2.692v-2.988A2.7,2.7,0,0,0,85.482,214.154Zm.986,5.681a.987.987,0,0,1-.986.986H82.493a.987.987,0,0,1-.986-.986v-2.988a.987.987,0,0,1,.986-.986h2.988a.987.987,0,0,1,.986.986Z" transform="translate(-76.123 -189.788)"/>
        <path id="Trazado_1064287" data-name="Trazado 1064287" d="M175.386,214.154H172.4a2.7,2.7,0,0,0-2.692,2.692v2.988a2.7,2.7,0,0,0,2.692,2.692h2.988a2.7,2.7,0,0,0,2.692-2.692v-2.988A2.7,2.7,0,0,0,175.386,214.154Zm.986,5.681a.987.987,0,0,1-.986.986H172.4a.987.987,0,0,1-.986-.986v-2.988a.987.987,0,0,1,.986-.986h2.988a.987.987,0,0,1,.986.986Z" transform="translate(-155.799 -189.788)"/>
        <path id="Trazado_1064288" data-name="Trazado 1064288" d="M93.437,114l-1.681-.206a9.11,9.11,0,0,0-.682-1.641l1.042-1.34a1.706,1.706,0,0,0-.14-2.25l-1.193-1.193a1.706,1.706,0,0,0-2.25-.14L87.2,108.275a9.106,9.106,0,0,0-1.642-.677l-.211-1.685a1.706,1.706,0,0,0-1.68-1.492V92.093a.853.853,0,0,0-1.707,0v12.327a1.706,1.706,0,0,0-1.681,1.492l-.206,1.681a9.109,9.109,0,0,0-1.641.682l-1.34-1.042a1.706,1.706,0,0,0-2.25.14l-1.193,1.193a1.706,1.706,0,0,0-.14,2.25l1.042,1.335a9.094,9.094,0,0,0-.677,1.642L72.188,114a1.706,1.706,0,0,0-1.492,1.69v1.687a1.706,1.706,0,0,0,1.492,1.69l1.681.206a9.1,9.1,0,0,0,.682,1.642l-1.042,1.34a1.706,1.706,0,0,0,.14,2.25l1.193,1.193a1.706,1.706,0,0,0,2.25.14l1.335-1.042a9.1,9.1,0,0,0,1.642.677l.211,1.685a1.706,1.706,0,0,0,1.681,1.492v1.4H49.186v-5.28a.853.853,0,1,0-1.707,0V135.5a3.615,3.615,0,0,0,3.611,3.611H72.011a.853.853,0,0,0,0-1.707H51.09a1.907,1.907,0,0,1-1.9-1.9v-3.744H81.959V135.5a1.907,1.907,0,0,1-1.906,1.9h-4.06a.853.853,0,0,0,0,1.707h4.06a3.616,3.616,0,0,0,3.612-3.611v-6.848a1.706,1.706,0,0,0,1.68-1.492l.206-1.681a9.109,9.109,0,0,0,1.641-.682l1.34,1.042a1.706,1.706,0,0,0,2.25-.14l1.193-1.193a1.706,1.706,0,0,0,.14-2.25l-1.042-1.335a9.1,9.1,0,0,0,.677-1.642l1.685-.211a1.706,1.706,0,0,0,1.492-1.69v-1.687A1.706,1.706,0,0,0,93.437,114Zm-.214,3.374-1.682.21a1.7,1.7,0,0,0-1.416,1.19,7.613,7.613,0,0,1-.556,1.345,1.7,1.7,0,0,0,.16,1.843l1.043,1.336-1.189,1.193-1.34-1.042a1.7,1.7,0,0,0-1.843-.16,7.629,7.629,0,0,1-1.345.556,1.7,1.7,0,0,0-1.19,1.416l-.207,1.682H81.972l-.211-1.685a1.7,1.7,0,0,0-1.19-1.417,7.62,7.62,0,0,1-1.345-.556,1.7,1.7,0,0,0-1.843.16l-1.336,1.043-1.193-1.189,1.042-1.34a1.7,1.7,0,0,0,.16-1.843,7.617,7.617,0,0,1-.556-1.345,1.7,1.7,0,0,0-1.416-1.19l-1.682-.207,0-1.684,1.685-.211A1.7,1.7,0,0,0,75.5,114.3a7.618,7.618,0,0,1,.556-1.345,1.7,1.7,0,0,0-.16-1.843l-1.042-1.336,1.188-1.193,1.34,1.042a1.7,1.7,0,0,0,1.843.16,7.628,7.628,0,0,1,1.345-.556,1.7,1.7,0,0,0,1.19-1.416l.207-1.682h1.684l.211,1.685a1.7,1.7,0,0,0,1.19,1.416,7.619,7.619,0,0,1,1.345.556,1.7,1.7,0,0,0,1.843-.16l1.336-1.042,1.192,1.188-1.042,1.34a1.7,1.7,0,0,0-.16,1.843,7.628,7.628,0,0,1,.556,1.345,1.7,1.7,0,0,0,1.416,1.19l1.682.207v1.684Z" transform="translate(-47.479 -80.859)"/>
        <path id="Trazado_1064289" data-name="Trazado 1064289" d="M318.273,268.723a5.1,5.1,0,1,0,5.1,5.1A5.109,5.109,0,0,0,318.273,268.723Zm-3.4,5.1a3.4,3.4,0,0,1,2.544-3.288v6.577A3.4,3.4,0,0,1,314.876,273.827Zm4.25,3.289v-6.577a3.4,3.4,0,0,1,0,6.577Z" transform="translate(-282.94 -238.149)"/>
      </g>
    </g>
  </g>
</svg>
