<svg xmlns="http://www.w3.org/2000/svg" width="86.998" height="81.587" viewBox="0 0 86.998 81.587">
  <g id="Grupo_1230128" data-name="Grupo 1230128" transform="translate(-1064.173 -5702.905)">
    <g id="Grupo_1228993" data-name="Grupo 1228993" transform="translate(63.105 2838.124)">
      <circle id="Elipse_12863" data-name="Elipse 12863" cx="27.545" cy="27.545" r="27.545" transform="translate(1001.068 2864.781)" fill="#c3b7ef"/>
    </g>
    <g id="codigo-html" transform="translate(1082.422 5715.743)">
      <path id="Trazado_1064290" data-name="Trazado 1064290" d="M4.583,55h14.9v2.773L12.614,61.7a2.292,2.292,0,0,0-1.156,1.989v2.773a2.292,2.292,0,0,0,2.292,2.292H55a2.292,2.292,0,0,0,2.292-2.292V63.685A2.292,2.292,0,0,0,56.136,61.7L49.27,57.772V55h14.9a4.583,4.583,0,0,0,4.583-4.583V4.583A4.583,4.583,0,0,0,64.166,0H4.583A4.583,4.583,0,0,0,0,4.583V50.416A4.583,4.583,0,0,0,4.583,55Zm47.248,6.875H16.918l4.01-2.292H47.82ZM13.75,66.458V64.166H55v2.292Zm33.229-9.167H21.771V55H46.979Zm17.187-4.583H4.583a2.292,2.292,0,0,1-2.292-2.292V45.833H66.458v4.583A2.292,2.292,0,0,1,64.166,52.708ZM66.458,4.583V43.541H20.625V2.292H64.166A2.292,2.292,0,0,1,66.458,4.583ZM4.583,2.292h13.75v41.25H2.292V4.583A2.292,2.292,0,0,1,4.583,2.292Z" transform="translate(0)"/>
      <path id="Trazado_1064291" data-name="Trazado 1064291" d="M32.729,42H28.146a1.146,1.146,0,1,0,0,2.292h4.583a1.146,1.146,0,0,0,0-2.292Z" transform="translate(3.937 6.124)"/>
      <path id="Trazado_1064292" data-name="Trazado 1064292" d="M5.146,7.292H6.292A1.146,1.146,0,1,0,6.292,5H5.146a1.146,1.146,0,1,0,0,2.292Z" transform="translate(0.583 0.729)"/>
      <path id="Trazado_1064293" data-name="Trazado 1064293" d="M10.146,7.292h3.437a1.146,1.146,0,1,0,0-2.292H10.146a1.146,1.146,0,1,0,0,2.292Z" transform="translate(1.312 0.729)"/>
      <path id="Trazado_1064294" data-name="Trazado 1064294" d="M5.146,11.292H6.292A1.146,1.146,0,1,0,6.292,9H5.146a1.146,1.146,0,1,0,0,2.292Z" transform="translate(0.583 1.312)"/>
      <path id="Trazado_1064295" data-name="Trazado 1064295" d="M10.146,11.292h3.437a1.146,1.146,0,1,0,0-2.292H10.146a1.146,1.146,0,1,0,0,2.292Z" transform="translate(1.312 1.312)"/>
      <path id="Trazado_1064296" data-name="Trazado 1064296" d="M5.146,15.292H6.292a1.146,1.146,0,1,0,0-2.292H5.146a1.146,1.146,0,1,0,0,2.292Z" transform="translate(0.583 1.896)"/>
      <path id="Trazado_1064297" data-name="Trazado 1064297" d="M10.146,15.292h3.437a1.146,1.146,0,1,0,0-2.292H10.146a1.146,1.146,0,1,0,0,2.292Z" transform="translate(1.312 1.896)"/>
      <path id="Trazado_1064298" data-name="Trazado 1064298" d="M5.146,19.292H6.292a1.146,1.146,0,1,0,0-2.292H5.146a1.146,1.146,0,1,0,0,2.292Z" transform="translate(0.583 2.479)"/>
      <path id="Trazado_1064299" data-name="Trazado 1064299" d="M10.146,19.292h3.437a1.146,1.146,0,1,0,0-2.292H10.146a1.146,1.146,0,1,0,0,2.292Z" transform="translate(1.312 2.479)"/>
      <path id="Trazado_1064300" data-name="Trazado 1064300" d="M5.146,23.292H6.292a1.146,1.146,0,1,0,0-2.292H5.146a1.146,1.146,0,1,0,0,2.292Z" transform="translate(0.583 3.062)"/>
      <path id="Trazado_1064301" data-name="Trazado 1064301" d="M10.146,23.292h3.437a1.146,1.146,0,1,0,0-2.292H10.146a1.146,1.146,0,1,0,0,2.292Z" transform="translate(1.312 3.062)"/>
      <path id="Trazado_1064302" data-name="Trazado 1064302" d="M5.146,27.292H6.292a1.146,1.146,0,1,0,0-2.292H5.146a1.146,1.146,0,1,0,0,2.292Z" transform="translate(0.583 3.646)"/>
      <path id="Trazado_1064303" data-name="Trazado 1064303" d="M10.146,27.292h3.437a1.146,1.146,0,1,0,0-2.292H10.146a1.146,1.146,0,1,0,0,2.292Z" transform="translate(1.312 3.646)"/>
      <path id="Trazado_1064304" data-name="Trazado 1064304" d="M5.146,31.292H6.292a1.146,1.146,0,1,0,0-2.292H5.146a1.146,1.146,0,1,0,0,2.292Z" transform="translate(0.583 4.229)"/>
      <path id="Trazado_1064305" data-name="Trazado 1064305" d="M10.146,31.292h3.437a1.146,1.146,0,1,0,0-2.292H10.146a1.146,1.146,0,1,0,0,2.292Z" transform="translate(1.312 4.229)"/>
      <path id="Trazado_1064306" data-name="Trazado 1064306" d="M5.146,35.292H6.292a1.146,1.146,0,1,0,0-2.292H5.146a1.146,1.146,0,1,0,0,2.292Z" transform="translate(0.583 4.812)"/>
      <path id="Trazado_1064307" data-name="Trazado 1064307" d="M10.146,35.292h3.437a1.146,1.146,0,1,0,0-2.292H10.146a1.146,1.146,0,1,0,0,2.292Z" transform="translate(1.312 4.812)"/>
      <path id="Trazado_1064308" data-name="Trazado 1064308" d="M26.875,33H21.146a1.146,1.146,0,1,0,0,2.292h5.729a1.146,1.146,0,1,0,0-2.292Z" transform="translate(2.916 4.812)"/>
      <path id="Trazado_1064309" data-name="Trazado 1064309" d="M45.041,33h-14.9a1.146,1.146,0,0,0,0,2.292h14.9a1.146,1.146,0,1,0,0-2.292Z" transform="translate(4.229 4.812)"/>
      <path id="Trazado_1064310" data-name="Trazado 1064310" d="M21.146,23.292h5.729a1.146,1.146,0,1,0,0-2.292H21.146a1.146,1.146,0,0,0,0,2.292Z" transform="translate(2.916 3.062)"/>
      <path id="Trazado_1064311" data-name="Trazado 1064311" d="M21.146,27.292h5.729a1.146,1.146,0,1,0,0-2.292H21.146a1.146,1.146,0,1,0,0,2.292Z" transform="translate(2.916 3.646)"/>
      <path id="Trazado_1064312" data-name="Trazado 1064312" d="M38.167,21H30.146a1.146,1.146,0,0,0,0,2.292h8.021a1.146,1.146,0,1,0,0-2.292Z" transform="translate(4.229 3.062)"/>
      <path id="Trazado_1064313" data-name="Trazado 1064313" d="M30.146,27.292h5.729a1.146,1.146,0,1,0,0-2.292H30.146a1.146,1.146,0,1,0,0,2.292Z" transform="translate(4.229 3.646)"/>
      <path id="Trazado_1064314" data-name="Trazado 1064314" d="M21.146,19.292h1.146a1.146,1.146,0,0,0,0-2.292H21.146a1.146,1.146,0,0,0,0,2.292Z" transform="translate(2.916 2.479)"/>
      <path id="Trazado_1064315" data-name="Trazado 1064315" d="M34.167,17H26.146a1.146,1.146,0,1,0,0,2.292h8.021a1.146,1.146,0,1,0,0-2.292Z" transform="translate(3.646 2.479)"/>
      <path id="Trazado_1064316" data-name="Trazado 1064316" d="M37.146,19.292h12.6a1.146,1.146,0,1,0,0-2.292h-12.6a1.146,1.146,0,1,0,0,2.292Z" transform="translate(5.25 2.479)"/>
      <path id="Trazado_1064317" data-name="Trazado 1064317" d="M21.146,31.292h1.146a1.146,1.146,0,0,0,0-2.292H21.146a1.146,1.146,0,0,0,0,2.292Z" transform="translate(2.916 4.229)"/>
      <path id="Trazado_1064318" data-name="Trazado 1064318" d="M25,30.146a1.146,1.146,0,0,0,1.146,1.146h8.021a1.146,1.146,0,0,0,0-2.292H26.146A1.146,1.146,0,0,0,25,30.146Z" transform="translate(3.646 4.229)"/>
      <path id="Trazado_1064319" data-name="Trazado 1064319" d="M36,30.146a1.146,1.146,0,0,0,1.146,1.146h4.583a1.146,1.146,0,0,0,0-2.292H37.146A1.146,1.146,0,0,0,36,30.146Z" transform="translate(5.25 4.229)"/>
      <path id="Trazado_1064320" data-name="Trazado 1064320" d="M25.146,14.167a1.146,1.146,0,0,0,1.146-1.146V10.729h2.292v2.292a1.146,1.146,0,1,0,2.292,0V6.146a1.146,1.146,0,1,0-2.292,0V8.437H26.292V6.146a1.146,1.146,0,0,0-2.292,0v6.875A1.146,1.146,0,0,0,25.146,14.167Z" transform="translate(3.5 0.729)"/>
      <path id="Trazado_1064321" data-name="Trazado 1064321" d="M33.146,7.292v5.729a1.146,1.146,0,1,0,2.292,0V7.292a1.146,1.146,0,0,0,0-2.292H33.146a1.146,1.146,0,0,0,0,2.292Z" transform="translate(4.666 0.729)"/>
      <path id="Trazado_1064322" data-name="Trazado 1064322" d="M39.146,14.167a1.146,1.146,0,0,0,1.146-1.146V9.927l.192.289a1.191,1.191,0,0,0,1.907,0l.192-.289v3.094a1.146,1.146,0,0,0,2.292,0V6.146a1.146,1.146,0,0,0-2.1-.636L41.437,7.521,40.1,5.51a1.146,1.146,0,0,0-2.1.636v6.875A1.146,1.146,0,0,0,39.146,14.167Z" transform="translate(5.541 0.729)"/>
      <path id="Trazado_1064323" data-name="Trazado 1064323" d="M47.146,14.167h2.292a1.146,1.146,0,1,0,0-2.292H48.292V6.146a1.146,1.146,0,1,0-2.292,0v6.875A1.146,1.146,0,0,0,47.146,14.167Z" transform="translate(6.708 0.729)"/>
    </g>
  </g>
</svg>
