<svg xmlns="http://www.w3.org/2000/svg" width="88.811" height="85.662" viewBox="0 0 88.811 85.662">
  <g id="Grupo_1230131" data-name="Grupo 1230131" transform="translate(-407.637 -6371.264)">
    <g id="Grupo_1228992" data-name="Grupo 1228992" transform="translate(-593.431 3506.483)">
      <circle id="Elipse_12863" data-name="Elipse 12863" cx="27.545" cy="27.545" r="27.545" transform="translate(1001.068 2864.781)" fill="#c3b7ef"/>
    </g>
    <g id="servers_622368" transform="translate(424.39 6384.868)">
      <g id="Grupo_1230133" data-name="Grupo 1230133">
        <g id="Grupo_1230132" data-name="Grupo 1230132">
          <path id="Trazado_1066541" data-name="Trazado 1066541" d="M39.881,68.284a62.442,62.442,0,0,1-9.857.772C14.1,69.055,3,63.516,3,58.547V49.486c4.813,4.51,14.967,7.56,27.022,7.56,1.573,0,3.107-.063,4.615-.168a1.5,1.5,0,1,0-.2-3c-1.441.1-2.906.162-4.411.162C14.1,54.043,3,48.5,3,43.535V34.473c4.813,4.51,14.967,7.56,27.022,7.56a64.195,64.195,0,0,0,12.391-1.174,1.5,1.5,0,1,0-.583-2.945,61.037,61.037,0,0,1-11.808,1.117C14.1,39.031,3,33.492,3,28.523V19.461c4.813,4.51,14.967,7.56,27.022,7.56s22.209-3.05,27.022-7.56v9.079c-.009,2.03-1.789,3.741-3.288,4.816a1.5,1.5,0,0,0,.877,2.72,1.533,1.533,0,0,0,.877-.279,14.937,14.937,0,0,0,1.534-1.306v.276a1.5,1.5,0,0,0,3,0V28.544c0-.006,0-.012,0-.018s0-.009,0-.015v-15C60.048,5.936,46.858,0,30.024,0S0,5.936,0,13.511V58.547c0,7.575,13.19,13.511,30.024,13.511a65.876,65.876,0,0,0,10.328-.808,1.5,1.5,0,0,0-.471-2.966ZM30.024,3C45.949,3,57.046,8.542,57.046,13.511s-11.1,10.508-27.022,10.508S3,18.48,3,13.511,14.1,3,30.024,3Z"/>
          <path id="Trazado_1066542" data-name="Trazado 1066542" d="M293.847,277.333a16.513,16.513,0,1,0,16.513,16.513A16.533,16.533,0,0,0,293.847,277.333Zm0,30.024a13.511,13.511,0,1,1,13.511-13.511A13.527,13.527,0,0,1,293.847,307.357Z" transform="translate(-238.303 -238.302)"/>
          <path id="Trazado_1066543" data-name="Trazado 1066543" d="M349.916,320.441a1.511,1.511,0,0,0-.492-.324,1.544,1.544,0,0,0-.327-.066,1.288,1.288,0,0,0-.243-.051,1.486,1.486,0,0,0-.324.066,1.67,1.67,0,0,0-.243.048,1.543,1.543,0,0,0-.5.333l-6,6a1.5,1.5,0,0,0,2.123,2.123l3.441-3.438v14.387a1.5,1.5,0,0,0,3,0V325.128l3.441,3.441a1.5,1.5,0,0,0,2.126-2.123Z" transform="translate(-293.308 -274.964)"/>
        </g>
      </g>
    </g>
  </g>
</svg>
