<svg xmlns="http://www.w3.org/2000/svg" width="85" height="78" viewBox="0 0 85 78">
  <g id="Grupo_1230125" data-name="Grupo 1230125" transform="translate(-180 -1212.262)">
    <rect id="Rectángulo_423328" data-name="Rectángulo 423328" width="85" height="78" rx="15" transform="translate(180 1212.262)" fill="#eddbfd"/>
    <g id="Icon" transform="translate(198.492 1228.092)">
      <path id="Trazado_1064205" data-name="Trazado 1064205" d="M46.766,6.763A4.763,4.763,0,0,0,42,2H6.013A4.763,4.763,0,0,0,1.25,6.763v25.4a4.763,4.763,0,0,0,4.763,4.763H42a4.763,4.763,0,0,0,4.763-4.763ZM25.041,11.342,19.96,26.585a1.589,1.589,0,1,0,3.015,1l5.081-15.243a1.589,1.589,0,0,0-3.015-1Zm4.408,4.164,3.957,3.959-3.957,3.959a1.587,1.587,0,0,0,2.244,2.244l5.081-5.081a1.586,1.586,0,0,0,0-2.244l-5.081-5.081a1.587,1.587,0,0,0-2.244,2.244ZM16.323,13.263l-5.081,5.081a1.586,1.586,0,0,0,0,2.244l5.081,5.081a1.587,1.587,0,1,0,2.244-2.244l-3.957-3.959,3.957-3.959a1.587,1.587,0,1,0-2.244-2.244Z" transform="translate(0)" fill="#aa52f9" fill-rule="evenodd"/>
      <path id="Trazado_1064206" data-name="Trazado 1064206" d="M11.25,18.588V26a1.588,1.588,0,0,0,3.176,0v-7.41a1.588,1.588,0,1,0-3.176,0Z" transform="translate(11.17 16.756)" fill="#aa52f9" fill-rule="evenodd"/>
      <path id="Trazado_1064207" data-name="Trazado 1064207" d="M8.338,23.676H27.391a1.588,1.588,0,1,0,0-3.176H8.338a1.588,1.588,0,1,0,0,3.176Z" transform="translate(6.144 20.665)" fill="#aa52f9" fill-rule="evenodd"/>
    </g>
  </g>
</svg>
