<svg xmlns="http://www.w3.org/2000/svg" xmlns:xlink="http://www.w3.org/1999/xlink" width="108" height="108" viewBox="0 0 108 108">
  <defs>
    <filter id="Trazado_904820" x="0" y="0" width="108" height="108" filterUnits="userSpaceOnUse">
      <feOffset dy="3" input="SourceAlpha"/>
      <feGaussianBlur stdDeviation="3" result="blur"/>
      <feFlood flood-opacity="0.161"/>
      <feComposite operator="in" in2="blur"/>
      <feComposite in="SourceGraphic"/>
    </filter>
  </defs>
  <g id="Grupo_1230144" data-name="Grupo 1230144" transform="translate(-620 -3891.424)">
    <g id="Grupo_1229329" data-name="Grupo 1229329" transform="translate(629 3897.424)">
      <g id="Grupo_1173585" data-name="Grupo 1173585" transform="translate(0 0)">
        <g id="Grupo_1173428" data-name="Grupo 1173428">
          <g id="Grupo_1171958" data-name="Grupo 1171958">
            <g id="Grupo_1167341" data-name="Grupo 1167341">
              <g id="Grupo_1166792" data-name="Grupo 1166792">
                <g transform="matrix(1, 0, 0, 1, -9, -6)" filter="url(#Trazado_904820)">
                  <g id="Trazado_904820-2" data-name="Trazado 904820" transform="translate(9 6)" fill="#e5fdfa">
                    <path d="M 44.99996948242188 88.50004577636719 C 39.12684631347656 88.50004577636719 33.43020629882812 87.35012054443359 28.06828117370605 85.08220672607422 C 22.88851928710938 82.891357421875 18.23629379272461 79.75463104248047 14.2408447265625 75.75917816162109 C 10.24540710449219 71.76373291015625 7.108694553375244 67.11149597167969 4.917831897735596 61.93173217773438 C 2.649931907653809 56.56979370117188 1.500007033348083 50.87314224243164 1.500007033348083 45.00001907348633 C 1.500007033348083 39.12689590454102 2.649931907653809 33.43024444580078 4.917831897735596 28.06830596923828 C 7.108694553375244 22.88853073120117 10.24540710449219 18.23630714416504 14.2408447265625 14.24086952209473 C 18.23629379272461 10.2454195022583 22.88850784301758 7.108694076538086 28.06828117370605 4.917831420898438 C 33.43020629882812 2.649931669235229 39.12684631347656 1.500006556510925 44.99996948242188 1.500006556510925 C 50.87309265136719 1.500006556510925 56.56973266601562 2.649931669235229 61.93165588378906 4.917831420898438 C 67.11143493652344 7.108694076538086 71.76364135742188 10.2454195022583 75.75909423828125 14.24086952209473 C 79.75454711914062 18.23630714416504 82.89125823974609 22.88853073120117 85.08212280273438 28.06830596923828 C 87.35002136230469 33.43024444580078 88.49994659423828 39.12689590454102 88.49994659423828 45.00001907348633 C 88.49994659423828 50.87314224243164 87.35002136230469 56.56979370117188 85.08212280273438 61.93173217773438 C 82.89125823974609 67.11149597167969 79.75454711914062 71.76371765136719 75.75909423828125 75.75917816162109 C 71.76364135742188 79.75463104248047 67.11143493652344 82.891357421875 61.93165588378906 85.08220672607422 C 56.56973266601562 87.35012054443359 50.87309265136719 88.50004577636719 44.99996948242188 88.50004577636719 Z" stroke="none"/>
                    <path d="M 44.99996948242188 3.000007629394531 C 39.32868194580078 3.000007629394531 33.82863998413086 4.110061645507812 28.65261077880859 6.299346923828125 C 23.65164184570312 8.414573669433594 19.15968322753906 11.44334411621094 15.30149841308594 15.30152130126953 C 11.44332885742188 19.15969085693359 8.414566040039062 23.65166473388672 6.299324035644531 28.65263366699219 C 4.110054016113281 33.82867431640625 3 39.32873153686523 3 45.00001907348633 C 3 50.67130661010742 4.110054016113281 56.17136383056641 6.299324035644531 61.34738922119141 C 8.414566040039062 66.34837341308594 11.44332885742188 70.84033203125 15.301513671875 74.69851684570312 C 19.15968322753906 78.55668640136719 23.65164184570312 81.58546447753906 28.65261077880859 83.70069122314453 C 33.82863998413086 85.88997650146484 39.32868194580078 87.00003051757812 44.99996948242188 87.00003051757812 C 50.67125701904297 87.00003051757812 56.17129898071289 85.88997650146484 61.34732818603516 83.70069122314453 C 66.34829711914062 81.58546447753906 70.84025573730469 78.55668640136719 74.69842529296875 74.69851684570312 C 78.55661010742188 70.84033203125 81.58537292480469 66.34837341308594 83.70061492919922 61.34738922119141 C 85.88988494873047 56.17136383056641 86.99993896484375 50.67130661010742 86.99993896484375 45.00001907348633 C 86.99993896484375 39.32873153686523 85.88988494873047 33.82867431640625 83.70061492919922 28.65263366699219 C 81.58537292480469 23.65166473388672 78.55661010742188 19.15969085693359 74.69844055175781 15.30152130126953 C 70.84025573730469 11.44334411621094 66.34829711914062 8.414573669433594 61.34732818603516 6.299346923828125 C 56.17129898071289 4.110061645507812 50.67125701904297 3.000007629394531 44.99996948242188 3.000007629394531 M 44.99996948242188 7.62939453125e-06 C 69.85276794433594 7.62939453125e-06 89.99993896484375 20.14719390869141 89.99993896484375 45.00001907348633 C 89.99993896484375 69.85282897949219 69.85276794433594 90.00003051757812 44.99996948242188 90.00003051757812 C 20.14717102050781 90.00003051757812 0 69.85282897949219 0 45.00001907348633 C 0 20.14719390869141 20.14717102050781 7.62939453125e-06 44.99996948242188 7.62939453125e-06 Z" stroke="none" fill="#098576"/>
                  </g>
                </g>
              </g>
            </g>
          </g>
        </g>
      </g>
    </g>
    <g id="ux" transform="translate(644.552 3917.395)">
      <g id="Grupo_1229440" data-name="Grupo 1229440" transform="translate(1.264 0.794)">
        <g id="Grupo_1229437" data-name="Grupo 1229437">
          <path id="Trazado_1064359" data-name="Trazado 1064359" d="M47.713,49.345H13A5.031,5.031,0,0,1,7.97,44.314V12.533A5.031,5.031,0,0,1,13,7.5H47.713a5.031,5.031,0,0,1,5.031,5.031V44.314A5.031,5.031,0,0,1,47.713,49.345Z" transform="translate(-7.97 -7.501)" fill="#e28086"/>
          <path id="Trazado_1064360" data-name="Trazado 1064360" d="M14.889,49.34H13A5.031,5.031,0,0,1,7.97,44.309V12.528A5.031,5.031,0,0,1,13,7.5h1.887a5.032,5.032,0,0,0-5.031,5.031V44.309A5.031,5.031,0,0,0,14.889,49.34Z" transform="translate(-7.97 -7.497)" fill="#dd636e"/>
          <path id="Trazado_1064361" data-name="Trazado 1064361" d="M72.87,86.763v25.873a2.328,2.328,0,0,1-2.328,2.328H35.829a2.328,2.328,0,0,1-2.328-2.328V86.763a2.851,2.851,0,0,1,2.851-2.851H70.019A2.851,2.851,0,0,1,72.87,86.763Z" transform="translate(-30.798 -75.823)" fill="#f9f6f9"/>
          <path id="Trazado_1064362" data-name="Trazado 1064362" d="M38.764,114.967H35.829a2.328,2.328,0,0,1-2.328-2.328V86.765a2.851,2.851,0,0,1,2.85-2.85h2.935a2.85,2.85,0,0,0-2.85,2.85v25.874A2.328,2.328,0,0,0,38.764,114.967Z" transform="translate(-30.798 -75.825)" fill="#dddaec"/>
          <g id="Grupo_1229436" data-name="Grupo 1229436" transform="translate(2.703 2.487)">
            <circle id="Elipse_14068" data-name="Elipse 14068" cx="1.648" cy="1.648" r="1.648" fill="#f1f4f6"/>
            <circle id="Elipse_14069" data-name="Elipse 14069" cx="1.648" cy="1.648" r="1.648" transform="translate(5.238)" fill="#f1f4f6"/>
            <circle id="Elipse_14070" data-name="Elipse 14070" cx="1.648" cy="1.648" r="1.648" transform="translate(10.477)" fill="#f1f4f6"/>
          </g>
        </g>
        <g id="Grupo_1229438" data-name="Grupo 1229438" transform="translate(22.147 11.947)">
          <path id="Trazado_1064363" data-name="Trazado 1064363" d="M242.558,120.355H222.173a4.99,4.99,0,0,0-4.99,4.99V156.03a4.99,4.99,0,0,0,4.99,4.99h20.386a4.99,4.99,0,0,0,4.99-4.99V125.345a4.99,4.99,0,0,0-4.99-4.99Z" transform="translate(-217.183 -120.355)" fill="#4a80aa"/>
          <path id="Trazado_1064364" data-name="Trazado 1064364" d="M225,161.021h-2.829a4.989,4.989,0,0,1-4.989-4.989V125.345a4.989,4.989,0,0,1,4.989-4.989H225a4.99,4.99,0,0,0-4.989,4.989v30.686A4.99,4.99,0,0,0,225,161.021Z" transform="translate(-217.183 -120.356)" fill="#407093"/>
          <path id="Trazado_1064365" data-name="Trazado 1064365" d="M271.916,154.118v28.428a2.845,2.845,0,0,1-2.846,2.846H250.943a2.846,2.846,0,0,1-2.846-2.846V154.118a2.846,2.846,0,0,1,2.846-2.846h2.779v.134a2.942,2.942,0,0,0,2.942,2.942h6.686a2.942,2.942,0,0,0,2.942-2.942v-.134h2.779A2.845,2.845,0,0,1,271.916,154.118Z" transform="translate(-244.824 -147.999)" fill="#f9f6f9"/>
          <path id="Trazado_1064366" data-name="Trazado 1064366" d="M253.664,185.391h-2.721a2.846,2.846,0,0,1-2.846-2.846V154.118a2.846,2.846,0,0,1,2.846-2.846h2.721a2.846,2.846,0,0,0-2.846,2.846v28.428A2.846,2.846,0,0,0,253.664,185.391Z" transform="translate(-244.824 -147.999)" fill="#dddaec"/>
        </g>
        <g id="Grupo_1229439" data-name="Grupo 1229439" transform="translate(31.166 21.456)">
          <path id="Trazado_1064367" data-name="Trazado 1064367" d="M314.708,326.891a6.164,6.164,0,0,0-12.327,0Z" transform="translate(-302.381 -309.026)" fill="#e7a52e"/>
          <path id="Trazado_1064368" data-name="Trazado 1064368" d="M310.547,321.062a6.166,6.166,0,0,0-4.164,5.831h-4a6.169,6.169,0,0,1,8.165-5.831Z" transform="translate(-302.382 -309.028)" fill="#e49824"/>
          <circle id="Elipse_14071" data-name="Elipse 14071" cx="6.164" cy="6.164" r="6.164" transform="translate(0 0.001)" fill="#fbf1dd"/>
          <path id="Trazado_1064369" data-name="Trazado 1064369" d="M310.548,222.18a6.164,6.164,0,1,1,0-11.664,6.166,6.166,0,0,0,0,11.664Z" transform="translate(-302.383 -210.185)" fill="#f7e3c1"/>
        </g>
      </g>
      <g id="Grupo_1229441" data-name="Grupo 1229441" transform="translate(0.47 0)">
        <path id="Trazado_1064370" data-name="Trazado 1064370" d="M28.443,28.375A2.442,2.442,0,1,0,26,25.934a2.444,2.444,0,0,0,2.442,2.442Zm0-3.3a.854.854,0,1,1-.854.854A.855.855,0,0,1,28.443,25.08Z" transform="translate(-23.298 -21.005)"/>
        <path id="Trazado_1064371" data-name="Trazado 1064371" d="M77.927,28.375a2.442,2.442,0,1,0-2.442-2.442A2.444,2.444,0,0,0,77.927,28.375Zm0-3.3a.854.854,0,1,1-.854.854A.855.855,0,0,1,77.927,25.08Z" transform="translate(-67.544 -21.005)"/>
        <path id="Trazado_1064372" data-name="Trazado 1064372" d="M127.413,28.375a2.442,2.442,0,1,0-2.442-2.442A2.444,2.444,0,0,0,127.413,28.375Zm0-3.3a.854.854,0,1,1-.854.854A.855.855,0,0,1,127.413,25.08Z" transform="translate(-111.791 -21.005)"/>
        <path id="Trazado_1064373" data-name="Trazado 1064373" d="M323.056,145.36h6.53a.794.794,0,0,0,0-1.588h-6.53a.794.794,0,0,0,0,1.588Z" transform="translate(-288.198 -128.552)"/>
        <path id="Trazado_1064374" data-name="Trazado 1064374" d="M48.786,11.947H46.832V5.825A5.831,5.831,0,0,0,41.007,0H6.294A5.831,5.831,0,0,0,.47,5.825V37.606a5.831,5.831,0,0,0,5.824,5.825H22.617v4.984A5.79,5.79,0,0,0,28.4,54.2H48.786a5.79,5.79,0,0,0,5.783-5.783V17.73a5.79,5.79,0,0,0-5.783-5.783ZM6.294,41.844a4.242,4.242,0,0,1-4.237-4.238V5.825A4.242,4.242,0,0,1,6.294,1.588H41.007a4.242,4.242,0,0,1,4.236,4.238v6.121H44.129v-.214a3.649,3.649,0,0,0-3.645-3.645H12.8a.794.794,0,0,0,0,1.588H40.484a2.059,2.059,0,0,1,2.057,2.057v.214H28.4a5.79,5.79,0,0,0-5.783,5.783V39.14H6.294A1.536,1.536,0,0,1,4.76,37.606V11.733A2.059,2.059,0,0,1,6.817,9.676H9.628a.794.794,0,1,0,0-1.588H6.817a3.649,3.649,0,0,0-3.645,3.645V37.606a3.125,3.125,0,0,0,3.122,3.122H22.617v1.116Zm46.687,6.572a4.2,4.2,0,0,1-4.2,4.2H28.4a4.2,4.2,0,0,1-4.2-4.2V17.73a4.2,4.2,0,0,1,4.2-4.2H48.786a4.2,4.2,0,0,1,4.2,4.2Z" transform="translate(-0.47 0)"/>
        <path id="Trazado_1064375" data-name="Trazado 1064375" d="M262.366,143.767h-2.779a.794.794,0,0,0-.794.794v.134a2.151,2.151,0,0,1-2.148,2.149h-6.686a2.151,2.151,0,0,1-2.148-2.149v-.134a.794.794,0,0,0-.794-.794h-2.78a3.644,3.644,0,0,0-3.64,3.641v28.427a3.644,3.644,0,0,0,3.64,3.639h18.128a3.644,3.644,0,0,0,3.639-3.639v-20.6a.794.794,0,0,0-1.588,0v20.6a2.054,2.054,0,0,1-2.052,2.052H244.238a2.054,2.054,0,0,1-2.052-2.052V147.408a2.054,2.054,0,0,1,2.052-2.053h2.044a3.742,3.742,0,0,0,3.677,3.077h6.686a3.742,3.742,0,0,0,3.677-3.077h2.043a2.054,2.054,0,0,1,2.052,2.053v4.656a.794.794,0,0,0,1.588,0v-4.656A3.644,3.644,0,0,0,262.366,143.767Z" transform="translate(-215.178 -128.548)"/>
        <path id="Trazado_1064376" data-name="Trazado 1064376" d="M294.879,221.35a.794.794,0,0,0,.794.794H308a.794.794,0,0,0,.794-.794A6.946,6.946,0,0,0,305.6,215.5a6.957,6.957,0,1,0-7.526,0A6.946,6.946,0,0,0,294.879,221.35Zm1.588-11.7a5.37,5.37,0,1,1,5.37,5.369A5.376,5.376,0,0,1,296.467,209.648Zm5.369,6.957a6.934,6.934,0,0,0,1.919-.271,5.357,5.357,0,0,1,3.392,4.222H296.525a5.357,5.357,0,0,1,3.393-4.222,6.932,6.932,0,0,0,1.919.271Z" transform="translate(-263.713 -181.234)"/>
        <path id="Trazado_1064377" data-name="Trazado 1064377" d="M298.762,404.332H283.954a.794.794,0,0,0,0,1.588h14.808a.794.794,0,1,0,0-1.588Z" transform="translate(-253.235 -361.53)"/>
        <path id="Trazado_1064378" data-name="Trazado 1064378" d="M298.762,430.023H283.954a.794.794,0,0,0,0,1.588h14.808a.794.794,0,0,0,0-1.588Z" transform="translate(-253.235 -384.501)"/>
        <path id="Trazado_1064379" data-name="Trazado 1064379" d="M72.27,285.474H59.733a.794.794,0,0,0,0,1.588H72.27a.794.794,0,0,0,0-1.588Z" transform="translate(-52.75 -255.254)"/>
        <path id="Trazado_1064380" data-name="Trazado 1064380" d="M72.27,311.166H59.733a.794.794,0,1,0,0,1.588H72.27a.794.794,0,1,0,0-1.588Z" transform="translate(-52.75 -278.226)"/>
        <path id="Trazado_1064381" data-name="Trazado 1064381" d="M56.421,234.645a.794.794,0,0,0,.859-1.336,1.281,1.281,0,0,1-.591-1.081v-.039a.794.794,0,1,0-1.588,0v.039A2.862,2.862,0,0,0,56.421,234.645Z" transform="translate(-49.318 -206.9)"/>
        <path id="Trazado_1064382" data-name="Trazado 1064382" d="M55.9,186.077a.794.794,0,0,0,.794-.794v-2.118a.794.794,0,0,0-1.588,0v2.118A.794.794,0,0,0,55.9,186.077Z" transform="translate(-49.319 -163.065)"/>
        <path id="Trazado_1064383" data-name="Trazado 1064383" d="M181.932,213.506a.794.794,0,0,0-.794.794v1.933c0,.038,0,.077-.005.116a.794.794,0,0,0,.721.86c.024,0,.047,0,.071,0a.794.794,0,0,0,.79-.724c.007-.085.011-.17.011-.255V214.3A.794.794,0,0,0,181.932,213.506Z" transform="translate(-162.005 -190.905)"/>
        <path id="Trazado_1064384" data-name="Trazado 1064384" d="M55.9,137.055a.794.794,0,0,0,.794-.794v-1.928c0-.039,0-.079.005-.117a.794.794,0,1,0-1.581-.144c-.008.086-.012.174-.012.262v1.928A.794.794,0,0,0,55.9,137.055Z" transform="translate(-49.32 -119.233)"/>
        <path id="Trazado_1064385" data-name="Trazado 1064385" d="M141.567,252.187a.794.794,0,0,0,.794.794h2.127a.794.794,0,1,0,0-1.588h-2.127A.794.794,0,0,0,141.567,252.187Z" transform="translate(-126.631 -224.781)"/>
        <path id="Trazado_1064386" data-name="Trazado 1064386" d="M92.543,252.187a.794.794,0,0,0,.794.794h2.118a.794.794,0,0,0,0-1.588H93.337A.794.794,0,0,0,92.543,252.187Z" transform="translate(-82.796 -224.781)"/>
        <path id="Trazado_1064387" data-name="Trazado 1064387" d="M182,164.482a.794.794,0,0,0-.794.794v2.118a.794.794,0,0,0,1.588,0v-2.118A.794.794,0,0,0,182,164.482Z" transform="translate(-162.074 -147.07)"/>
        <path id="Trazado_1064388" data-name="Trazado 1064388" d="M124.511,117.1h2.118a.794.794,0,1,0,0-1.588h-2.118a.794.794,0,1,0,0,1.588Z" transform="translate(-110.67 -103.282)"/>
        <path id="Trazado_1064389" data-name="Trazado 1064389" d="M172.512,120.057a1.28,1.28,0,0,1,.593,1.083v.035a.794.794,0,1,0,1.588,0v-.035a2.862,2.862,0,0,0-1.325-2.42.794.794,0,1,0-.856,1.337Z" transform="translate(-153.972 -106.04)"/>
        <path id="Trazado_1064390" data-name="Trazado 1064390" d="M77.622,115.51H75.5a.794.794,0,1,0,0,1.588h2.114a.794.794,0,1,0,0-1.588Z" transform="translate(-66.853 -103.282)"/>
      </g>
    </g>
  </g>
</svg>
