<svg xmlns="http://www.w3.org/2000/svg" width="89.448" height="84.005" viewBox="0 0 89.448 84.005">
  <g id="Grupo_1229445" data-name="Grupo 1229445" transform="translate(-407.637 -4501.844)">
    <g id="Grupo_1229331" data-name="Grupo 1229331" transform="translate(-593.431 1637.063)">
      <circle id="Elipse_12863" data-name="Elipse 12863" cx="27.545" cy="27.545" r="27.545" transform="translate(1001.068 2864.781)" fill="#c3b7ef"/>
    </g>
    <g id="Layer_90" transform="translate(415.644 4511)">
      <path id="Trazado_1064421" data-name="Trazado 1064421" d="M46.161,14H31.6a3.972,3.972,0,0,0-3.972,3.972v4.216A3.931,3.931,0,0,0,25.582,28,7.946,7.946,0,0,0,21,35.214a1.318,1.318,0,0,0,1.324,1.294h5.3v2.648H21.666a.662.662,0,0,0-.662.662v1.324a.662.662,0,0,0,.662.662h5.958v5.3A3.972,3.972,0,0,0,31.6,51.073H46.161A3.972,3.972,0,0,0,50.133,47.1V17.972A3.972,3.972,0,0,0,46.161,14ZM27.625,25.916a1.324,1.324,0,1,1,1.324,1.324A1.325,1.325,0,0,1,27.625,25.916Zm1.324,3.972a5.3,5.3,0,0,1,5.128,3.972H23.82A5.3,5.3,0,0,1,28.949,29.888ZM47.485,47.1a1.324,1.324,0,0,1-1.324,1.324H31.6A1.324,1.324,0,0,1,30.273,47.1V41.8H40.579L39.454,43.08a.662.662,0,0,0,.059.934l.993.876a.662.662,0,0,0,.934-.059l3.066-3.476a1.324,1.324,0,0,0,0-1.752L41.44,36.129a.662.662,0,0,0-.934-.059l-.993.876a.662.662,0,0,0-.059.934l1.125,1.276H30.273V36.509h5.3a1.318,1.318,0,0,0,1.324-1.294A7.946,7.946,0,0,0,32.315,28a3.931,3.931,0,0,0-2.043-5.811V17.972A1.324,1.324,0,0,1,31.6,16.648H46.161a1.324,1.324,0,0,1,1.324,1.324Z" transform="translate(6.158 2.592)"/>
      <path id="Trazado_1064422" data-name="Trazado 1064422" d="M66.933,57.665H11.324A1.324,1.324,0,0,1,10,56.341V11.324A1.324,1.324,0,0,1,11.324,10H66.933a1.324,1.324,0,0,1,1.324,1.324V56.341A1.324,1.324,0,0,1,66.933,57.665ZM12.648,55.017H65.609V12.648H12.648Z" transform="translate(2.592 1.296)"/>
      <path id="Trazado_1064423" data-name="Trazado 1064423" d="M80.118,62.933H76.146V9.972A3.984,3.984,0,0,0,72.174,6H11.268A3.984,3.984,0,0,0,7.3,9.972V62.933H3.324A1.328,1.328,0,0,0,2,64.257v3.972a6.623,6.623,0,0,0,6.62,6.62h66.2a6.623,6.623,0,0,0,6.62-6.62V64.257A1.328,1.328,0,0,0,80.118,62.933ZM9.944,9.972a1.328,1.328,0,0,1,1.324-1.324H72.174A1.328,1.328,0,0,1,73.5,9.972V62.933H53.637a1.317,1.317,0,0,0-1.1.6l-1.377,2.052-.887,1.324H33.168l-.887-1.324L30.9,63.529a1.317,1.317,0,0,0-1.1-.6H9.944Zm68.85,58.257A3.984,3.984,0,0,1,74.822,72.2H8.62a3.984,3.984,0,0,1-3.972-3.972V65.581H29.09l2.264,3.376a1.317,1.317,0,0,0,1.1.6H50.989a1.317,1.317,0,0,0,1.1-.6l2.264-3.376H78.794Z" transform="translate(0 0)"/>
    </g>
  </g>
</svg>
