<svg xmlns="http://www.w3.org/2000/svg" width="89.501" height="101.376" viewBox="0 0 89.501 101.376">
  <g id="Grupo_1229446" data-name="Grupo 1229446" transform="translate(-1064.174 -4742.206)">
    <g id="Grupo_1229333" data-name="Grupo 1229333" transform="translate(63.105 1877.425)">
      <circle id="Elipse_12863" data-name="Elipse 12863" cx="27.545" cy="27.545" r="27.545" transform="translate(1001.068 2864.781)" fill="#c3b7ef"/>
    </g>
    <g id="document-printing_4167873" transform="translate(1062.174 4752)">
      <path id="Trazado_1064424" data-name="Trazado 1064424" d="M71.721,42.312V12.451a4.479,4.479,0,0,0-4.479-4.479H41.861V5.762A3.762,3.762,0,0,0,38.1,2H15.7A3.762,3.762,0,0,0,12,5.762V42.312a4.479,4.479,0,0,0,4.479,4.479H29.14l3.285,3.27a1.493,1.493,0,0,0,2.105,0l1.612-1.6a13.67,13.67,0,0,0,1.3.537V51.27a1.493,1.493,0,0,0,1.493,1.493h5.972A1.493,1.493,0,0,0,46.4,51.27V49a13.671,13.671,0,0,0,1.3-.537l1.627,1.6a1.493,1.493,0,0,0,2.105,0l3.21-3.27h12.6A4.479,4.479,0,0,0,71.721,42.312Zm-56.735,0V5.762a.776.776,0,0,1,.776-.776h22.4a.776.776,0,0,1,.776.776v3.7a1.493,1.493,0,0,0,1.493,1.493H67.242a1.493,1.493,0,0,1,1.493,1.493V42.312A1.493,1.493,0,0,1,67.242,43.8h-11.6V43.73l-1.6-1.612a13.672,13.672,0,0,0,.537-1.3h2.21a1.493,1.493,0,0,0,1.493-1.493V33.354a1.493,1.493,0,0,0-1.493-1.493H54.521a13.671,13.671,0,0,0-.537-1.3l1.6-1.612a1.461,1.461,0,0,0,0-2.105l-4.225-4.225a1.493,1.493,0,0,0-2.105,0l-1.612,1.6q-.627-.284-1.3-.537V21.409a1.493,1.493,0,0,0-1.493-1.493H38.874a1.493,1.493,0,0,0-1.493,1.493v2.269a13.673,13.673,0,0,0-1.3.537l-1.612-1.6a1.493,1.493,0,0,0-2.105,0L28.14,26.844a1.461,1.461,0,0,0,0,2.105l1.6,1.612q-.284.627-.537,1.3H26.93a1.493,1.493,0,0,0-1.493,1.493v5.972a1.493,1.493,0,0,0,1.493,1.493H29.2a13.672,13.672,0,0,0,.537,1.3L28.14,43.8v.075H16.479a1.493,1.493,0,0,1-1.493-1.568Zm36.1,1.075,1.329,1.344-2.105,2.105-1.344-1.329a1.493,1.493,0,0,0-1.807-.209,10.3,10.3,0,0,1-2.687,1.1,1.493,1.493,0,0,0-1.12,1.493v1.881H40.367V47.9a1.493,1.493,0,0,0-1.12-1.493,10.3,10.3,0,0,1-2.687-1.1,1.493,1.493,0,0,0-1.807.224L33.41,46.85,31.3,44.745,32.634,43.4A1.493,1.493,0,0,0,32.9,41.64a9.854,9.854,0,0,1-1.12-2.687,1.493,1.493,0,0,0-1.493-1.12H28.423V34.847H30.3a1.493,1.493,0,0,0,1.493-1.12,9.854,9.854,0,0,1,1.12-2.687,1.493,1.493,0,0,0-.239-1.807L31.35,27.889l2.105-2.105L34.8,27.113a1.493,1.493,0,0,0,1.807.224,10.3,10.3,0,0,1,2.687-1.1,1.493,1.493,0,0,0,1.12-1.493V22.9H43.4v1.881a1.493,1.493,0,0,0,1.12,1.493,10.3,10.3,0,0,1,2.687,1.1,1.493,1.493,0,0,0,1.807-.224l1.344-1.329,2.105,2.105-1.329,1.344a1.493,1.493,0,0,0-.314,1.762,9.855,9.855,0,0,1,1.12,2.687,1.493,1.493,0,0,0,1.493,1.12H55.3v2.986H53.417a1.493,1.493,0,0,0-1.493,1.12A9.853,9.853,0,0,1,50.8,41.64a1.493,1.493,0,0,0,.284,1.807Z" transform="translate(4.93)"/>
      <path id="Trazado_1064425" data-name="Trazado 1064425" d="M34.465,20a7.465,7.465,0,1,0,7.465,7.465A7.465,7.465,0,0,0,34.465,20Zm0,11.944a4.479,4.479,0,1,1,4.479-4.479,4.479,4.479,0,0,1-4.479,4.479Z" transform="translate(12.326 8.874)"/>
      <path id="Trazado_1064426" data-name="Trazado 1064426" d="M49.442,49.944H47.874V39.493A1.493,1.493,0,0,0,46.381,38H28.465a1.493,1.493,0,0,0-1.493,1.493V49.944H25.479A4.479,4.479,0,0,0,21,54.423v9.107a4.479,4.479,0,0,0,4.479,4.33h1.493V72.34a1.493,1.493,0,0,0,1.493,1.493H46.381a1.493,1.493,0,0,0,1.493-1.493V67.861h1.493a4.479,4.479,0,0,0,4.479-4.479V54.423a4.479,4.479,0,0,0-4.405-4.479ZM29.958,40.986h14.93v8.958H29.958Zm14.93,29.861H29.958V67.861h14.93Zm5.972-7.465a1.4,1.4,0,0,1-1.493,1.493H25.479a1.4,1.4,0,0,1-1.418-1.493V54.423a1.4,1.4,0,0,1,1.418-1.493H49.517a1.4,1.4,0,0,1,1.493,1.493Z" transform="translate(9.368 17.749)"/>
      <path id="Trazado_1064427" data-name="Trazado 1064427" d="M29.479,51H26.493a1.493,1.493,0,0,0,0,2.986h2.986a1.493,1.493,0,0,0,0-2.986Z" transform="translate(11.34 24.158)"/>
      <path id="Trazado_1064428" data-name="Trazado 1064428" d="M41.451,51H32.493a1.493,1.493,0,1,0,0,2.986h8.958a1.493,1.493,0,1,0,0-2.986Z" transform="translate(14.298 24.158)"/>
      <path id="Trazado_1064429" data-name="Trazado 1064429" d="M12.451,57.787v3.091a1.493,1.493,0,0,0,1.493,1.493H25.889a1.493,1.493,0,1,0,0-2.986H15.437v-1.6a11.944,11.944,0,1,0-2.986,0Zm1.493-20.8a8.958,8.958,0,1,1-8.958,8.958,8.958,8.958,0,0,1,8.958-8.958Z" transform="translate(0 15.773)"/>
      <path id="Trazado_1064430" data-name="Trazado 1064430" d="M58.437,34a11.944,11.944,0,0,0-1.493,23.784v1.6H46.493a1.493,1.493,0,0,0,0,2.986H58.437a1.493,1.493,0,0,0,1.493-1.493V57.784A11.944,11.944,0,0,0,58.437,34Zm0,20.9A8.958,8.958,0,1,1,67.4,45.944,8.958,8.958,0,0,1,58.437,54.9Z" transform="translate(21.2 15.777)"/>
      <path id="Trazado_1064431" data-name="Trazado 1064431" d="M7.493,43.986h8.958a1.493,1.493,0,1,0,0-2.986H7.493a1.493,1.493,0,0,0,0,2.986Z" transform="translate(1.972 19.228)"/>
      <path id="Trazado_1064432" data-name="Trazado 1064432" d="M60.451,42.479H57.465V39.493a1.493,1.493,0,1,0-2.986,0v2.986H51.493a1.493,1.493,0,0,0,0,2.986h2.986v2.986a1.493,1.493,0,1,0,2.986,0V45.465h2.986a1.493,1.493,0,1,0,0-2.986Z" transform="translate(23.665 17.749)"/>
    </g>
  </g>
</svg>
