<svg xmlns="http://www.w3.org/2000/svg" width="1329" height="505.893" viewBox="0 0 1329 505.893">
  <g id="Grupo_1229407" data-name="Grupo 1229407" transform="translate(-136.183 -7570.101)">
    <g id="Grupo_1229405" data-name="Grupo 1229405">
      <g id="Grupo_1229404" data-name="Grupo 1229404">
        <rect id="Rectángulo_422611" data-name="Rectángulo 422611" width="1329" height="69.64" transform="translate(136.183 8006.354)" fill="#27004f"/>
        <g id="_6583017" data-name="6583017" transform="translate(479 7570.101)">
          <g id="Background_Complete" data-name="Background Complete">
            <g id="Grupo_1229349" data-name="Grupo 1229349">
              <rect id="Rectángulo_423742" data-name="Rectángulo 423742" width="605.584" height="0.303" transform="translate(0 396.597)" fill="#ebebeb"/>
              <rect id="Rectángulo_423743" data-name="Rectángulo 423743" width="40.114" height="0.303" transform="translate(504.791 416.085)" fill="#ebebeb"/>
              <rect id="Rectángulo_423744" data-name="Rectángulo 423744" width="10.525" height="0.303" transform="translate(390.638 419.379)" fill="#ebebeb"/>
              <rect id="Rectángulo_423745" data-name="Rectángulo 423745" width="23.242" height="0.303" transform="translate(480.337 404.845)" fill="#ebebeb"/>
              <rect id="Rectángulo_423746" data-name="Rectángulo 423746" width="52.31" height="0.303" transform="translate(63.538 406.88)" fill="#ebebeb"/>
              <rect id="Rectángulo_423747" data-name="Rectángulo 423747" width="7.667" height="0.303" transform="translate(126.64 406.88)" fill="#ebebeb"/>
              <rect id="Rectángulo_423748" data-name="Rectángulo 423748" width="113.462" height="0.303" transform="translate(159.232 411.991)" fill="#ebebeb"/>
              <path id="Trazado_1064032" data-name="Trazado 1064032" d="M278.992,342.579H45.116a6.921,6.921,0,0,1-6.916-6.916V6.916A6.921,6.921,0,0,1,45.116,0H278.992a6.921,6.921,0,0,1,6.916,6.916V335.663a6.921,6.921,0,0,1-6.916,6.916ZM45.116.3A6.621,6.621,0,0,0,38.5,6.916V335.663a6.621,6.621,0,0,0,6.613,6.613H278.992a6.621,6.621,0,0,0,6.613-6.613V6.916A6.621,6.621,0,0,0,278.992.3Z" transform="translate(8.067)" fill="#ebebeb"/>
              <path id="Trazado_1064033" data-name="Trazado 1064033" d="M495.292,342.579H261.416a6.921,6.921,0,0,1-6.916-6.916V6.916A6.921,6.921,0,0,1,261.416,0H495.292a6.921,6.921,0,0,1,6.916,6.916V335.663a6.921,6.921,0,0,1-6.916,6.916ZM261.416.3A6.621,6.621,0,0,0,254.8,6.916V335.663a6.621,6.621,0,0,0,6.613,6.613H495.292a6.621,6.621,0,0,0,6.613-6.613V6.916A6.622,6.622,0,0,0,495.292.3Z" transform="translate(53.742)" fill="#ebebeb"/>
            </g>
            <g id="Grupo_1229354" data-name="Grupo 1229354" transform="translate(79.816 33.683)">
              <path id="Trazado_1064036" data-name="Trazado 1064036" d="M87.459,261.643l9.98,1.841,1.429-5.051A26.97,26.97,0,0,0,108.8,256.3l3.379,4.045,8.357-5.753-2.568-4.6a26.917,26.917,0,0,0,5.535-8.515l5.232.46,1.841-9.98-5.051-1.429a26.97,26.97,0,0,0-2.132-9.932l4.033-3.379-5.753-8.357-4.6,2.568a26.917,26.917,0,0,0-8.515-5.535l.46-5.232-9.98-1.841-1.429,5.051A26.97,26.97,0,0,0,87.677,206L84.3,201.969l-8.357,5.753,2.568,4.6a26.917,26.917,0,0,0-5.535,8.514l-5.232-.46-1.841,9.98,5.051,1.429a26.97,26.97,0,0,0,2.132,9.932L69.049,245.1l5.753,8.357,4.6-2.568a27.054,27.054,0,0,0,8.515,5.535l-.46,5.232Zm-2.713-32.98a11.8,11.8,0,1,0,.012,0Z" transform="translate(-112.204 33.302)" fill="#f0f0f0"/>
              <path id="Trazado_1064037" data-name="Trazado 1064037" d="M233.69,75.348l7.558,1.393,1.09-3.815a20.638,20.638,0,0,0,7.509-1.611l2.556,3.052,6.322-4.36-1.938-3.476a20.625,20.625,0,0,0,4.191-6.443l3.961.351,1.393-7.546-3.815-1.09a20.638,20.638,0,0,0-1.611-7.509l3.052-2.556-4.348-6.322-3.476,1.938a20.625,20.625,0,0,0-6.443-4.191l.351-3.961-7.558-1.393-1.09,3.827a20.638,20.638,0,0,0-7.509,1.611L231.328,30.2l-6.322,4.348,1.938,3.476a20.625,20.625,0,0,0-4.191,6.443l-3.961-.351L217.4,51.67l3.815,1.09a20.638,20.638,0,0,0,1.611,7.509l-3.052,2.556,4.348,6.322,3.476-1.938a20.624,20.624,0,0,0,6.443,4.191l-.351,3.961ZM231.643,50.4a10.4,10.4,0,1,1,8.333,12.112A10.4,10.4,0,0,1,231.643,50.4Z" transform="translate(-33.908 -27.81)" fill="#f0f0f0"/>
              <path id="Trazado_1064038" data-name="Trazado 1064038" d="M336.388,122.763l5.038.933.727-2.543a13.479,13.479,0,0,0,5.014-1.078l1.708,2.035,4.215-2.907-1.3-2.325a13.732,13.732,0,0,0,2.8-4.3l2.64.23.933-5.038-2.543-.727a13.479,13.479,0,0,0-1.078-5.014l2.035-1.708L353.672,96.1l-2.325,1.3a13.733,13.733,0,0,0-4.3-2.8l.23-2.64-5.038-.933-.727,2.543a13.479,13.479,0,0,0-5.014,1.078l-1.708-2.035-4.215,2.907,1.3,2.325a13.6,13.6,0,0,0-2.8,4.3l-2.64-.23-.933,5.038,2.543.727a13.479,13.479,0,0,0,1.078,5.014l-2.035,1.708,2.907,4.215,2.325-1.3a13.733,13.733,0,0,0,4.3,2.8l-.23,2.64Zm-1.369-16.641a6.934,6.934,0,1,1,5.559,8.078,6.935,6.935,0,0,1-5.559-8.078Z" transform="translate(-11.081 -14.46)" fill="#f0f0f0"/>
              <path id="Trazado_1064040" data-name="Trazado 1064040" d="M326.726,282.976a14.78,14.78,0,0,0,1.172,5.461l-2.224,1.861,3.162,4.6,2.526-1.407a15.036,15.036,0,0,0,4.682,3.048l-.257,2.874,5.491,1.014.787-2.776a14.778,14.778,0,0,0,5.461-1.172l1.861,2.224,4.6-3.162-1.407-2.526a15.036,15.036,0,0,0,3.048-4.682l2.874.257,1.014-5.491-2.776-.787a14.778,14.778,0,0,0-1.172-5.461l2.224-1.861-3.162-4.6L352.1,271.8a15.037,15.037,0,0,0-4.682-3.048l.257-2.874-5.491-1.014-.787,2.776a14.779,14.779,0,0,0-5.461,1.172l-1.861-2.224-4.6,3.162,1.407,2.526a15.037,15.037,0,0,0-3.048,4.682l-2.874-.257-1.014,5.491Zm7.572-1.717a7.557,7.557,0,1,1,6.059,8.8A7.554,7.554,0,0,1,334.3,281.259Z" transform="translate(-169.717 -9.249)" fill="#f0f0f0"/>
              <g id="Grupo_1229350" data-name="Grupo 1229350" transform="translate(373.718 248.919)">
                <path id="Trazado_1064041" data-name="Trazado 1064041" d="M393.8,246.628l-13.529,4.954L393.8,256.5v5.075l-19.342-7.352v-5.281L393.8,241.59v5.038Z" transform="translate(-374.46 -231.586)" fill="#e0e0e0"/>
                <path id="Trazado_1064042" data-name="Trazado 1064042" d="M404.788,233.33h5.644L397.024,271.6H391.38l13.408-38.273Z" transform="translate(-370.887 -233.33)" fill="#e0e0e0"/>
                <path id="Trazado_1064043" data-name="Trazado 1064043" d="M427.072,248.942v5.281l-19.342,7.352V256.5l13.529-4.917-13.529-4.954V241.59Z" transform="translate(-367.434 -231.586)" fill="#e0e0e0"/>
              </g>
              <g id="Grupo_1229351" data-name="Grupo 1229351" transform="translate(49.84 308.836)">
                <path id="Trazado_1064044" data-name="Trazado 1064044" d="M114.063,302.566c1.938.593,2.822,1.817,2.822,4.724v6.758a2.777,2.777,0,0,0,3.076,3.125h.763v5.147h-2.447c-5.281,0-7.982-2.7-7.982-7.558V307.12a1.731,1.731,0,0,0-1.853-1.986H107.05v-5.147h1.393c1.139,0,1.853-.63,1.853-1.986v-7.642c0-4.857,2.7-7.558,7.982-7.558h2.447v5.147h-.763c-2.071,0-3.076,1.138-3.076,3.125v6.758c0,2.907-.884,4.13-2.822,4.724Z" transform="translate(-107.05 -282.8)" fill="#e0e0e0"/>
                <path id="Trazado_1064045" data-name="Trazado 1064045" d="M142.944,299.994v5.147h-1.393c-1.139,0-1.853.63-1.853,1.986v7.642c0,4.857-2.7,7.558-7.982,7.558H129.27v-5.147h.763c2.071,0,3.076-1.138,3.076-3.125V307.3c0-2.907.884-4.13,2.822-4.724-1.938-.593-2.822-1.817-2.822-4.724v-6.758a2.777,2.777,0,0,0-3.076-3.125h-.763V282.82h2.447c5.281,0,7.982,2.7,7.982,7.558v7.642a1.731,1.731,0,0,0,1.853,1.986h1.393Z" transform="translate(-102.358 -282.796)" fill="#e0e0e0"/>
              </g>
              <g id="Grupo_1229352" data-name="Grupo 1229352" transform="translate(403.517 212.647)">
                <path id="Trazado_1064046" data-name="Trazado 1064046" d="M98.49,96.207c0-6.872,5.277-11.8,12.379-11.8a11.757,11.757,0,0,1,9.379,4.043l-3.391,3.13a7.35,7.35,0,0,0-5.738-2.668,7.293,7.293,0,1,0,0,14.586,7.278,7.278,0,0,0,5.738-2.708l3.391,3.13a11.713,11.713,0,0,1-9.42,4.073c-7.072,0-12.349-4.915-12.349-11.8Z" transform="translate(-98.48 -84.41)" fill="#e0e0e0"/>
                <path id="Trazado_1064047" data-name="Trazado 1064047" d="M138.359,98.18h-5.668v5.537h-4.2V98.18H122.85V94.207h5.638V88.67h4.2v5.537h5.668Z" transform="translate(-98.403 -84.397)" fill="#e0e0e0"/>
                <path id="Trazado_1064048" data-name="Trazado 1064048" d="M158.019,98.18h-5.668v5.537h-4.2V98.18H142.51V94.207h5.638V88.67h4.2v5.537h5.668Z" transform="translate(-98.341 -84.397)" fill="#e0e0e0"/>
              </g>
              <g id="Grupo_1229353" data-name="Grupo 1229353" transform="translate(128.689 145.489)">
                <path id="Trazado_1064049" data-name="Trazado 1064049" d="M182.06,215.387l3.985-4.772c1.684,2.253,3.537,3.4,5.753,3.4,2.87,0,4.384-1.72,4.384-5.135v-14.74H185.294V188.39H203.3v20.093c0,7.655-3.852,11.409-11.155,11.409a12.432,12.432,0,0,1-10.089-4.518Z" transform="translate(-182.06 -188.39)" fill="#f6c810"/>
                <path id="Trazado_1064050" data-name="Trazado 1064050" d="M203.14,215.966l2.3-4.954a16.3,16.3,0,0,0,8.272,2.3c3.185,0,4.384-.836,4.384-2.168,0-3.9-14.377.085-14.377-9.423,0-4.518,4.07-7.7,11.022-7.7A19.5,19.5,0,0,1,223.9,196.1l-2.3,4.917a13.618,13.618,0,0,0-6.855-1.768c-3.1,0-4.421.969-4.421,2.216,0,4.07,14.377.133,14.377,9.508,0,4.421-4.118,7.57-11.24,7.57-4.021,0-8.1-1.1-10.307-2.568Z" transform="translate(-177.609 -187.201)" fill="#f6c810"/>
              </g>
            </g>
          </g>
          <g id="Program_icons" data-name="Program icons" transform="translate(355.781 46.097)">
            <g id="Grupo_1229359" data-name="Grupo 1229359">
              <rect id="Rectángulo_423749" data-name="Rectángulo 423749" width="41.628" height="41.628" rx="2.27" transform="translate(0.097)" fill="#f6c810"/>
              <g id="Grupo_1229356" data-name="Grupo 1229356" transform="translate(4.99 10.586)">
                <path id="Trazado_1064051" data-name="Trazado 1064051" d="M308.2,53.9l-7.231,2.652,7.231,2.628V61.89L297.87,57.966V55.144L308.2,51.22v2.689Z" transform="translate(-297.87 -45.867)" fill="#fff"/>
                <path id="Trazado_1064052" data-name="Trazado 1064052" d="M314.068,46.8h3.016l-7.158,20.445H306.91L314.068,46.8Z" transform="translate(-295.961 -46.8)" fill="#fff"/>
                <path id="Trazado_1064053" data-name="Trazado 1064053" d="M325.951,55.136v2.822L315.62,61.883V59.169l7.231-2.628-7.231-2.652V51.2l10.331,3.924Z" transform="translate(-294.122 -45.871)" fill="#fff"/>
              </g>
              <g id="Grupo_1229357" data-name="Grupo 1229357" transform="translate(0 49.222)">
                <path id="Trazado_1064054" data-name="Trazado 1064054" d="M303.015,78.7V88.813h-2.338V84.671h-4.59v4.142H293.75V78.7h2.338v3.985h4.59V78.7Z" transform="translate(-293.75 -78.7)" fill="#263238"/>
                <path id="Trazado_1064055" data-name="Trazado 1064055" d="M305.684,80.612H302.45v-1.9h8.817v1.9h-3.234v8.212H305.7V80.612Z" transform="translate(-291.913 -78.698)" fill="#263238"/>
                <path id="Trazado_1064056" data-name="Trazado 1064056" d="M319.975,88.823V82.755l-2.992,5H315.93l-2.967-4.869v5.935H310.77V78.71h1.938L316.5,85l3.73-6.286h1.926l.024,10.113h-2.192Z" transform="translate(-290.156 -78.698)" fill="#263238"/>
                <path id="Trazado_1064057" data-name="Trazado 1064057" d="M322.17,78.7h2.338v8.212h5.075v1.914H322.17V78.712Z" transform="translate(-287.749 -78.7)" fill="#263238"/>
              </g>
              <g id="Grupo_1229358" data-name="Grupo 1229358" transform="translate(0 49.222)" opacity="0.6">
                <path id="Trazado_1064058" data-name="Trazado 1064058" d="M303.015,78.7V88.813h-2.338V84.671h-4.59v4.142H293.75V78.7h2.338v3.985h4.59V78.7Z" transform="translate(-293.75 -78.7)" fill="#fff"/>
                <path id="Trazado_1064059" data-name="Trazado 1064059" d="M305.684,80.612H302.45v-1.9h8.817v1.9h-3.234v8.212H305.7V80.612Z" transform="translate(-291.913 -78.698)" fill="#fff"/>
                <path id="Trazado_1064060" data-name="Trazado 1064060" d="M319.975,88.823V82.755l-2.992,5H315.93l-2.967-4.869v5.935H310.77V78.71h1.938L316.5,85l3.73-6.286h1.926l.024,10.113h-2.192Z" transform="translate(-290.156 -78.698)" fill="#fff"/>
                <path id="Trazado_1064061" data-name="Trazado 1064061" d="M322.17,78.7h2.338v8.212h5.075v1.914H322.17V78.712Z" transform="translate(-287.749 -78.7)" fill="#fff"/>
              </g>
            </g>
            <g id="Grupo_1229364" data-name="Grupo 1229364" transform="translate(89.13 22.189)">
              <rect id="Rectángulo_423751" data-name="Rectángulo 423751" width="41.628" height="41.628" rx="2.27" fill="#f6c810"/>
              <g id="Grupo_1229361" data-name="Grupo 1229361" transform="translate(10.38 10.622)">
                <path id="Trazado_1064062" data-name="Trazado 1064062" d="M379.519,75.327c.993.3,1.453.933,1.453,2.434v3.476a1.433,1.433,0,0,0,1.587,1.611h.388V85.5h-1.26c-2.713,0-4.106-1.393-4.106-3.888V77.689a.887.887,0,0,0-.957-1.017h-.715V74.019h.715A.892.892,0,0,0,377.581,73V69.078c0-2.5,1.393-3.888,4.106-3.888h1.26v2.652h-.388a1.428,1.428,0,0,0-1.587,1.611v3.476c0,1.5-.46,2.132-1.453,2.434Z" transform="translate(-375.91 -65.142)" fill="#fff"/>
                <path id="Trazado_1064063" data-name="Trazado 1064063" d="M394.357,74.016v2.652h-.715a.892.892,0,0,0-.957,1.017V81.61c0,2.5-1.393,3.888-4.106,3.888h-1.26V82.845h.388a1.428,1.428,0,0,0,1.587-1.611V77.758c0-1.5.46-2.132,1.453-2.434-.993-.3-1.453-.933-1.453-2.434V69.413a1.433,1.433,0,0,0-1.587-1.611h-.388V65.15h1.26c2.713,0,4.106,1.393,4.106,3.888v3.924a.887.887,0,0,0,.957,1.017h.715Z" transform="translate(-373.501 -65.15)" fill="#fff"/>
              </g>
              <g id="Grupo_1229362" data-name="Grupo 1229362" transform="translate(6.819 49.21)">
                <path id="Trazado_1064064" data-name="Trazado 1064064" d="M372.97,102.242a5.57,5.57,0,0,1,9.653-3.44l-1.5,1.393a3.281,3.281,0,0,0-2.543-1.187,3.234,3.234,0,0,0,0,6.468,3.2,3.2,0,0,0,2.543-1.2l1.5,1.393a5.561,5.561,0,0,1-9.653-3.428Z" transform="translate(-372.97 -97.01)" fill="#263238"/>
                <path id="Trazado_1064065" data-name="Trazado 1064065" d="M381.52,106.3l.8-1.768a5.957,5.957,0,0,0,3.343,1.054c1.393,0,1.95-.46,1.95-1.078,0-1.889-5.886-.593-5.886-4.348,0-1.72,1.393-3.149,4.263-3.149a6.793,6.793,0,0,1,3.512.9l-.727,1.78a5.77,5.77,0,0,0-2.8-.8c-1.393,0-1.926.521-1.926,1.151,0,1.865,5.886.581,5.886,4.288,0,1.7-1.4,3.137-4.288,3.137a7.155,7.155,0,0,1-4.118-1.175Z" transform="translate(-371.165 -97.01)" fill="#263238"/>
                <path id="Trazado_1064066" data-name="Trazado 1064066" d="M389.13,106.3l.8-1.768a5.957,5.957,0,0,0,3.343,1.054c1.393,0,1.95-.46,1.95-1.078,0-1.889-5.886-.593-5.886-4.348,0-1.72,1.393-3.149,4.263-3.149a6.793,6.793,0,0,1,3.512.9l-.727,1.78a5.778,5.778,0,0,0-2.81-.8c-1.393,0-1.926.521-1.926,1.151,0,1.865,5.886.581,5.886,4.288,0,1.7-1.4,3.137-4.288,3.137a7.155,7.155,0,0,1-4.118-1.175Z" transform="translate(-369.558 -97.01)" fill="#263238"/>
              </g>
              <g id="Grupo_1229363" data-name="Grupo 1229363" transform="translate(6.819 49.21)" opacity="0.6">
                <path id="Trazado_1064067" data-name="Trazado 1064067" d="M372.97,102.242a5.57,5.57,0,0,1,9.653-3.44l-1.5,1.393a3.281,3.281,0,0,0-2.543-1.187,3.234,3.234,0,0,0,0,6.468,3.2,3.2,0,0,0,2.543-1.2l1.5,1.393a5.561,5.561,0,0,1-9.653-3.428Z" transform="translate(-372.97 -97.01)" fill="#fff"/>
                <path id="Trazado_1064068" data-name="Trazado 1064068" d="M381.52,106.3l.8-1.768a5.957,5.957,0,0,0,3.343,1.054c1.393,0,1.95-.46,1.95-1.078,0-1.889-5.886-.593-5.886-4.348,0-1.72,1.393-3.149,4.263-3.149a6.793,6.793,0,0,1,3.512.9l-.727,1.78a5.77,5.77,0,0,0-2.8-.8c-1.393,0-1.926.521-1.926,1.151,0,1.865,5.886.581,5.886,4.288,0,1.7-1.4,3.137-4.288,3.137a7.155,7.155,0,0,1-4.118-1.175Z" transform="translate(-371.165 -97.01)" fill="#fff"/>
                <path id="Trazado_1064069" data-name="Trazado 1064069" d="M389.13,106.3l.8-1.768a5.957,5.957,0,0,0,3.343,1.054c1.393,0,1.95-.46,1.95-1.078,0-1.889-5.886-.593-5.886-4.348,0-1.72,1.393-3.149,4.263-3.149a6.793,6.793,0,0,1,3.512.9l-.727,1.78a5.778,5.778,0,0,0-2.81-.8c-1.393,0-1.926.521-1.926,1.151,0,1.865,5.886.581,5.886,4.288,0,1.7-1.4,3.137-4.288,3.137a7.155,7.155,0,0,1-4.118-1.175Z" transform="translate(-369.558 -97.01)" fill="#fff"/>
              </g>
            </g>
          </g>
          <g id="Tabs" transform="translate(179.919 64.228)">
            <g id="Grupo_1229382" data-name="Grupo 1229382">
              <g id="Grupo_1229368" data-name="Grupo 1229368">
                <rect id="Rectángulo_423753" data-name="Rectángulo 423753" width="148.38" height="107.406"/>
                <rect id="Rectángulo_423754" data-name="Rectángulo 423754" width="148.38" height="107.406" fill="#fff" opacity="0.9"/>
                <rect id="Rectángulo_423755" data-name="Rectángulo 423755" width="20.663" height="107.406" opacity="0.1"/>
                <rect id="Rectángulo_423756" data-name="Rectángulo 423756" width="148.38" height="10.041" fill="#f6c810"/>
                <g id="Grupo_1229365" data-name="Grupo 1229365" transform="translate(31.297 22.77)" opacity="0.2">
                  <path id="Trazado_1064070" data-name="Trazado 1064070" d="M202.634,74.252H175.6a1.211,1.211,0,0,1,0-2.422h27.033a1.211,1.211,0,1,1,0,2.422Z" transform="translate(-174.39 -71.83)"/>
                  <path id="Trazado_1064071" data-name="Trazado 1064071" d="M256.319,74.252H203.851a1.211,1.211,0,1,1,0-2.422h52.468a1.211,1.211,0,1,1,0,2.422Z" transform="translate(-168.424 -71.83)"/>
                  <path id="Trazado_1064072" data-name="Trazado 1064072" d="M249.2,80.772H178.611a1.211,1.211,0,1,1,0-2.422H249.2a1.211,1.211,0,1,1,0,2.422Z" transform="translate(-173.754 -70.453)"/>
                  <path id="Trazado_1064073" data-name="Trazado 1064073" d="M221.081,87.3H175.6a1.211,1.211,0,0,1,0-2.422h45.479a1.211,1.211,0,0,1,0,2.422Z" transform="translate(-174.39 -69.074)"/>
                  <path id="Trazado_1064074" data-name="Trazado 1064074" d="M252.852,87.3h-32.58a1.211,1.211,0,0,1,0-2.422h32.58a1.211,1.211,0,0,1,0,2.422Z" transform="translate(-164.957 -69.074)"/>
                  <path id="Trazado_1064075" data-name="Trazado 1064075" d="M200.719,93.832H175.611a1.211,1.211,0,1,1,0-2.422h25.108a1.211,1.211,0,1,1,0,2.422Z" transform="translate(-174.388 -67.695)"/>
                  <path id="Trazado_1064076" data-name="Trazado 1064076" d="M242.594,93.832H203.061a1.211,1.211,0,1,1,0-2.422h39.533a1.211,1.211,0,0,1,0,2.422Z" transform="translate(-168.591 -67.695)"/>
                  <path id="Trazado_1064077" data-name="Trazado 1064077" d="M212.391,100.362H178.611a1.211,1.211,0,1,1,0-2.422h33.779a1.211,1.211,0,0,1,0,2.422Z" transform="translate(-173.754 -66.316)"/>
                  <path id="Trazado_1064078" data-name="Trazado 1064078" d="M216.618,106.882H178.611a1.211,1.211,0,1,1,0-2.422h38.006a1.211,1.211,0,0,1,0,2.422Z" transform="translate(-173.754 -64.94)"/>
                  <path id="Trazado_1064079" data-name="Trazado 1064079" d="M253.937,106.882H215.131a1.211,1.211,0,0,1,0-2.422h38.806a1.211,1.211,0,1,1,0,2.422Z" transform="translate(-166.043 -64.94)"/>
                  <path id="Trazado_1064080" data-name="Trazado 1064080" d="M197.366,113.412H175.6a1.211,1.211,0,0,1,0-2.422h21.765a1.211,1.211,0,1,1,0,2.422Z" transform="translate(-174.39 -63.561)"/>
                  <path id="Trazado_1064081" data-name="Trazado 1064081" d="M257.2,113.412H199.7a1.211,1.211,0,0,1,0-2.422H257.2a1.211,1.211,0,1,1,0,2.422Z" transform="translate(-169.301 -63.561)"/>
                  <path id="Trazado_1064082" data-name="Trazado 1064082" d="M216.375,119.942H178.611a1.211,1.211,0,1,1,0-2.422h37.764a1.211,1.211,0,0,1,0,2.422Z" transform="translate(-173.754 -62.182)"/>
                  <path id="Trazado_1064083" data-name="Trazado 1064083" d="M238.583,119.942H214.141a1.211,1.211,0,0,1,0-2.422h24.441a1.211,1.211,0,0,1,0,2.422Z" transform="translate(-166.252 -62.182)"/>
                  <path id="Trazado_1064084" data-name="Trazado 1064084" d="M222.08,126.472H178.611a1.211,1.211,0,1,1,0-2.422H222.08a1.211,1.211,0,0,1,0,2.422Z" transform="translate(-173.754 -60.803)"/>
                </g>
                <g id="Grupo_1229366" data-name="Grupo 1229366" transform="translate(125.38 3.016)">
                  <circle id="Elipse_14057" data-name="Elipse 14057" cx="2.071" cy="2.071" r="2.071" transform="translate(14.546)" fill="#fff" opacity="0.4"/>
                  <circle id="Elipse_14058" data-name="Elipse 14058" cx="2.071" cy="2.071" r="2.071" transform="translate(7.267)" fill="#fff" opacity="0.4"/>
                  <circle id="Elipse_14059" data-name="Elipse 14059" cx="2.071" cy="2.071" r="2.071" fill="#fff" opacity="0.4"/>
                </g>
                <g id="Grupo_1229367" data-name="Grupo 1229367" transform="translate(9.423 22.77)" opacity="0.2">
                  <path id="Trazado_1064085" data-name="Trazado 1064085" d="M157.6,74.252h-.061a1.211,1.211,0,0,1,0-2.422,1.236,1.236,0,0,1,1.235,1.211,1.187,1.187,0,0,1-1.187,1.211Z" transform="translate(-156.33 -71.83)"/>
                  <path id="Trazado_1064086" data-name="Trazado 1064086" d="M157.6,80.772h-.061a1.211,1.211,0,0,1,0-2.422,1.236,1.236,0,0,1,1.235,1.211,1.187,1.187,0,0,1-1.187,1.211Z" transform="translate(-156.33 -70.453)"/>
                  <path id="Trazado_1064087" data-name="Trazado 1064087" d="M157.6,87.3h-.061a1.211,1.211,0,0,1,0-2.422,1.236,1.236,0,0,1,1.235,1.211A1.187,1.187,0,0,1,157.59,87.3Z" transform="translate(-156.33 -69.074)"/>
                  <path id="Trazado_1064088" data-name="Trazado 1064088" d="M157.6,93.832h-.061a1.211,1.211,0,0,1,0-2.422,1.236,1.236,0,0,1,1.235,1.211,1.187,1.187,0,0,1-1.187,1.211Z" transform="translate(-156.33 -67.695)"/>
                  <path id="Trazado_1064089" data-name="Trazado 1064089" d="M157.6,100.362h-.061a1.211,1.211,0,0,1,0-2.422,1.236,1.236,0,0,1,1.235,1.211,1.187,1.187,0,0,1-1.187,1.211Z" transform="translate(-156.33 -66.316)"/>
                  <path id="Trazado_1064090" data-name="Trazado 1064090" d="M157.6,106.882h-.061a1.211,1.211,0,0,1,0-2.422,1.236,1.236,0,0,1,1.235,1.211,1.187,1.187,0,0,1-1.187,1.211Z" transform="translate(-156.33 -64.94)"/>
                  <path id="Trazado_1064091" data-name="Trazado 1064091" d="M157.6,113.412h-.061a1.211,1.211,0,1,1,0-2.422,1.236,1.236,0,0,1,1.235,1.211,1.187,1.187,0,0,1-1.187,1.211Z" transform="translate(-156.33 -63.561)"/>
                  <path id="Trazado_1064092" data-name="Trazado 1064092" d="M157.6,119.942h-.061a1.211,1.211,0,1,1,0-2.422,1.236,1.236,0,0,1,1.235,1.211,1.187,1.187,0,0,1-1.187,1.211Z" transform="translate(-156.33 -62.182)"/>
                  <path id="Trazado_1064093" data-name="Trazado 1064093" d="M157.6,126.472h-.061a1.211,1.211,0,1,1,0-2.422,1.236,1.236,0,0,1,1.235,1.211,1.187,1.187,0,0,1-1.187,1.211Z" transform="translate(-156.33 -60.803)"/>
                </g>
              </g>
              <g id="Grupo_1229381" data-name="Grupo 1229381" transform="translate(88.343 87.64)">
                <rect id="Rectángulo_423757" data-name="Rectángulo 423757" width="194.429" height="124.496" fill="#263238"/>
                <rect id="Rectángulo_423758" data-name="Rectángulo 423758" width="194.429" height="124.496" fill="#fff" opacity="0.9"/>
                <rect id="Rectángulo_423759" data-name="Rectángulo 423759" width="30.328" height="124.496" opacity="0.1"/>
                <rect id="Rectángulo_423760" data-name="Rectángulo 423760" width="194.429" height="10.041" fill="#f6c810"/>
                <g id="Grupo_1229369" data-name="Grupo 1229369" transform="translate(9.12 17.465)">
                  <path id="Trazado_1064094" data-name="Trazado 1064094" d="M233.635,142.979l-3.222,1.187,3.222,1.175v1.211L229.02,144.8v-1.26l4.615-1.756v1.2Z" transform="translate(-229.02 -139.394)" fill="#fff"/>
                  <path id="Trazado_1064095" data-name="Trazado 1064095" d="M236.257,139.81H237.6l-3.2,9.12H233.06Z" transform="translate(-228.167 -139.81)" fill="#fff"/>
                  <path id="Trazado_1064096" data-name="Trazado 1064096" d="M241.565,143.526v1.26l-4.615,1.756v-1.211l3.222-1.175-3.222-1.187v-1.2l4.615,1.756Z" transform="translate(-227.345 -139.396)" fill="#fff"/>
                </g>
                <g id="Grupo_1229370" data-name="Grupo 1229370" transform="translate(8.272 32.459)" opacity="0.2">
                  <path id="Trazado_1064097" data-name="Trazado 1064097" d="M242.709,154.612H229.531a1.211,1.211,0,0,1,0-2.422h13.178a1.211,1.211,0,1,1,0,2.422Z" transform="translate(-228.32 -152.19)"/>
                  <path id="Trazado_1064098" data-name="Trazado 1064098" d="M242.709,161.142H229.531a1.211,1.211,0,1,1,0-2.422h13.178a1.211,1.211,0,1,1,0,2.422Z" transform="translate(-228.32 -150.811)"/>
                  <path id="Trazado_1064099" data-name="Trazado 1064099" d="M242.709,167.672H229.531a1.211,1.211,0,0,1,0-2.422h13.178a1.211,1.211,0,0,1,0,2.422Z" transform="translate(-228.32 -149.432)"/>
                  <path id="Trazado_1064100" data-name="Trazado 1064100" d="M242.709,174.2H229.531a1.211,1.211,0,0,1,0-2.422h13.178a1.211,1.211,0,0,1,0,2.422Z" transform="translate(-228.32 -148.053)"/>
                  <path id="Trazado_1064101" data-name="Trazado 1064101" d="M242.709,180.722H229.531a1.211,1.211,0,1,1,0-2.422h13.178a1.211,1.211,0,1,1,0,2.422Z" transform="translate(-228.32 -146.676)"/>
                  <path id="Trazado_1064102" data-name="Trazado 1064102" d="M242.709,187.252H229.531a1.211,1.211,0,1,1,0-2.422h13.178a1.211,1.211,0,1,1,0,2.422Z" transform="translate(-228.32 -145.297)"/>
                  <path id="Trazado_1064103" data-name="Trazado 1064103" d="M242.709,193.782H229.531a1.211,1.211,0,0,1,0-2.422h13.178a1.211,1.211,0,0,1,0,2.422Z" transform="translate(-228.32 -143.919)"/>
                  <path id="Trazado_1064104" data-name="Trazado 1064104" d="M242.709,200.312H229.531a1.211,1.211,0,1,1,0-2.422h13.178a1.211,1.211,0,1,1,0,2.422Z" transform="translate(-228.32 -142.54)"/>
                  <path id="Trazado_1064105" data-name="Trazado 1064105" d="M242.709,206.832H229.531a1.211,1.211,0,0,1,0-2.422h13.178a1.211,1.211,0,0,1,0,2.422Z" transform="translate(-228.32 -141.163)"/>
                </g>
                <g id="Grupo_1229379" data-name="Grupo 1229379" transform="translate(32.508 32.459)">
                  <path id="Trazado_1064106" data-name="Trazado 1064106" d="M276.574,154.612H249.541a1.211,1.211,0,1,1,0-2.422h27.033a1.211,1.211,0,1,1,0,2.422Z" transform="translate(-248.33 -152.19)" fill="#f6c810"/>
                  <path id="Trazado_1064107" data-name="Trazado 1064107" d="M348.231,154.612H277.8a1.211,1.211,0,1,1,0-2.422h70.429a1.211,1.211,0,0,1,0,2.422Z" transform="translate(-242.362 -152.19)" fill="#263238"/>
                  <g id="Grupo_1229371" data-name="Grupo 1229371" transform="translate(116.393)" opacity="0.2">
                    <path id="Trazado_1064108" data-name="Trazado 1064108" d="M366.049,154.612H345.641a1.211,1.211,0,0,1,0-2.422h20.408a1.211,1.211,0,1,1,0,2.422Z" transform="translate(-344.43 -152.19)" fill="#263238"/>
                  </g>
                  <g id="Grupo_1229372" data-name="Grupo 1229372" transform="translate(3.646 7.909)" opacity="0.2">
                    <path id="Trazado_1064109" data-name="Trazado 1064109" d="M323.138,161.142H252.551a1.211,1.211,0,0,1,0-2.422h70.587a1.211,1.211,0,0,1,0,2.422Z" transform="translate(-251.34 -158.72)" fill="#263238"/>
                  </g>
                  <path id="Trazado_1064110" data-name="Trazado 1064110" d="M381.962,161.142H316.171a1.211,1.211,0,0,1,0-2.422h65.791a1.211,1.211,0,1,1,0,2.422Z" transform="translate(-234.26 -150.811)" fill="#f6c810"/>
                  <path id="Trazado_1064111" data-name="Trazado 1064111" d="M294.387,167.672H252.541a1.211,1.211,0,1,1,0-2.422h41.846a1.211,1.211,0,1,1,0,2.422Z" transform="translate(-247.697 -149.432)" fill="#263238"/>
                  <path id="Trazado_1064112" data-name="Trazado 1064112" d="M335.425,167.672h-41.2a1.211,1.211,0,1,1,0-2.422h41.2a1.211,1.211,0,0,1,0,2.422Z" transform="translate(-238.895 -149.432)" fill="#f6c810"/>
                  <path id="Trazado_1064113" data-name="Trazado 1064113" d="M378.245,167.672H333.771a1.211,1.211,0,1,1,0-2.422h44.474a1.211,1.211,0,1,1,0,2.422Z" transform="translate(-230.543 -149.432)" fill="#263238"/>
                  <path id="Trazado_1064114" data-name="Trazado 1064114" d="M294.669,174.2H269.561a1.211,1.211,0,1,1,0-2.422h25.108a1.211,1.211,0,1,1,0,2.422Z" transform="translate(-244.102 -148.053)" fill="#263238"/>
                  <path id="Trazado_1064115" data-name="Trazado 1064115" d="M324.43,174.2H297.021a1.211,1.211,0,0,1,0-2.422H324.43a1.211,1.211,0,1,1,0,2.422Z" transform="translate(-238.304 -148.053)" fill="#263238"/>
                  <g id="Grupo_1229373" data-name="Grupo 1229373" transform="translate(91.14 23.727)" opacity="0.2">
                    <path id="Trazado_1064116" data-name="Trazado 1064116" d="M369.241,174.2h-44.45a1.211,1.211,0,0,1,0-2.422h44.45a1.211,1.211,0,1,1,0,2.422Z" transform="translate(-323.58 -171.78)" fill="#263238"/>
                  </g>
                  <g id="Grupo_1229374" data-name="Grupo 1229374" transform="translate(3.646 31.624)" opacity="0.2">
                    <path id="Trazado_1064117" data-name="Trazado 1064117" d="M286.331,180.722H252.551a1.211,1.211,0,0,1,0-2.422h33.779a1.211,1.211,0,1,1,0,2.422Z" transform="translate(-251.34 -178.3)" fill="#263238"/>
                  </g>
                  <path id="Trazado_1064118" data-name="Trazado 1064118" d="M290.558,187.252H252.551a1.211,1.211,0,0,1,0-2.422h38.006a1.211,1.211,0,1,1,0,2.422Z" transform="translate(-247.694 -145.297)" fill="#f6c810"/>
                  <path id="Trazado_1064119" data-name="Trazado 1064119" d="M346.333,187.252H289.081a1.211,1.211,0,0,1,0-2.422h57.252a1.211,1.211,0,0,1,0,2.422Z" transform="translate(-239.98 -145.297)" fill="#263238"/>
                  <path id="Trazado_1064120" data-name="Trazado 1064120" d="M376.49,187.252H342.081a1.211,1.211,0,1,1,0-2.422H376.49a1.211,1.211,0,0,1,0,2.422Z" transform="translate(-228.788 -145.297)" fill="#263238"/>
                  <g id="Grupo_1229375" data-name="Grupo 1229375" transform="translate(15.757 47.441)" opacity="0.2">
                    <path id="Trazado_1064121" data-name="Trazado 1064121" d="M284.316,193.782H262.551a1.211,1.211,0,1,1,0-2.422h21.765a1.211,1.211,0,0,1,0,2.422Z" transform="translate(-261.34 -191.36)" fill="#263238"/>
                  </g>
                  <g id="Grupo_1229376" data-name="Grupo 1229376" transform="translate(44.946 47.441)" opacity="0.2">
                    <path id="Trazado_1064122" data-name="Trazado 1064122" d="M328.388,193.782H286.651a1.211,1.211,0,0,1,0-2.422h41.737a1.211,1.211,0,1,1,0,2.422Z" transform="translate(-285.44 -191.36)" fill="#263238"/>
                  </g>
                  <path id="Trazado_1064123" data-name="Trazado 1064123" d="M368.6,193.782H327.841a1.211,1.211,0,1,1,0-2.422H368.6a1.211,1.211,0,1,1,0,2.422Z" transform="translate(-231.796 -143.919)" fill="#263238"/>
                  <path id="Trazado_1064124" data-name="Trazado 1064124" d="M298.214,200.312H272.561a1.211,1.211,0,0,1,0-2.422h25.653a1.211,1.211,0,1,1,0,2.422Z" transform="translate(-243.469 -142.54)" fill="#263238"/>
                  <g id="Grupo_1229377" data-name="Grupo 1229377" transform="translate(58.79 55.35)" opacity="0.2">
                    <path id="Trazado_1064125" data-name="Trazado 1064125" d="M322.523,200.312H298.081a1.211,1.211,0,0,1,0-2.422h24.441a1.211,1.211,0,1,1,0,2.422Z" transform="translate(-296.87 -197.89)" fill="#263238"/>
                  </g>
                  <path id="Trazado_1064126" data-name="Trazado 1064126" d="M369.281,200.312H324.6a1.211,1.211,0,1,1,0-2.422h44.68a1.211,1.211,0,0,1,0,2.422Z" transform="translate(-232.48 -142.54)" fill="#f6c810"/>
                  <g id="Grupo_1229378" data-name="Grupo 1229378" transform="translate(27.881 63.247)" opacity="0.2">
                    <path id="Trazado_1064127" data-name="Trazado 1064127" d="M303.918,206.832H272.561a1.211,1.211,0,0,1,0-2.422h31.357a1.211,1.211,0,1,1,0,2.422Z" transform="translate(-271.35 -204.41)" fill="#263238"/>
                  </g>
                </g>
                <g id="Grupo_1229380" data-name="Grupo 1229380" transform="translate(171.429 3.016)">
                  <path id="Trazado_1064128" data-name="Trazado 1064128" d="M375.04,129.951a2.071,2.071,0,1,0,2.071-2.071A2.07,2.07,0,0,0,375.04,129.951Z" transform="translate(-360.494 -127.88)" fill="#fff" opacity="0.4"/>
                  <circle id="Elipse_14060" data-name="Elipse 14060" cx="2.071" cy="2.071" r="2.071" transform="translate(7.279)" fill="#fff" opacity="0.4"/>
                  <circle id="Elipse_14061" data-name="Elipse 14061" cx="2.071" cy="2.071" r="2.071" fill="#fff" opacity="0.4"/>
                </g>
              </g>
            </g>
          </g>
          <g id="Speech_bubble" data-name="Speech bubble" transform="translate(91.661 159.22)">
            <g id="Grupo_1229386" data-name="Grupo 1229386">
              <g id="Grupo_1229383" data-name="Grupo 1229383">
                <path id="Trazado_1064129" data-name="Trazado 1064129" d="M121.2,131.46H86.4A10.715,10.715,0,0,0,75.68,142.179v30.279A10.715,10.715,0,0,0,86.4,183.177H111.07l7.267,9.556v-9.556H121.2a10.715,10.715,0,0,0,10.719-10.719V142.179A10.715,10.715,0,0,0,121.2,131.46Z" transform="translate(-75.68 -131.46)" fill="#407bff"/>
                <path id="Trazado_1064130" data-name="Trazado 1064130" d="M121.2,131.46H86.4A10.715,10.715,0,0,0,75.68,142.179v30.279A10.715,10.715,0,0,0,86.4,183.177H111.07l7.267,9.556v-9.556H121.2a10.715,10.715,0,0,0,10.719-10.719V142.179A10.715,10.715,0,0,0,121.2,131.46Z" transform="translate(-75.68 -131.46)" fill="#fdf4ce"/>
              </g>
              <g id="Grupo_1229385" data-name="Grupo 1229385" transform="translate(3.697 1.303)">
                <g id="Grupo_1229384" data-name="Grupo 1229384" transform="translate(0 0)">
                  <circle id="Elipse_14062" data-name="Elipse 14062" cx="17.271" cy="17.271" r="17.271" transform="translate(0 24.425) rotate(-45)" fill="#f6c810"/>
                </g>
                <path id="Trazado_1064131" data-name="Trazado 1064131" d="M98.857,161.761a1.611,1.611,0,0,1-1.211-.557l-6.77-7.982a1.59,1.59,0,0,1,2.422-2.059l5.571,6.552,9.193-10.828a1.59,1.59,0,1,1,2.422,2.059l-10.4,12.257a1.592,1.592,0,0,1-1.211.557Z" transform="translate(-76.248 -129.623)" fill="#fff"/>
              </g>
            </g>
          </g>
          <g id="Character" transform="translate(81.904 206.862)">
            <g id="Grupo_1229397" data-name="Grupo 1229397">
              <g id="Grupo_1229395" data-name="Grupo 1229395">
                <g id="Grupo_1229387" data-name="Grupo 1229387" transform="translate(163.406 165.536)">
                  <path id="Trazado_1064132" data-name="Trazado 1064132" d="M205.18,308.752l25.992-1.272-2.531,22.613s-18.046,3.452-26.1-9.4l2.628-11.942Z" transform="translate(-202.54 -307.468)" fill="#ebb376"/>
                  <path id="Trazado_1064133" data-name="Trazado 1064133" d="M243.394,315.355l-5.923,16.411L224.1,330.095l2.531-22.625Z" transform="translate(-197.987 -307.47)" fill="#ebb376"/>
                </g>
                <path id="Trazado_1064134" data-name="Trazado 1064134" d="M192.738,351.458a106.515,106.515,0,0,0,26.743-19.863l-1.768-16.847c-24.575,3.585-38.745,8.829-38.745,8.829s9.1-32.653.775-44.547l-22.879,4.142s-24.308,50.53-7.957,68.261H192.75Z" transform="translate(-51.653 -147.94)" fill="#f6c810"/>
                <path id="Trazado_1064136" data-name="Trazado 1064136" d="M173.894,350.02c8.078-51.2.908-64.18.908-64.18l-29.1,27.469c-3.27,13.8-4.227,28.644,3.21,36.71h24.974Z" transform="translate(-51.655 -146.502)" opacity="0.2"/>
                <path id="Trazado_1064137" data-name="Trazado 1064137" d="M180.674,356.477c5.45-25.871,11.567-66.384,10.888-72.416-.981-8.757-48.677-46.339-90.062-18.979-8.454,5.583-12.8,65.815-14.28,91.395h93.454Z" transform="translate(-63.485 -152.959)" fill="#f6c810"/>
                <path id="Trazado_1064139" data-name="Trazado 1064139" d="M156.485,171.758c-14.352-5.8-48.192,15.018-51.16,52.141s15.854,26.827,15.854,26.827,3.343,14.171,17.053,9.786c0,0,11.324,12.826,21.862,7.606,0,0,13.117,13.662,20.154,6.455,0,0,7.655,8.745,14.643,2.12s26.948-74.123-4.384-89.735-34.034-15.212-34.034-15.212Z" transform="translate(-59.729 -170.796)" fill="#263238"/>
                <g id="Grupo_1229388" data-name="Grupo 1229388" transform="translate(33.452 85.623)">
                  <path id="Trazado_1064140" data-name="Trazado 1064140" d="M148.187,301.651l-1.381-.121c1.587-17.877-2.338-25.786-2.386-25.871l1.235-.63C145.825,275.357,149.822,283.314,148.187,301.651Z" transform="translate(-84.859 -234.407)" fill="#263238"/>
                  <path id="Trazado_1064141" data-name="Trazado 1064141" d="M153.573,302.031c-9.5-22.407,1.187-27.615,1.647-27.821l.581,1.26-.291-.63.291.63c-.1.048-9.883,4.954-.945,26.028l-1.272.545Z" transform="translate(-83.754 -234.581)" fill="#263238"/>
                  <path id="Trazado_1064142" data-name="Trazado 1064142" d="M155.773,286.424s-18.349-14.51-46.836-22.722l-9.132,4.288S84.472,249.011,110.028,242.8s60.316,10.864,69.049,25.556-15.164,19.354-15.164,19.354-2.229-2.943-8.151-1.284Z" transform="translate(-95.243 -241.49)" fill="#866d08"/>
                  <path id="Trazado_1064144" data-name="Trazado 1064144" d="M154.782,297.171a1.211,1.211,0,1,1-1.211-1.211A1.215,1.215,0,0,1,154.782,297.171Z" transform="translate(-83.182 -229.988)" fill="#fff"/>
                  <path id="Trazado_1064145" data-name="Trazado 1064145" d="M148.292,297.171a1.211,1.211,0,1,1-1.211-1.211A1.215,1.215,0,0,1,148.292,297.171Z" transform="translate(-84.553 -229.988)" fill="#fff"/>
                </g>
                <g id="Grupo_1229389" data-name="Grupo 1229389" transform="translate(68.56 62.017)">
                  <path id="Trazado_1064146" data-name="Trazado 1064146" d="M139.9,222.012c-1.114,13.008-5.1,36.129-15.673,41.216,0,0,11.821,2.41,30.255,25.81,10.5-7.376,6.528-12.39,6.528-12.39-12.281-8.054-9.1-17.986-4.13-26.6L139.9,222Z" transform="translate(-124.23 -222)" fill="#fac891"/>
                  <path id="Trazado_1064147" data-name="Trazado 1064147" d="M143.273,231.46l10.053,16.593a38.5,38.5,0,0,0-3.028,6.3c-4.833-2.592-10.15-10.8-9.156-16.423A18.782,18.782,0,0,1,143.273,231.46Z" transform="translate(-120.684 -220.002)" opacity="0.2"/>
                </g>
                <g id="Grupo_1229392" data-name="Grupo 1229392" transform="translate(69.334 0.406)">
                  <path id="Trazado_1064148" data-name="Trazado 1064148" d="M136.493,203.339c-3.379,20.42-5.244,28.971,2.325,42.124,11.373,19.778,36.577,20.711,45.843,2.011,8.345-16.835,12.475-47.405-4.917-60.9-17.138-13.3-39.86-3.646-43.239,16.775Z" transform="translate(-123.037 -169.161)" fill="#fac891"/>
                  <path id="Trazado_1064149" data-name="Trazado 1064149" d="M180.172,177.161c13.226,7.352,25.834,30.291,7,24.55-2.834,5.511-12.984.46-18.87-6.153-.993,4.59-11.857,9.193-19.839,2.083,3.864,5.571-2.713,19.633-9.556,17.211s-22.2-5.608-8.587-27.288,35.717-18.252,49.864-10.4Z" transform="translate(-124.87 -171.131)" fill="#263238"/>
                  <path id="Trazado_1064150" data-name="Trazado 1064150" d="M166.991,215.27s1.223,8.115,3.512,12.511c-2.592,1.49-6.044-.509-6.044-.509l2.519-12Z" transform="translate(-116.509 -161.81)" fill="#eaa468"/>
                  <path id="Trazado_1064151" data-name="Trazado 1064151" d="M156.951,229.677a15.772,15.772,0,0,0,2.677,1.017.461.461,0,0,0,.581-.363.526.526,0,0,0-.375-.63,14.462,14.462,0,0,1-9.4-8.248.506.506,0,0,0-.63-.339.512.512,0,0,0-.291.654,15.2,15.2,0,0,0,7.424,7.909Z" transform="translate(-119.671 -160.581)" fill="#263238"/>
                  <path id="Trazado_1064152" data-name="Trazado 1064152" d="M127.553,213.347a16.591,16.591,0,0,0,7.727,10.077c4.929,2.7,8.539-1.926,8.115-7.691-.375-5.184-3.4-12.838-8.817-13.141C129.249,202.289,126.076,207.97,127.553,213.347Z" transform="translate(-124.379 -164.49)" fill="#fac891"/>
                  <path id="Trazado_1064153" data-name="Trazado 1064153" d="M154.621,200.343a.934.934,0,0,0,.763-.036,7.415,7.415,0,0,1,7.049-.121.927.927,0,0,0,1.32-.363,1.09,1.09,0,0,0-.412-1.417,9.274,9.274,0,0,0-8.914.048,1.075,1.075,0,0,0,.182,1.9Z" transform="translate(-118.734 -165.608)" fill="#263238"/>
                  <path id="Trazado_1064154" data-name="Trazado 1064154" d="M182.45,207.84a.9.9,0,0,0,.727.073,1,1,0,0,0,.606-1.284,10.583,10.583,0,0,0-6.31-7,.926.926,0,0,0-1.187.69,1.1,1.1,0,0,0,.7,1.3,8.508,8.508,0,0,1,4.942,5.608,1.045,1.045,0,0,0,.521.63Z" transform="translate(-114.019 -165.123)" fill="#263238"/>
                  <g id="Grupo_1229390" data-name="Grupo 1229390" transform="translate(38.226 44.303)">
                    <path id="Trazado_1064155" data-name="Trazado 1064155" d="M160.608,211.5c-.593,1.611-1.95,2.6-3.028,2.2s-1.466-2.023-.872-3.633,1.95-2.6,3.016-2.2,1.466,2.023.872,3.633Z" transform="translate(-156.431 -207.696)" fill="#263238"/>
                    <path id="Trazado_1064156" data-name="Trazado 1064156" d="M158.76,207.795l4.021-.085S159.947,210.023,158.76,207.795Z" transform="translate(-155.939 -207.71)" fill="#263238"/>
                  </g>
                  <g id="Grupo_1229391" data-name="Grupo 1229391" transform="translate(58.561 50.747)">
                    <path id="Trazado_1064157" data-name="Trazado 1064157" d="M177.4,216.819c-.593,1.611-1.95,2.6-3.028,2.2S172.9,217,173.5,215.39s1.95-2.6,3.016-2.2,1.466,2.023.872,3.633Z" transform="translate(-173.221 -213.016)" fill="#263238"/>
                    <path id="Trazado_1064158" data-name="Trazado 1064158" d="M175.56,213.115l4.021-.085S176.747,215.343,175.56,213.115Z" transform="translate(-172.727 -213.03)" fill="#263238"/>
                  </g>
                  <path id="Trazado_1064159" data-name="Trazado 1064159" d="M159.89,224.121a8.9,8.9,0,0,1-3.609-.763,9.246,9.246,0,0,1-5.026-5.862,12.281,12.281,0,0,1,6.407-14.352,9.031,9.031,0,0,1,12.754,5.692,11.924,11.924,0,0,1-.606,8.333h0a11.967,11.967,0,0,1-5.8,6.02,9.887,9.887,0,0,1-4.118.933Zm1.9-20.541a8.315,8.315,0,0,0-3.537.811,10.9,10.9,0,0,0-5.668,12.693,7.647,7.647,0,0,0,10.84,4.845,10.528,10.528,0,0,0,5.123-5.329l.63.279-.63-.279a10.452,10.452,0,0,0,.545-7.364,7.836,7.836,0,0,0-4.263-5,7.329,7.329,0,0,0-3.04-.642Z" transform="translate(-119.4 -164.569)" fill="#263238"/>
                  <path id="Trazado_1064160" data-name="Trazado 1064160" d="M176.526,229.221a8.636,8.636,0,0,1-3.585-.763,9.246,9.246,0,0,1-5.026-5.862,12.281,12.281,0,0,1,6.407-14.352,9.031,9.031,0,0,1,12.754,5.692,11.92,11.92,0,0,1-.606,8.333h0a11.247,11.247,0,0,1-9.944,6.94Zm1.926-20.541a8.315,8.315,0,0,0-3.537.811,10.9,10.9,0,0,0-5.668,12.693,7.836,7.836,0,0,0,4.263,5c4.251,1.9,9.5-.557,11.7-5.487h0a10.453,10.453,0,0,0,.545-7.364,7.87,7.87,0,0,0-4.263-5,7.288,7.288,0,0,0-3.04-.642Z" transform="translate(-115.882 -163.492)" fill="#263238"/>
                  <path id="Trazado_1064161" data-name="Trazado 1064161" d="M168.241,215.29a.6.6,0,0,0-.363-.388,2.457,2.457,0,0,0-1.562.23l-.606-1.247a3.8,3.8,0,0,1,2.665-.279,1.97,1.97,0,0,1,1.151,1.175Z" transform="translate(-116.245 -162.194)" fill="#263238"/>
                  <rect id="Rectángulo_423761" data-name="Rectángulo 423761" width="1.381" height="17.077" transform="matrix(0.296, -0.955, 0.955, 0.296, 16.274, 41.148)" fill="#263238"/>
                </g>
                <path id="Trazado_1064162" data-name="Trazado 1064162" d="M147.712,316.025s-31.866,24.417-59.832,22.952c1.138-16.641,3.04-38.709,5.814-55.314,2.846-3.161,4.736-5.063,4.736-5.063l17,12.681-4.13,5.172s25.665-1.3,34.6,0l1.8,19.573Z" transform="translate(-63.346 -148.031)" opacity="0.2"/>
                <g id="Grupo_1229394" data-name="Grupo 1229394" transform="translate(0 107.823)">
                  <g id="Grupo_1229393" data-name="Grupo 1229393" transform="translate(86.873 35.415)">
                    <path id="Trazado_1064163" data-name="Trazado 1064163" d="M140.137,294.256l25.507-5.2.92,22.734s-17.32,6.141-27.215-5.341l.787-12.209Z" transform="translate(-139.35 -289.06)" fill="#ebb376"/>
                    <path id="Trazado_1064164" data-name="Trazado 1064164" d="M178.816,294.316l-3.367,17.114-13.48.363-.908-22.734Z" transform="translate(-134.766 -289.06)" fill="#ebb376"/>
                  </g>
                  <path id="Trazado_1064165" data-name="Trazado 1064165" d="M141.362,293.35l1.247,17.538-6.347,2.846L133.55,293.35Z" transform="translate(-53.702 -252.74)" fill="#866d08"/>
                  <path id="Trazado_1064167" data-name="Trazado 1064167" d="M114.77,259.832a29.5,29.5,0,0,0-17.5,10.125c-7.691,9.035-34.809,35.875-28.777,57.773s63.986,5.608,81.693-6.916l-2.713-20.4-40.15,2.943,12.378-8.139c8.49-23.63-4.929-35.4-4.929-35.4Z" transform="translate(-67.624 -259.82)" fill="#f6c810"/>
                </g>
                <path id="Trazado_1064169" data-name="Trazado 1064169" d="M202.55,309.065l7.315-1.235v19.585l-5.789.945Z" transform="translate(-39.131 -141.858)" fill="#866d08"/>
              </g>
              <g id="Grupo_1229396" data-name="Grupo 1229396" transform="translate(131.444 149.379)">
                <path id="Trazado_1064171" data-name="Trazado 1064171" d="M193.373,325.479a23.448,23.448,0,0,1,.157-3.21l.218-1.611-1.562.921-.933.545c-.327.109-.63.291-.945.363a2.808,2.808,0,0,1-1.7.036,3.322,3.322,0,0,1-1.356-.981,5.964,5.964,0,0,1-.957-1.647l-1.369-3.815-.969,4.033c-.1.4-.157.812-.242,1.211s-.23.751-.339,1.126a3.713,3.713,0,0,1-1.126,1.538,2.391,2.391,0,0,1-1.829.157,7.192,7.192,0,0,1-2.168-.957l-2.107-1.308.86,2.144a21.057,21.057,0,0,1,.872,2.81,8.544,8.544,0,0,1,.194,1.453,2.389,2.389,0,0,1-.315,1.429,2.326,2.326,0,0,0,.824-1.356,6.519,6.519,0,0,0,.218-1.6,11.164,11.164,0,0,0-.048-1.272,9.107,9.107,0,0,0,1.09.533,4.292,4.292,0,0,0,3.452-.073,5.17,5.17,0,0,0,2.265-2.568.839.839,0,0,1,.061-.157,4.8,4.8,0,0,0,2.434,1.453,4.678,4.678,0,0,0,2.955-.3,7.636,7.636,0,0,0,1.03-.557.5.5,0,0,0,.012.133,11.71,11.71,0,0,0,.351,1.7,8.054,8.054,0,0,0,.606,1.635,3.781,3.781,0,0,0,1.054,1.369,4.237,4.237,0,0,1-.533-1.538,11.882,11.882,0,0,1-.145-1.611Z" transform="translate(-176.15 -289.495)" fill="#866d08"/>
                <path id="Trazado_1064172" data-name="Trazado 1064172" d="M230.444,302.79a6.91,6.91,0,0,1-2.8-.291,9.875,9.875,0,0,1-2.64-1.272,7.519,7.519,0,0,1-1.95-2.1,11.358,11.358,0,0,1-1.3-2.6l-.8-2.4-1.356,2.144a11.655,11.655,0,0,1-2.083,2.41,3.817,3.817,0,0,1-2.434,1.1H214.8a3.2,3.2,0,0,0-.363-.085,5.708,5.708,0,0,1-.751-.194,9.056,9.056,0,0,1-1.466-.63,12.966,12.966,0,0,1-2.616-1.938l-2.107-2.023.436,2.774a22.246,22.246,0,0,1,.291,4.481,6.167,6.167,0,0,1-.424,2.059,1.358,1.358,0,0,1-1.478.848l-.557-.048.17.448c.351.908.715,1.817,1.09,2.713-.121-.811-.254-1.611-.388-2.41l.218.036a1.978,1.978,0,0,0,1.369-.509c.157-.17.327-.351.472-.533a6.512,6.512,0,0,0,.908-2.422,15.42,15.42,0,0,0,.266-2.447v-.036a12.876,12.876,0,0,0,1.247.884,11.787,11.787,0,0,0,1.793.9,6.665,6.665,0,0,0,2.1.472,6.085,6.085,0,0,0,4.045-1.611,11.242,11.242,0,0,0,1.32-1.308,9.64,9.64,0,0,0,.787,1.235,9.37,9.37,0,0,0,6.007,3.839,9.791,9.791,0,0,0,2.313.17c-.1.254-.206.5-.291.739a16.014,16.014,0,0,0-.5,2.132,8.853,8.853,0,0,0-.1,2.192,4.334,4.334,0,0,0,.642,2.059,4.4,4.4,0,0,1-.145-2.059,9.307,9.307,0,0,1,.472-1.986,19.848,19.848,0,0,1,1.756-3.694l.763-1.3-1.659.23Z" transform="translate(-169.897 -294.13)" fill="#866d08"/>
              </g>
            </g>
          </g>
          <g id="Table" transform="translate(71.737 410.029)">
            <g id="Grupo_1229398" data-name="Grupo 1229398">
              <path id="Trazado_1064173" data-name="Trazado 1064173" d="M5.378,0H430.134a5.381,5.381,0,0,1,5.378,5.378V18.458H0V5.378A5.381,5.381,0,0,1,5.378,0Z" transform="translate(449.84 26.44) rotate(180)" fill="#866d08"/>
              <rect id="Rectángulo_423762" data-name="Rectángulo 423762" width="435.524" height="9.229" transform="translate(449.84 17.211) rotate(180)" opacity="0.2"/>
              <path id="Trazado_1064174" data-name="Trazado 1064174" d="M64.426,348.932H518.214a5.2,5.2,0,0,0,5.2-5.2h0a5.2,5.2,0,0,0-5.2-5.2H64.426a5.2,5.2,0,0,0-5.2,5.2h0A5.2,5.2,0,0,0,64.426,348.932Z" transform="translate(-59.23 -338.54)" fill="#c39e09"/>
            </g>
          </g>
          <g id="Device_2" data-name="Device 2" transform="translate(372.265 343.657)">
            <g id="Grupo_1229399" data-name="Grupo 1229399">
              <path id="Trazado_1064175" data-name="Trazado 1064175" d="M428.956,286.586l-13.25,60.1a4.518,4.518,0,0,1-4.3,3.415H339.039a2.914,2.914,0,0,1-2.713-3.779l13.226-59.638a4.138,4.138,0,0,1,4.3-2.943h72.367c1.95,0,3.161.884,2.737,2.846Z" transform="translate(-301.263 -283.74)" fill="#263238"/>
              <path id="Trazado_1064176" data-name="Trazado 1064176" d="M428.53,286.586l-13.25,60.1a4.518,4.518,0,0,1-4.3,3.415H341.072a2.928,2.928,0,0,1-2.737-3.779l13.25-59.638c.436-1.962,2.362-2.943,4.3-2.943h69.909c1.95,0,3.161.884,2.737,2.846Z" transform="translate(-300.837 -283.74)" fill="#fff" opacity="0.4"/>
              <path id="Trazado_1064177" data-name="Trazado 1064177" d="M416.711,347.882l13.178-59.8c.436-1.962-.787-2.846-2.737-2.846H357.243c-1.95,0-3.876.981-4.3,2.943L339.56,348.657l77.151-.775Z" transform="translate(-300.56 -283.423)" fill="#f6c810"/>
              <path id="Trazado_1064179" data-name="Trazado 1064179" d="M422.669,313.672l-6.225,28.208-41.313.412h-34.3l5.608-25.8a3.6,3.6,0,0,1,3.512-2.834h72.706Z" transform="translate(-300.292 -277.422)" opacity="0.2"/>
              <path id="Trazado_1064180" data-name="Trazado 1064180" d="M424.122,317.423c-.436-1.962-2.362-2.943-4.3-2.943H349.913c-1.95,0-3.161.884-2.737,2.846l5.3,24.042h-11.8a1.114,1.114,0,1,0,0,2.229H426.8a2.529,2.529,0,0,0,2.471-3.076l-5.135-23.1Z" transform="translate(-300.558 -277.249)" fill="#866d08"/>
              <path id="Trazado_1064182" data-name="Trazado 1064182" d="M339.546,328.96h-4.057l-.509,2.192h3.948Z" transform="translate(-301.528 -274.191)"/>
              <path id="Trazado_1064183" data-name="Trazado 1064183" d="M319.738,340.76H308.05a.69.69,0,0,1-.69-.69.7.7,0,0,1,.69-.69h11.688a12.815,12.815,0,0,0,10-4.784,14.163,14.163,0,0,1,11.082-5.3h2.059a.69.69,0,0,1,.69.69.7.7,0,0,1-.69.69h-2.059a12.815,12.815,0,0,0-10,4.784A14.163,14.163,0,0,1,319.738,340.76Z" transform="translate(-307.36 -274.121)"/>
            </g>
          </g>
          <g id="Device_1" data-name="Device 1" transform="translate(189.887 301.145)">
            <g id="Grupo_1229400" data-name="Grupo 1229400">
              <path id="Trazado_1064184" data-name="Trazado 1064184" d="M156.78,331.7v5.063c0,2.277,2.749,3.21,5.026,3.21H339.339c2.253,0,4.929-.933,4.929-3.21V331.7H156.78Z" transform="translate(-156.78 -231.1)" fill="#263238"/>
              <path id="Trazado_1064185" data-name="Trazado 1064185" d="M156.78,331.7v5.063c0,2.277,2.749,3.21,5.026,3.21H339.339c2.253,0,4.929-.933,4.929-3.21V331.7H156.78Z" transform="translate(-156.78 -231.1)" fill="#fff" opacity="0.4"/>
              <path id="Trazado_1064186" data-name="Trazado 1064186" d="M206.722,331.7v5.063c0,2.277,2.7,3.21,4.978,3.21H328.8c2.253,0,4.929-.933,4.929-3.21V331.7H206.71Z" transform="translate(-146.236 -231.1)" opacity="0.2"/>
              <path id="Trazado_1064187" data-name="Trazado 1064187" d="M361.9,253.17l-21.135,95.864a7.181,7.181,0,0,1-6.867,5.45H218.451c-3.076,0-5.051-2.87-4.336-6.02l21.111-95.137c.715-3.125,3.755-4.687,6.867-4.687H357.542c3.1,0,5.051,1.4,4.36,4.53Z" transform="translate(-144.703 -248.64)" fill="#263238"/>
              <path id="Trazado_1064188" data-name="Trazado 1064188" d="M361.221,253.17l-21.135,95.864a7.181,7.181,0,0,1-6.867,5.45H221.694c-3.1,0-5.051-2.87-4.36-6.02l21.135-95.137c.69-3.125,3.755-4.687,6.867-4.687H356.861c3.1,0,5.051,1.4,4.36,4.53Z" transform="translate(-144.022 -248.64)" fill="#fff" opacity="0.4"/>
              <path id="Trazado_1064189" data-name="Trazado 1064189" d="M293.319,295.195v.024c0,8.212-8.805,14.873-15.249,14.873s-10.271-6.674-8.43-14.873c1.841-8.042,8.26-14.607,14.57-14.849-1.841,8.212,2.1,14.849,8.527,14.849a3.867,3.867,0,0,0,.593-.024Z" transform="translate(-133.045 -241.94)" opacity="0.2"/>
            </g>
          </g>
        </g>
      </g>
      <g id="Grupo_1210904" data-name="Grupo 1210904" transform="translate(64 7053.598)">
        <g id="_2780414" data-name="2780414" transform="translate(520 432.262)">
          <g id="OBJECTS" transform="translate(-136 14)">
            <g id="Grupo_1210344" data-name="Grupo 1210344">
              <g id="Grupo_1210339" data-name="Grupo 1210339" transform="translate(-160 10.445)">
                <path id="Trazado_1050203" data-name="Trazado 1050203" d="M251.477,151.163l.514-4.671-2.347-.26a10.936,10.936,0,0,0-1.075-3.7l1.85-1.48-2.936-3.671-1.85,1.48a10.9,10.9,0,0,0-3.37-1.861l.26-2.347-4.671-.514-.26,2.347a10.936,10.936,0,0,0-3.7,1.075l-1.48-1.85-3.671,2.936,1.48,1.85a10.9,10.9,0,0,0-1.861,3.37l-2.347-.26-.514,4.671,2.347.26a10.936,10.936,0,0,0,1.075,3.7l-1.85,1.48,2.936,3.671,1.85-1.48a10.9,10.9,0,0,0,3.37,1.861l-.26,2.347,4.671.514.26-2.347a10.936,10.936,0,0,0,3.7-1.075l1.48,1.85,3.671-2.936-1.48-1.85a10.9,10.9,0,0,0,1.861-3.37l2.347.26Zm-13.162.092a3.9,3.9,0,1,1,4.3-3.445A3.9,3.9,0,0,1,238.315,151.256Z" transform="translate(-28.909 -6.186)" fill="none" stroke="#acf1aa" stroke-miterlimit="10" stroke-width="0.5"/>
                <path id="Trazado_1050204" data-name="Trazado 1050204" d="M194.435,150.9l2.832-6.723-3.382-1.428a16.889,16.889,0,0,0,.035-5.977l3.4-1.387-2.746-6.757-3.4,1.387a16.977,16.977,0,0,0-4.2-4.26l1.428-3.381-6.723-2.832-1.428,3.381a16.889,16.889,0,0,0-5.977-.035l-1.387-3.4-6.757,2.746,1.387,3.4a16.977,16.977,0,0,0-4.26,4.2L159.88,128.4l-2.832,6.723,3.382,1.428a16.889,16.889,0,0,0-.035,5.977l-3.4,1.387,2.746,6.757,3.4-1.387a16.977,16.977,0,0,0,4.2,4.26l-1.428,3.382,6.723,2.832,1.428-3.382a16.889,16.889,0,0,0,5.977.035l1.387,3.4,6.757-2.746-1.387-3.4a16.976,16.976,0,0,0,4.26-4.2Zm-19.624-5.671a6.045,6.045,0,1,1,7.919-3.22A6.042,6.042,0,0,1,174.811,145.226Z" transform="translate(0 0)" fill="none" stroke="#acf1aa" stroke-miterlimit="10" stroke-width="0.5"/>
              </g>
              <g id="Grupo_1210998" data-name="Grupo 1210998" transform="translate(-83.755 -16.89)">
                <rect id="Rectángulo_419647" data-name="Rectángulo 419647" width="131.9" height="39.41" transform="translate(50.29 198.59)" fill="none" stroke="#acf1aa" stroke-miterlimit="10" stroke-width="1"/>
                <rect id="Rectángulo_419648" data-name="Rectángulo 419648" width="119.86" height="29.55" transform="translate(56.31 203.52)" fill="#30006b"/>
                <text id="PHP" transform="translate(94.98 225.86)" fill="#acf1aa" font-size="22.73" font-family="BebasNeueBold, Bebas Neue" letter-spacing="0.206em"><tspan x="0" y="0">PHP</tspan></text>
              </g>
            </g>
          </g>
        </g>
      </g>
      <g id="Grupo_1229401" data-name="Grupo 1229401" transform="translate(680.865 7469.859)">
        <rect id="Rectángulo_419643" data-name="Rectángulo 419643" width="140.68" height="94.63" transform="translate(327.39 152.48)" fill="none" stroke="#acf1aa" stroke-miterlimit="10" stroke-width="1"/>
        <rect id="Rectángulo_419644" data-name="Rectángulo 419644" width="128.18" height="84.32" transform="translate(333.64 157.63)" fill="#30006b"/>
        <g id="Grupo_1210340" data-name="Grupo 1210340">
          <path id="Trazado_1050205" data-name="Trazado 1050205" d="M404.49,171.56H346.28a1.1,1.1,0,0,1-1.1-1.1h0a1.1,1.1,0,0,1,1.1-1.1h58.21a1.1,1.1,0,0,1,1.1,1.1h0A1.1,1.1,0,0,1,404.49,171.56Z" fill="#acf1aa"/>
          <path id="Trazado_1050206" data-name="Trazado 1050206" d="M421.34,177.07H346.27a1.1,1.1,0,0,1-1.1-1.1h0a1.1,1.1,0,0,1,1.1-1.1h75.07a1.1,1.1,0,0,1,1.1,1.1h0A1.1,1.1,0,0,1,421.34,177.07Z" fill="#acf1aa"/>
          <path id="Trazado_1050207" data-name="Trazado 1050207" d="M404.49,182.58H346.28a1.1,1.1,0,0,1-1.1-1.1h0a1.1,1.1,0,0,1,1.1-1.1h58.21a1.1,1.1,0,0,1,1.1,1.1h0A1.1,1.1,0,0,1,404.49,182.58Z" fill="#acf1aa"/>
          <path id="Trazado_1050208" data-name="Trazado 1050208" d="M394.44,188.09H346.28a1.1,1.1,0,0,1-1.1-1.1h0a1.1,1.1,0,0,1,1.1-1.1h48.16a1.1,1.1,0,0,1,1.1,1.1h0A1.1,1.1,0,0,1,394.44,188.09Z" fill="#acf1aa"/>
          <path id="Trazado_1050209" data-name="Trazado 1050209" d="M449.88,193.61H346.28a1.1,1.1,0,0,1-1.1-1.1h0a1.1,1.1,0,0,1,1.1-1.1h103.6a1.1,1.1,0,0,1,1.1,1.1h0A1.1,1.1,0,0,1,449.88,193.61Z" fill="#acf1aa"/>
          <path id="Trazado_1050210" data-name="Trazado 1050210" d="M420.98,199.12h-74.7a1.1,1.1,0,0,1-1.1-1.1h0a1.1,1.1,0,0,1,1.1-1.1h74.7a1.1,1.1,0,0,1,1.1,1.1h0a1.1,1.1,0,0,1-1.1,1.1Z" fill="#acf1aa"/>
          <path id="Trazado_1050211" data-name="Trazado 1050211" d="M442.27,204.63H346.28a1.1,1.1,0,0,1-1.1-1.1h0a1.1,1.1,0,0,1,1.1-1.1h95.99a1.1,1.1,0,0,1,1.1,1.1h0A1.1,1.1,0,0,1,442.27,204.63Z" fill="#acf1aa"/>
          <path id="Trazado_1050212" data-name="Trazado 1050212" d="M415,210.15H346.27a1.1,1.1,0,0,1-1.1-1.1h0a1.1,1.1,0,0,1,1.1-1.1H415a1.1,1.1,0,0,1,1.1,1.1h0A1.1,1.1,0,0,1,415,210.15Z" fill="#acf1aa"/>
          <path id="Trazado_1050213" data-name="Trazado 1050213" d="M435.2,215.66H346.27a1.1,1.1,0,0,1-1.1-1.1h0a1.1,1.1,0,0,1,1.1-1.1H435.2a1.1,1.1,0,0,1,1.1,1.1h0A1.1,1.1,0,0,1,435.2,215.66Z" fill="#acf1aa"/>
          <path id="Trazado_1050214" data-name="Trazado 1050214" d="M404.49,221.17H346.28a1.1,1.1,0,0,1-1.1-1.1h0a1.1,1.1,0,0,1,1.1-1.1h58.21a1.1,1.1,0,0,1,1.1,1.1h0A1.1,1.1,0,0,1,404.49,221.17Z" fill="#acf1aa"/>
          <path id="Trazado_1050215" data-name="Trazado 1050215" d="M404.49,226.69H346.28a1.1,1.1,0,0,1-1.1-1.1h0a1.1,1.1,0,0,1,1.1-1.1h58.21a1.1,1.1,0,0,1,1.1,1.1h0A1.1,1.1,0,0,1,404.49,226.69Z" fill="#acf1aa"/>
          <path id="Trazado_1050216" data-name="Trazado 1050216" d="M404.49,232.2H346.28a1.1,1.1,0,0,1-1.1-1.1h0a1.1,1.1,0,0,1,1.1-1.1h58.21a1.1,1.1,0,0,1,1.1,1.1h0A1.1,1.1,0,0,1,404.49,232.2Z" fill="#acf1aa"/>
        </g>
        <g id="Grupo_1210341" data-name="Grupo 1210341">
          <rect id="Rectángulo_419645" data-name="Rectángulo 419645" width="48.4" height="21.32" transform="translate(309.6 139.42)" fill="none" stroke="#acf1aa" stroke-miterlimit="10" stroke-width="1"/>
          <rect id="Rectángulo_419646" data-name="Rectángulo 419646" width="48.4" height="21.32" transform="translate(312.6 142.42)" fill="#acf1aa"/>
          <text id="HTML" transform="translate(323.58 156.83)" fill="#27004f" font-size="11.42" font-family="BebasNeueBold, Bebas Neue" letter-spacing="0.2em"><tspan x="0" y="0">HTML</tspan></text>
        </g>
      </g>
    </g>
    <g id="Grupo_1229402" data-name="Grupo 1229402" transform="translate(544.584 7639.547)">
      <g id="Rectángulo_423763" data-name="Rectángulo 423763" transform="translate(4)" fill="#fff" stroke="#1d7083" stroke-width="1">
        <rect width="130" height="40" rx="20" stroke="none"/>
        <rect x="0.5" y="0.5" width="129" height="39" rx="19.5" fill="none"/>
      </g>
    </g>
    <g id="Grupo_1230154" data-name="Grupo 1230154">
      <g id="Trazado_1066599" data-name="Trazado 1066599" transform="translate(743.584 7883.846)" fill="#fff">
        <path d="M 105 39.5 L 20 39.5 C 17.36730003356934 39.5 14.81359958648682 38.98450088500977 12.40986633300781 37.96780014038086 C 10.08788299560547 36.98568344116211 8.002416610717773 35.57958221435547 6.211416721343994 33.78858184814453 C 4.420416831970215 31.99758338928223 3.014316558837891 29.91211700439453 2.03220009803772 27.59013366699219 C 1.015499949455261 25.18639945983887 0.5 22.63269996643066 0.5 20 C 0.5 17.36730003356934 1.015499949455261 14.81359958648682 2.03220009803772 12.40986633300781 C 3.014316558837891 10.08788299560547 4.420416831970215 8.002416610717773 6.211416721343994 6.211416721343994 C 8.002416610717773 4.420416831970215 10.08788299560547 3.014316558837891 12.40986633300781 2.03220009803772 C 14.81359958648682 1.015499949455261 17.36730003356934 0.5 20 0.5 L 105 0.5 C 107.632698059082 0.5 110.1864013671875 1.015499949455261 112.5901336669922 2.03220009803772 C 114.9121170043945 3.014316558837891 116.9975814819336 4.420416831970215 118.7885818481445 6.211416721343994 C 120.5795822143555 8.002416610717773 121.9856796264648 10.08788299560547 122.9677963256836 12.40986633300781 C 123.9844970703125 14.81359958648682 124.5 17.36730003356934 124.5 20 C 124.5 22.63269996643066 123.9844970703125 25.18639945983887 122.9677963256836 27.59013366699219 C 121.9856796264648 29.91211700439453 120.5795822143555 31.99758338928223 118.7885818481445 33.78858184814453 C 116.9975814819336 35.57958221435547 114.9121170043945 36.98568344116211 112.5901336669922 37.96780014038086 C 110.1864013671875 38.98450088500977 107.632698059082 39.5 105 39.5 Z" stroke="none"/>
        <path d="M 20 1 C 17.4345703125 1 14.94641876220703 1.502216339111328 12.60465240478516 2.492698669433594 C 10.34226989746094 3.449615478515625 8.310218811035156 4.819717407226562 6.564964294433594 6.564968109130859 C 4.819717407226562 8.310216903686523 3.449615478515625 10.34226608276367 2.492698669433594 12.60465049743652 C 1.502220153808594 14.9464168548584 1 17.43456649780273 1 20 C 1 22.56543350219727 1.502220153808594 25.0535831451416 2.492698669433594 27.39535140991211 C 3.449615478515625 29.65773391723633 4.819717407226562 31.68978309631348 6.564964294433594 33.43503189086914 C 8.310218811035156 35.18028259277344 10.34226989746094 36.55038452148438 12.60465240478516 37.50730133056641 C 14.94641876220703 38.49778366088867 17.4345703125 39 20 39 L 105 39 C 107.5654144287109 39 110.053581237793 38.49778366088867 112.3953475952148 37.50730133056641 C 114.6577301025391 36.55038452148438 116.6897659301758 35.18028259277344 118.4350128173828 33.43503189086914 C 120.1802825927734 31.68978309631348 121.5503845214844 29.65773391723633 122.5073013305664 27.39535140991211 C 123.4977798461914 25.0535831451416 124 22.56543350219727 124 20 C 124 17.43456649780273 123.4977798461914 14.9464168548584 122.5073013305664 12.60465049743652 C 121.5503845214844 10.34226608276367 120.1802825927734 8.310216903686523 118.4350128173828 6.564968109130859 C 116.6897659301758 4.819717407226562 114.6577301025391 3.449615478515625 112.3953475952148 2.492698669433594 C 110.053581237793 1.502216339111328 107.5654144287109 1 105 1 L 20 1 M 20 0 L 105 0 C 116.0456848144531 0 125 8.954299926757812 125 20 C 125 31.04570007324219 116.0456848144531 40 105 40 L 20 40 C 8.954299926757812 40 0 31.04570007324219 0 20 C 0 8.954299926757812 8.954299926757812 0 20 0 Z" stroke="none" fill="#1d7083"/>
      </g>
      <path id="Trazado_1066600" data-name="Trazado 1066600" d="M3.8-3.859V0H1.281V-11.2H5.234q4.234,0,4.234,3.57A3.426,3.426,0,0,1,8.254-4.9,4.813,4.813,0,0,1,5.008-3.859Zm0-5.406v3.492H4.8q2.016,0,2.016-1.766,0-1.727-2.016-1.727ZM16.088-5.773a2.142,2.142,0,0,0-1.039-.242,1.5,1.5,0,0,0-1.258.59,2.573,2.573,0,0,0-.453,1.605V0H10.869V-8h2.469v1.484h.031a2.136,2.136,0,0,1,2.109-1.625,1.59,1.59,0,0,1,.609.094ZM18.55-9.266a1.442,1.442,0,0,1-1.023-.371,1.2,1.2,0,0,1-.4-.91,1.153,1.153,0,0,1,.4-.906A1.49,1.49,0,0,1,18.55-11.8a1.486,1.486,0,0,1,1.027.352,1.158,1.158,0,0,1,.395.906,1.191,1.191,0,0,1-.395.922A1.466,1.466,0,0,1,18.55-9.266ZM19.769,0H17.3V-8h2.469ZM34.552,0H32.091V-4.562q0-1.742-1.281-1.742a1.177,1.177,0,0,0-.992.523,2.151,2.151,0,0,0-.383,1.3V0H26.966V-4.609q0-1.7-1.258-1.7a1.206,1.206,0,0,0-1.012.5,2.2,2.2,0,0,0-.379,1.359V0H21.849V-8h2.469v1.25h.031a2.952,2.952,0,0,1,1.074-1.043,2.952,2.952,0,0,1,1.512-.4A2.3,2.3,0,0,1,29.255-6.7,2.959,2.959,0,0,1,31.942-8.2q2.609,0,2.609,3.219Zm9.142-3.3H38.475q.125,1.742,2.2,1.742a4.286,4.286,0,0,0,2.32-.625V-.4A6.1,6.1,0,0,1,40.108.2,4.058,4.058,0,0,1,37.1-.879a4.058,4.058,0,0,1-1.07-3,4.281,4.281,0,0,1,1.156-3.156A3.852,3.852,0,0,1,40.03-8.2a3.5,3.5,0,0,1,2.707,1.039,4,4,0,0,1,.957,2.82ZM41.4-4.812q0-1.719-1.391-1.719a1.328,1.328,0,0,0-1.027.492,2.234,2.234,0,0,0-.527,1.227Zm8.978-.961a2.142,2.142,0,0,0-1.039-.242,1.5,1.5,0,0,0-1.258.59,2.573,2.573,0,0,0-.453,1.605V0H45.164V-8h2.469v1.484h.031a2.136,2.136,0,0,1,2.109-1.625,1.59,1.59,0,0,1,.609.094ZM55.283.2A4.3,4.3,0,0,1,52.139-.926a4.064,4.064,0,0,1-1.145-3.043,4.065,4.065,0,0,1,1.188-3.105A4.487,4.487,0,0,1,55.392-8.2a4.249,4.249,0,0,1,3.125,1.121A3.985,3.985,0,0,1,59.65-4.109,4.23,4.23,0,0,1,58.482-.961,4.348,4.348,0,0,1,55.283.2Zm.063-6.5a1.647,1.647,0,0,0-1.359.6A2.653,2.653,0,0,0,53.5-4q0,2.3,1.859,2.3,1.773,0,1.773-2.367Q57.135-6.3,55.346-6.3Z" transform="translate(790.584 7909.846)" fill="#212429"/>
      <g id="Trazado_1066601" data-name="Trazado 1066601" transform="translate(910.584 7755.629)" fill="#fff">
        <path d="M 114 39.5 L 20 39.5 C 17.36730003356934 39.5 14.81359958648682 38.98450088500977 12.40986633300781 37.96780014038086 C 10.08788299560547 36.98568344116211 8.002416610717773 35.57958221435547 6.211416721343994 33.78858184814453 C 4.420416831970215 31.99758338928223 3.014316558837891 29.91211700439453 2.03220009803772 27.59013366699219 C 1.015499949455261 25.18639945983887 0.5 22.63269996643066 0.5 20 C 0.5 17.36730003356934 1.015499949455261 14.81359958648682 2.03220009803772 12.40986633300781 C 3.014316558837891 10.08788299560547 4.420416831970215 8.002416610717773 6.211416721343994 6.211416721343994 C 8.002416610717773 4.420416831970215 10.08788299560547 3.014316558837891 12.40986633300781 2.03220009803772 C 14.81359958648682 1.015499949455261 17.36730003356934 0.5 20 0.5 L 114 0.5 C 116.632698059082 0.5 119.1864013671875 1.015499949455261 121.5901336669922 2.03220009803772 C 123.9121170043945 3.014316558837891 125.9975814819336 4.420416831970215 127.7885818481445 6.211416721343994 C 129.57958984375 8.002416610717773 130.9856872558594 10.08788299560547 131.9678039550781 12.40986633300781 C 132.9844970703125 14.81359958648682 133.5 17.36730003356934 133.5 20 C 133.5 22.63269996643066 132.9844970703125 25.18639945983887 131.9678039550781 27.59013366699219 C 130.9856872558594 29.91211700439453 129.57958984375 31.99758338928223 127.7885818481445 33.78858184814453 C 125.9975814819336 35.57958221435547 123.9121170043945 36.98568344116211 121.5901336669922 37.96780014038086 C 119.1864013671875 38.98450088500977 116.632698059082 39.5 114 39.5 Z" stroke="none"/>
        <path d="M 20 1 C 17.43458557128906 1 14.94641876220703 1.502216339111328 12.60465240478516 2.492710113525391 C 10.34226989746094 3.449619293212891 8.310218811035156 4.819728851318359 6.564964294433594 6.564964294433594 C 4.819732666015625 8.310218811035156 3.449615478515625 10.34227180480957 2.492706298828125 12.60465431213379 C 1.502212524414062 14.94641876220703 1 17.4345817565918 1 20 C 1 22.5654182434082 1.502212524414062 25.05358123779297 2.492706298828125 27.39534568786621 C 3.449615478515625 29.6577262878418 4.819732666015625 31.68978118896484 6.564964294433594 33.43503570556641 C 8.310218811035156 35.18027114868164 10.34226989746094 36.55038070678711 12.60465240478516 37.50728988647461 C 14.94641876220703 38.49778366088867 17.43458557128906 39 20 39 L 114 39 C 116.5654144287109 39 119.053581237793 38.49778366088867 121.3953475952148 37.50728988647461 C 123.6577301025391 36.55038070678711 125.6897811889648 35.18027114868164 127.4350357055664 33.43503570556641 C 129.1802673339844 31.68978118896484 130.5503845214844 29.6577262878418 131.5072937011719 27.39534568786621 C 132.4977874755859 25.05358123779297 133 22.5654182434082 133 20 C 133 17.4345817565918 132.4977874755859 14.94641876220703 131.5072937011719 12.60465431213379 C 130.5503845214844 10.34227180480957 129.1802673339844 8.310218811035156 127.4350357055664 6.564964294433594 C 125.6897811889648 4.819728851318359 123.6577301025391 3.449619293212891 121.3953475952148 2.492710113525391 C 119.053581237793 1.502216339111328 116.5654144287109 1 114 1 L 20 1 M 20 0 L 114 0 C 125.0456924438477 0 134 8.954309463500977 134 20 C 134 31.04569053649902 125.0456924438477 40 114 40 L 20 40 C 8.954307556152344 40 0 31.04569053649902 0 20 C 0 8.954309463500977 8.954307556152344 0 20 0 Z" stroke="none" fill="#1d7083"/>
      </g>
      <path id="Trazado_1066602" data-name="Trazado 1066602" d="M.766-.43v-2.5a4.8,4.8,0,0,0,1.477.855,4.746,4.746,0,0,0,1.609.285,3.569,3.569,0,0,0,.832-.086,1.949,1.949,0,0,0,.594-.238,1.039,1.039,0,0,0,.355-.359.9.9,0,0,0,.117-.449.971.971,0,0,0-.187-.586,2.018,2.018,0,0,0-.512-.477,5.347,5.347,0,0,0-.77-.422q-.445-.2-.961-.414A4.9,4.9,0,0,1,1.363-6.156,2.917,2.917,0,0,1,.719-8.062a3.036,3.036,0,0,1,.352-1.5A2.986,2.986,0,0,1,2.027-10.6a4.291,4.291,0,0,1,1.4-.6,7.206,7.206,0,0,1,1.688-.191,10.15,10.15,0,0,1,1.551.105,6.1,6.1,0,0,1,1.246.324v2.336A3.768,3.768,0,0,0,7.3-8.969a4.859,4.859,0,0,0-.684-.246,5.214,5.214,0,0,0-.7-.145,4.949,4.949,0,0,0-.66-.047,3.443,3.443,0,0,0-.781.082,2,2,0,0,0-.594.23,1.147,1.147,0,0,0-.375.355.843.843,0,0,0-.133.465.888.888,0,0,0,.148.5,1.7,1.7,0,0,0,.422.422,4.477,4.477,0,0,0,.664.391q.391.191.883.395a9.837,9.837,0,0,1,1.207.6,4.291,4.291,0,0,1,.918.715,2.785,2.785,0,0,1,.586.91,3.216,3.216,0,0,1,.2,1.191,3.191,3.191,0,0,1-.355,1.574A2.886,2.886,0,0,1,7.086-.543,4.184,4.184,0,0,1,5.668.023,8.2,8.2,0,0,1,3.961.2,9.492,9.492,0,0,1,2.207.039,5.3,5.3,0,0,1,.766-.43ZM17.2-3.3H11.978q.125,1.742,2.2,1.742a4.286,4.286,0,0,0,2.32-.625V-.4A6.1,6.1,0,0,1,13.611.2,4.058,4.058,0,0,1,10.6-.879a4.058,4.058,0,0,1-1.07-3,4.281,4.281,0,0,1,1.156-3.156A3.852,3.852,0,0,1,13.533-8.2,3.5,3.5,0,0,1,16.24-7.156a4,4,0,0,1,.957,2.82ZM14.908-4.812q0-1.719-1.391-1.719a1.328,1.328,0,0,0-1.027.492,2.234,2.234,0,0,0-.527,1.227Zm11.6,3.9a4.526,4.526,0,0,1-1.289,3.449,5.224,5.224,0,0,1-3.734,1.223A5.919,5.919,0,0,1,18.925,3.3V1.219a4.907,4.907,0,0,0,2.492.719,2.684,2.684,0,0,0,1.938-.66,2.369,2.369,0,0,0,.688-1.793v-.633h-.031A2.757,2.757,0,0,1,21.519.2a3,3,0,0,1-2.43-1.078,4.372,4.372,0,0,1-.9-2.891,4.87,4.87,0,0,1,1-3.227,3.265,3.265,0,0,1,2.633-1.2A2.429,2.429,0,0,1,24.011-7.07h.031V-8h2.469Zm-2.437-2.93v-.633a1.945,1.945,0,0,0-.449-1.293A1.453,1.453,0,0,0,22.456-6.3a1.51,1.51,0,0,0-1.289.641,3.012,3.012,0,0,0-.469,1.8,2.543,2.543,0,0,0,.445,1.582,1.451,1.451,0,0,0,1.219.582,1.511,1.511,0,0,0,1.238-.59A2.418,2.418,0,0,0,24.074-3.844ZM36.177,0H33.716V-1.219h-.039A2.792,2.792,0,0,1,31.231.2Q28.45.2,28.45-3.172V-8h2.461v4.609q0,1.7,1.344,1.7a1.329,1.329,0,0,0,1.063-.465,1.874,1.874,0,0,0,.4-1.262V-8h2.461Zm9.806,0H43.522V-4.445q0-1.859-1.328-1.859a1.318,1.318,0,0,0-1.055.492,1.875,1.875,0,0,0-.414,1.25V0H38.256V-8h2.469v1.266h.031A2.829,2.829,0,0,1,43.327-8.2q2.656,0,2.656,3.3Zm9.783,0H53.3V-1.1h-.031A2.768,2.768,0,0,1,50.789.2,3.033,3.033,0,0,1,48.375-.863a4.382,4.382,0,0,1-.914-2.957A4.77,4.77,0,0,1,48.469-7,3.287,3.287,0,0,1,51.11-8.2a2.246,2.246,0,0,1,2.156,1.109H53.3v-4.758h2.469ZM53.344-3.891v-.6a1.893,1.893,0,0,0-.453-1.3,1.5,1.5,0,0,0-1.18-.516,1.487,1.487,0,0,0-1.281.645,2.993,2.993,0,0,0-.461,1.77,2.59,2.59,0,0,0,.445,1.625,1.479,1.479,0,0,0,1.234.57,1.485,1.485,0,0,0,1.223-.6A2.507,2.507,0,0,0,53.344-3.891ZM61.658.2A4.3,4.3,0,0,1,58.514-.926a4.064,4.064,0,0,1-1.145-3.043,4.065,4.065,0,0,1,1.188-3.105A4.487,4.487,0,0,1,61.767-8.2a4.249,4.249,0,0,1,3.125,1.121,3.985,3.985,0,0,1,1.133,2.965A4.23,4.23,0,0,1,64.857-.961,4.348,4.348,0,0,1,61.658.2Zm.063-6.5a1.647,1.647,0,0,0-1.359.6A2.653,2.653,0,0,0,59.877-4q0,2.3,1.859,2.3,1.773,0,1.773-2.367Q63.51-6.3,61.721-6.3Z" transform="translate(957.584 7781.629)" fill="#212429"/>
      <path id="Trazado_1066596" data-name="Trazado 1066596" d="M9.148-9.148h-3.2V0H3.422V-9.148H.242V-11.2H9.148ZM16.166-3.3H10.947q.125,1.742,2.2,1.742a4.286,4.286,0,0,0,2.32-.625V-.4A6.1,6.1,0,0,1,12.58.2,4.058,4.058,0,0,1,9.572-.879a4.058,4.058,0,0,1-1.07-3A4.281,4.281,0,0,1,9.658-7.031,3.852,3.852,0,0,1,12.5-8.2a3.5,3.5,0,0,1,2.707,1.039,4,4,0,0,1,.957,2.82ZM13.877-4.812q0-1.719-1.391-1.719a1.328,1.328,0,0,0-1.027.492,2.234,2.234,0,0,0-.527,1.227Zm8.978-.961a2.142,2.142,0,0,0-1.039-.242,1.5,1.5,0,0,0-1.258.59A2.573,2.573,0,0,0,20.1-3.82V0H17.636V-8H20.1v1.484h.031a2.136,2.136,0,0,1,2.109-1.625,1.59,1.59,0,0,1,.609.094ZM30-.289A4.881,4.881,0,0,1,27.591.2,4.083,4.083,0,0,1,24.606-.922,3.859,3.859,0,0,1,23.466-3.8,4.251,4.251,0,0,1,24.688-7.02,4.518,4.518,0,0,1,27.958-8.2,4.2,4.2,0,0,1,30-7.82v2.094A2.814,2.814,0,0,0,28.278-6.3a2.275,2.275,0,0,0-1.684.621,2.317,2.317,0,0,0-.621,1.715A2.28,2.28,0,0,0,26.567-2.3,2.182,2.182,0,0,0,28.2-1.7,3.258,3.258,0,0,0,30-2.273ZM38.811-3.3H33.592q.125,1.742,2.2,1.742a4.286,4.286,0,0,0,2.32-.625V-.4A6.1,6.1,0,0,1,35.225.2,4.058,4.058,0,0,1,32.217-.879a4.058,4.058,0,0,1-1.07-3A4.281,4.281,0,0,1,32.3-7.031,3.852,3.852,0,0,1,35.147-8.2a3.5,3.5,0,0,1,2.707,1.039,4,4,0,0,1,.957,2.82ZM36.522-4.812q0-1.719-1.391-1.719a1.328,1.328,0,0,0-1.027.492,2.234,2.234,0,0,0-.527,1.227ZM45.5-5.773a2.142,2.142,0,0,0-1.039-.242,1.5,1.5,0,0,0-1.258.59A2.573,2.573,0,0,0,42.75-3.82V0H40.281V-8H42.75v1.484h.031a2.136,2.136,0,0,1,2.109-1.625,1.59,1.59,0,0,1,.609.094ZM50.4.2A4.3,4.3,0,0,1,47.256-.926a4.064,4.064,0,0,1-1.145-3.043A4.065,4.065,0,0,1,47.3-7.074,4.487,4.487,0,0,1,50.51-8.2a4.249,4.249,0,0,1,3.125,1.121,3.985,3.985,0,0,1,1.133,2.965A4.23,4.23,0,0,1,53.6-.961,4.348,4.348,0,0,1,50.4.2Zm.063-6.5a1.647,1.647,0,0,0-1.359.6A2.653,2.653,0,0,0,48.619-4q0,2.3,1.859,2.3,1.773,0,1.773-2.367Q52.252-6.3,50.463-6.3Z" transform="translate(572.584 7665.547)" fill="#212429"/>
      <g id="Trazado_1066597" data-name="Trazado 1066597" transform="translate(461.584 7738.547)" fill="#fff">
        <path d="M 95 39.5 L 20 39.5 C 17.3672924041748 39.5 14.8136157989502 38.98449325561523 12.40987682342529 37.96780014038086 C 10.08789253234863 36.98567581176758 8.00243091583252 35.57958602905273 6.21141529083252 33.7885856628418 C 4.42041540145874 31.9975700378418 3.014322996139526 29.91210746765137 2.03220009803772 27.59012222290039 C 1.015507698059082 25.1863842010498 0.5 22.6327075958252 0.5 20 C 0.5 17.3672924041748 1.015507698059082 14.8136157989502 2.03220009803772 12.40987682342529 C 3.014322996139526 10.08789253234863 4.42041540145874 8.00243091583252 6.21141529083252 6.21141529083252 C 8.00243091583252 4.42041540145874 10.08789253234863 3.014322996139526 12.40987682342529 2.03220009803772 C 14.8136157989502 1.015507698059082 17.3672924041748 0.5 20 0.5 L 95 0.5 C 97.63270568847656 0.5 100.1863861083984 1.015507698059082 102.5901260375977 2.03220009803772 C 104.912109375 3.014322996139526 106.9975662231445 4.42041540145874 108.7885818481445 6.21141529083252 C 110.5795822143555 8.00243091583252 111.9856796264648 10.08789253234863 112.9677963256836 12.40987682342529 C 113.984489440918 14.8136157989502 114.5 17.3672924041748 114.5 20 C 114.5 22.6327075958252 113.984489440918 25.1863842010498 112.9677963256836 27.59012222290039 C 111.9856796264648 29.91210746765137 110.5795822143555 31.9975700378418 108.7885818481445 33.7885856628418 C 106.9975662231445 35.57958602905273 104.912109375 36.98567581176758 102.5901260375977 37.96780014038086 C 100.1863861083984 38.98449325561523 97.63270568847656 39.5 95 39.5 Z" stroke="none"/>
        <path d="M 20 1 C 17.4345703125 1 14.94641876220703 1.502216339111328 12.60464477539062 2.492706298828125 C 10.34226226806641 3.449615478515625 8.310218811035156 4.819721221923828 6.564971923828125 6.564968109130859 C 4.819725036621094 8.310214996337891 3.449615478515625 10.34226226806641 2.492706298828125 12.60464668273926 C 1.502212524414062 14.94641494750977 1 17.43456840515137 1 20 C 1 22.56543159484863 1.502212524414062 25.05358505249023 2.492706298828125 27.39535522460938 C 3.449615478515625 29.65773773193359 4.819725036621094 31.68978500366211 6.564971923828125 33.43503189086914 C 8.310218811035156 35.18027496337891 10.34226226806641 36.55038452148438 12.60464477539062 37.50729370117188 C 14.94641876220703 38.49778366088867 17.4345703125 39 20 39 L 95 39 C 97.5654296875 39 100.0535888671875 38.49778366088867 102.3953552246094 37.50729370117188 C 104.6577377319336 36.55038452148438 106.6897888183594 35.18027496337891 108.4350280761719 33.43503189086914 C 110.1802749633789 31.68978500366211 111.5503845214844 29.65773773193359 112.5072937011719 27.39535522460938 C 113.4977874755859 25.05358505249023 114 22.56543159484863 114 20 C 114 17.43456840515137 113.4977874755859 14.94641494750977 112.5072937011719 12.60464668273926 C 111.5503845214844 10.34226226806641 110.1802749633789 8.310214996337891 108.4350280761719 6.564968109130859 C 106.6897888183594 4.819721221923828 104.6577377319336 3.449615478515625 102.3953552246094 2.492706298828125 C 100.0535888671875 1.502216339111328 97.5654296875 1 95 1 L 20 1 M 20 0 L 95 0 C 106.0456924438477 0 115 8.954307556152344 115 20 C 115 31.04569244384766 106.0456924438477 40 95 40 L 20 40 C 8.954307556152344 40 0 31.04569244384766 0 20 C 0 8.954307556152344 8.954307556152344 0 20 0 Z" stroke="none" fill="#1d7083"/>
      </g>
      <path id="Trazado_1066598" data-name="Trazado 1066598" d="M9.313-.4A7.388,7.388,0,0,1,6.109.2,5.4,5.4,0,0,1,2.055-1.32,5.54,5.54,0,0,1,.578-5.359a5.919,5.919,0,0,1,1.66-4.359,5.807,5.807,0,0,1,4.309-1.672,8.058,8.058,0,0,1,2.766.414v2.43A4.9,4.9,0,0,0,6.75-9.219,3.4,3.4,0,0,0,4.2-8.227a3.682,3.682,0,0,0-.969,2.688,3.611,3.611,0,0,0,.914,2.59,3.229,3.229,0,0,0,2.461.965,5.249,5.249,0,0,0,2.7-.719Zm9.314.4H16.166V-1.219h-.039A2.792,2.792,0,0,1,13.681.2Q10.9.2,10.9-3.172V-8h2.461v4.609q0,1.7,1.344,1.7a1.329,1.329,0,0,0,1.063-.465,1.874,1.874,0,0,0,.4-1.262V-8h2.461Zm8.736,0H25.027V-1.148H25A2.607,2.607,0,0,1,22.613.2a2.492,2.492,0,0,1-1.832-.66,2.366,2.366,0,0,1-.668-1.762q0-2.328,2.758-2.687L25.042-5.2q0-1.312-1.422-1.312a4.853,4.853,0,0,0-2.719.852V-7.523a6.116,6.116,0,0,1,1.41-.469,7.413,7.413,0,0,1,1.629-.2q3.422,0,3.422,3.414Zm-2.32-3.25v-.539L23.589-3.6q-1.2.156-1.2,1.086a.9.9,0,0,0,.293.691,1.126,1.126,0,0,0,.793.27,1.462,1.462,0,0,0,1.133-.48A1.735,1.735,0,0,0,25.042-3.25Zm9.494-2.523A2.142,2.142,0,0,0,33.5-6.016a1.5,1.5,0,0,0-1.258.59,2.573,2.573,0,0,0-.453,1.605V0H29.317V-8h2.469v1.484h.031a2.136,2.136,0,0,1,2.109-1.625,1.59,1.59,0,0,1,.609.094Zm6.447,5.68A3.649,3.649,0,0,1,39.335.2q-2.609,0-2.609-2.711V-6.18h-1.3V-8h1.3V-9.727l2.461-.7V-8h1.8v1.82h-1.8v3.234q0,1.25.992,1.25a1.673,1.673,0,0,0,.8-.227ZM46.125.2A4.3,4.3,0,0,1,42.981-.926a4.064,4.064,0,0,1-1.145-3.043,4.065,4.065,0,0,1,1.188-3.105A4.487,4.487,0,0,1,46.235-8.2,4.249,4.249,0,0,1,49.36-7.074a3.985,3.985,0,0,1,1.133,2.965A4.23,4.23,0,0,1,49.324-.961,4.348,4.348,0,0,1,46.125.2Zm.063-6.5a1.647,1.647,0,0,0-1.359.6A2.653,2.653,0,0,0,44.344-4q0,2.3,1.859,2.3,1.773,0,1.773-2.367Q47.977-6.3,46.188-6.3Z" transform="translate(478.584 7764.547)" fill="#212429"/>
    </g>
  </g>
</svg>
