<svg xmlns="http://www.w3.org/2000/svg" xmlns:xlink="http://www.w3.org/1999/xlink" width="108" height="108" viewBox="0 0 108 108">
  <defs>
    <filter id="Trazado_904820" x="0" y="0" width="108" height="108" filterUnits="userSpaceOnUse">
      <feOffset dy="3" input="SourceAlpha"/>
      <feGaussianBlur stdDeviation="3" result="blur"/>
      <feFlood flood-opacity="0.161"/>
      <feComposite operator="in" in2="blur"/>
      <feComposite in="SourceGraphic"/>
    </filter>
  </defs>
  <g id="Grupo_1230148" data-name="Grupo 1230148" transform="translate(-10479 -9641.292)">
    <g id="Grupo_1173585" data-name="Grupo 1173585" transform="translate(10488 9647.292)">
      <g id="Grupo_1173428" data-name="Grupo 1173428">
        <g id="Grupo_1171958" data-name="Grupo 1171958">
          <g id="Grupo_1167341" data-name="Grupo 1167341">
            <g id="Grupo_1166792" data-name="Grupo 1166792">
              <g transform="matrix(1, 0, 0, 1, -9, -6)" filter="url(#Trazado_904820)">
                <g id="Trazado_904820-2" data-name="Trazado 904820" transform="translate(9 6)" fill="#e5ebfb">
                  <path d="M 44.99996948242188 88.50004577636719 C 39.12684631347656 88.50004577636719 33.43020629882812 87.35012054443359 28.06828117370605 85.08220672607422 C 22.88851928710938 82.891357421875 18.23629379272461 79.75463104248047 14.2408447265625 75.75917816162109 C 10.24540710449219 71.76373291015625 7.108694553375244 67.11149597167969 4.917831897735596 61.93173217773438 C 2.649931907653809 56.56979370117188 1.500007033348083 50.87314224243164 1.500007033348083 45.00001907348633 C 1.500007033348083 39.12689590454102 2.649931907653809 33.43024444580078 4.917831897735596 28.06830596923828 C 7.108694553375244 22.88853073120117 10.24540710449219 18.23630714416504 14.2408447265625 14.24086952209473 C 18.23629379272461 10.2454195022583 22.88850784301758 7.108694076538086 28.06828117370605 4.917831420898438 C 33.43020629882812 2.649931669235229 39.12684631347656 1.500006556510925 44.99996948242188 1.500006556510925 C 50.87309265136719 1.500006556510925 56.56973266601562 2.649931669235229 61.93165588378906 4.917831420898438 C 67.11143493652344 7.108694076538086 71.76364135742188 10.2454195022583 75.75909423828125 14.24086952209473 C 79.75454711914062 18.23630714416504 82.89125823974609 22.88853073120117 85.08212280273438 28.06830596923828 C 87.35002136230469 33.43024444580078 88.49994659423828 39.12689590454102 88.49994659423828 45.00001907348633 C 88.49994659423828 50.87314224243164 87.35002136230469 56.56979370117188 85.08212280273438 61.93173217773438 C 82.89125823974609 67.11149597167969 79.75454711914062 71.76371765136719 75.75909423828125 75.75917816162109 C 71.76364135742188 79.75463104248047 67.11143493652344 82.891357421875 61.93165588378906 85.08220672607422 C 56.56973266601562 87.35012054443359 50.87309265136719 88.50004577636719 44.99996948242188 88.50004577636719 Z" stroke="none"/>
                  <path d="M 44.99996948242188 3.000007629394531 C 39.32868194580078 3.000007629394531 33.82863998413086 4.110061645507812 28.65261077880859 6.299346923828125 C 23.65164184570312 8.414573669433594 19.15968322753906 11.44334411621094 15.30149841308594 15.30152130126953 C 11.44332885742188 19.15969085693359 8.414566040039062 23.65166473388672 6.299324035644531 28.65263366699219 C 4.110054016113281 33.82867431640625 3 39.32873153686523 3 45.00001907348633 C 3 50.67130661010742 4.110054016113281 56.17136383056641 6.299324035644531 61.34738922119141 C 8.414566040039062 66.34837341308594 11.44332885742188 70.84033203125 15.301513671875 74.69851684570312 C 19.15968322753906 78.55668640136719 23.65164184570312 81.58546447753906 28.65261077880859 83.70069122314453 C 33.82863998413086 85.88997650146484 39.32868194580078 87.00003051757812 44.99996948242188 87.00003051757812 C 50.67125701904297 87.00003051757812 56.17129898071289 85.88997650146484 61.34732818603516 83.70069122314453 C 66.34829711914062 81.58546447753906 70.84025573730469 78.55668640136719 74.69842529296875 74.69851684570312 C 78.55661010742188 70.84033203125 81.58537292480469 66.34837341308594 83.70061492919922 61.34738922119141 C 85.88988494873047 56.17136383056641 86.99993896484375 50.67130661010742 86.99993896484375 45.00001907348633 C 86.99993896484375 39.32873153686523 85.88988494873047 33.82867431640625 83.70061492919922 28.65263366699219 C 81.58537292480469 23.65166473388672 78.55661010742188 19.15969085693359 74.69844055175781 15.30152130126953 C 70.84025573730469 11.44334411621094 66.34829711914062 8.414573669433594 61.34732818603516 6.299346923828125 C 56.17129898071289 4.110061645507812 50.67125701904297 3.000007629394531 44.99996948242188 3.000007629394531 M 44.99996948242188 7.62939453125e-06 C 69.85276794433594 7.62939453125e-06 89.99993896484375 20.14719390869141 89.99993896484375 45.00001907348633 C 89.99993896484375 69.85282897949219 69.85276794433594 90.00003051757812 44.99996948242188 90.00003051757812 C 20.14717102050781 90.00003051757812 0 69.85282897949219 0 45.00001907348633 C 0 20.14719390869141 20.14717102050781 7.62939453125e-06 44.99996948242188 7.62939453125e-06 Z" stroke="none" fill="#0b47db"/>
                </g>
              </g>
            </g>
          </g>
        </g>
      </g>
    </g>
    <g id="Grupo_1230148-2" data-name="Grupo 1230148" transform="translate(0 3)">
      <path id="Trazado_1064461" data-name="Trazado 1064461" d="M28.657,99.409H9.445A1.945,1.945,0,0,1,7.5,97.463V62.445A1.945,1.945,0,0,1,9.445,60.5H28.657A1.945,1.945,0,0,1,30.6,62.445V97.463A1.945,1.945,0,0,1,28.657,99.409Z" transform="translate(10495.284 9608.021)" fill="#eaf6ff"/>
      <path id="Trazado_1064462" data-name="Trazado 1064462" d="M155.148,60.5H151.5a1.945,1.945,0,0,1,1.945,1.945V97.463a1.945,1.945,0,0,1-1.945,1.945h3.648a1.945,1.945,0,0,0,1.945-1.945V62.445A1.945,1.945,0,0,0,155.148,60.5Z" transform="translate(10368.793 9608.021)" fill="#d8ecfe"/>
      <path id="Trazado_1064463" data-name="Trazado 1064463" d="M60.841,263.036H49.29a.791.791,0,0,1-.79-.79v-9.362a.791.791,0,0,1,.79-.79H60.841a.791.791,0,0,1,.79.79v9.362A.791.791,0,0,1,60.841,263.036Z" transform="translate(10459.27 9439.724)" fill="#fdb441"/>
      <path id="Trazado_1064464" data-name="Trazado 1064464" d="M123.647,252.093H120a.791.791,0,0,1,.79.79v9.362a.791.791,0,0,1-.79.79h3.648a.791.791,0,0,0,.79-.79v-9.362A.79.79,0,0,0,123.647,252.093Z" transform="translate(10396.464 9439.724)" fill="#fe9738"/>
      <path id="Trazado_1064465" data-name="Trazado 1064465" d="M59.565,150.421h-9a2.067,2.067,0,1,1,0-4.134h9a2.067,2.067,0,1,1,0,4.134Z" transform="translate(10459.27 9532.665)" fill="#fe7ab6"/>
      <path id="Trazado_1064466" data-name="Trazado 1064466" d="M113.148,146.287H109.5a2.067,2.067,0,0,1,0,4.134h3.648a2.067,2.067,0,0,0,0-4.134Z" transform="translate(10405.687 9532.665)" fill="#fe5ca7"/>
      <path id="Trazado_1064467" data-name="Trazado 1064467" d="M335.657,99.409H316.445a1.945,1.945,0,0,1-1.945-1.945V62.445a1.945,1.945,0,0,1,1.945-1.945h19.211a1.945,1.945,0,0,1,1.945,1.945V97.463A1.945,1.945,0,0,1,335.657,99.409Z" transform="translate(10225.612 9608.021)" fill="#eaf6ff"/>
      <path id="Trazado_1064468" data-name="Trazado 1064468" d="M462.148,60.5H458.5a1.945,1.945,0,0,1,1.945,1.945V97.463a1.945,1.945,0,0,1-1.945,1.945h3.648a1.945,1.945,0,0,0,1.945-1.945V62.445A1.945,1.945,0,0,0,462.148,60.5Z" transform="translate(10099.121 9608.021)" fill="#d8ecfe"/>
      <path id="Trazado_1064469" data-name="Trazado 1064469" d="M367.841,263.036H356.29a.791.791,0,0,1-.79-.79v-9.362a.791.791,0,0,1,.79-.79h11.551a.791.791,0,0,1,.79.79v9.362A.791.791,0,0,1,367.841,263.036Z" transform="translate(10189.598 9439.724)" fill="#fdb441"/>
      <path id="Trazado_1064470" data-name="Trazado 1064470" d="M430.647,252.093H427a.791.791,0,0,1,.79.79v9.362a.791.791,0,0,1-.79.79h3.648a.791.791,0,0,0,.79-.79v-9.362A.79.79,0,0,0,430.647,252.093Z" transform="translate(10126.792 9439.724)" fill="#fe9738"/>
      <path id="Trazado_1064471" data-name="Trazado 1064471" d="M367.841,124.8H356.29a.791.791,0,0,1-.79-.79v-9.362a.791.791,0,0,1,.79-.79h11.551a.791.791,0,0,1,.79.79V124A.79.79,0,0,1,367.841,124.8Z" transform="translate(10189.598 9561.156)" fill="#6c7fd8"/>
      <path id="Trazado_1064472" data-name="Trazado 1064472" d="M430.647,113.852H427a.791.791,0,0,1,.79.79V124a.791.791,0,0,1-.79.79h3.648a.791.791,0,0,0,.79-.79v-9.362A.791.791,0,0,0,430.647,113.852Z" transform="translate(10126.792 9561.156)" fill="#4f66d0"/>
      <g id="Grupo_1229459" data-name="Grupo 1229459" transform="translate(10501.873 9667.609)">
        <path id="Trazado_1064473" data-name="Trazado 1064473" d="M41,246.3v9.362a1.7,1.7,0,0,0,1.7,1.7H54.253a1.7,1.7,0,0,0,1.7-1.7V246.3a1.7,1.7,0,0,0-1.7-1.7H42.7A1.7,1.7,0,0,0,41,246.3Zm1.824.121H54.132v9.119H42.824Z" transform="translate(-36.015 -221.297)"/>
        <path id="Trazado_1064474" data-name="Trazado 1064474" d="M77.31,278.083h3.283a.912.912,0,0,0,0-1.824H77.31A.912.912,0,0,0,77.31,278.083Z" transform="translate(-67.114 -249.113)"/>
        <path id="Trazado_1064475" data-name="Trazado 1064475" d="M82.5,302.926H77.31a.912.912,0,0,0,0,1.824H82.5A.912.912,0,0,0,82.5,302.926Z" transform="translate(-67.115 -272.538)"/>
        <path id="Trazado_1064476" data-name="Trazado 1064476" d="M60.367,86.369h4.269a.912.912,0,0,0,0-1.824H60.367A.912.912,0,0,0,60.367,86.369Z" transform="translate(-52.232 -80.709)"/>
        <path id="Trazado_1064477" data-name="Trazado 1064477" d="M60.367,113.49h8.655a.912.912,0,0,0,0-1.824H60.367a.912.912,0,0,0,0,1.824Z" transform="translate(-52.232 -104.533)"/>
        <path id="Trazado_1064478" data-name="Trazado 1064478" d="M69.022,206.195a.912.912,0,0,0,0-1.824H60.367a.912.912,0,0,0,0,1.824Z" transform="translate(-52.232 -185.966)"/>
        <path id="Trazado_1064479" data-name="Trazado 1064479" d="M331.014,61.957a.912.912,0,0,0,.912-.912V55.857A2.861,2.861,0,0,0,329.069,53H309.857A2.861,2.861,0,0,0,307,55.857V90.875a2.861,2.861,0,0,0,2.857,2.857h19.211a2.861,2.861,0,0,0,2.857-2.857v-25.8a.912.912,0,0,0-1.824,0v25.8a1.035,1.035,0,0,1-1.034,1.034H309.857a1.035,1.035,0,0,1-1.034-1.034V55.857a1.035,1.035,0,0,1,1.034-1.034h19.211a1.035,1.035,0,0,1,1.034,1.034v5.188A.912.912,0,0,0,331.014,61.957Z" transform="translate(-269.672 -53)"/>
        <path id="Trazado_1064480" data-name="Trazado 1064480" d="M361.253,244.593H349.7a1.7,1.7,0,0,0-1.7,1.7v9.362a1.7,1.7,0,0,0,1.7,1.7h11.551a1.7,1.7,0,0,0,1.7-1.7V246.3A1.7,1.7,0,0,0,361.253,244.593Zm-.121,10.943H349.824v-9.119h11.308Z" transform="translate(-305.687 -221.297)"/>
        <path id="Trazado_1064481" data-name="Trazado 1064481" d="M362.956,108.054a1.7,1.7,0,0,0-1.7-1.7H349.7a1.7,1.7,0,0,0-1.7,1.7v9.362a1.7,1.7,0,0,0,1.7,1.7h11.551a1.7,1.7,0,0,0,1.7-1.7Zm-1.824,9.241H349.824v-9.119h11.308Z" transform="translate(-305.687 -99.865)"/>
        <path id="Trazado_1064482" data-name="Trazado 1064482" d="M384.31,278.083h3.283a.912.912,0,0,0,0-1.824H384.31A.912.912,0,0,0,384.31,278.083Z" transform="translate(-336.786 -249.113)"/>
        <path id="Trazado_1064483" data-name="Trazado 1064483" d="M384.31,304.75H389.5a.912.912,0,0,0,0-1.824H384.31A.912.912,0,0,0,384.31,304.75Z" transform="translate(-336.786 -272.538)"/>
        <path id="Trazado_1064484" data-name="Trazado 1064484" d="M50.615,95.094a.912.912,0,0,0-1.29.038l-2.061,2.189a.912.912,0,1,0,1.328,1.25l.592-.628v1.788a.812.812,0,0,1-.811.811H13.882a.812.812,0,0,1-.811-.811v-6h9a2.861,2.861,0,0,0,2.857-2.857V67.322h8.665l-.735.778a.912.912,0,0,0,1.326,1.253l2.189-2.316a.912.912,0,0,0-.038-1.29l-2.189-2.061a.912.912,0,0,0-1.25,1.328l.515.485H24.926v-9.64A2.861,2.861,0,0,0,22.069,53H2.857A2.861,2.861,0,0,0,0,55.857V82.1a.912.912,0,0,0,1.824,0V55.857a1.035,1.035,0,0,1,1.034-1.034H22.069A1.035,1.035,0,0,1,23.1,55.857V65.5H19.8a2.984,2.984,0,0,0-2.836-2.067h-9a2.979,2.979,0,0,0,0,5.958h9A2.984,2.984,0,0,0,19.8,67.322h3.3V90.875a1.035,1.035,0,0,1-1.034,1.034H2.857a1.035,1.035,0,0,1-1.034-1.034V86.052a.912.912,0,0,0-1.824,0v4.823a2.861,2.861,0,0,0,2.857,2.857h8.39v6a2.638,2.638,0,0,0,2.634,2.634H48.372a2.638,2.638,0,0,0,2.634-2.634V97.974l.672.635a.912.912,0,1,0,1.253-1.326ZM16.962,67.565h-9a1.155,1.155,0,0,1,0-2.31h9A1.155,1.155,0,0,1,16.962,67.565Z" transform="translate(0 -53)"/>
      </g>
    </g>
  </g>
</svg>
