<svg xmlns="http://www.w3.org/2000/svg" xmlns:xlink="http://www.w3.org/1999/xlink" width="108" height="108" viewBox="0 0 108 108">
  <defs>
    <filter id="Trazado_904820" x="0" y="0" width="108" height="108" filterUnits="userSpaceOnUse">
      <feOffset dy="3" input="SourceAlpha"/>
      <feGaussianBlur stdDeviation="3" result="blur"/>
      <feFlood flood-opacity="0.161"/>
      <feComposite operator="in" in2="blur"/>
      <feComposite in="SourceGraphic"/>
    </filter>
  </defs>
  <g id="Grupo_1230141" data-name="Grupo 1230141" transform="translate(-620 -864.924)">
    <g id="Grupo_1229189" data-name="Grupo 1229189" transform="translate(629 870.924)">
      <g id="Grupo_1173585" data-name="Grupo 1173585" transform="translate(0 0)">
        <g id="Grupo_1173428" data-name="Grupo 1173428">
          <g id="Grupo_1171958" data-name="Grupo 1171958">
            <g id="Grupo_1167341" data-name="Grupo 1167341">
              <g id="Grupo_1166792" data-name="Grupo 1166792">
                <g transform="matrix(1, 0, 0, 1, -9, -6)" filter="url(#Trazado_904820)">
                  <g id="Trazado_904820-2" data-name="Trazado 904820" transform="translate(9 6)" fill="#e5fdfa">
                    <path d="M 44.99999618530273 88.5 C 39.12687301635742 88.5 33.43022155761719 87.35008239746094 28.06829643249512 85.08216857910156 C 22.88852119445801 82.89131927490234 18.23629570007324 79.75459289550781 14.24084663391113 75.75914001464844 C 10.24540901184082 71.76369476318359 7.108683586120605 67.11146545410156 4.917821407318115 61.93170547485352 C 2.649921178817749 56.56976699829102 1.499996185302734 50.87312698364258 1.499996185302734 45.00000381469727 C 1.499996185302734 39.12688064575195 2.649921178817749 33.43022918701172 4.917821407318115 28.06830406188965 C 7.108683586120605 22.88852882385254 10.24540901184082 18.23630332946777 14.24084663391113 14.24085426330566 C 18.23629570007324 10.24541664123535 22.88852119445801 7.108691215515137 28.06829643249512 4.917829036712646 C 33.43022155761719 2.64992880821228 39.12687301635742 1.500003814697266 44.99999618530273 1.500003814697266 C 50.87311935424805 1.500003814697266 56.56977081298828 2.64992880821228 61.93169784545898 4.917829036712646 C 67.11147308349609 7.108691215515137 71.76369476318359 10.24541664123535 75.75914764404297 14.24085426330566 C 79.75458526611328 18.23630332946777 82.89131164550781 22.88852882385254 85.08216857910156 28.06830406188965 C 87.35007476806641 33.43022918701172 88.5 39.12688064575195 88.5 45.00000381469727 C 88.5 50.87312698364258 87.35007476806641 56.56976699829102 85.08216857910156 61.93170547485352 C 82.89131164550781 67.11146545410156 79.75458526611328 71.76369476318359 75.75914764404297 75.75914001464844 C 71.76369476318359 79.75459289550781 67.11147308349609 82.89131927490234 61.93169784545898 85.08216857910156 C 56.56977081298828 87.35008239746094 50.87311935424805 88.5 44.99999618530273 88.5 Z" stroke="none"/>
                    <path d="M 44.99999618530273 3.000007629394531 C 39.32870864868164 3.000007629394531 33.82865142822266 4.110061645507812 28.65262603759766 6.299346923828125 C 23.65165710449219 8.414573669433594 19.15968322753906 11.44334411621094 15.301513671875 15.30152130126953 C 11.44333648681641 19.15969085693359 8.414566040039062 23.65166473388672 6.299339294433594 28.65263366699219 C 4.110054016113281 33.82865905761719 2.999992370605469 39.32871627807617 2.999992370605469 45.00000381469727 C 2.999992370605469 50.67129135131836 4.110054016113281 56.17133331298828 6.299339294433594 61.34737396240234 C 8.414566040039062 66.34834289550781 11.44333648681641 70.84030151367188 15.301513671875 74.698486328125 C 19.15968322753906 78.55666351318359 23.65165710449219 81.58543395996094 28.65262603759766 83.70066070556641 C 33.82865142822266 85.88994598388672 39.32870864868164 87 44.99999618530273 87 C 50.67128372192383 87 56.17134094238281 85.88994598388672 61.34736633300781 83.70066070556641 C 66.34834289550781 81.58543395996094 70.84030914306641 78.55666351318359 74.69847869873047 74.698486328125 C 78.55665588378906 70.84030151367188 81.58542633056641 66.34834289550781 83.70065307617188 61.34737396240234 C 85.88993835449219 56.17133331298828 87 50.67129135131836 87 45.00000381469727 C 87 39.32871627807617 85.88993835449219 33.82865905761719 83.70065307617188 28.65263366699219 C 81.58542633056641 23.65166473388672 78.55665588378906 19.15969085693359 74.69847869873047 15.30152130126953 C 70.84030914306641 11.44334411621094 66.34834289550781 8.414573669433594 61.34736633300781 6.299346923828125 C 56.17134094238281 4.110061645507812 50.67128372192383 3.000007629394531 44.99999618530273 3.000007629394531 M 44.99999618530273 7.62939453125e-06 C 69.85281372070312 7.62939453125e-06 90 20.14718627929688 90 45.00000381469727 C 90 69.85280609130859 69.85281372070312 90 44.99999618530273 90 C 20.14717864990234 90 -7.62939453125e-06 69.85280609130859 -7.62939453125e-06 45.00000381469727 C -7.62939453125e-06 20.14718627929688 20.14717864990234 7.62939453125e-06 44.99999618530273 7.62939453125e-06 Z" stroke="none" fill="#098576"/>
                  </g>
                </g>
              </g>
            </g>
          </g>
        </g>
      </g>
    </g>
    <g id="atom_3074134" transform="translate(620.465 882.895)">
      <g id="Grupo_1230137" data-name="Grupo 1230137" transform="translate(23.543 13.154)">
        <path id="Trazado_1066544" data-name="Trazado 1066544" d="M34.57,141.739c-5.124,0-8.7-1.534-10.245-4.452h0c-1.888-3.575-.333-8.507,4.377-13.885,4.3-4.9,10.817-9.8,18.365-13.785s15.27-6.61,21.742-7.39c7.1-.856,12.048.642,13.935,4.217s.333,8.507-4.377,13.886c-4.3,4.9-10.817,9.8-18.365,13.786s-15.27,6.61-21.742,7.39A30.912,30.912,0,0,1,34.57,141.739Zm-6.805-6.268c1.051,1.991,4.8,2.8,10.03,2.172,6.012-.725,13.254-3.2,20.392-6.968s13.266-8.353,17.255-12.908c3.47-3.963,4.915-7.517,3.864-9.508s-4.8-2.8-10.03-2.172c-6.012.725-13.254,3.2-20.392,6.968s-13.266,8.353-17.255,12.908C28.158,129.927,26.714,133.481,27.765,135.471Z" transform="translate(-23.543 -101.991)" fill="#0082ff"/>
      </g>
      <path id="Trazado_1066545" data-name="Trazado 1066545" d="M271.242,102.227a58.556,58.556,0,0,0-15.292,4.331V110.8a56.42,56.42,0,0,1,15.757-4.708c5.23-.631,8.98.181,10.03,2.172s-.394,5.545-3.864,9.508c-3.989,4.556-10.117,9.14-17.255,12.908-1.556.821-3.117,1.581-4.668,2.275v4.237c2.154-.906,4.326-1.933,6.484-3.073,7.548-3.985,14.07-8.881,18.365-13.786,4.71-5.379,6.265-10.31,4.377-13.886S278.341,101.371,271.242,102.227Z" transform="translate(-202.432 -88.837)" fill="#0082ff"/>
      <g id="Grupo_1230138" data-name="Grupo 1230138" transform="translate(24.18 12.198)">
        <path id="Trazado_1066546" data-name="Trazado 1066546" d="M76.982,136.236a28.95,28.95,0,0,1-4.875-.451c-6.425-1.1-14.005-4.112-21.344-8.471s-13.607-9.575-17.651-14.689c-4.435-5.608-5.74-10.611-3.676-14.088s7.082-4.723,14.129-3.513c6.425,1.1,14.005,4.112,21.344,8.471s13.607,9.575,17.651,14.689C87,123.794,88.3,128.8,86.236,132.273,84.686,134.882,81.47,136.236,76.982,136.236ZM38.641,98.459c-2.963,0-5.057.711-5.861,2.065-1.149,1.935.115,5.557,3.382,9.689,3.756,4.75,9.646,9.636,16.586,13.758s14.048,6.956,20.017,7.982c5.192.892,8.977.269,10.127-1.666s-.115-5.557-3.382-9.689c-3.756-4.75-9.646-9.636-16.586-13.758s-14.048-6.956-20.017-7.982a25.462,25.462,0,0,0-4.265-.4Z" transform="translate(-28.481 -94.574)" fill="#0082ff"/>
      </g>
      <g id="Grupo_1230139" data-name="Grupo 1230139" transform="translate(39.678 0)">
        <path id="Trazado_1066547" data-name="Trazado 1066547" d="M162.845,66.058c-4.008,0-7.657-3.624-10.283-10.219-2.412-6.057-3.8-14.093-3.914-22.628s1.066-16.6,3.318-22.723c2.47-6.71,6.056-10.435,10.1-10.488h.088c4.008,0,7.657,3.624,10.283,10.219,2.412,6.057,3.8,14.093,3.914,22.628s-1.066,16.6-3.318,22.723c-2.469,6.71-6.056,10.435-10.1,10.488Zm-.7-62.168h-.034c-2.251.03-4.68,3-6.5,7.942-2.091,5.683-3.185,13.257-3.079,21.328s1.4,15.614,3.638,21.24c1.939,4.869,4.43,7.769,6.672,7.769h.034c2.251-.03,4.68-3,6.5-7.942,2.092-5.683,3.185-13.257,3.079-21.328s-1.4-15.614-3.638-21.24c-1.939-4.869-4.43-7.769-6.672-7.769Z" transform="translate(-148.64 0)" fill="#0082ff"/>
      </g>
      <g id="Grupo_1230140" data-name="Grupo 1230140" transform="translate(49.25 28.744)">
        <path id="Trazado_1066548" data-name="Trazado 1066548" d="M230.828,229.332a4.284,4.284,0,1,1-1.5-5.872,4.284,4.284,0,0,1,1.5,5.872Z" transform="translate(-222.859 -222.859)" fill="#0082ff"/>
      </g>
      <path id="Trazado_1066549" data-name="Trazado 1066549" d="M258.155,223.471a4.264,4.264,0,0,0-2.205-.6v8.569a4.284,4.284,0,0,0,2.205-7.968Z" transform="translate(-202.432 -194.124)" fill="#0082ff"/>
      <path id="Trazado_1066550" data-name="Trazado 1066550" d="M265.9,10.282C263.349,3.868,259.828.265,255.949.072v3.9c2.153.268,4.5,3.115,6.34,7.746,2.24,5.626,3.532,13.169,3.638,21.24s-.987,15.645-3.079,21.328c-1.819,4.943-4.249,7.913-6.5,7.942h-.034a2.706,2.706,0,0,1-.366-.027V66.11q.181.01.364.01h.087c4.043-.053,7.629-3.778,10.1-10.488,2.252-6.118,3.43-14.188,3.318-22.723s-1.5-16.571-3.914-22.628Z" transform="translate(-202.431 -0.063)" fill="#0082ff"/>
      <path id="Trazado_1066551" data-name="Trazado 1066551" d="M263.041,138.363c-2.354-1.4-4.733-2.656-7.091-3.758v4.317c1.7.847,3.407,1.777,5.1,2.786,6.94,4.122,12.83,9.008,16.586,13.758,3.267,4.132,4.532,7.754,3.382,9.689s-4.935,2.558-10.127,1.666a55.732,55.732,0,0,1-14.946-5.213v4.318a57.621,57.621,0,0,0,14.288,4.728,28.954,28.954,0,0,0,4.875.451c4.488,0,7.7-1.354,9.254-3.964,2.065-3.476.759-8.479-3.676-14.088C276.648,147.939,270.379,142.722,263.041,138.363Z" transform="translate(-202.432 -117.244)" fill="#0082ff"/>
    </g>
  </g>
</svg>
