<svg xmlns="http://www.w3.org/2000/svg" xmlns:xlink="http://www.w3.org/1999/xlink" width="324" height="286" viewBox="0 0 324 286">
  <defs>
    <linearGradient id="linear-gradient" x1="0.5" x2="0.5" y2="1" gradientUnits="objectBoundingBox">
      <stop offset="0" stop-color="#903cdf"/>
      <stop offset="1" stop-color="#481e70"/>
    </linearGradient>
    <clipPath id="clip-path">
      <rect id="Rectángulo_423736" data-name="Rectángulo 423736" width="324" height="245" transform="translate(0)" fill="#fff" stroke="#707070" stroke-width="1"/>
    </clipPath>
    <linearGradient id="linear-gradient-2" x1="0.881" y1="0.626" x2="0.234" y2="0.527" gradientUnits="objectBoundingBox">
      <stop offset="0" stop-color="#fff" stop-opacity="0.302"/>
      <stop offset="1" stop-color="#fdfdfd" stop-opacity="0"/>
    </linearGradient>
    <linearGradient id="linear-gradient-3" x1="0.808" y1="0.734" x2="0.157" y2="0.529" xlink:href="#linear-gradient-2"/>
  </defs>
  <g id="Grupo_1229981" data-name="Grupo 1229981" transform="translate(-11307.775 -3130.225)">
    <g id="Grupo_1229975" data-name="Grupo 1229975">
      <rect id="Rectángulo_423697" data-name="Rectángulo 423697" width="155" height="286" rx="13" transform="translate(11392.774 3130.225)" fill="url(#linear-gradient)"/>
      <g id="Enmascarar_grupo_1211599" data-name="Enmascarar grupo 1211599" transform="translate(11307.775 3150.725)" clip-path="url(#clip-path)">
        <g id="OBJECTS_1_" transform="translate(0.715 -33.88)">
          <rect id="Rectángulo_423718" data-name="Rectángulo 423718" width="323.552" height="32.444" transform="translate(0 258.739)" fill="#5c77c7"/>
          <g id="Grupo_1229328" data-name="Grupo 1229328" transform="translate(40.113)">
            <g id="Grupo_1229308" data-name="Grupo 1229308" transform="translate(0)">
              <g id="Grupo_1229305" data-name="Grupo 1229305" transform="translate(157.1 100.626)">
                <path id="Trazado_1063965" data-name="Trazado 1063965" d="M162.159,260.738H172.9l9.98-55.5-1.828-2.742-8.91,2.742L160.331,258Z" transform="translate(-160.331 -202.494)" fill="#160033"/>
                <path id="Trazado_1063966" data-name="Trazado 1063966" d="M163.185,258h10.738l9.98-55.5H173.165Z" transform="translate(-163.185 -202.494)" fill="#160033"/>
              </g>
              <path id="Trazado_1063967" data-name="Trazado 1063967" d="M102.224,227.916h83.86l9.98-55.5-1.828-2.743L112.2,172.415,100.4,225.174Z" transform="translate(21.971 -90.068)" fill="#160033"/>
              <path id="Trazado_1063968" data-name="Trazado 1063968" d="M103.25,225.174h83.86l9.98-55.5H113.23Z" transform="translate(19.117 -90.068)" fill="#27004f"/>
              <path id="Trazado_1063969" data-name="Trazado 1063969" d="M109.246,224.177h76.995l9.164-50.958h-77Z" transform="translate(16.962 -91.344)" fill="#d6ddef"/>
              <path id="Trazado_1063970" data-name="Trazado 1063970" d="M117.418,222.819h67.641l8.05-44.767h-67.64Z" transform="translate(14.024 -93.081)" fill="#97aae0"/>
              <path id="Trazado_1063971" data-name="Trazado 1063971" d="M321.613,127.266,132.7,45.391,109.246,209.875l203.2-31.65Z" transform="translate(-109.246 -45.391)" fill="url(#linear-gradient-2)"/>
              <rect id="Rectángulo_423719" data-name="Rectángulo 423719" width="44.649" height="4.439" transform="translate(141.02 156.128)" fill="#160033"/>
              <g id="Grupo_1229307" data-name="Grupo 1229307" transform="translate(142.808 89.773)">
                <g id="Grupo_1229306" data-name="Grupo 1229306" transform="translate(0)">
                  <path id="Trazado_1063972" data-name="Trazado 1063972" d="M125.617,186.743h31.507a.743.743,0,0,0,.7-.6h0a.487.487,0,0,0-.491-.6H125.828a.743.743,0,0,0-.7.6h0A.487.487,0,0,0,125.617,186.743Z" transform="translate(-98.442 -185.549)" fill="#5c77c7"/>
                  <path id="Trazado_1063973" data-name="Trazado 1063973" d="M126.44,191.4h40.628a.743.743,0,0,0,.7-.6h0a.487.487,0,0,0-.491-.6H126.651a.743.743,0,0,0-.7.6h0A.487.487,0,0,0,126.44,191.4Z" transform="translate(-108.914 -187.223)" fill="#5c77c7"/>
                  <path id="Trazado_1063974" data-name="Trazado 1063974" d="M127.264,196.06h31.507a.743.743,0,0,0,.7-.6h0a.487.487,0,0,0-.491-.6H127.475a.743.743,0,0,0-.7.6h0A.487.487,0,0,0,127.264,196.06Z" transform="translate(-101.144 -188.898)" fill="#5c77c7"/>
                  <path id="Trazado_1063975" data-name="Trazado 1063975" d="M128.087,200.719h26.068a.743.743,0,0,0,.7-.6h0a.486.486,0,0,0-.491-.6H128.3a.743.743,0,0,0-.7.6h0A.488.488,0,0,0,128.087,200.719Z" transform="translate(-97.055 -190.574)" fill="#5c77c7"/>
                  <path id="Trazado_1063976" data-name="Trazado 1063976" d="M128.91,205.377h56.072a.743.743,0,0,0,.7-.6h0a.487.487,0,0,0-.491-.6H129.121a.743.743,0,0,0-.7.6h0A.487.487,0,0,0,128.91,205.377Z" transform="translate(-128.409 -192.248)" fill="#5c77c7"/>
                  <path id="Trazado_1063977" data-name="Trazado 1063977" d="M129.733,210.036h40.433a.743.743,0,0,0,.7-.6h0a.487.487,0,0,0-.491-.6H129.944a.743.743,0,0,0-.7.6h0A.487.487,0,0,0,129.733,210.036Z" transform="translate(-114.12 -193.923)" fill="#5c77c7"/>
                  <path id="Trazado_1063978" data-name="Trazado 1063978" d="M130.558,214.694h51.954a.743.743,0,0,0,.7-.6h0a.487.487,0,0,0-.491-.6H130.769a.743.743,0,0,0-.7.6h0A.487.487,0,0,0,130.558,214.694Z" transform="translate(-126.994 -195.597)" fill="#5c77c7"/>
                  <path id="Trazado_1063979" data-name="Trazado 1063979" d="M131.381,219.353h37.2a.743.743,0,0,0,.7-.6h0a.486.486,0,0,0-.491-.6h-37.2a.743.743,0,0,0-.7.6h0A.487.487,0,0,0,131.381,219.353Z" transform="translate(-113.588 -197.272)" fill="#5c77c7"/>
                  <path id="Trazado_1063980" data-name="Trazado 1063980" d="M132.2,224.011h48.13a.743.743,0,0,0,.7-.6h0a.487.487,0,0,0-.491-.6h-48.13a.743.743,0,0,0-.7.6h0A.487.487,0,0,0,132.2,224.011Z" transform="translate(-125.871 -198.946)" fill="#5c77c7"/>
                  <path id="Trazado_1063981" data-name="Trazado 1063981" d="M133.028,228.67h31.507a.743.743,0,0,0,.7-.6h0a.487.487,0,0,0-.491-.6H133.239a.743.743,0,0,0-.7.6h0A.487.487,0,0,0,133.028,228.67Z" transform="translate(-110.6 -200.621)" fill="#5c77c7"/>
                  <path id="Trazado_1063982" data-name="Trazado 1063982" d="M133.852,233.328h31.507a.743.743,0,0,0,.7-.6h0a.487.487,0,0,0-.491-.6H134.063a.743.743,0,0,0-.7.6h0A.487.487,0,0,0,133.852,233.328Z" transform="translate(-111.952 -202.296)" fill="#5c77c7"/>
                  <path id="Trazado_1063983" data-name="Trazado 1063983" d="M134.676,237.987h31.507a.743.743,0,0,0,.7-.6h0a.487.487,0,0,0-.491-.6H134.887a.743.743,0,0,0-.7.6h0A.487.487,0,0,0,134.676,237.987Z" transform="translate(-113.303 -203.971)" fill="#5c77c7"/>
                </g>
              </g>
            </g>
            <path id="Trazado_1063984" data-name="Trazado 1063984" d="M207.481,287.622l-6.987-13.663L153.762,285.37l-.776,2.1Z" transform="translate(-23.13 -127.558)" fill="#242c75"/>
            <path id="Trazado_1063985" data-name="Trazado 1063985" d="M329.683,136.226s-2.367,13.311-.888,13.9,7.839-1.775,7.839-1.775a10.1,10.1,0,0,1-1.479,3.55c.148,4.142-2.81,14.79-3.846,17.009s-3.4,2.514-6.064,1.479-12.572-6.064-12.572-6.064-3.994,11.388-3.7,13.163,5.768,9.17,5.768,9.17-5.768,10.5-10.8,11.388-14.642-1.183-14.642-1.183-.887-8.134,3.994-14.2,13.015-13.015,15.382-24.256,2.958-26.77,2.958-26.77l9.613-7.4Z" transform="translate(-239.557 -73.738)" fill="#eab3a2"/>
            <path id="Trazado_1063986" data-name="Trazado 1063986" d="M298.47,115.968s-1.2-4.669,13.768-3.831,21.19,5.268,24.662,10.535-.24,11.852-1.077,9.218c.24,2.873-6.345-1.915-10.655-8.021,2.634,7.782,1.437,13.768-2.993,7.9,1.437,2.634.479,5.507-1.8.958,1.8,8.859.24,12.211-3.951,8.261-1.8,1.556-1.8,6.584-1.8,6.584a57.206,57.206,0,0,0-.12,5.866c.12,2.754-.359,3.472-1.077,1.8.838,4.19,0,5.387-.958,2.873,0,3.472-.359,6.584-5.986-1.556S295.477,127.1,294.28,121,298.47,115.968,298.47,115.968Z" transform="translate(-244.396 -69.349)" fill="#1f1c1b"/>
            <path id="Trazado_1063987" data-name="Trazado 1063987" d="M333.61,157.115s-3.7-6.508-7.4-1.923,4.437,11.24,6.36,9.022" transform="translate(-259.605 -84.275)" fill="#eab3a2"/>
            <g id="Grupo_1229309" data-name="Grupo 1229309" transform="translate(65.345 69.03)">
              <path id="Trazado_1063988" data-name="Trazado 1063988" d="M333.923,156.974a9.821,9.821,0,0,0-1.72-2.388,4.574,4.574,0,0,0-2.659-1.408,3.568,3.568,0,0,0-2.813,1.193,4.722,4.722,0,0,0-1.429,2.714,5.364,5.364,0,0,0,.553,3.009,8.53,8.53,0,0,0,1.786,2.416,8.969,8.969,0,0,0,2.449,1.7,4.506,4.506,0,0,0,1.449.375,1.53,1.53,0,0,0,1.348-.509,1.524,1.524,0,0,1-1.331.34,4.266,4.266,0,0,1-1.33-.489,8.653,8.653,0,0,1-2.235-1.761,8.883,8.883,0,0,1-1.588-2.327,4.818,4.818,0,0,1-.468-2.666,4.144,4.144,0,0,1,1.227-2.376,3.149,3.149,0,0,1,2.35-1.127,4.225,4.225,0,0,1,2.479,1.148A11.131,11.131,0,0,1,333.923,156.974Z" transform="translate(-325.263 -153.163)" fill="#ce8976"/>
            </g>
            <path id="Trazado_1063989" data-name="Trazado 1063989" d="M305.771,159.392c0,.93.367,1.685.819,1.685s.819-.754.819-1.685-.367-1.685-.819-1.685S305.771,158.462,305.771,159.392Z" transform="translate(-220.919 -85.767)" fill="#1f1c1b"/>
            <path id="Trazado_1063990" data-name="Trazado 1063990" d="M308.84,150s-2.185-4.461-4.917,1.639" transform="translate(-221.166 -82.432)" fill="#1f1c1b"/>
            <g id="Grupo_1229312" data-name="Grupo 1229312" transform="translate(68.373 71.153)">
              <g id="Grupo_1229310" data-name="Grupo 1229310" transform="translate(14.87 12.35)">
                <path id="Trazado_1063991" data-name="Trazado 1063991" d="M307.893,179.947a5.691,5.691,0,0,1-2.066.58,2.03,2.03,0,0,1-1.7-.759,3.8,3.8,0,0,1-.537-.856c-.114-.334-.271-.652-.357-1s-.214-.7-.274-1.059c-.076-.361-.15-.724-.254-1.09-.038.373-.047.749-.058,1.127a8.086,8.086,0,0,0,.1,1.134,7.4,7.4,0,0,0,.284,1.124,4.111,4.111,0,0,0,.609,1.038l.2.235c.08.068.169.128.254.191l.258.184c.1.042.2.082.3.118a2.4,2.4,0,0,0,1.227.111A3.808,3.808,0,0,0,307.893,179.947Z" transform="translate(-302.644 -175.759)" fill="#ce8976"/>
              </g>
              <g id="Grupo_1229311" data-name="Grupo 1229311">
                <path id="Trazado_1063992" data-name="Trazado 1063992" d="M325.79,157.448a2.182,2.182,0,0,1,.862-.579,1.242,1.242,0,0,1,.922.066,3.512,3.512,0,0,1,1.289,1.494,8.884,8.884,0,0,1,.464.936c.154.314.272.648.4.976.272.651.472,1.338.72,2.006l.3-.335a5.519,5.519,0,0,0-.874-.048,1.407,1.407,0,0,0-.235.035.644.644,0,0,0-.244.081,1.326,1.326,0,0,0-.122.066,1.426,1.426,0,0,0-.109.124.5.5,0,0,0-.085.3,1.482,1.482,0,0,0,.446.791,4.018,4.018,0,0,0,.628.554,7.956,7.956,0,0,1-.481-.667,1.391,1.391,0,0,1-.255-.676c.008-.137.217-.155.466-.156a5.219,5.219,0,0,1,.767.122l.427.09-.123-.425a20.49,20.49,0,0,0-.642-2.084,7.984,7.984,0,0,0-.421-1.015,6.822,6.822,0,0,0-.525-.978,3.514,3.514,0,0,0-1.645-1.565,1.441,1.441,0,0,0-1.17.1A1.945,1.945,0,0,0,325.79,157.448Z" transform="translate(-325.79 -156.478)" fill="#ce8976"/>
              </g>
            </g>
            <g id="Grupo_1229313" data-name="Grupo 1229313" transform="translate(93.715 77.072)">
              <path id="Trazado_1063993" data-name="Trazado 1063993" d="M293.017,165.72a.992.992,0,0,0-.194.484.949.949,0,0,0,.074.549.689.689,0,0,0,.46.375.721.721,0,0,0,.531-.076,2.14,2.14,0,0,1-.418-.2.687.687,0,0,1-.227-.269,1.932,1.932,0,0,1-.126-.389C293.083,166.049,293.059,165.893,293.017,165.72Z" transform="translate(-292.81 -165.72)" fill="#ce8976"/>
            </g>
            <path id="Trazado_1063994" data-name="Trazado 1063994" d="M325.634,168.569s5.251,1.685,4.343,8.363-8.557,3.047-7.973-3.371a6.871,6.871,0,0,1,1.694-4.2" transform="translate(-253.97 -89.672)" fill="none" stroke="#f99d30" stroke-miterlimit="10" stroke-width="1"/>
            <path id="Trazado_1063995" data-name="Trazado 1063995" d="M200.486,232.723l22.045,18.171,37.792-6.861s9.448-4.161,11.472-4.612,5.624,8.885,8.548,11.472c-.45,1.237-1.928,1.169-3.374.562l1.8,2.249s-3.6,2.025-7.424-1.912a9.323,9.323,0,0,0-7.2-1.125l-6.973-2.7s-26.544,9.448-36.667,10.573c-13.384-6.3-25.757-17.565-25.757-17.565Z" transform="translate(-122.743 -112.735)" fill="#d89d8d"/>
            <g id="Grupo_1229316" data-name="Grupo 1229316" transform="translate(144.571 131.791)">
              <g id="Grupo_1229314" data-name="Grupo 1229314" transform="translate(1.54)">
                <path id="Trazado_1063996" data-name="Trazado 1063996" d="M207.886,258.187a85.455,85.455,0,0,0-5.442-6.908l-.108-.129-.139.031q-.744.162-1.474.389c-.241.083-.482.169-.718.267a2.7,2.7,0,0,0-.673.363,4.2,4.2,0,0,1,.724-.2c.245-.049.493-.086.741-.12.494-.077.99-.138,1.487-.2l-.247-.1a41.312,41.312,0,0,0,5.848,6.607Z" transform="translate(-199.333 -251.15)" fill="#ce8976"/>
              </g>
              <g id="Grupo_1229315" data-name="Grupo 1229315" transform="translate(0 0.28)">
                <path id="Trazado_1063997" data-name="Trazado 1063997" d="M206.593,251.587a26.471,26.471,0,0,0,3.1,3.09l.84.7a5.009,5.009,0,0,1,.762.673,1.491,1.491,0,0,1,.412.837c.044.307-.23.569-.583.689a1.048,1.048,0,0,0,.555-.134.767.767,0,0,0,.341-.527,1.678,1.678,0,0,0-.325-1.163,4.338,4.338,0,0,0-.788-.85l-.813-.721A26.271,26.271,0,0,0,206.593,251.587Z" transform="translate(-206.593 -251.587)" fill="#ce8976"/>
              </g>
            </g>
            <path id="Trazado_1063998" data-name="Trazado 1063998" d="M311.1,257.8c-12.786-6.4-24.236-16.824-24.236-16.824l5.736-8.254,20.858,17.193A71.493,71.493,0,0,0,311.1,257.8Z" transform="translate(-214.856 -112.735)" fill="#0f307a"/>
            <path id="Trazado_1063999" data-name="Trazado 1063999" d="M261.352,328.613l22.037,50.581-6.36,2.81s-20.854-24.847-21-37.862c-2.662-1.035-.739-7.247-.739-7.247s-25.439,3.55-40.376,4.289-4.585-8.135-4.585-8.135l37.27-9.465Z" transform="translate(-133.528 -145.398)" fill="#e0821b"/>
            <path id="Trazado_1064000" data-name="Trazado 1064000" d="M245.376,303.456s-12.313,10.47-10.356,22.66,29.946,8.277,46.048,4.213,35.514-8.126,35.514-8.126-3.762,2.408,1.054,1.655c-8.126,4.213-10.985,21.67-7.976,34.761s3.612,15.8,3.612,15.8l6.47-1.655s6.621-51.917,10.684-62.9c-13.694-3.01-49.5-7.534-59.431-8.136a23.936,23.936,0,0,0-3.019-9.321Z" transform="translate(-198.485 -134.19)" fill="#f99d30"/>
            <path id="Trazado_1064001" data-name="Trazado 1064001" d="M317.767,229.874a48.992,48.992,0,0,0,7.112.241c2.411-.241,11.986-3.985,17.238-10.608,9.344,12.352,8.92,15.671-3.014,23.266,0,0-1.326,20.614-1.326,22.3,1.929,0,1.567,1.205.12,1.688s-11.09,7.112-15.55,8.68a32.929,32.929,0,0,1-7.474,1.808l4.7-7.956S317.406,233.37,317.767,229.874Z" transform="translate(-267.983 -107.984)" fill="#1e3f94"/>
            <path id="Trazado_1064002" data-name="Trazado 1064002" d="M211.405,219.072l25.77,41.517,37.939-6.442s5.906-13.421,7.158-14.5c0,0,2.07-1.718,6.055.872s12.553,4.284,13.35,4.483c-.3,1.3-4.284,1.694-4.284,1.694s3.686,1.694,4.682,2.092c-.3,1-4.583,1.694-6.077,1,1.993,1.793,2.491,2.192,2.491,2.192a6.521,6.521,0,0,1-5.679-.8,30.6,30.6,0,0,1-4.284-3.985s-7.272,11.358-12.752,10.56c0,0-36.463,12.254-40.548,11.955-6.376-5.28-29.589-38.456-31.98-42.142s-2.192-8.269,1.3-10.461S211.405,219.072,211.405,219.072Z" transform="translate(-148.897 -106.893)" fill="#eab3a2"/>
            <g id="Grupo_1229319" data-name="Grupo 1229319" transform="translate(135.333 134.295)">
              <g id="Grupo_1229317" data-name="Grupo 1229317" transform="translate(0 0.398)">
                <path id="Trazado_1064003" data-name="Trazado 1064003" d="M222.746,264.007c-.639-.7-1.288-1.4-1.954-2.074s-1.321-1.361-2-2.022l-2.03-1.987c-.674-.656-1.374-1.318-2-1.979l-.251-.264-.208.275c-.631.835-1.238,1.69-1.845,2.543s-1.2,1.72-1.77,2.6c.711-.774,1.41-1.555,2.079-2.361s1.351-1.6,2-2.418l-.458.01c.65.739,1.328,1.384,2.01,2.051s1.377,1.307,2.083,1.941,1.426,1.252,2.14,1.877S222,263.421,222.746,264.007Z" transform="translate(-210.685 -255.681)" fill="#ce8976"/>
              </g>
              <g id="Grupo_1229318" data-name="Grupo 1229318" transform="translate(1.625)">
                <path id="Trazado_1064004" data-name="Trazado 1064004" d="M220.5,260.573a51.007,51.007,0,0,0-5.581-3.146c-.96-.466-1.927-.919-2.914-1.33a17.118,17.118,0,0,0-3.042-1.039c.968.45,1.878,1.009,2.828,1.49.94.5,1.892.977,2.846,1.452A64.023,64.023,0,0,0,220.5,260.573Z" transform="translate(-208.965 -255.059)" fill="#ce8976"/>
              </g>
            </g>
            <g id="Grupo_1229320" data-name="Grupo 1229320" transform="translate(52.492 109.322)">
              <path id="Trazado_1064005" data-name="Trazado 1064005" d="M345.07,227.429a10.514,10.514,0,0,1-1.326-4.6,6.416,6.416,0,0,1,1.385-4.355,4.5,4.5,0,0,1,3.985-1.843,5.611,5.611,0,0,1,2.2.812,9.64,9.64,0,0,1,1.918,1.481,6.95,6.95,0,0,0-4.039-2.78,4.068,4.068,0,0,0-2.548.334,5.893,5.893,0,0,0-2.008,1.589,6.491,6.491,0,0,0-1.38,4.791,9.216,9.216,0,0,0,.587,2.428A10.386,10.386,0,0,0,345.07,227.429Z" transform="translate(-343.213 -216.071)" fill="#ce8976"/>
            </g>
            <path id="Trazado_1064006" data-name="Trazado 1064006" d="M311.52,229.847,333.586,265.4l1.465-.249-2.324,9.294a5.522,5.522,0,0,1-1.09.08c-5.836-4.833-25.774-33.031-30.944-40.6C302.435,233.7,311.534,229.974,311.52,229.847Z" transform="translate(-245.308 -111.701)" fill="#1e3f94"/>
            <g id="Grupo_1229321" data-name="Grupo 1229321" transform="translate(55.385 122.221)">
              <path id="Trazado_1064007" data-name="Trazado 1064007" d="M345.765,257.6c-1.166-1.861-2.388-3.679-3.618-5.491s-2.489-3.6-3.755-5.389-2.556-3.554-3.876-5.3l-1.981-2.622c-.68-.861-1.341-1.734-2.037-2.584.576.932,1.187,1.841,1.779,2.763l1.836,2.725c1.225,1.816,2.491,3.6,3.758,5.392s2.559,3.557,3.879,5.305S344.387,255.893,345.765,257.6Z" transform="translate(-330.498 -236.209)" fill="#0f307a"/>
            </g>
            <g id="Grupo_1229322" data-name="Grupo 1229322" transform="translate(66.212 118.146)">
              <path id="Trazado_1064008" data-name="Trazado 1064008" d="M323.79,229.847c.616,1.243,1.291,2.449,1.976,3.648s1.4,2.381,2.121,3.559,1.469,2.338,2.247,3.481l1.168,1.713c.409.559.8,1.129,1.225,1.677-.3-.625-.64-1.228-.959-1.842l-1.017-1.807c-.679-1.2-1.4-2.381-2.121-3.558s-1.47-2.337-2.248-3.48S324.63,230.95,323.79,229.847Z" transform="translate(-323.79 -229.847)" fill="#0f307a"/>
            </g>
            <path id="Trazado_1064009" data-name="Trazado 1064009" d="M305.48,282.574s-.774,10.752-1.161,11.99-.774,1.779-1.547,1.857a13.772,13.772,0,0,1-3.326-.928s-3.559,1.779-4.022.774,2.63-13.77,3.946-14.93l1.856,1.392S304.088,281.878,305.48,282.574Z" transform="translate(-212.332 -130.211)" fill="#0f307a"/>
            <path id="Trazado_1064010" data-name="Trazado 1064010" d="M204.548,412.63s3.951-3.472,16.4-2.514c-3.352,4.788-2.394,6.465-2.394,6.465s2.514-.958,0,3.112a13.952,13.952,0,0,0-2.155,7.9s2.035.479-.359,3.831c5.507,2.873,24.183,8.021,27.175,9.337a6.6,6.6,0,0,1,3.711,3.711H231.963s-11.971-1.2-15.084-2.155l-.479,1.916H206.1s-.24-7.9,2.634-12.331C207.062,422.806,204.548,412.63,204.548,412.63Z" transform="translate(-95.602 -176.445)" fill="#0f307a"/>
            <path id="Trazado_1064011" data-name="Trazado 1064011" d="M143,411.456s8.265-5.667,13.106-6.848c6.493,8.382,11.807,21.252,11.807,21.252s2.125-1.653,1.535,1.889c0,0,18.773,5.549,22.787,6.139a7.585,7.585,0,0,1,5.549,3.542H182.2s-10.98-2.6-12.869-2.834l-.236,1.889H158.818s-.354-5.785,2.951-8.973c-2.243.354-2.243-1.417-2.243-1.417s-10.39-6.73-7.556-7.084S143,411.456,143,411.456Z" transform="translate(-7.032 -174.525)" fill="#0f307a"/>
            <path id="Trazado_1064012" data-name="Trazado 1064012" d="M281.462,222.992s8.676,27.437,12.9,53.466,8.911,40.569,32.6,40.569,44.79-1.642,47.839,2.11c-1.642-11.021-9.615-16.181-25.091-16.181s-40.8,3.752-45.963-21.809S297.174,223.7,281.462,222.992Z" transform="translate(-272.733 -109.236)" fill="#2b2f89"/>
            <line id="Línea_4551" data-name="Línea 4551" x2="31.892" y2="60.267" transform="translate(72.09 206.618)" fill="none" stroke="#f99d30" stroke-linecap="round" stroke-linejoin="round" stroke-miterlimit="10" stroke-width="3"/>
            <line id="Línea_4552" data-name="Línea 4552" x1="31.892" y2="60.267" transform="translate(22.778 206.618)" fill="none" stroke="#f99d30" stroke-linecap="round" stroke-linejoin="round" stroke-miterlimit="10" stroke-width="3"/>
            <line id="Línea_4553" data-name="Línea 4553" x1="44.086" y2="21.574" transform="translate(35.931 220.454)" fill="none" stroke="#f99d30" stroke-linecap="round" stroke-linejoin="round" stroke-miterlimit="10" stroke-width="1.5"/>
            <line id="Línea_4554" data-name="Línea 4554" x2="44.086" y2="21.574" transform="translate(46.819 220.454)" fill="none" stroke="#f99d30" stroke-linecap="round" stroke-linejoin="round" stroke-miterlimit="10" stroke-width="1.5"/>
            <path id="Trazado_1064013" data-name="Trazado 1064013" d="M303.74,281.149c5.159,25.561,30.485,21.809,45.963,21.809s23.45,5.159,25.091,16.181c0,0-3.061-12.859-31.06-12.859s-40.126-4.993-44.584-29.069-7.734-52.617-17.688-54.218C297.174,223.7,298.581,255.588,303.74,281.149Z" transform="translate(-272.734 -109.236)" fill="#1d2868"/>
            <g id="Grupo_1229323" data-name="Grupo 1229323" transform="translate(63.416 106.924)">
              <path id="Trazado_1064014" data-name="Trazado 1064014" d="M329.574,214.11l3.058.107c1.019,0,2.039.038,3.058.011l-.12-.045c.2.171.409.331.625.484a3.04,3.04,0,0,0,.715.4.555.555,0,0,0,.273.024.288.288,0,0,0,.217-.282,1.084,1.084,0,0,0-.108-.43,6,6,0,0,0-.37-.7l.009.071a4.839,4.839,0,0,0-.031-1.425,5.961,5.961,0,0,1-.159,1.378l-.01.033.019.038a5.8,5.8,0,0,1,.3.7.868.868,0,0,1,.061.32c-.013.049,0,0,.008.005a.41.41,0,0,1-.106-.028,3.01,3.01,0,0,1-.617-.379c-.2-.151-.4-.314-.587-.48l-.049-.043-.071,0c-1.02-.026-2.04.017-3.06.028l-1.53.072C330.592,214,330.08,214.024,329.574,214.11Z" transform="translate(-329.574 -212.326)" fill="#ce8976"/>
            </g>
            <rect id="Rectángulo_423720" data-name="Rectángulo 423720" width="119.499" height="6.212" transform="translate(104.474 159.999)" fill="#f99d30"/>
            <path id="Trazado_1064015" data-name="Trazado 1064015" d="M109.144,406.276h5.482L89.005,304.318H83.523Z" transform="translate(114.217 -138.472)" fill="#1f1c1b"/>
            <path id="Trazado_1064016" data-name="Trazado 1064016" d="M231.831,406.276H226.35l25.62-101.958h5.482Z" transform="translate(-120.092 -138.472)" fill="#1f1c1b"/>
            <line id="Línea_4555" data-name="Línea 4555" x1="71.261" transform="translate(131.516 176.809)" fill="none" stroke="#f99d30" stroke-linecap="round" stroke-linejoin="round" stroke-miterlimit="10" stroke-width="3"/>
            <g id="Grupo_1229324" data-name="Grupo 1229324" transform="translate(133.31 142.495)">
              <rect id="Rectángulo_423721" data-name="Rectángulo 423721" width="2.344" height="0.781" transform="matrix(-0.972, 0.237, -0.237, -0.972, 41.512, 0.759)" fill="#1e3f94"/>
              <rect id="Rectángulo_423722" data-name="Rectángulo 423722" width="2.344" height="0.781" transform="matrix(-0.972, 0.237, -0.237, -0.972, 40.522, 4.788)" fill="#1e3f94"/>
              <rect id="Rectángulo_423723" data-name="Rectángulo 423723" width="2.344" height="0.781" transform="matrix(-0.972, 0.237, -0.237, -0.972, 38.8, 1.417)" fill="#1e3f94"/>
              <rect id="Rectángulo_423724" data-name="Rectángulo 423724" width="2.344" height="0.781" transform="matrix(-0.972, 0.237, -0.237, -0.972, 2.463, 14.098)" fill="#1e3f94"/>
              <rect id="Rectángulo_423725" data-name="Rectángulo 423725" width="2.344" height="0.781" transform="matrix(-0.972, 0.237, -0.237, -0.972, 36.099, 2.079)" fill="#1e3f94"/>
              <rect id="Rectángulo_423726" data-name="Rectángulo 423726" width="2.344" height="0.781" transform="matrix(-0.972, 0.237, -0.237, -0.972, 33.389, 2.738)" fill="#1e3f94"/>
              <rect id="Rectángulo_423727" data-name="Rectángulo 423727" width="2.344" height="0.781" transform="matrix(-0.972, 0.237, -0.237, -0.972, 30.682, 3.398)" fill="#1e3f94"/>
              <rect id="Rectángulo_423728" data-name="Rectángulo 423728" width="2.344" height="0.781" transform="matrix(-0.972, 0.237, -0.237, -0.972, 27.974, 4.058)" fill="#1e3f94"/>
              <rect id="Rectángulo_423729" data-name="Rectángulo 423729" width="2.344" height="0.781" transform="matrix(-0.972, 0.237, -0.237, -0.972, 25.261, 4.715)" fill="#1e3f94"/>
              <rect id="Rectángulo_423730" data-name="Rectángulo 423730" width="2.344" height="0.781" transform="matrix(-0.972, 0.237, -0.237, -0.972, 22.559, 5.377)" fill="#1e3f94"/>
              <rect id="Rectángulo_423731" data-name="Rectángulo 423731" width="2.344" height="0.781" transform="matrix(-0.972, 0.237, -0.237, -0.972, 19.85, 6.037)" fill="#1e3f94"/>
              <rect id="Rectángulo_423732" data-name="Rectángulo 423732" width="2.344" height="0.781" transform="matrix(-0.972, 0.237, -0.237, -0.972, 17.144, 6.697)" fill="#1e3f94"/>
              <rect id="Rectángulo_423733" data-name="Rectángulo 423733" width="2.344" height="0.781" transform="matrix(-0.972, 0.237, -0.237, -0.972, 14.435, 7.356)" fill="#1e3f94"/>
              <rect id="Rectángulo_423734" data-name="Rectángulo 423734" width="2.344" height="0.781" transform="matrix(-0.972, 0.237, -0.237, -0.972, 11.722, 8.014)" fill="#1e3f94"/>
              <rect id="Rectángulo_423735" data-name="Rectángulo 423735" width="2.344" height="0.781" transform="matrix(-0.972, 0.237, -0.237, -0.972, 9.02, 8.676)" fill="#1e3f94"/>
            </g>
            <path id="Trazado_1064017" data-name="Trazado 1064017" d="M168.3,282.292,210.145,272.1a2.351,2.351,0,0,0,1.727-2.841l-.247-1.015-46.413,11.307.247,1.015A2.351,2.351,0,0,0,168.3,282.292Z" transform="translate(-35.42 -125.503)" fill="#5c77c7"/>
            <line id="Línea_4556" data-name="Línea 4556" x1="46.413" y2="11.307" transform="translate(129.94 143.664)" fill="none" stroke="#1e3f94" stroke-linecap="round" stroke-linejoin="round" stroke-miterlimit="10" stroke-width="0.5"/>
            <path id="Trazado_1064018" data-name="Trazado 1064018" d="M285.9,158.962,162.754,91.779,144.426,216.623,272.24,204.737Z" transform="translate(-96.07 -62.067)" fill="url(#linear-gradient-3)"/>
            <path id="Trazado_1064019" data-name="Trazado 1064019" d="M144.669,241.173l12.583-42.153a1.89,1.89,0,0,0-1.27-2.351h0l-13.664,45.775h0A1.89,1.89,0,0,0,144.669,241.173Z" transform="translate(33.852 -99.773)" fill="#5c77c7"/>
            <g id="Grupo_1229325" data-name="Grupo 1229325" transform="translate(190.536 141.171)">
              <path id="Trazado_1064020" data-name="Trazado 1064020" d="M119.4,284.581h15.325V266.464a.669.669,0,0,0-.669-.669H120.072a.669.669,0,0,0-.669.669v18.116Z" transform="translate(-119.403 -265.795)" fill="#f7f7f7"/>
              <path id="Trazado_1064021" data-name="Trazado 1064021" d="M114.928,273.462h2.727a1.309,1.309,0,0,1,1.309,1.309v5.891a1.309,1.309,0,0,1-1.309,1.309h-3.891" transform="translate(-100.027 -268.551)" fill="none" stroke="#f7f7f7" stroke-miterlimit="10" stroke-width="2.668"/>
            </g>
            <line id="Línea_4557" data-name="Línea 4557" x2="15.385" y2="11.928" transform="translate(190.19 176.568)" fill="none" stroke="#f99d30" stroke-linecap="round" stroke-linejoin="round" stroke-miterlimit="10" stroke-width="1.5"/>
            <line id="Línea_4558" data-name="Línea 4558" x1="15.385" y2="11.928" transform="translate(129.505 176.568)" fill="none" stroke="#f99d30" stroke-linecap="round" stroke-linejoin="round" stroke-miterlimit="10" stroke-width="1.5"/>
            <g id="Grupo_1229327" data-name="Grupo 1229327" transform="translate(104.06 49.334)">
              <path id="Trazado_1064022" data-name="Trazado 1064022" d="M184.818,141.069v8.945l8.131-8.945h51.771V112.414h-59.9Z" transform="translate(-184.818 -122.414)" fill="#f99d30"/>
            </g>
          </g>
        </g>
      </g>
    </g>
    <g id="Grupo_1229977" data-name="Grupo 1229977" transform="translate(11474.903 3159.198)">
      <g id="Grupo_1229978" data-name="Grupo 1229978" transform="translate(0.342 0.342)">
        <path id="Trazado_1066417" data-name="Trazado 1066417" d="M36.31,12.136c0,5.986-1.7,10.838-3.791,10.838s-3.791-4.852-3.791-10.838S30.425,1.3,32.519,1.3,36.31,6.15,36.31,12.136Z" transform="translate(-22.961 -1.298)" fill="none" stroke="#fff" stroke-miterlimit="10" stroke-width="1"/>
        <path id="Trazado_1066418" data-name="Trazado 1066418" d="M13.537,20.607c5.065,4.232,7.971,8.666,6.491,9.9s-6.787-1.191-11.853-5.423S.2,16.421,1.685,15.184,8.472,16.375,13.537,20.607Z" transform="translate(-1.299 -12.009)" fill="none" stroke="#fff" stroke-miterlimit="10" stroke-width="1"/>
        <path id="Trazado_1066419" data-name="Trazado 1066419" d="M8.176,20.607C3.111,24.84.2,29.274,1.685,30.511s6.787-1.191,11.852-5.423,7.971-8.666,6.491-9.9S13.242,16.375,8.176,20.607Z" transform="translate(-1.299 -12.009)" fill="none" stroke="#fff" stroke-miterlimit="10" stroke-width="1"/>
        <path id="Trazado_1066420" data-name="Trazado 1066420" d="M41.528,45.718a1.9,1.9,0,1,1-1.9-1.9,1.9,1.9,0,0,1,1.9,1.9" transform="translate(-30.073 -34.881)" fill="#fff"/>
      </g>
    </g>
  </g>
</svg>
