<svg xmlns="http://www.w3.org/2000/svg" xmlns:xlink="http://www.w3.org/1999/xlink" width="400" height="507" viewBox="0 0 400 507">
  <defs>
    <clipPath id="clip-path">
      <rect id="Rectángulo_423999" data-name="Rectángulo 423999" width="400" height="507" transform="translate(1020 279)" fill="#5c2c88" opacity="0.52"/>
    </clipPath>
    <linearGradient id="linear-gradient" x1="0.5" x2="0.5" y2="1" gradientUnits="objectBoundingBox">
      <stop offset="0" stop-color="#903cdf"/>
      <stop offset="1" stop-color="#481e70"/>
    </linearGradient>
    <filter id="Elipse_13846" x="27" y="31" width="116" height="116" filterUnits="userSpaceOnUse">
      <feOffset dy="3" input="SourceAlpha"/>
      <feGaussianBlur stdDeviation="3" result="blur"/>
      <feFlood flood-opacity="0.161"/>
      <feComposite operator="in" in2="blur"/>
      <feComposite in="SourceGraphic"/>
    </filter>
    <filter id="Elipse_13847" x="251" y="308" width="158" height="158" filterUnits="userSpaceOnUse">
      <feOffset dy="3" input="SourceAlpha"/>
      <feGaussianBlur stdDeviation="3" result="blur-2"/>
      <feFlood flood-opacity="0.161"/>
      <feComposite operator="in" in2="blur-2"/>
      <feComposite in="SourceGraphic"/>
    </filter>
    <clipPath id="clip-path-2">
      <rect id="Rectángulo_424031" data-name="Rectángulo 424031" width="300.3" height="419.568" fill="none"/>
    </clipPath>
    <clipPath id="clip-path-3">
      <path id="Trazado_1065029" data-name="Trazado 1065029" d="M321,164.266a7.161,7.161,0,0,0,7.161,7.161h3.581a7.161,7.161,0,0,0,7.161-7.161Z" transform="translate(-320.996 -164.266)" fill="none"/>
    </clipPath>
    <clipPath id="clip-path-4">
      <path id="Trazado_1065031" data-name="Trazado 1065031" d="M255.29,164.266a7.161,7.161,0,0,0,7.161,7.161h3.581a7.161,7.161,0,0,0,7.161-7.161Z" transform="translate(-255.29 -164.266)" fill="none"/>
    </clipPath>
    <clipPath id="clip-path-6">
      <rect id="Rectángulo_424033" data-name="Rectángulo 424033" width="80.404" height="45.945" fill="none"/>
    </clipPath>
    <clipPath id="clip-path-7">
      <rect id="Rectángulo_424034" data-name="Rectángulo 424034" width="91.391" height="52.224" fill="none"/>
    </clipPath>
    <clipPath id="clip-path-8">
      <rect id="Rectángulo_424035" data-name="Rectángulo 424035" width="77.645" height="49.41" fill="none"/>
    </clipPath>
  </defs>
  <g id="Enmascarar_grupo_1211603" data-name="Enmascarar grupo 1211603" transform="translate(-1020 -279)" clip-path="url(#clip-path)">
    <rect id="Rectángulo_423507" data-name="Rectángulo 423507" width="278" height="496" rx="13" transform="translate(1081 290)" fill="url(#linear-gradient)"/>
    <g transform="matrix(1, 0, 0, 1, 1020, 279)" filter="url(#Elipse_13846)">
      <circle id="Elipse_13846-2" data-name="Elipse 13846" cx="49" cy="49" r="49" transform="translate(36 37)" fill="#f6ecfe"/>
    </g>
    <g transform="matrix(1, 0, 0, 1, 1020, 279)" filter="url(#Elipse_13847)">
      <circle id="Elipse_13847-2" data-name="Elipse 13847" cx="70" cy="70" r="70" transform="translate(260 314)" fill="#f6ecfe"/>
    </g>
    <g id="Grupo_1229725" data-name="Grupo 1229725" transform="translate(1067.117 328.216)">
      <g id="Grupo_1229718" data-name="Grupo 1229718">
        <g id="Grupo_1229717" data-name="Grupo 1229717" clip-path="url(#clip-path-2)">
          <path id="Trazado_1064845" data-name="Trazado 1064845" d="M59.244,599.823,180.067,611.24,300.709,599.8a.553.553,0,0,1,.565.757L287.681,634.3,180.067,680.42,72.454,634.3,58.506,600.825a.726.726,0,0,1,.738-1" transform="translate(-29.782 -305.614)" fill="#1a145c"/>
          <path id="Trazado_1064846" data-name="Trazado 1064846" d="M305.42,252.9H255.289l3.581-41.179h42.969Z" transform="translate(-130.078 -107.878)" fill="#ffbead"/>
          <path id="Trazado_1064847" data-name="Trazado 1064847" d="M215.253,290.532l19.157-5.805H273.8l19.157,5.805c14.131,4.282,15.6,23.707,2.276,30.068L254.1,340.229,212.977,320.6c-13.326-6.36-11.856-25.785,2.275-30.068" transform="translate(-103.828 -145.078)" fill="#ffbead"/>
          <path id="Trazado_1064848" data-name="Trazado 1064848" d="M58.6,390.587,31.28,435.462A20.706,20.706,0,0,0,37.4,463.4l71.325,48.035-1.791-38.493L79.252,445.261a1.491,1.491,0,0,1-.091-2.008l17.032-20.439Z" transform="translate(-14.399 -199.017)" fill="#ffbead"/>
          <path id="Trazado_1064849" data-name="Trazado 1064849" d="M108.172,495.615c-1.619-.232-3.178-.434-4.736-.576a46.042,46.042,0,0,0-4.637-.191c-.771-.011-1.534.052-2.3.088-.384.021-.763.085-1.148.113l-.577.054-.571.09c-1.55.172-3.044.59-4.658.926.319-.253.654-.487.994-.72.169-.12.343-.228.517-.34s.362-.192.543-.289q.552-.276,1.118-.538c.384-.15.776-.279,1.17-.411l.593-.192.606-.136c.4-.088.811-.182,1.221-.244l1.237-.14c.413-.048.827-.032,1.241-.05a18.776,18.776,0,0,1,4.9.6,14.679,14.679,0,0,1,4.492,1.957" transform="translate(-45.624 -251.229)" fill="#1a145c"/>
          <path id="Trazado_1064850" data-name="Trazado 1064850" d="M470.6,390.587l27.315,44.875a20.706,20.706,0,0,1-6.121,27.94l-71.325,48.035,1.791-38.493,27.683-27.683a1.491,1.491,0,0,0,.091-2.008L433,422.814Z" transform="translate(-214.242 -199.017)" fill="#ffbead"/>
          <path id="Trazado_1064851" data-name="Trazado 1064851" d="M485.261,495.615a14.679,14.679,0,0,1,4.492-1.957,18.776,18.776,0,0,1,4.9-.6c.414.018.828,0,1.241.05l1.236.14c.41.062.817.156,1.221.244l.606.136.593.192c.393.132.786.261,1.17.411q.566.26,1.118.538c.181.1.366.184.543.289s.349.221.517.34c.34.232.675.466.994.72-1.615-.336-3.108-.754-4.658-.926l-.571-.09-.577-.054c-.385-.028-.764-.092-1.148-.113-.769-.035-1.533-.1-2.3-.088a46.042,46.042,0,0,0-4.637.191c-1.558.142-3.118.343-4.736.576" transform="translate(-247.256 -251.229)" fill="#1a145c"/>
          <path id="Trazado_1064852" data-name="Trazado 1064852" d="M129.855,412.22l-12.532-41.179L103,387.155c-30.436-7.161-41.179-28.646-41.179-28.646l32.317-46.86a17.4,17.4,0,0,1,9.384-6.807l41.536-12.307a.994.994,0,0,1,1.222.627l6.953,19.99a30.22,30.22,0,0,0,57.085,0l6.953-19.99a1,1,0,0,1,1.222-.627l41.536,12.307a17.4,17.4,0,0,1,9.384,6.807l32.317,46.86s-10.742,21.484-41.179,28.646L246.23,371.042,233.7,412.22Z" transform="translate(-31.5 -149.035)" fill="#fd0"/>
          <path id="Trazado_1064853" data-name="Trazado 1064853" d="M243.372,398.843a2.376,2.376,0,1,0,2.376,2.376,2.376,2.376,0,0,0-2.376-2.376" transform="translate(-122.795 -203.224)" fill="#ff9100"/>
          <path id="Trazado_1064854" data-name="Trazado 1064854" d="M198.845,522.329a2.37,2.37,0,0,0-3.268-2.2l1.377,4.525a2.376,2.376,0,0,0,1.891-2.326" transform="translate(-99.653 -264.933)" fill="#ff9100"/>
          <path id="Trazado_1064855" data-name="Trazado 1064855" d="M173.081,449.663a2.376,2.376,0,1,0-3.231,2.211l1.742-1.96.507,1.665a2.367,2.367,0,0,0,.982-1.916" transform="translate(-85.769 -227.907)" fill="#ff9100"/>
          <path id="Trazado_1064856" data-name="Trazado 1064856" d="M146.484,326.177a2.376,2.376,0,1,0,2.376,2.376,2.376,2.376,0,0,0-2.376-2.376" transform="translate(-73.428 -166.198)" fill="#ff9100"/>
          <path id="Trazado_1064857" data-name="Trazado 1064857" d="M243.372,471.509a2.376,2.376,0,1,0,2.376,2.376,2.376,2.376,0,0,0-2.376-2.376" transform="translate(-122.795 -240.249)" fill="#ff9100"/>
          <path id="Trazado_1064858" data-name="Trazado 1064858" d="M243.372,423.065a2.376,2.376,0,1,0,2.376,2.376,2.376,2.376,0,0,0-2.376-2.376" transform="translate(-122.795 -215.565)" fill="#ff9100"/>
          <path id="Trazado_1064859" data-name="Trazado 1064859" d="M243.372,447.287a2.376,2.376,0,1,0,2.376,2.376,2.376,2.376,0,0,0-2.376-2.376" transform="translate(-122.795 -227.907)" fill="#ff9100"/>
          <path id="Trazado_1064860" data-name="Trazado 1064860" d="M243.372,495.731a2.376,2.376,0,1,0,2.376,2.376,2.376,2.376,0,0,0-2.376-2.376" transform="translate(-122.795 -252.591)" fill="#ff9100"/>
          <path id="Trazado_1064861" data-name="Trazado 1064861" d="M146.484,350.4a2.376,2.376,0,1,0,2.376,2.376,2.376,2.376,0,0,0-2.376-2.376" transform="translate(-73.428 -178.54)" fill="#ff9100"/>
          <path id="Trazado_1064862" data-name="Trazado 1064862" d="M170.706,350.4a2.376,2.376,0,1,0,2.376,2.376,2.376,2.376,0,0,0-2.376-2.376" transform="translate(-85.77 -178.54)" fill="#ff9100"/>
          <path id="Trazado_1064863" data-name="Trazado 1064863" d="M170.706,326.177a2.376,2.376,0,1,0,2.376,2.376,2.376,2.376,0,0,0-2.376-2.376" transform="translate(-85.77 -166.198)" fill="#ff9100"/>
          <path id="Trazado_1064864" data-name="Trazado 1064864" d="M173.94,308.532l-3.6,1.068a2.36,2.36,0,0,0,3.6-1.068" transform="translate(-86.791 -157.207)" fill="#ff9100"/>
          <path id="Trazado_1064865" data-name="Trazado 1064865" d="M170.706,374.621A2.376,2.376,0,1,0,173.082,377a2.376,2.376,0,0,0-2.376-2.376" transform="translate(-85.77 -190.882)" fill="#ff9100"/>
          <path id="Trazado_1064866" data-name="Trazado 1064866" d="M146.484,374.621A2.376,2.376,0,1,0,148.86,377a2.376,2.376,0,0,0-2.376-2.376" transform="translate(-73.428 -190.882)" fill="#ff9100"/>
          <path id="Trazado_1064867" data-name="Trazado 1064867" d="M146.484,398.843a2.376,2.376,0,1,0,2.376,2.376,2.376,2.376,0,0,0-2.376-2.376" transform="translate(-73.428 -203.224)" fill="#ff9100"/>
          <path id="Trazado_1064868" data-name="Trazado 1064868" d="M146.484,447.287a2.376,2.376,0,1,0,2.376,2.376,2.376,2.376,0,0,0-2.376-2.376" transform="translate(-73.428 -227.907)" fill="#ff9100"/>
          <path id="Trazado_1064869" data-name="Trazado 1064869" d="M146.484,423.065a2.376,2.376,0,1,0,2.376,2.376,2.376,2.376,0,0,0-2.376-2.376" transform="translate(-73.428 -215.565)" fill="#ff9100"/>
          <path id="Trazado_1064870" data-name="Trazado 1064870" d="M243.372,374.621A2.376,2.376,0,1,0,245.748,377a2.376,2.376,0,0,0-2.376-2.376" transform="translate(-122.795 -190.882)" fill="#ff9100"/>
          <path id="Trazado_1064871" data-name="Trazado 1064871" d="M291.815,423.065a2.376,2.376,0,1,0,2.376,2.376,2.376,2.376,0,0,0-2.376-2.376" transform="translate(-147.479 -215.565)" fill="#ff9100"/>
          <path id="Trazado_1064872" data-name="Trazado 1064872" d="M267.593,447.287a2.376,2.376,0,1,0,2.376,2.376,2.376,2.376,0,0,0-2.376-2.376" transform="translate(-135.137 -227.907)" fill="#ff9100"/>
          <path id="Trazado_1064873" data-name="Trazado 1064873" d="M267.593,471.509a2.376,2.376,0,1,0,2.376,2.376,2.376,2.376,0,0,0-2.376-2.376" transform="translate(-135.137 -240.249)" fill="#ff9100"/>
          <path id="Trazado_1064874" data-name="Trazado 1064874" d="M291.815,398.843a2.376,2.376,0,1,0,2.376,2.376,2.376,2.376,0,0,0-2.376-2.376" transform="translate(-147.479 -203.224)" fill="#ff9100"/>
          <path id="Trazado_1064875" data-name="Trazado 1064875" d="M267.593,495.731a2.376,2.376,0,1,0,2.376,2.376,2.376,2.376,0,0,0-2.376-2.376" transform="translate(-135.137 -252.591)" fill="#ff9100"/>
          <path id="Trazado_1064876" data-name="Trazado 1064876" d="M267.593,374.621A2.376,2.376,0,1,0,269.969,377a2.376,2.376,0,0,0-2.376-2.376" transform="translate(-135.137 -190.882)" fill="#ff9100"/>
          <path id="Trazado_1064877" data-name="Trazado 1064877" d="M267.593,423.065a2.376,2.376,0,1,0,2.376,2.376,2.376,2.376,0,0,0-2.376-2.376" transform="translate(-135.137 -215.565)" fill="#ff9100"/>
          <path id="Trazado_1064878" data-name="Trazado 1064878" d="M267.593,398.843a2.376,2.376,0,1,0,2.376,2.376,2.376,2.376,0,0,0-2.376-2.376" transform="translate(-135.137 -203.224)" fill="#ff9100"/>
          <path id="Trazado_1064879" data-name="Trazado 1064879" d="M241,328.582a2.366,2.366,0,0,0,3.627,2.012c-.03-.084-.063-.166-.093-.251l-1.429-4.11a2.368,2.368,0,0,0-2.1,2.349" transform="translate(-122.795 -166.226)" fill="#ff9100"/>
          <path id="Trazado_1064880" data-name="Trazado 1064880" d="M289.439,377.023a2.376,2.376,0,1,0,3.468-2.1c-.451-.073-.9-.158-1.344-.252a2.368,2.368,0,0,0-2.124,2.35" transform="translate(-147.479 -190.908)" fill="#ff9100"/>
          <path id="Trazado_1064881" data-name="Trazado 1064881" d="M170.706,423.065a2.376,2.376,0,1,0,2.376,2.376,2.376,2.376,0,0,0-2.376-2.376" transform="translate(-85.77 -215.565)" fill="#ff9100"/>
          <path id="Trazado_1064882" data-name="Trazado 1064882" d="M243.372,524.7A2.376,2.376,0,1,0,241,522.328a2.376,2.376,0,0,0,2.376,2.376" transform="translate(-122.795 -264.933)" fill="#ff9100"/>
          <path id="Trazado_1064883" data-name="Trazado 1064883" d="M243.372,350.4a2.376,2.376,0,1,0,2.376,2.376,2.376,2.376,0,0,0-2.376-2.376" transform="translate(-122.795 -178.54)" fill="#ff9100"/>
          <path id="Trazado_1064884" data-name="Trazado 1064884" d="M291.815,495.731a2.376,2.376,0,1,0,2.376,2.376,2.376,2.376,0,0,0-2.376-2.376" transform="translate(-147.479 -252.591)" fill="#ff9100"/>
          <path id="Trazado_1064885" data-name="Trazado 1064885" d="M291.815,471.509a2.376,2.376,0,1,0,2.376,2.376,2.376,2.376,0,0,0-2.376-2.376" transform="translate(-147.479 -240.249)" fill="#ff9100"/>
          <path id="Trazado_1064886" data-name="Trazado 1064886" d="M291.815,447.287a2.376,2.376,0,1,0,2.376,2.376,2.376,2.376,0,0,0-2.376-2.376" transform="translate(-147.479 -227.907)" fill="#ff9100"/>
          <path id="Trazado_1064887" data-name="Trazado 1064887" d="M291.815,519.953a2.376,2.376,0,1,0,2.376,2.376,2.376,2.376,0,0,0-2.376-2.376" transform="translate(-147.479 -264.933)" fill="#ff9100"/>
          <path id="Trazado_1064888" data-name="Trazado 1064888" d="M98.04,423.065a2.376,2.376,0,1,0,2.376,2.376,2.376,2.376,0,0,0-2.376-2.376" transform="translate(-48.744 -215.565)" fill="#ff9100"/>
          <path id="Trazado_1064889" data-name="Trazado 1064889" d="M77.1,447.368q.907.948,1.938,1.934a2.368,2.368,0,0,0-1.938-1.934" transform="translate(-39.283 -227.949)" fill="#ff9100"/>
          <path id="Trazado_1064890" data-name="Trazado 1064890" d="M77.9,402.148a2.352,2.352,0,0,0-.533-1.482L74.8,404.4a2.347,2.347,0,0,0,3.106-2.25" transform="translate(-38.112 -204.152)" fill="#ff9100"/>
          <path id="Trazado_1064891" data-name="Trazado 1064891" d="M73.818,427.817a2.376,2.376,0,1,0-2.376-2.376,2.376,2.376,0,0,0,2.376,2.376" transform="translate(-36.402 -215.565)" fill="#ff9100"/>
          <path id="Trazado_1064892" data-name="Trazado 1064892" d="M98.04,398.843a2.376,2.376,0,1,0,2.376,2.376,2.376,2.376,0,0,0-2.376-2.376" transform="translate(-48.744 -203.224)" fill="#ff9100"/>
          <path id="Trazado_1064893" data-name="Trazado 1064893" d="M219.15,519.953a2.376,2.376,0,1,0,2.376,2.376,2.376,2.376,0,0,0-2.376-2.376" transform="translate(-110.453 -264.933)" fill="#ff9100"/>
          <path id="Trazado_1064894" data-name="Trazado 1064894" d="M219.15,495.731a2.376,2.376,0,1,0,2.376,2.376,2.376,2.376,0,0,0-2.376-2.376" transform="translate(-110.453 -252.591)" fill="#ff9100"/>
          <path id="Trazado_1064895" data-name="Trazado 1064895" d="M124.637,473.885a2.376,2.376,0,0,0-4.752,0,2.347,2.347,0,0,0,.03.3q1.849.806,3.838,1.54a2.359,2.359,0,0,0,.884-1.835" transform="translate(-61.085 -240.249)" fill="#ff9100"/>
          <path id="Trazado_1064896" data-name="Trazado 1064896" d="M146.484,471.509a2.376,2.376,0,0,0,0,4.752,2.342,2.342,0,0,0,.349-.035l2.02-2.272c0-.023.007-.045.007-.069a2.376,2.376,0,0,0-2.376-2.376" transform="translate(-73.428 -240.249)" fill="#ff9100"/>
          <path id="Trazado_1064897" data-name="Trazado 1064897" d="M98.04,447.287a2.376,2.376,0,1,0,2.376,2.376,2.376,2.376,0,0,0-2.376-2.376" transform="translate(-48.744 -227.907)" fill="#ff9100"/>
          <path id="Trazado_1064898" data-name="Trazado 1064898" d="M127.108,330.218a2.352,2.352,0,0,0-.14-.773c-.269.334-.529.677-.773,1.032l-1.46,2.117a2.376,2.376,0,0,0,2.373-2.376" transform="translate(-63.557 -167.863)" fill="#ff9100"/>
          <path id="Trazado_1064899" data-name="Trazado 1064899" d="M122.262,423.065a2.376,2.376,0,1,0,2.376,2.376,2.376,2.376,0,0,0-2.376-2.376" transform="translate(-61.086 -215.565)" fill="#ff9100"/>
          <path id="Trazado_1064900" data-name="Trazado 1064900" d="M98.04,379.373a2.376,2.376,0,1,0-1.842-3.86l-.206.3A2.349,2.349,0,0,0,95.664,377a2.376,2.376,0,0,0,2.376,2.376" transform="translate(-48.744 -190.882)" fill="#ff9100"/>
          <path id="Trazado_1064901" data-name="Trazado 1064901" d="M267.593,524.7a2.376,2.376,0,1,0-2.376-2.376,2.376,2.376,0,0,0,2.376,2.376" transform="translate(-135.137 -264.933)" fill="#ff9100"/>
          <path id="Trazado_1064902" data-name="Trazado 1064902" d="M122.262,447.287a2.376,2.376,0,1,0,2.376,2.376,2.376,2.376,0,0,0-2.376-2.376" transform="translate(-61.086 -227.907)" fill="#ff9100"/>
          <path id="Trazado_1064903" data-name="Trazado 1064903" d="M122.262,350.4a2.376,2.376,0,1,0,2.376,2.376,2.376,2.376,0,0,0-2.376-2.376" transform="translate(-61.086 -178.54)" fill="#ff9100"/>
          <path id="Trazado_1064904" data-name="Trazado 1064904" d="M122.262,374.621A2.376,2.376,0,1,0,124.638,377a2.376,2.376,0,0,0-2.376-2.376" transform="translate(-61.086 -190.882)" fill="#ff9100"/>
          <path id="Trazado_1064905" data-name="Trazado 1064905" d="M122.262,398.843a2.376,2.376,0,1,0,2.376,2.376,2.376,2.376,0,0,0-2.376-2.376" transform="translate(-61.086 -203.224)" fill="#ff9100"/>
          <path id="Trazado_1064906" data-name="Trazado 1064906" d="M219.15,326.177a2.376,2.376,0,1,0,2.376,2.376,2.376,2.376,0,0,0-2.376-2.376" transform="translate(-110.453 -166.198)" fill="#ff9100"/>
          <path id="Trazado_1064907" data-name="Trazado 1064907" d="M194.928,398.843a2.376,2.376,0,1,0,2.376,2.376,2.376,2.376,0,0,0-2.376-2.376" transform="translate(-98.112 -203.224)" fill="#ff9100"/>
          <path id="Trazado_1064908" data-name="Trazado 1064908" d="M194.928,423.065a2.376,2.376,0,1,0,2.376,2.376,2.376,2.376,0,0,0-2.376-2.376" transform="translate(-98.112 -215.565)" fill="#ff9100"/>
          <path id="Trazado_1064909" data-name="Trazado 1064909" d="M194.928,447.287a2.376,2.376,0,1,0,2.376,2.376,2.376,2.376,0,0,0-2.376-2.376" transform="translate(-98.112 -227.907)" fill="#ff9100"/>
          <path id="Trazado_1064910" data-name="Trazado 1064910" d="M194.928,495.731a2.376,2.376,0,1,0,2.376,2.376,2.376,2.376,0,0,0-2.376-2.376" transform="translate(-98.112 -252.591)" fill="#ff9100"/>
          <path id="Trazado_1064911" data-name="Trazado 1064911" d="M194.928,326.177a2.376,2.376,0,1,0,2.376,2.376,2.376,2.376,0,0,0-2.376-2.376" transform="translate(-98.112 -166.198)" fill="#ff9100"/>
          <path id="Trazado_1064912" data-name="Trazado 1064912" d="M194.928,471.509a2.376,2.376,0,1,0,2.376,2.376,2.376,2.376,0,0,0-2.376-2.376" transform="translate(-98.112 -240.249)" fill="#ff9100"/>
          <path id="Trazado_1064913" data-name="Trazado 1064913" d="M194.928,350.4a2.376,2.376,0,1,0,2.376,2.376,2.376,2.376,0,0,0-2.376-2.376" transform="translate(-98.112 -178.54)" fill="#ff9100"/>
          <path id="Trazado_1064914" data-name="Trazado 1064914" d="M194.928,374.621A2.376,2.376,0,1,0,197.3,377a2.376,2.376,0,0,0-2.376-2.376" transform="translate(-98.112 -190.882)" fill="#ff9100"/>
          <path id="Trazado_1064915" data-name="Trazado 1064915" d="M219.15,301.955a2.376,2.376,0,1,0,2.376,2.376,2.376,2.376,0,0,0-2.376-2.376" transform="translate(-110.453 -153.856)" fill="#ff9100"/>
          <path id="Trazado_1064916" data-name="Trazado 1064916" d="M219.15,398.843a2.376,2.376,0,1,0,2.376,2.376,2.376,2.376,0,0,0-2.376-2.376" transform="translate(-110.453 -203.224)" fill="#ff9100"/>
          <path id="Trazado_1064917" data-name="Trazado 1064917" d="M194.928,306.848a2.37,2.37,0,0,0,.761-4.616l-2.62.776a2.364,2.364,0,0,0,1.858,3.84" transform="translate(-98.112 -153.997)" fill="#ff9100"/>
          <path id="Trazado_1064918" data-name="Trazado 1064918" d="M219.15,374.621A2.376,2.376,0,1,0,221.526,377a2.376,2.376,0,0,0-2.376-2.376" transform="translate(-110.453 -190.882)" fill="#ff9100"/>
          <path id="Trazado_1064919" data-name="Trazado 1064919" d="M219.15,447.287a2.376,2.376,0,1,0,2.376,2.376,2.376,2.376,0,0,0-2.376-2.376" transform="translate(-110.453 -227.907)" fill="#ff9100"/>
          <path id="Trazado_1064920" data-name="Trazado 1064920" d="M219.15,423.065a2.376,2.376,0,1,0,2.376,2.376,2.376,2.376,0,0,0-2.376-2.376" transform="translate(-110.453 -215.565)" fill="#ff9100"/>
          <path id="Trazado_1064921" data-name="Trazado 1064921" d="M219.15,471.509a2.376,2.376,0,1,0,2.376,2.376,2.376,2.376,0,0,0-2.376-2.376" transform="translate(-110.453 -240.249)" fill="#ff9100"/>
          <path id="Trazado_1064922" data-name="Trazado 1064922" d="M170.706,398.843a2.376,2.376,0,1,0,2.376,2.376,2.376,2.376,0,0,0-2.376-2.376" transform="translate(-85.77 -203.224)" fill="#ff9100"/>
          <path id="Trazado_1064923" data-name="Trazado 1064923" d="M219.15,350.4a2.376,2.376,0,1,0,2.376,2.376,2.376,2.376,0,0,0-2.376-2.376" transform="translate(-110.453 -178.54)" fill="#ff9100"/>
          <path id="Trazado_1064924" data-name="Trazado 1064924" d="M364.481,350.4a2.376,2.376,0,1,0,2.376,2.376,2.376,2.376,0,0,0-2.376-2.376" transform="translate(-184.504 -178.54)" fill="#ff9100"/>
          <path id="Trazado_1064925" data-name="Trazado 1064925" d="M388.7,398.843a2.376,2.376,0,1,0,2.376,2.376,2.376,2.376,0,0,0-2.376-2.376" transform="translate(-196.846 -203.224)" fill="#ff9100"/>
          <path id="Trazado_1064926" data-name="Trazado 1064926" d="M388.7,423.065a2.376,2.376,0,1,0,2.376,2.376,2.376,2.376,0,0,0-2.376-2.376" transform="translate(-196.846 -215.565)" fill="#ff9100"/>
          <path id="Trazado_1064927" data-name="Trazado 1064927" d="M388.7,447.287a2.376,2.376,0,1,0,2.376,2.376,2.376,2.376,0,0,0-2.376-2.376" transform="translate(-196.846 -227.907)" fill="#ff9100"/>
          <path id="Trazado_1064928" data-name="Trazado 1064928" d="M388.7,374.621A2.376,2.376,0,1,0,391.079,377a2.376,2.376,0,0,0-2.376-2.376" transform="translate(-196.846 -190.882)" fill="#ff9100"/>
          <path id="Trazado_1064929" data-name="Trazado 1064929" d="M388.7,524.7a2.376,2.376,0,1,0-2.376-2.376A2.376,2.376,0,0,0,388.7,524.7" transform="translate(-196.846 -264.933)" fill="#ff9100"/>
          <path id="Trazado_1064930" data-name="Trazado 1064930" d="M388.7,301.955a2.376,2.376,0,1,0,2.376,2.376,2.376,2.376,0,0,0-2.376-2.376" transform="translate(-196.846 -153.856)" fill="#ff9100"/>
          <path id="Trazado_1064931" data-name="Trazado 1064931" d="M340.258,495.731a2.376,2.376,0,1,0,2.376,2.376,2.376,2.376,0,0,0-2.376-2.376" transform="translate(-172.162 -252.591)" fill="#ff9100"/>
          <path id="Trazado_1064932" data-name="Trazado 1064932" d="M388.7,326.177a2.376,2.376,0,1,0,2.376,2.376,2.376,2.376,0,0,0-2.376-2.376" transform="translate(-196.846 -166.198)" fill="#ff9100"/>
          <path id="Trazado_1064933" data-name="Trazado 1064933" d="M388.7,350.4a2.376,2.376,0,1,0,2.376,2.376A2.376,2.376,0,0,0,388.7,350.4" transform="translate(-196.846 -178.54)" fill="#ff9100"/>
          <path id="Trazado_1064934" data-name="Trazado 1064934" d="M412.925,423.065a2.376,2.376,0,1,0,2.376,2.376,2.376,2.376,0,0,0-2.376-2.376" transform="translate(-209.188 -215.565)" fill="#ff9100"/>
          <path id="Trazado_1064935" data-name="Trazado 1064935" d="M412.925,398.843a2.376,2.376,0,1,0,2.376,2.376,2.376,2.376,0,0,0-2.376-2.376" transform="translate(-209.188 -203.224)" fill="#ff9100"/>
          <path id="Trazado_1064936" data-name="Trazado 1064936" d="M412.925,447.287a2.376,2.376,0,1,0,2.376,2.376,2.376,2.376,0,0,0-2.376-2.376" transform="translate(-209.188 -227.907)" fill="#ff9100"/>
          <path id="Trazado_1064937" data-name="Trazado 1064937" d="M412.925,471.509a2.376,2.376,0,1,0,2.376,2.376,2.376,2.376,0,0,0-2.376-2.376" transform="translate(-209.188 -240.249)" fill="#ff9100"/>
          <path id="Trazado_1064938" data-name="Trazado 1064938" d="M412.925,374.621A2.376,2.376,0,1,0,415.3,377a2.376,2.376,0,0,0-2.376-2.376" transform="translate(-209.188 -190.882)" fill="#ff9100"/>
          <path id="Trazado_1064939" data-name="Trazado 1064939" d="M412.925,326.177a2.376,2.376,0,1,0,2.376,2.376,2.376,2.376,0,0,0-2.376-2.376" transform="translate(-209.188 -166.198)" fill="#ff9100"/>
          <path id="Trazado_1064940" data-name="Trazado 1064940" d="M388.7,471.509a2.376,2.376,0,1,0,2.376,2.376,2.376,2.376,0,0,0-2.376-2.376" transform="translate(-196.846 -240.249)" fill="#ff9100"/>
          <path id="Trazado_1064941" data-name="Trazado 1064941" d="M412.925,350.4a2.376,2.376,0,1,0,2.376,2.376,2.376,2.376,0,0,0-2.376-2.376" transform="translate(-209.188 -178.54)" fill="#ff9100"/>
          <path id="Trazado_1064942" data-name="Trazado 1064942" d="M412.925,495.731a2.376,2.376,0,1,0,2.376,2.376,2.376,2.376,0,0,0-2.376-2.376" transform="translate(-209.188 -252.591)" fill="#ff9100"/>
          <path id="Trazado_1064943" data-name="Trazado 1064943" d="M410.549,522.329a2.377,2.377,0,0,0,1.891,2.326l1.377-4.525a2.37,2.37,0,0,0-3.268,2.2" transform="translate(-209.188 -264.933)" fill="#ff9100"/>
          <path id="Trazado_1064944" data-name="Trazado 1064944" d="M485.591,374.621A2.376,2.376,0,1,0,487.967,377a2.376,2.376,0,0,0-2.376-2.376" transform="translate(-246.214 -190.882)" fill="#ff9100"/>
          <path id="Trazado_1064945" data-name="Trazado 1064945" d="M485.588,332.594l-1.46-2.117c-.245-.355-.5-.7-.773-1.032a2.351,2.351,0,0,0,2.234,3.149" transform="translate(-246.214 -167.863)" fill="#ff9100"/>
          <path id="Trazado_1064946" data-name="Trazado 1064946" d="M485.591,447.287a2.376,2.376,0,1,0,2.376,2.376,2.376,2.376,0,0,0-2.376-2.376" transform="translate(-246.214 -227.907)" fill="#ff9100"/>
          <path id="Trazado_1064947" data-name="Trazado 1064947" d="M485.591,398.843a2.376,2.376,0,1,0,2.376,2.376,2.376,2.376,0,0,0-2.376-2.376" transform="translate(-246.214 -203.224)" fill="#ff9100"/>
          <path id="Trazado_1064948" data-name="Trazado 1064948" d="M531.741,449.3c.687-.655,1.334-1.3,1.938-1.934a2.368,2.368,0,0,0-1.938,1.934" transform="translate(-270.94 -227.949)" fill="#ff9100"/>
          <path id="Trazado_1064949" data-name="Trazado 1064949" d="M531.658,402.148a2.347,2.347,0,0,0,3.106,2.25l-2.574-3.731a2.354,2.354,0,0,0-.532,1.482" transform="translate(-270.897 -204.152)" fill="#ff9100"/>
          <path id="Trazado_1064950" data-name="Trazado 1064950" d="M534.035,423.065a2.376,2.376,0,1,0,2.376,2.376,2.376,2.376,0,0,0-2.376-2.376" transform="translate(-270.898 -215.565)" fill="#ff9100"/>
          <path id="Trazado_1064951" data-name="Trazado 1064951" d="M485.591,350.4a2.376,2.376,0,1,0,2.376,2.376,2.376,2.376,0,0,0-2.376-2.376" transform="translate(-246.214 -178.54)" fill="#ff9100"/>
          <path id="Trazado_1064952" data-name="Trazado 1064952" d="M461.369,476.261a2.376,2.376,0,1,0-2.376-2.376c0,.024.006.046.007.069l2.02,2.272a2.342,2.342,0,0,0,.349.035" transform="translate(-233.872 -240.249)" fill="#ff9100"/>
          <path id="Trazado_1064953" data-name="Trazado 1064953" d="M485.591,471.509a2.367,2.367,0,0,0-1.492,4.212q1.989-.733,3.838-1.54a2.264,2.264,0,0,0,.03-.3,2.376,2.376,0,0,0-2.376-2.376" transform="translate(-246.214 -240.249)" fill="#ff9100"/>
          <path id="Trazado_1064954" data-name="Trazado 1064954" d="M485.591,423.065a2.376,2.376,0,1,0,2.376,2.376,2.376,2.376,0,0,0-2.376-2.376" transform="translate(-246.214 -215.565)" fill="#ff9100"/>
          <path id="Trazado_1064955" data-name="Trazado 1064955" d="M509.813,374.621A2.376,2.376,0,1,0,512.189,377a2.351,2.351,0,0,0-.328-1.185l-.206-.3a2.361,2.361,0,0,0-1.842-.892" transform="translate(-258.556 -190.882)" fill="#ff9100"/>
          <path id="Trazado_1064956" data-name="Trazado 1064956" d="M439.522,449.663a2.376,2.376,0,1,0-3.77,1.916l.507-1.665,1.742,1.96a2.372,2.372,0,0,0,1.52-2.211" transform="translate(-221.53 -227.907)" fill="#ff9100"/>
          <path id="Trazado_1064957" data-name="Trazado 1064957" d="M509.813,398.843a2.376,2.376,0,1,0,2.376,2.376,2.376,2.376,0,0,0-2.376-2.376" transform="translate(-258.556 -203.224)" fill="#ff9100"/>
          <path id="Trazado_1064958" data-name="Trazado 1064958" d="M509.813,447.287a2.376,2.376,0,1,0,2.376,2.376,2.376,2.376,0,0,0-2.376-2.376" transform="translate(-258.556 -227.907)" fill="#ff9100"/>
          <path id="Trazado_1064959" data-name="Trazado 1064959" d="M509.813,423.065a2.376,2.376,0,1,0,2.376,2.376,2.376,2.376,0,0,0-2.376-2.376" transform="translate(-258.556 -215.565)" fill="#ff9100"/>
          <path id="Trazado_1064960" data-name="Trazado 1064960" d="M388.7,495.731a2.376,2.376,0,1,0,2.376,2.376,2.376,2.376,0,0,0-2.376-2.376" transform="translate(-196.846 -252.591)" fill="#ff9100"/>
          <path id="Trazado_1064961" data-name="Trazado 1064961" d="M316.037,524.7a2.376,2.376,0,1,0-2.376-2.376,2.376,2.376,0,0,0,2.376,2.376" transform="translate(-159.821 -264.933)" fill="#ff9100"/>
          <path id="Trazado_1064962" data-name="Trazado 1064962" d="M316.037,423.065a2.376,2.376,0,1,0,2.376,2.376,2.376,2.376,0,0,0-2.376-2.376" transform="translate(-159.821 -215.565)" fill="#ff9100"/>
          <path id="Trazado_1064963" data-name="Trazado 1064963" d="M316.037,398.843a2.376,2.376,0,1,0,2.376,2.376,2.376,2.376,0,0,0-2.376-2.376" transform="translate(-159.821 -203.224)" fill="#ff9100"/>
          <path id="Trazado_1064964" data-name="Trazado 1064964" d="M316.037,447.287a2.376,2.376,0,1,0,2.376,2.376,2.376,2.376,0,0,0-2.376-2.376" transform="translate(-159.821 -227.907)" fill="#ff9100"/>
          <path id="Trazado_1064965" data-name="Trazado 1064965" d="M364.481,495.731a2.376,2.376,0,1,0,2.376,2.376,2.376,2.376,0,0,0-2.376-2.376" transform="translate(-184.504 -252.591)" fill="#ff9100"/>
          <path id="Trazado_1064966" data-name="Trazado 1064966" d="M364.481,447.287a2.376,2.376,0,1,0,2.376,2.376,2.376,2.376,0,0,0-2.376-2.376" transform="translate(-184.504 -227.907)" fill="#ff9100"/>
          <path id="Trazado_1064967" data-name="Trazado 1064967" d="M316.037,495.731a2.376,2.376,0,1,0,2.376,2.376,2.376,2.376,0,0,0-2.376-2.376" transform="translate(-159.821 -252.591)" fill="#ff9100"/>
          <path id="Trazado_1064968" data-name="Trazado 1064968" d="M364.481,471.509a2.376,2.376,0,1,0,2.376,2.376,2.376,2.376,0,0,0-2.376-2.376" transform="translate(-184.504 -240.249)" fill="#ff9100"/>
          <path id="Trazado_1064969" data-name="Trazado 1064969" d="M368.027,328.582a2.368,2.368,0,0,0-2.1-2.349l-1.429,4.11c-.029.085-.063.167-.093.251a2.366,2.366,0,0,0,3.626-2.012" transform="translate(-185.674 -166.226)" fill="#ff9100"/>
          <path id="Trazado_1064970" data-name="Trazado 1064970" d="M316.037,471.509a2.376,2.376,0,1,0,2.376,2.376,2.376,2.376,0,0,0-2.376-2.376" transform="translate(-159.821 -240.249)" fill="#ff9100"/>
          <path id="Trazado_1064971" data-name="Trazado 1064971" d="M340.258,447.287a2.376,2.376,0,1,0,2.376,2.376,2.376,2.376,0,0,0-2.376-2.376" transform="translate(-172.162 -227.907)" fill="#ff9100"/>
          <path id="Trazado_1064972" data-name="Trazado 1064972" d="M340.258,423.065a2.376,2.376,0,1,0,2.376,2.376,2.376,2.376,0,0,0-2.376-2.376" transform="translate(-172.162 -215.565)" fill="#ff9100"/>
          <path id="Trazado_1064973" data-name="Trazado 1064973" d="M340.258,519.953a2.376,2.376,0,1,0,2.376,2.376,2.376,2.376,0,0,0-2.376-2.376" transform="translate(-172.162 -264.933)" fill="#ff9100"/>
          <path id="Trazado_1064974" data-name="Trazado 1064974" d="M340.258,471.509a2.376,2.376,0,1,0,2.376,2.376,2.376,2.376,0,0,0-2.376-2.376" transform="translate(-172.162 -240.249)" fill="#ff9100"/>
          <path id="Trazado_1064975" data-name="Trazado 1064975" d="M313.661,377.023a2.376,2.376,0,1,0,2.628-2.35c-.445.093-.893.179-1.344.252a2.368,2.368,0,0,0-1.284,2.1" transform="translate(-159.821 -190.908)" fill="#ff9100"/>
          <path id="Trazado_1064976" data-name="Trazado 1064976" d="M340.258,398.843a2.376,2.376,0,1,0,2.376,2.376,2.376,2.376,0,0,0-2.376-2.376" transform="translate(-172.162 -203.224)" fill="#ff9100"/>
          <path id="Trazado_1064977" data-name="Trazado 1064977" d="M340.258,374.621A2.376,2.376,0,1,0,342.634,377a2.376,2.376,0,0,0-2.376-2.376" transform="translate(-172.162 -190.882)" fill="#ff9100"/>
          <path id="Trazado_1064978" data-name="Trazado 1064978" d="M437.147,374.621A2.376,2.376,0,1,0,439.523,377a2.376,2.376,0,0,0-2.376-2.376" transform="translate(-221.53 -190.882)" fill="#ff9100"/>
          <path id="Trazado_1064979" data-name="Trazado 1064979" d="M437.147,423.065a2.376,2.376,0,1,0,2.376,2.376,2.376,2.376,0,0,0-2.376-2.376" transform="translate(-221.53 -215.565)" fill="#ff9100"/>
          <path id="Trazado_1064980" data-name="Trazado 1064980" d="M437.147,398.843a2.376,2.376,0,1,0,2.376,2.376,2.376,2.376,0,0,0-2.376-2.376" transform="translate(-221.53 -203.224)" fill="#ff9100"/>
          <path id="Trazado_1064981" data-name="Trazado 1064981" d="M461.369,326.177a2.376,2.376,0,1,0,2.376,2.376,2.376,2.376,0,0,0-2.376-2.376" transform="translate(-233.872 -166.198)" fill="#ff9100"/>
          <path id="Trazado_1064982" data-name="Trazado 1064982" d="M461.369,350.4a2.376,2.376,0,1,0,2.376,2.376,2.376,2.376,0,0,0-2.376-2.376" transform="translate(-233.872 -178.54)" fill="#ff9100"/>
          <path id="Trazado_1064983" data-name="Trazado 1064983" d="M437.147,326.177a2.376,2.376,0,1,0,2.376,2.376,2.376,2.376,0,0,0-2.376-2.376" transform="translate(-221.53 -166.198)" fill="#ff9100"/>
          <path id="Trazado_1064984" data-name="Trazado 1064984" d="M437.317,310.058a2.357,2.357,0,0,0,1.392-.458l-3.6-1.068a2.371,2.371,0,0,0,2.212,1.526" transform="translate(-221.7 -157.207)" fill="#ff9100"/>
          <path id="Trazado_1064985" data-name="Trazado 1064985" d="M461.369,374.621A2.376,2.376,0,1,0,463.745,377a2.376,2.376,0,0,0-2.376-2.376" transform="translate(-233.872 -190.882)" fill="#ff9100"/>
          <path id="Trazado_1064986" data-name="Trazado 1064986" d="M437.147,350.4a2.376,2.376,0,1,0,2.376,2.376,2.376,2.376,0,0,0-2.376-2.376" transform="translate(-221.53 -178.54)" fill="#ff9100"/>
          <path id="Trazado_1064987" data-name="Trazado 1064987" d="M461.369,423.065a2.376,2.376,0,1,0,2.376,2.376,2.376,2.376,0,0,0-2.376-2.376" transform="translate(-233.872 -215.565)" fill="#ff9100"/>
          <path id="Trazado_1064988" data-name="Trazado 1064988" d="M364.481,374.621A2.376,2.376,0,1,0,366.857,377a2.376,2.376,0,0,0-2.376-2.376" transform="translate(-184.504 -190.882)" fill="#ff9100"/>
          <path id="Trazado_1064989" data-name="Trazado 1064989" d="M364.481,398.843a2.376,2.376,0,1,0,2.376,2.376,2.376,2.376,0,0,0-2.376-2.376" transform="translate(-184.504 -203.224)" fill="#ff9100"/>
          <path id="Trazado_1064990" data-name="Trazado 1064990" d="M364.481,524.7a2.376,2.376,0,1,0-2.376-2.376,2.376,2.376,0,0,0,2.376,2.376" transform="translate(-184.504 -264.933)" fill="#ff9100"/>
          <path id="Trazado_1064991" data-name="Trazado 1064991" d="M364.481,423.065a2.376,2.376,0,1,0,2.376,2.376,2.376,2.376,0,0,0-2.376-2.376" transform="translate(-184.504 -215.565)" fill="#ff9100"/>
          <path id="Trazado_1064992" data-name="Trazado 1064992" d="M461.369,447.287a2.376,2.376,0,1,0,2.376,2.376,2.376,2.376,0,0,0-2.376-2.376" transform="translate(-233.872 -227.907)" fill="#ff9100"/>
          <path id="Trazado_1064993" data-name="Trazado 1064993" d="M410.549,304.472a2.376,2.376,0,1,0,4.234-1.464l-2.619-.776a2.369,2.369,0,0,0-1.615,2.24" transform="translate(-209.188 -153.997)" fill="#ff9100"/>
          <path id="Trazado_1064994" data-name="Trazado 1064994" d="M461.369,398.843a2.376,2.376,0,1,0,2.376,2.376,2.376,2.376,0,0,0-2.376-2.376" transform="translate(-233.872 -203.224)" fill="#ff9100"/>
          <path id="Trazado_1064995" data-name="Trazado 1064995" d="M103,455.736a52.028,52.028,0,0,1-12.647-3.04c-1.029-.368-2.027-.811-3.036-1.233-.99-.463-1.991-.907-2.956-1.425a54.6,54.6,0,0,1-5.651-3.35,52.571,52.571,0,0,1-9.875-8.629,45.961,45.961,0,0,1-3.986-5.2,30.367,30.367,0,0,1-3.029-5.771,58.224,58.224,0,0,0,4.074,4.966q2.148,2.362,4.457,4.532a80.255,80.255,0,0,0,9.865,7.877c1.744,1.175,3.522,2.306,5.359,3.34.9.546,1.85,1.011,2.77,1.532l1.414.717c.469.245.94.488,1.422.706,3.814,1.849,7.767,3.444,11.819,4.975" transform="translate(-31.5 -217.616)" fill="#fff"/>
          <path id="Trazado_1064996" data-name="Trazado 1064996" d="M508.189,427.091a30.4,30.4,0,0,1-3.032,5.769,46.1,46.1,0,0,1-3.986,5.2,52.742,52.742,0,0,1-9.873,8.632,54.483,54.483,0,0,1-5.649,3.352c-.965.517-1.965.963-2.955,1.426-1.009.422-2.007.867-3.036,1.233a51.822,51.822,0,0,1-12.648,3.037c4.051-1.535,8-3.131,11.818-4.979.482-.219.952-.462,1.421-.707l1.414-.717c.919-.521,1.868-.984,2.77-1.532.453-.27.918-.518,1.368-.791l1.345-.827c.455-.265.888-.564,1.332-.847s.886-.568,1.314-.873a79.8,79.8,0,0,0,9.868-7.874q2.315-2.165,4.457-4.532a57.94,57.94,0,0,0,4.071-4.968" transform="translate(-237.957 -217.617)" fill="#fff"/>
          <path id="Trazado_1064997" data-name="Trazado 1064997" d="M234.023,293.856c1.881,4.508,3.65,9.055,5.425,13.6l1.307,3.418.652,1.709c.215.573.433,1.143.673,1.677a28.815,28.815,0,0,0,3.417,6.181,29.527,29.527,0,0,0,48.041,0,28.694,28.694,0,0,0,3.416-6.18c.24-.535.458-1.1.673-1.677l.652-1.709,1.307-3.417c1.776-4.545,3.545-9.092,5.428-13.6-1.32,4.7-2.755,9.366-4.183,14.032l-1.1,3.491-.549,1.745c-.179.581-.362,1.162-.586,1.755a29.108,29.108,0,0,1-3.337,6.747l-.525.788-.264.393-.292.373-1.171,1.492a33.932,33.932,0,0,1-2.659,2.706,30.449,30.449,0,0,1-6.184,4.4,31.714,31.714,0,0,1-7.093,2.75,30.388,30.388,0,0,1-15.114,0,31.525,31.525,0,0,1-7.092-2.751,30.465,30.465,0,0,1-6.184-4.4,33.432,33.432,0,0,1-2.657-2.707l-1.171-1.491-.292-.373-.264-.393-.525-.788a29.026,29.026,0,0,1-3.336-6.746c-.223-.594-.407-1.175-.586-1.755l-.549-1.745-1.1-3.491c-1.429-4.665-2.864-9.329-4.186-14.031" transform="translate(-119.242 -149.729)" fill="#fff"/>
          <path id="Trazado_1064998" data-name="Trazado 1064998" d="M139.347,783.933l-52.259-8.772a13.71,13.71,0,0,0-14.195,20.286,37.493,37.493,0,0,0,38.171,18.579l42.849-6.425Z" transform="translate(-36.232 -394.873)" fill="#fd0"/>
          <path id="Trazado_1064999" data-name="Trazado 1064999" d="M216.22,815.858l-16.694,2.5c-6.784-7.422-6.534-17.523-5.736-23.017a8.514,8.514,0,0,1,1.844-4.165l6.019,1.01Z" transform="translate(-98.539 -403.132)" fill="#1a145c"/>
          <path id="Trazado_1065000" data-name="Trazado 1065000" d="M389.311,654.884l10.145-16.513a28.074,28.074,0,0,0,3.241-21.8,23.743,23.743,0,0,0-24.046-17.713,51.543,51.543,0,0,0-23.394,6.826l-148.592,85.58a6.786,6.786,0,0,0-3.265,4.474c-1.275,6.058-2.17,19.421,12.79,24.807a6.79,6.79,0,0,0,4.516.014l152.66-52.87a30.384,30.384,0,0,0,15.945-12.806" transform="translate(-103.31 -305.126)" fill="#f15199"/>
          <path id="Trazado_1065001" data-name="Trazado 1065001" d="M386.964,783.93l52.258-8.772a13.711,13.711,0,0,1,14.2,20.286,37.493,37.493,0,0,1-38.171,18.579L372.4,807.6Z" transform="translate(-189.749 -394.872)" fill="#fd0"/>
          <path id="Trazado_1065002" data-name="Trazado 1065002" d="M372.4,815.858l16.694,2.5c6.784-7.422,6.534-17.523,5.736-23.017a8.515,8.515,0,0,0-1.844-4.165l-6.019,1.01Z" transform="translate(-189.749 -403.132)" fill="#1a145c"/>
          <path id="Trazado_1065003" data-name="Trazado 1065003" d="M14.3,654.887,4.155,638.374a28.074,28.074,0,0,1-3.241-21.8A23.743,23.743,0,0,1,24.96,598.862a51.544,51.544,0,0,1,23.394,6.826l148.592,85.58a6.786,6.786,0,0,1,3.265,4.474c1.275,6.058,2.17,19.421-12.79,24.807a6.79,6.79,0,0,1-4.516.014l-152.66-52.87A30.384,30.384,0,0,1,14.3,654.887" transform="translate(0 -305.127)" fill="#f15199"/>
          <path id="Trazado_1065004" data-name="Trazado 1065004" d="M255.741,806.438c-4.056-1.012-8.053-2.192-12.031-3.43-1.994-.6-3.967-1.267-5.95-1.9l-5.917-2-5.886-2.088c-1.951-.728-3.913-1.425-5.853-2.185-3.891-1.487-7.762-3.033-11.574-4.748,4.056,1.01,8.054,2.189,12.031,3.427,1.995.6,3.967,1.269,5.95,1.9l5.917,2,5.886,2.091c1.951.727,3.912,1.425,5.852,2.185,3.891,1.487,7.762,3.033,11.575,4.745" transform="translate(-106.253 -402.576)" fill="#1a145c"/>
          <path id="Trazado_1065005" data-name="Trazado 1065005" d="M238.876,693.6c6.834,3.508,13.579,7.17,20.294,10.885,3.366,1.843,6.7,3.742,10.048,5.614l10,5.7,9.95,5.785c3.3,1.958,6.616,3.886,9.9,5.873,6.584,3.943,13.135,7.941,19.6,12.094-6.835-3.506-13.581-7.167-20.295-10.882-3.366-1.843-6.7-3.743-10.048-5.615l-10-5.7-9.948-5.787c-3.3-1.957-6.615-3.887-9.9-5.873-6.583-3.943-13.135-7.941-19.6-12.091" transform="translate(-121.715 -353.413)" fill="#fff"/>
          <path id="Trazado_1065006" data-name="Trazado 1065006" d="M303.4,523.367c.657-4.042-1.489-7.907-4.39-7.907H159.967c-2.9,0-5.047,3.865-4.39,7.907Z" transform="translate(-79.211 -262.644)" fill="#fff"/>
          <path id="Trazado_1065007" data-name="Trazado 1065007" d="M286.78,598.986H172.2l-16.618-71.458a4.507,4.507,0,0,1,4.39-5.528h139.04a4.507,4.507,0,0,1,4.39,5.528Z" transform="translate(-79.211 -265.976)" fill="#cce7ff"/>
          <path id="Trazado_1065008" data-name="Trazado 1065008" d="M275.526,597.574h0a3.581,3.581,0,0,1,3.488-4.392h23.208a3.581,3.581,0,1,1,0,7.161H279.013a3.581,3.581,0,0,1-3.488-2.77" transform="translate(-140.341 -302.246)" fill="#fff"/>
          <path id="Trazado_1065009" data-name="Trazado 1065009" d="M300.959,684.336H192.791a3.208,3.208,0,0,1-3.208-3.208v-2.163H304.167v2.163a3.208,3.208,0,0,1-3.208,3.208" transform="translate(-96.599 -345.955)" fill="#cce7ff"/>
          <rect id="Rectángulo_424000" data-name="Rectángulo 424000" width="114.584" height="0.895" transform="translate(92.985 333.01)" fill="#1a145c"/>
          <rect id="Rectángulo_424001" data-name="Rectángulo 424001" width="0.981" height="5.371" transform="translate(133.672 333.01)" fill="#1a145c"/>
          <rect id="Rectángulo_424002" data-name="Rectángulo 424002" width="0.981" height="5.371" transform="translate(130.092 333.01)" fill="#1a145c"/>
          <rect id="Rectángulo_424003" data-name="Rectángulo 424003" width="0.981" height="5.371" transform="translate(137.253 333.01)" fill="#1a145c"/>
          <rect id="Rectángulo_424004" data-name="Rectángulo 424004" width="0.981" height="5.371" transform="translate(144.415 333.01)" fill="#1a145c"/>
          <rect id="Rectángulo_424005" data-name="Rectángulo 424005" width="0.981" height="5.371" transform="translate(140.834 333.01)" fill="#1a145c"/>
          <rect id="Rectángulo_424006" data-name="Rectángulo 424006" width="0.981" height="5.371" transform="translate(151.576 333.01)" fill="#1a145c"/>
          <rect id="Rectángulo_424007" data-name="Rectángulo 424007" width="0.981" height="5.371" transform="translate(126.511 333.01)" fill="#1a145c"/>
          <rect id="Rectángulo_424008" data-name="Rectángulo 424008" width="0.981" height="5.371" transform="translate(147.996 333.01)" fill="#1a145c"/>
          <rect id="Rectángulo_424009" data-name="Rectángulo 424009" width="0.981" height="5.371" transform="translate(97.865 333.01)" fill="#1a145c"/>
          <rect id="Rectángulo_424010" data-name="Rectángulo 424010" width="0.981" height="5.371" transform="translate(122.93 333.01)" fill="#1a145c"/>
          <rect id="Rectángulo_424011" data-name="Rectángulo 424011" width="0.981" height="5.371" transform="translate(101.446 333.01)" fill="#1a145c"/>
          <rect id="Rectángulo_424012" data-name="Rectángulo 424012" width="0.981" height="5.371" transform="translate(105.026 333.01)" fill="#1a145c"/>
          <rect id="Rectángulo_424013" data-name="Rectángulo 424013" width="0.981" height="5.371" transform="translate(108.607 333.01)" fill="#1a145c"/>
          <rect id="Rectángulo_424014" data-name="Rectángulo 424014" width="0.981" height="5.371" transform="translate(115.769 333.01)" fill="#1a145c"/>
          <rect id="Rectángulo_424015" data-name="Rectángulo 424015" width="0.981" height="5.371" transform="translate(112.188 333.01)" fill="#1a145c"/>
          <rect id="Rectángulo_424016" data-name="Rectángulo 424016" width="0.981" height="5.371" transform="translate(119.35 333.01)" fill="#1a145c"/>
          <rect id="Rectángulo_424017" data-name="Rectángulo 424017" width="0.981" height="5.371" transform="translate(194.545 333.01)" fill="#1a145c"/>
          <rect id="Rectángulo_424018" data-name="Rectángulo 424018" width="0.981" height="5.371" transform="translate(190.964 333.01)" fill="#1a145c"/>
          <rect id="Rectángulo_424019" data-name="Rectángulo 424019" width="0.981" height="5.371" transform="translate(198.126 333.01)" fill="#1a145c"/>
          <rect id="Rectángulo_424020" data-name="Rectángulo 424020" width="0.981" height="5.371" transform="translate(187.383 333.01)" fill="#1a145c"/>
          <path id="Trazado_1065010" data-name="Trazado 1065010" d="M418.555,684.2a3.189,3.189,0,0,0,.981-.5v-4.738h-.981Z" transform="translate(-213.267 -345.955)" fill="#1a145c"/>
          <path id="Trazado_1065011" data-name="Trazado 1065011" d="M192.234,683.7a3.179,3.179,0,0,0,.981.5v-5.234h-.981Z" transform="translate(-97.95 -345.954)" fill="#1a145c"/>
          <rect id="Rectángulo_424021" data-name="Rectángulo 424021" width="0.981" height="5.371" transform="translate(183.803 333.01)" fill="#1a145c"/>
          <rect id="Rectángulo_424022" data-name="Rectángulo 424022" width="0.981" height="5.371" transform="translate(201.707 333.01)" fill="#1a145c"/>
          <rect id="Rectángulo_424023" data-name="Rectángulo 424023" width="0.981" height="5.371" transform="translate(180.222 333.01)" fill="#1a145c"/>
          <rect id="Rectángulo_424024" data-name="Rectángulo 424024" width="0.981" height="5.371" transform="translate(165.899 333.01)" fill="#1a145c"/>
          <rect id="Rectángulo_424025" data-name="Rectángulo 424025" width="0.981" height="5.371" transform="translate(162.319 333.01)" fill="#1a145c"/>
          <rect id="Rectángulo_424026" data-name="Rectángulo 424026" width="0.981" height="5.371" transform="translate(158.738 333.01)" fill="#1a145c"/>
          <rect id="Rectángulo_424027" data-name="Rectángulo 424027" width="0.981" height="5.371" transform="translate(155.157 333.01)" fill="#1a145c"/>
          <rect id="Rectángulo_424028" data-name="Rectángulo 424028" width="0.981" height="5.371" transform="translate(169.48 333.01)" fill="#1a145c"/>
          <rect id="Rectángulo_424029" data-name="Rectángulo 424029" width="0.981" height="5.371" transform="translate(176.642 333.01)" fill="#1a145c"/>
          <rect id="Rectángulo_424030" data-name="Rectángulo 424030" width="0.981" height="5.371" transform="translate(173.061 333.01)" fill="#1a145c"/>
          <path id="Trazado_1065012" data-name="Trazado 1065012" d="M298.653,151.856l-20.259,23.636a19.463,19.463,0,0,1-29.556,0l-20.26-23.636a25.511,25.511,0,0,1-6.141-16.6v-58.6h82.357v58.6a25.511,25.511,0,0,1-6.142,16.6" transform="translate(-113.339 -39.059)" fill="#ffbead"/>
          <path id="Trazado_1065013" data-name="Trazado 1065013" d="M216.717,171.009h0a12.533,12.533,0,0,1-12.533-12.532V154.9a12.533,12.533,0,0,1,12.533-12.533Z" transform="translate(-104.038 -72.539)" fill="#ffbead"/>
          <path id="Trazado_1065014" data-name="Trazado 1065014" d="M214.455,165.917a11.286,11.286,0,0,1-.526-2.336c-.051-.389-.085-.779-.109-1.168a7.323,7.323,0,0,1,.035-1.246,6.551,6.551,0,0,1,.76-2.371,5.158,5.158,0,0,1,1.635-1.83c-.239.792-.48,1.505-.656,2.226a17.14,17.14,0,0,0-.407,2.138c-.047.359-.071.711-.1,1.084-.024.389-.058.779-.109,1.168a11.349,11.349,0,0,1-.526,2.336" transform="translate(-108.942 -79.979)" fill="#1a145c"/>
          <path id="Trazado_1065015" data-name="Trazado 1065015" d="M383.052,142.363h0A12.532,12.532,0,0,1,395.584,154.9v3.581a12.533,12.533,0,0,1-12.532,12.533Z" transform="translate(-195.178 -72.539)" fill="#ffbead"/>
          <path id="Trazado_1065016" data-name="Trazado 1065016" d="M395.8,165.917a11.289,11.289,0,0,1-.526-2.336c-.051-.389-.085-.779-.109-1.168-.027-.373-.051-.724-.1-1.084a17.141,17.141,0,0,0-.406-2.138c-.176-.721-.416-1.434-.656-2.226a5.163,5.163,0,0,1,1.635,1.83,6.552,6.552,0,0,1,.76,2.371,7.323,7.323,0,0,1,.035,1.246c-.024.389-.058.779-.109,1.168a11.314,11.314,0,0,1-.526,2.336" transform="translate(-200.757 -79.979)" fill="#1a145c"/>
          <path id="Trazado_1065017" data-name="Trazado 1065017" d="M215.136,83.958v23.275a26.858,26.858,0,0,0,5.371,16.114h3.581V83.958Z" transform="translate(-109.619 -42.779)" fill="#1a145c"/>
          <path id="Trazado_1065018" data-name="Trazado 1065018" d="M388.353,83.958v26.259a17.9,17.9,0,0,1-3.581,10.742l-1.79,2.388H379.4V83.958Z" transform="translate(-193.317 -42.779)" fill="#1a145c"/>
          <path id="Trazado_1065019" data-name="Trazado 1065019" d="M222.436,91.258v51.436a25.512,25.512,0,0,0,6.142,16.6l20.26,23.636a19.464,19.464,0,0,0,29.555,0l20.26-23.636a25.512,25.512,0,0,0,6.141-16.6V91.258ZM294.9,144.121l-4.767,4.767a11.072,11.072,0,0,1-7.829,3.243H244.926a11.07,11.07,0,0,1-7.829-3.243l-4.767-4.767a9.329,9.329,0,0,1-2.732-6.6V103.511a8.672,8.672,0,0,1,8.672-8.672h50.69a8.672,8.672,0,0,1,8.672,8.672v34.014a9.329,9.329,0,0,1-2.732,6.6" transform="translate(-113.338 -46.499)" fill="#1a145c"/>
          <path id="Trazado_1065020" data-name="Trazado 1065020" d="M303.5,213.441h-5.371a2.686,2.686,0,1,1,0-5.371H303.5a2.686,2.686,0,0,1,0,5.371" transform="translate(-150.538 -106.018)" fill="#ffbead"/>
          <path id="Trazado_1065021" data-name="Trazado 1065021" d="M298.885,237.133H295.3a7.161,7.161,0,0,1-7.161-7.161h17.9a7.161,7.161,0,0,1-7.161,7.161" transform="translate(-146.818 -117.178)" fill="#fff"/>
          <path id="Trazado_1065022" data-name="Trazado 1065022" d="M266.176,171.427h-3.581a7.164,7.164,0,0,1-6.994-5.613,1.286,1.286,0,0,1,1.265-1.548H271.9a1.286,1.286,0,0,1,1.265,1.548,7.164,7.164,0,0,1-6.994,5.613" transform="translate(-130.222 -83.699)" fill="#fff"/>
          <path id="Trazado_1065023" data-name="Trazado 1065023" d="M331.882,171.427H328.3a7.164,7.164,0,0,1-6.994-5.613,1.286,1.286,0,0,1,1.265-1.548H337.61a1.286,1.286,0,0,1,1.265,1.548,7.164,7.164,0,0,1-6.994,5.613" transform="translate(-163.701 -83.699)" fill="#fff"/>
          <path id="Trazado_1065024" data-name="Trazado 1065024" d="M321.05,164.573a1.349,1.349,0,0,1-.147-.685,1.559,1.559,0,0,1,.25-.725,1.6,1.6,0,0,1,.612-.553,1.953,1.953,0,0,1,.409-.156l.369-.07c.818-.132,1.635-.254,2.452-.331.818-.106,1.635-.127,2.452-.19.818-.033,1.635-.042,2.452-.06.818.023,1.635.026,2.452.063.818.062,1.635.085,2.452.19.818.076,1.635.2,2.452.33l.369.07a1.987,1.987,0,0,1,.409.155,1.6,1.6,0,0,1,.612.552,1.563,1.563,0,0,1,.25.724,1.354,1.354,0,0,1-.146.685l-.008.016a.066.066,0,0,1-.123-.045,1.188,1.188,0,0,0-.312-1.063,1.369,1.369,0,0,0-1.049-.371l-2.452.012-4.9.023-4.9-.023-2.452-.012a1.363,1.363,0,0,0-1.049.371,1.188,1.188,0,0,0-.313,1.063.066.066,0,0,1-.123.045Z" transform="translate(-163.509 -82.443)" fill="#1a145c"/>
          <path id="Trazado_1065025" data-name="Trazado 1065025" d="M255.344,164.573a1.349,1.349,0,0,1-.147-.685,1.559,1.559,0,0,1,.25-.725,1.6,1.6,0,0,1,.612-.553,1.953,1.953,0,0,1,.409-.156l.369-.07c.818-.132,1.635-.254,2.452-.331.818-.106,1.635-.127,2.452-.19.818-.033,1.635-.042,2.452-.06.818.023,1.635.026,2.452.063.818.062,1.635.085,2.452.19.818.076,1.635.2,2.452.33l.369.07a1.987,1.987,0,0,1,.409.155,1.6,1.6,0,0,1,.612.552,1.563,1.563,0,0,1,.25.724,1.354,1.354,0,0,1-.146.685l-.008.016a.066.066,0,0,1-.123-.045,1.19,1.19,0,0,0-.312-1.063,1.375,1.375,0,0,0-1.049-.371l-2.452.012-4.9.023-4.9-.023-2.452-.012a1.374,1.374,0,0,0-1.049.371,1.189,1.189,0,0,0-.313,1.063.066.066,0,0,1-.123.045Z" transform="translate(-130.03 -82.443)" fill="#1a145c"/>
          <path id="Trazado_1065026" data-name="Trazado 1065026" d="M268.533,140.541a42.187,42.187,0,0,0-12.344-.128,4.668,4.668,0,0,1-5.153-3.377l-.287-1.047a48.243,48.243,0,0,1,20.757-2.038A1.751,1.751,0,0,1,273,136.1l-.429,1.786a3.552,3.552,0,0,1-4.035,2.658" transform="translate(-127.765 -68.076)" fill="#1a145c"/>
          <path id="Trazado_1065027" data-name="Trazado 1065027" d="M321.093,140.541a42.188,42.188,0,0,1,12.346-.128,4.668,4.668,0,0,0,5.153-3.377l.287-1.047a48.243,48.243,0,0,0-20.76-2.039,1.751,1.751,0,0,0-1.491,2.146l.429,1.786a3.552,3.552,0,0,0,4.036,2.658" transform="translate(-161.308 -68.077)" fill="#1a145c"/>
        </g>
      </g>
      <g id="Grupo_1229720" data-name="Grupo 1229720" transform="translate(157.438 80.567)">
        <g id="Grupo_1229719" data-name="Grupo 1229719" clip-path="url(#clip-path-3)">
          <path id="Trazado_1065028" data-name="Trazado 1065028" d="M339.056,169.189a4.924,4.924,0,1,1-4.923-4.923,4.923,4.923,0,0,1,4.923,4.923" transform="translate(-325.181 -164.266)" fill="#1a145c"/>
        </g>
      </g>
      <g id="Grupo_1229722" data-name="Grupo 1229722" transform="translate(125.211 80.567)">
        <g id="Grupo_1229721" data-name="Grupo 1229721" clip-path="url(#clip-path-4)">
          <path id="Trazado_1065030" data-name="Trazado 1065030" d="M273.35,169.189a4.924,4.924,0,1,1-4.923-4.923,4.923,4.923,0,0,1,4.923,4.923" transform="translate(-259.475 -164.266)" fill="#1a145c"/>
        </g>
      </g>
      <g id="Grupo_1229724" data-name="Grupo 1229724">
        <g id="Grupo_1229723" data-name="Grupo 1229723" clip-path="url(#clip-path-2)">
          <path id="Trazado_1065032" data-name="Trazado 1065032" d="M255.29,156.2a9.943,9.943,0,0,1,3.915-3.19,12.485,12.485,0,0,1,10.073,0,9.929,9.929,0,0,1,3.915,3.192,16.213,16.213,0,0,0-4.3-2.219,16.01,16.01,0,0,0-9.3,0,16.153,16.153,0,0,0-4.3,2.221" transform="translate(-130.079 -77.42)" fill="#fff"/>
          <path id="Trazado_1065033" data-name="Trazado 1065033" d="M321,156.2a9.948,9.948,0,0,1,3.916-3.19,12.485,12.485,0,0,1,10.073,0A9.924,9.924,0,0,1,338.9,156.2a16.211,16.211,0,0,0-4.3-2.219,16.01,16.01,0,0,0-9.3,0A16.163,16.163,0,0,0,321,156.2" transform="translate(-163.558 -77.42)" fill="#fff"/>
          <path id="Trazado_1065034" data-name="Trazado 1065034" d="M280.962,12.532H248.736A12.533,12.533,0,0,1,236.2,0,14.322,14.322,0,0,0,222,12.532h-.115a7.161,7.161,0,0,1-7.162-7.161,21.484,21.484,0,0,0,0,42.969h66.244a17.9,17.9,0,0,0,0-35.808" transform="translate(-98.459)" fill="#1a145c"/>
          <path id="Trazado_1065035" data-name="Trazado 1065035" d="M260.619,23.47a24.045,24.045,0,0,1-.093-3.5c.012-.289.024-.579.044-.868a8.783,8.783,0,0,1,.115-.915,8.05,8.05,0,0,1,4.17-5.781,6.754,6.754,0,0,1,1.687-.6,15.57,15.57,0,0,0-2.431,2.364,11.719,11.719,0,0,0-1.665,2.765,10.629,10.629,0,0,0-.52,1.522c-.082.258-.117.525-.185.791-.052.284-.111.568-.171.852a24.035,24.035,0,0,1-.951,3.373" transform="translate(-132.735 -6.014)" fill="#fff"/>
          <path id="Trazado_1065036" data-name="Trazado 1065036" d="M203.138,37.979a13.205,13.205,0,0,1,.441-5.641c.132-.461.307-.91.474-1.361.182-.445.4-.874.6-1.313.22-.429.491-.83.736-1.246.267-.4.562-.785.843-1.178a14.968,14.968,0,0,1,4.378-3.725,13.114,13.114,0,0,1,5.4-1.684,22.667,22.667,0,0,0-4.845,2.571,19.342,19.342,0,0,0-3.889,3.677c-.266.358-.547.7-.8,1.07-.237.377-.484.75-.716,1.131-.212.393-.445.776-.643,1.179-.175.412-.385.811-.559,1.226a22.727,22.727,0,0,0-1.426,5.3" transform="translate(-103.44 -11.123)" fill="#fff"/>
          <path id="Trazado_1065037" data-name="Trazado 1065037" d="M351.6,62.056a12.8,12.8,0,0,1-1.352,6.456A13.35,13.35,0,0,1,342.678,75a13.907,13.907,0,0,1-3.374.634c-.584.05-1.129.046-1.675.047l-1.644.008-3.288.016-6.576-.035c-2.192-.037-4.384-.049-6.576-.112-4.384-.1-8.768-.244-13.151-.524,4.384-.28,8.768-.426,13.151-.524,2.192-.063,4.384-.075,6.576-.112l6.576-.035,3.288.016,1.644.008c.55,0,1.1.009,1.612-.019a12.659,12.659,0,0,0,3.086-.488l.741-.259.371-.129.358-.163.718-.324.685-.39a13.037,13.037,0,0,0,4.479-4.424,13.8,13.8,0,0,0,1.925-6.137" transform="translate(-156.118 -31.62)" fill="#fff"/>
          <path id="Trazado_1065038" data-name="Trazado 1065038" d="M266.216,167.867a1.7,1.7,0,1,1-1.7-1.7,1.7,1.7,0,0,1,1.7,1.7" transform="translate(-133.917 -84.67)" fill="#fff"/>
          <path id="Trazado_1065039" data-name="Trazado 1065039" d="M332.074,167.867a1.7,1.7,0,1,1-1.7-1.7,1.7,1.7,0,0,1,1.7,1.7" transform="translate(-167.474 -84.67)" fill="#fff"/>
        </g>
      </g>
    </g>
    <g id="Grupo_1229727" data-name="Grupo 1229727" transform="translate(1056 464.129)">
      <g id="Grupo_1229726" data-name="Grupo 1229726" transform="translate(0 0)" clip-path="url(#clip-path-6)">
        <path id="Trazado_1065040" data-name="Trazado 1065040" d="M73.7,45.945H6.7a6.7,6.7,0,0,1-6.7-6.7V6.7A6.7,6.7,0,0,1,6.7,0h67a6.7,6.7,0,0,1,6.7,6.7V39.245a6.7,6.7,0,0,1-6.7,6.7" transform="translate(0 0)" fill="#6fdfe3"/>
        <path id="Trazado_1065041" data-name="Trazado 1065041" d="M49.853,41.629q0,4.091-7.867,4.091t-7.867-4.091V26.524q0-4.091,7.867-4.091t7.867,4.091v3.147H45.132V27.153q0-1.888-3.147-1.888t-3.147,1.888V41q0,1.573,3.147,1.573T45.132,41V38.482h4.721Z" transform="translate(-20.601 -11.104)" fill="#fff"/>
        <path id="Trazado_1065052" data-name="Trazado 1065052" d="M69.335,32.26l3.021.781q6.357,1.259,6.357,5.034v5.035q0,4.091-7.867,4.091t-7.867-4.091V39.964H67.7v2.518q0,1.573,3.147,1.573t3.147-1.573V39.334a2.193,2.193,0,0,0-1.636-2.366l-3.021-.781q-6.357-1.257-6.357-4.4V28.005q0-4.091,7.867-4.091t7.867,4.091v3.147H73.992V28.635q0-1.573-3.147-1.573T67.7,28.635v1.259a2.192,2.192,0,0,0,1.636,2.366" transform="translate(-30.644 -12.585)" fill="#fff"/>
        <path id="Trazado_1065053" data-name="Trazado 1065053" d="M69.335,32.26l3.021.781q6.357,1.259,6.357,5.034v5.035q0,4.091-7.867,4.091t-7.867-4.091V39.964H67.7v2.518q0,1.573,3.147,1.573t3.147-1.573V39.334a2.193,2.193,0,0,0-1.636-2.366l-3.021-.781q-6.357-1.257-6.357-4.4V28.005q0-4.091,7.867-4.091t7.867,4.091v3.147H73.992V28.635q0-1.573-3.147-1.573T67.7,28.635v1.259a2.192,2.192,0,0,0,1.636,2.366" transform="translate(-11.827 -12.585)" fill="#fff"/>
      </g>
    </g>
    <g id="Grupo_1229729" data-name="Grupo 1229729" transform="translate(1290.138 399.742)">
      <g id="Grupo_1229728" data-name="Grupo 1229728" transform="translate(0 0)" clip-path="url(#clip-path-7)">
        <path id="Trazado_1065044" data-name="Trazado 1065044" d="M83.776,52.224H7.616A7.617,7.617,0,0,1,0,44.608V7.616A7.617,7.617,0,0,1,7.616,0H83.776a7.616,7.616,0,0,1,7.615,7.616V44.608a7.616,7.616,0,0,1-7.615,7.616" transform="translate(0 0)" fill="#f15199"/>
        <path id="Trazado_1065045" data-name="Trazado 1065045" d="M37.815,30.031v7.642h3.943V30.031h3.7V47.779h-3.7V40.137H37.815v7.641h-3.7V30.031Z" transform="translate(-14.534 -12.793)" fill="#fff"/>
        <path id="Trazado_1065046" data-name="Trazado 1065046" d="M60.836,47.779V32.5H56.448V30.031H68.822V32.5H64.435V47.779Z" transform="translate(-24.047 -12.793)" fill="#fff"/>
        <path id="Trazado_1065047" data-name="Trazado 1065047" d="M97.1,47.779H93.4V36.588L90.2,47.779H86.5L83.293,35.9V47.779H80.582V30.031h4.437L89.16,43.086l3.994-13.055H97.1Z" transform="translate(-34.327 -12.793)" fill="#fff"/>
        <path id="Trazado_1065048" data-name="Trazado 1065048" d="M112.79,47.779V30.031h3.7V45.314H122.9v2.465Z" transform="translate(-48.047 -12.793)" fill="#fff"/>
      </g>
    </g>
    <g id="Grupo_1229731" data-name="Grupo 1229731" transform="translate(1303.296 520.613)">
      <g id="Grupo_1229730" data-name="Grupo 1229730" transform="translate(0 0)" clip-path="url(#clip-path-8)">
        <path id="Trazado_1065049" data-name="Trazado 1065049" d="M69.41,49.41H8.235A8.235,8.235,0,0,1,0,41.175V8.235A8.235,8.235,0,0,1,8.235,0H69.41a8.235,8.235,0,0,1,8.235,8.235v32.94A8.235,8.235,0,0,1,69.41,49.41" transform="translate(0 0)" fill="#6fdfe3"/>
        <path id="Trazado_1065050" data-name="Trazado 1065050" d="M52.375,40.337q0,3.465-5.864,3.465t-5.863-3.465V37.671h4V39.8q0,1.333,1.865,1.333T48.378,39.8V24.345h4Z" transform="translate(-15.419 -9.235)" fill="#fff"/>
        <path id="Trazado_1065051" data-name="Trazado 1065051" d="M68.362,30.983l2.558.662Q76.3,32.71,76.3,35.908v4.265q0,3.465-6.663,3.465t-6.663-3.465V37.508h4V39.64q0,1.332,2.665,1.333t2.665-1.333V36.975a1.857,1.857,0,0,0-1.386-2l-2.558-.662q-5.384-1.065-5.384-3.731v-3.2q0-3.465,6.663-3.465T76.3,27.379v2.666h-4V27.912q0-1.332-2.665-1.333t-2.665,1.333v1.066a1.857,1.857,0,0,0,1.386,2" transform="translate(-23.89 -9.072)" fill="#fff"/>
      </g>
    </g>
  </g>
</svg>
