<svg xmlns="http://www.w3.org/2000/svg" width="84.261" height="72.906" viewBox="0 0 84.261 72.906">
  <g id="Grupo_1229412" data-name="Grupo 1229412" transform="translate(-1064.173 -3256.206)">
    <g id="Grupo_1228983" data-name="Grupo 1228983" transform="translate(63.105 391.425)">
      <circle id="Elipse_12863" data-name="Elipse 12863" cx="27.545" cy="27.545" r="27.545" transform="translate(1001.068 2864.781)" fill="#c3b7ef"/>
    </g>
    <g id="codificacion_2_" data-name="codificacion (2)" transform="translate(1078.966 3268.322)">
      <path id="Trazado_1064252" data-name="Trazado 1064252" d="M68.45,49.158a1.017,1.017,0,0,0,1.018-1.018V2.374A2.377,2.377,0,0,0,67.093,0H61.511a1.018,1.018,0,1,0,0,2.035h5.582a.34.34,0,0,1,.339.339V8.625H21.83V2.035H57.08A1.018,1.018,0,0,0,57.08,0H2.375A2.377,2.377,0,0,0,0,2.374V19.65a1.018,1.018,0,0,0,2.035,0V10.66h65.4V42.967H2.036V24.081a1.018,1.018,0,1,0-2.035,0V58.415A2.377,2.377,0,0,0,2.375,60.79H67.093a2.377,2.377,0,0,0,2.374-2.374V52.572a1.018,1.018,0,0,0-2.035,0v5.844a.34.34,0,0,1-.339.339H2.375a.34.34,0,0,1-.339-.339V45h65.4v3.139a1.017,1.017,0,0,0,1.018,1.018ZM2.036,2.374a.34.34,0,0,1,.339-.339h17.42v6.59H2.036Zm0,0"/>
      <path id="Trazado_1064253" data-name="Trazado 1064253" d="M47.4,31.707h-.019a1.018,1.018,0,0,0,0,2.035H47.4a1.018,1.018,0,0,0,0-2.035Zm0,0" transform="translate(-40.075 -27.405)"/>
      <path id="Trazado_1064254" data-name="Trazado 1064254" d="M74.914,31.785H74.9a1.018,1.018,0,0,0,0,2.035h.014a1.018,1.018,0,1,0,0-2.035Zm0,0" transform="translate(-63.858 -27.473)"/>
      <path id="Trazado_1064255" data-name="Trazado 1064255" d="M102.431,31.867h-.019a1.018,1.018,0,0,0,0,2.035h.019a1.018,1.018,0,0,0,0-2.035Zm0,0" transform="translate(-87.637 -27.544)"/>
      <path id="Trazado_1064256" data-name="Trazado 1064256" d="M92.974,128.666a2.877,2.877,0,0,0-4.911-2.034l-6.782,6.782a2.877,2.877,0,0,0,0,4.069l6.782,6.782a2.877,2.877,0,1,0,4.069-4.069l-4.748-4.748,4.748-4.748A2.858,2.858,0,0,0,92.974,128.666Zm-2.282.6-5.467,5.468a1.017,1.017,0,0,0,0,1.439l5.468,5.468a.842.842,0,0,1-1.191,1.19l-6.782-6.783a.842.842,0,0,1,0-1.19L89.5,128.07a.842.842,0,1,1,1.19,1.191Zm0,0" transform="translate(-69.523 -108.722)"/>
      <path id="Trazado_1064257" data-name="Trazado 1064257" d="M339.164,142.228a2.876,2.876,0,0,0,2.877,2.877h0a2.858,2.858,0,0,0,2.034-.843l6.783-6.782a2.878,2.878,0,0,0,0-4.069l-6.783-6.782a2.877,2.877,0,1,0-4.069,4.068l4.748,4.748-4.748,4.748A2.86,2.86,0,0,0,339.164,142.228Zm2.282-.6,5.468-5.468a1.018,1.018,0,0,0,0-1.439l-5.468-5.467a.842.842,0,0,1,1.191-1.191l6.782,6.783a.842.842,0,0,1,0,1.19l-6.782,6.783a.842.842,0,0,1-1.191-1.191Zm0,0" transform="translate(-293.146 -108.719)"/>
      <path id="Trazado_1064258" data-name="Trazado 1064258" d="M212.2,140.154a2.769,2.769,0,0,0,3.647-1.427l6.8-15.535a2.769,2.769,0,0,0-5.074-2.22l-6.8,15.535a2.772,2.772,0,0,0,1.427,3.647h0Zm.437-2.831,6.8-15.535a.734.734,0,1,1,1.345.588l-6.8,15.535a.734.734,0,1,1-1.345-.588Zm0,0" transform="translate(-181.976 -103.124)"/>
      <path id="Trazado_1064259" data-name="Trazado 1064259" d="M80.311,349.262H57.518a1.018,1.018,0,1,0,0,2.035H80.311a1.018,1.018,0,1,0,0-2.035Zm0,0" transform="translate(-48.833 -301.875)"/>
      <path id="Trazado_1064260" data-name="Trazado 1064260" d="M80.311,374.871H57.518a1.018,1.018,0,1,0,0,2.035H80.311a1.018,1.018,0,1,0,0-2.035Zm0,0" transform="translate(-48.833 -324.009)"/>
      <path id="Trazado_1064261" data-name="Trazado 1064261" d="M80.311,400.477H57.518a1.018,1.018,0,1,0,0,2.035H80.311a1.018,1.018,0,1,0,0-2.035Zm0,0" transform="translate(-48.833 -346.141)"/>
      <path id="Trazado_1064262" data-name="Trazado 1064262" d="M296.311,349.262H273.518a1.018,1.018,0,1,0,0,2.035h22.794a1.018,1.018,0,1,0,0-2.035Zm0,0" transform="translate(-235.527 -301.875)"/>
      <path id="Trazado_1064263" data-name="Trazado 1064263" d="M296.311,374.871H273.518a1.018,1.018,0,1,0,0,2.035h22.794a1.018,1.018,0,1,0,0-2.035Zm0,0" transform="translate(-235.527 -324.009)"/>
      <path id="Trazado_1064264" data-name="Trazado 1064264" d="M296.311,400.477H273.518a1.018,1.018,0,1,0,0,2.035h22.794a1.018,1.018,0,1,0,0-2.035Zm0,0" transform="translate(-235.527 -346.141)"/>
    </g>
  </g>
</svg>
