<svg xmlns="http://www.w3.org/2000/svg" width="90.912" height="74.004" viewBox="0 0 90.912 74.004">
  <g id="Grupo_1229426" data-name="Grupo 1229426" transform="translate(-407.637 -5473.844)">
    <g id="Grupo_1228984" data-name="Grupo 1228984" transform="translate(-593.431 2609.063)">
      <circle id="Elipse_12863" data-name="Elipse 12863" cx="27.545" cy="27.545" r="27.545" transform="translate(1001.068 2864.781)" fill="#c3b7ef"/>
    </g>
    <path id="email_5041059" d="M30.728,88A6.728,6.728,0,0,0,24,94.728V137.79a6.728,6.728,0,0,0,6.728,6.728H95.321a6.728,6.728,0,0,0,6.728-6.728V94.728A6.728,6.728,0,0,0,95.321,88Zm-1.8,3.116a4.02,4.02,0,0,1,1.8-.424H95.321a4.021,4.021,0,0,1,1.8.424L65.979,124.567a4.037,4.037,0,0,1-5.909,0Zm-1.872,1.939a4.022,4.022,0,0,0-.362,1.674V137.79a4.022,4.022,0,0,0,.362,1.674l21.6-23.2ZM28.925,141.4a4.019,4.019,0,0,0,1.8.424H95.321a4.021,4.021,0,0,0,1.8-.424L75.553,118.234l-7.6,8.167a6.728,6.728,0,0,1-9.849,0l-7.6-8.167ZM99,139.464a4.021,4.021,0,0,0,.362-1.674V94.728A4.021,4.021,0,0,0,99,93.055l-21.6,23.2Zm-26.19-31.09a5.073,5.073,0,0,0,.961-4.342,8.482,8.482,0,0,0-2.3-4.148,10.322,10.322,0,0,0-10.885-2.4,10.023,10.023,0,0,0-6.976,9.6,9.175,9.175,0,0,0,7.075,9.127,10.3,10.3,0,0,0,5.517-.209,9.57,9.57,0,0,0,3.835-2.164,1.346,1.346,0,0,0-1.9-1.9,6.943,6.943,0,0,1-2.726,1.5,7.617,7.617,0,0,1-4.071.17,6.486,6.486,0,0,1-5.036-6.516,7.332,7.332,0,0,1,5.135-7.05,7.636,7.636,0,0,1,8.111,1.725,5.807,5.807,0,0,1,1.587,2.8,2.4,2.4,0,0,1-.391,2.083c-.073.087-.135.156-.188.209-.03-.039-.064-.086-.1-.14-.132-.191-.271-.421-.437-.7l-.08-.137c-.139-.237-.3-.5-.459-.763A6.941,6.941,0,0,0,67.9,103.27a5.453,5.453,0,0,0-6.716-.279c-1.7,1.151-3.134,3.475-2.065,5.764a4.157,4.157,0,0,0,2.942,2.408,5.119,5.119,0,0,0,3.462-.58,6.037,6.037,0,0,0,2.525-2.623c.062.1.126.2.191.289a3.03,3.03,0,0,0,1.959,1.434A2.947,2.947,0,0,0,72.806,108.374Zm-10.118-3.155a2.778,2.778,0,0,1,3.167-.119,2.991,2.991,0,0,1-1.62,3.117,2.447,2.447,0,0,1-1.624.312,1.475,1.475,0,0,1-1.058-.913C61.285,107.041,61.533,106,62.688,105.219Z" transform="translate(396.5 5403.33)" fill-rule="evenodd"/>
  </g>
</svg>
