<svg xmlns="http://www.w3.org/2000/svg" width="82.176" height="84.444" viewBox="0 0 82.176 84.444">
  <g id="Grupo_1229444" data-name="Grupo 1229444" transform="translate(-1064.174 -4276.905)">
    <g id="Grupo_1229332" data-name="Grupo 1229332" transform="translate(63.105 1412.124)">
      <circle id="Elipse_12863" data-name="Elipse 12863" cx="27.545" cy="27.545" r="27.545" transform="translate(1001.068 2864.781)" fill="#c3b7ef"/>
    </g>
    <g id="data_1197460" transform="translate(1077.33 4291.904)">
      <path id="Trazado_1064391" data-name="Trazado 1064391" d="M36.736,135.329a1.01,1.01,0,0,0,1.429-1.429l-2.453-2.453,2.453-2.452a1.01,1.01,0,1,0-1.429-1.429l-3.167,3.167a1.01,1.01,0,0,0,0,1.429Zm0,0" transform="translate(-28.788 -109.681)"/>
      <path id="Trazado_1064392" data-name="Trazado 1064392" d="M115.679,131.444l-2.453,2.453a1.01,1.01,0,1,0,1.429,1.429l3.167-3.167a1.01,1.01,0,0,0,0-1.428l-3.167-3.167a1.01,1.01,0,0,0-1.428,1.429Zm0,0" transform="translate(-97.708 -109.678)"/>
      <path id="Trazado_1064393" data-name="Trazado 1064393" d="M77.058,135.55a1.01,1.01,0,0,0,1.31-.571l2.488-6.334a1.01,1.01,0,1,0-1.88-.739l-2.489,6.334a1.01,1.01,0,0,0,.571,1.31Zm0,0" transform="translate(-66.116 -109.677)"/>
      <path id="Trazado_1064394" data-name="Trazado 1064394" d="M38.526,220.235h6.805a1.01,1.01,0,0,0,0-2.021H38.526a1.01,1.01,0,0,0,0,2.021Zm0,0" transform="translate(-32.459 -188.366)"/>
      <path id="Trazado_1064395" data-name="Trazado 1064395" d="M128.486,218.215H116.522a1.01,1.01,0,0,0,0,2.021h11.964a1.01,1.01,0,1,0,0-2.021Zm0,0" transform="translate(-99.941 -188.366)"/>
      <path id="Trazado_1064396" data-name="Trazado 1064396" d="M38.526,251.841h2.9a1.01,1.01,0,0,0,0-2.021h-2.9a1.01,1.01,0,0,0,0,2.021Zm0,0" transform="translate(-32.459 -215.711)"/>
      <path id="Trazado_1064397" data-name="Trazado 1064397" d="M177.858,249.82a1.01,1.01,0,0,0,0,2.02h1.765a1.01,1.01,0,1,0,0-2.02Zm0,0" transform="translate(-153.008 -215.71)"/>
      <path id="Trazado_1064398" data-name="Trazado 1064398" d="M96,250.831a1.01,1.01,0,0,0-1.01-1.01H86.322a1.01,1.01,0,0,0,0,2.021h8.671A1.01,1.01,0,0,0,96,250.831Zm0,0" transform="translate(-73.812 -215.711)"/>
      <path id="Trazado_1064399" data-name="Trazado 1064399" d="M213.7,250.831a1.01,1.01,0,0,0,1.01,1.011h3.306a1.01,1.01,0,1,0,0-2.021h-3.306A1.01,1.01,0,0,0,213.7,250.831Zm0,0" transform="translate(-184.895 -215.711)"/>
      <path id="Trazado_1064400" data-name="Trazado 1064400" d="M166.409,151.3H169.9a1.01,1.01,0,1,0,0-2.02h-3.488a1.01,1.01,0,1,0,0,2.02Zm0,0" transform="translate(-143.103 -128.722)"/>
      <path id="Trazado_1064401" data-name="Trazado 1064401" d="M221.256,151.3h21.28a1.01,1.01,0,0,0,0-2.02h-21.28a1.01,1.01,0,1,0,0,2.02Zm0,0" transform="translate(-190.556 -128.722)"/>
      <path id="Trazado_1064402" data-name="Trazado 1064402" d="M299.814,182.246h-8.62a1.01,1.01,0,0,0,0,2.02h8.62a1.01,1.01,0,0,0,0-2.02Zm0,0" transform="translate(-251.066 -157.246)"/>
      <path id="Trazado_1064403" data-name="Trazado 1064403" d="M248.2,182.246h-2.963a1.01,1.01,0,0,0,0,2.02H248.2a1.01,1.01,0,0,0,0-2.02Zm0,0" transform="translate(-211.304 -157.246)"/>
      <path id="Trazado_1064404" data-name="Trazado 1064404" d="M166.409,184.266h7.259a1.01,1.01,0,0,0,0-2.02h-7.259a1.01,1.01,0,1,0,0,2.02Zm0,0" transform="translate(-143.103 -157.246)"/>
      <path id="Trazado_1064405" data-name="Trazado 1064405" d="M107.061,281.16h-6.8a1.01,1.01,0,1,0,0,2.02h6.8a1.01,1.01,0,1,0,0-2.02Zm0,0" transform="translate(-85.868 -242.826)"/>
      <path id="Trazado_1064406" data-name="Trazado 1064406" d="M43.754,281.16H38.526a1.01,1.01,0,1,0,0,2.02h5.228a1.01,1.01,0,1,0,0-2.02Zm0,0" transform="translate(-32.459 -242.826)"/>
      <path id="Trazado_1064407" data-name="Trazado 1064407" d="M185.189,281.16H176.3a1.01,1.01,0,1,0,0,2.02h8.889a1.01,1.01,0,1,0,0-2.02Zm0,0" transform="translate(-151.66 -242.826)"/>
      <path id="Trazado_1064408" data-name="Trazado 1064408" d="M300.218,242.668h-4.861a1.01,1.01,0,0,0,0,2.02h4.861a1.01,1.01,0,0,0,0-2.02Zm0,0" transform="translate(-254.668 -209.523)"/>
      <path id="Trazado_1064409" data-name="Trazado 1064409" d="M393.987,244.688h6.862a1.01,1.01,0,1,0,0-2.021h-6.862a1.01,1.01,0,0,0,0,2.021Zm0,0" transform="translate(-340.002 -209.522)"/>
      <path id="Trazado_1064410" data-name="Trazado 1064410" d="M358.439,242.668h-1.572a1.01,1.01,0,1,0,0,2.02h1.572a1.01,1.01,0,0,0,0-2.02Zm0,0" transform="translate(-307.885 -209.523)"/>
      <path id="Trazado_1064411" data-name="Trazado 1064411" d="M295.358,326.349h4.861a1.01,1.01,0,1,0,0-2.02h-4.861a1.01,1.01,0,1,0,0,2.02Zm0,0" transform="translate(-254.669 -280.175)"/>
      <path id="Trazado_1064412" data-name="Trazado 1064412" d="M393.987,326.349h6.862a1.01,1.01,0,1,0,0-2.02h-6.862a1.01,1.01,0,0,0,0,2.02Zm0,0" transform="translate(-340.002 -280.175)"/>
      <path id="Trazado_1064413" data-name="Trazado 1064413" d="M356.87,326.349h1.572a1.01,1.01,0,1,0,0-2.02H356.87a1.01,1.01,0,1,0,0,2.02Zm0,0" transform="translate(-307.888 -280.175)"/>
      <path id="Trazado_1064414" data-name="Trazado 1064414" d="M300.218,405.988h-4.861a1.01,1.01,0,1,0,0,2.02h4.861a1.01,1.01,0,1,0,0-2.02Zm0,0" transform="translate(-254.668 -350.826)"/>
      <path id="Trazado_1064415" data-name="Trazado 1064415" d="M400.848,405.988h-6.862a1.01,1.01,0,1,0,0,2.02h6.862a1.01,1.01,0,1,0,0-2.02Zm0,0" transform="translate(-340.002 -350.826)"/>
      <path id="Trazado_1064416" data-name="Trazado 1064416" d="M358.439,405.988h-1.572a1.01,1.01,0,1,0,0,2.02h1.572a1.01,1.01,0,1,0,0-2.02Zm0,0" transform="translate(-307.885 -350.826)"/>
      <path id="Trazado_1064417" data-name="Trazado 1064417" d="M64.574.5H4.445A4.451,4.451,0,0,0,0,4.946V53.822a4.451,4.451,0,0,0,4.446,4.445h3.8a1.01,1.01,0,1,0,0-2.02h-3.8A2.428,2.428,0,0,1,2.02,53.822V49.99h36.8v1.741h-.8a1.989,1.989,0,0,0-1.987,1.987v2.53H14.388a1.01,1.01,0,1,0,0,2.02H24.1V61.89h-3.05a3.694,3.694,0,0,0-3.69,3.69v2.182a1.685,1.685,0,0,0,1.683,1.683H49.9a1.685,1.685,0,0,0,1.683-1.683V65.58a3.694,3.694,0,0,0-3.69-3.69h-3.05V60.613H63.516A1.989,1.989,0,0,0,65.5,58.626v-.476a4.452,4.452,0,0,0,3.441-4.329l.076-48.876A4.45,4.45,0,0,0,64.574.5ZM38.054,47.585V42.743H63.482v4.842Zm2.787-6.862V38.6H60.694v2.125ZM60.694,49.6v2.126H40.841V49.6ZM26.121,58.267h9.913v.36a1.989,1.989,0,0,0,1.987,1.986h4.8V61.89h-16.7ZM47.892,63.91a1.671,1.671,0,0,1,1.669,1.669v1.846H19.381V65.58a1.672,1.672,0,0,1,1.67-1.669Zm15.59-5.318H38.054V53.751H63.482Zm3.441-4.771a2.426,2.426,0,0,1-1.42,2.2V53.717a1.989,1.989,0,0,0-1.987-1.986h-.8V49.99h4.208Zm0-5.852H65.469c.021-.114.033-5.261.033-5.261a1.989,1.989,0,0,0-1.987-1.987h-.8V38.6h.8A1.989,1.989,0,0,0,65.5,36.61V31.7a1.989,1.989,0,0,0-1.987-1.987H57.81a1.01,1.01,0,0,0,0,2.02h5.672v4.842H38.054V31.735H51.525a1.01,1.01,0,0,0,0-2.02H38.02A1.989,1.989,0,0,0,36.033,31.7V36.61A1.989,1.989,0,0,0,38.02,38.6h.8v2.125h-.8a1.989,1.989,0,0,0-1.987,1.987s.013,5.146.033,5.261H2.02V14.24h64.9Zm0-35.75H2.094V4.945A2.428,2.428,0,0,1,4.52,2.52H64.5a2.428,2.428,0,0,1,2.425,2.425Zm0,0" transform="translate(0 0)"/>
      <path id="Trazado_1064418" data-name="Trazado 1064418" d="M36.238,29.262A2.964,2.964,0,1,0,39.2,32.226,2.967,2.967,0,0,0,36.238,29.262Zm0,3.908a.944.944,0,1,1,.944-.944A.945.945,0,0,1,36.238,33.17Zm0,0" transform="translate(-28.788 -24.885)"/>
      <path id="Trazado_1064419" data-name="Trazado 1064419" d="M92.222,29.262a2.964,2.964,0,1,0,2.964,2.964A2.968,2.968,0,0,0,92.222,29.262Zm0,3.908a.944.944,0,1,1,.944-.944A.945.945,0,0,1,92.222,33.17Zm0,0" transform="translate(-77.226 -24.885)"/>
      <path id="Trazado_1064420" data-name="Trazado 1064420" d="M148.21,29.262a2.964,2.964,0,1,0,2.965,2.964A2.967,2.967,0,0,0,148.21,29.262Zm0,3.908a.944.944,0,1,1,.944-.944A.945.945,0,0,1,148.21,33.17Zm0,0" transform="translate(-125.666 -24.885)"/>
    </g>
  </g>
</svg>
