<svg xmlns="http://www.w3.org/2000/svg" width="107.49" height="107.229" viewBox="0 0 107.49 107.229">
  <g id="Grupo_1229336" data-name="Grupo 1229336" transform="translate(-1001.068 -2864.781)">
    <circle id="Elipse_12863" data-name="Elipse 12863" cx="27.545" cy="27.545" r="27.545" transform="translate(1001.068 2864.781)" fill="#c3b7ef"/>
    <g id="user-experience_6254838" transform="translate(1007.86 2871.312)">
      <g id="Grupo_1227361" data-name="Grupo 1227361">
        <path id="Trazado_1058375" data-name="Trazado 1058375" d="M227.7,429.419h-9.745a3.252,3.252,0,0,0-3.248,3.248v3.248a3.252,3.252,0,0,0,3.248,3.248H227.7a3.252,3.252,0,0,0,3.248-3.248v-3.248A3.252,3.252,0,0,0,227.7,429.419Zm0,6.5h-9.745v-3.248H227.7l0,3.248Z" transform="translate(-172.482 -344.962)"/>
        <circle id="Elipse_12862" data-name="Elipse 12862" cx="1.624" cy="1.624" r="1.624" transform="translate(32.483 25.987)"/>
        <path id="Trazado_1058376" data-name="Trazado 1058376" d="M94.2,51.973a3.252,3.252,0,0,0-3.248-3.248H74.712V38.98h7.667l1.449-4.345q.349-.135.692-.287l4.1,2.048,6.249-6.249-2.049-4.1q.151-.343.287-.692l4.345-1.448V15.071L93.1,13.623q-.135-.349-.287-.692l2.049-4.1L88.617,2.584l-4.1,2.048q-.343-.151-.692-.287L82.379,0H73.541L72.092,4.345q-.349.135-.692.287L67.3,2.584,61.054,8.834l2.049,4.1q-.152.343-.287.692L58.47,15.071V19.49H34.107a8.13,8.13,0,0,0-8.121,8.121v8.121h3.248V27.611a4.878,4.878,0,0,1,4.872-4.872h8.121v1.624A4.878,4.878,0,0,0,47.1,29.235h6.5a4.878,4.878,0,0,0,4.872-4.872V22.738H66.59a4.878,4.878,0,0,1,4.872,4.872V48.725h-6.5v-6.5H35.732v6.5h-6.5V38.98h-6.5V34.108H0V47.1H22.738V42.228h3.248v9.745h9.745v3.248H22.738V50.349H0V63.343H22.738V58.47H35.732v3.248H25.987v9.745H22.739V66.591H0V79.584H22.738V74.712h6.5V64.967h6.5v6.5H64.966v-6.5h6.5V77.96H25.986V92.578a8.13,8.13,0,0,0,8.121,8.121H66.59a8.13,8.13,0,0,0,8.121-8.121V64.967H90.953A3.252,3.252,0,0,0,94.2,61.718h6.5V51.973H94.2ZM71.463,19.49a6.5,6.5,0,1,1,6.5,6.5,6.41,6.41,0,0,1-3.754-1.2,8.154,8.154,0,0,0-2.478-3.463A6.487,6.487,0,0,1,71.463,19.49ZM55.222,24.362A1.626,1.626,0,0,1,53.6,25.987H47.1a1.626,1.626,0,0,1-1.624-1.624V22.738h9.745Zm6.5-4.872V17.412L65.365,16.2l.255-.775a12.93,12.93,0,0,1,.738-1.779l.368-.729-1.72-3.439,2.938-2.938,3.439,1.72.728-.368a12.963,12.963,0,0,1,1.78-.738l.775-.255,1.215-3.646h4.156l1.215,3.646.775.255a12.983,12.983,0,0,1,1.78.738l.729.368,3.439-1.72,2.938,2.938-1.72,3.439.368.729a12.954,12.954,0,0,1,.738,1.779l.255.775L94.2,17.412v4.155l-3.646,1.215-.255.775a12.88,12.88,0,0,1-.738,1.779l-.368.729,1.72,3.439-2.938,2.938-3.439-1.72-.729.368a12.963,12.963,0,0,1-1.78.738l-.775.255-1.215,3.646H74.711V28.675a9.744,9.744,0,1,0-6.5-9.185c0,.055,0,.109,0,.164a8.133,8.133,0,0,0-1.628-.164ZM19.49,43.853H3.248v-6.5H19.49Zm0,16.242H3.248V53.6H19.49Zm0,16.242H3.248v-6.5H19.49Zm47.1,21.114H34.107a4.878,4.878,0,0,1-4.872-4.872V81.208H71.463V92.577A4.878,4.878,0,0,1,66.591,97.45ZM61.718,68.215H38.98V45.477H61.718v3.248H56.552L44.8,53.131a3.968,3.968,0,0,0,0,7.43l11.748,4.406h5.167v3.248ZM45.944,57.52a.72.72,0,0,1,0-1.347l9.278-3.479V61Zm45.01,4.2H58.47V51.973H90.953v9.745Zm6.5-3.248H94.2V55.222H97.45Z"/>
      </g>
    </g>
  </g>
</svg>
