<svg xmlns="http://www.w3.org/2000/svg" width="84.593" height="84.053" viewBox="0 0 84.593 84.053">
  <g id="Grupo_1230129" data-name="Grupo 1230129" transform="translate(-407.637 -5910.779)">
    <g id="Grupo_1228991" data-name="Grupo 1228991" transform="translate(-593.431 3045.998)">
      <circle id="Elipse_12863" data-name="Elipse 12863" cx="27.545" cy="27.545" r="27.545" transform="translate(1001.068 2864.781)" fill="#c3b7ef"/>
    </g>
    <path id="reload_8594024" d="M77.01,39.505a37.5,37.5,0,0,1-64.025,26.52A37.5,37.5,0,0,1,39.506,2,37.2,37.2,0,0,1,59.049,7.489l-.538-2.056a1.329,1.329,0,0,1,2.571-.672l1.432,5.479a1.329,1.329,0,0,1-1.123,1.655l-5.62.7a1.352,1.352,0,0,1-.165.01,1.329,1.329,0,0,1-.161-2.648l2.108-.261a34.884,34.884,0,1,0,8.529,7.279,1.329,1.329,0,1,1,2.026-1.72,37.521,37.521,0,0,1,8.9,24.255Zm-26.168,0A11.337,11.337,0,1,1,39.505,28.168,11.35,11.35,0,0,1,50.842,39.505Zm-2.658,0a8.679,8.679,0,1,0-8.679,8.679,8.689,8.689,0,0,0,8.679-8.679Zm13.47-5.025a1.329,1.329,0,0,1,1.329,1.329V43.2a1.329,1.329,0,0,1-1.329,1.329h-4.07a18.565,18.565,0,0,1-1.743,4.205l2.878,2.878a1.329,1.329,0,0,1,0,1.879L53.493,58.72a1.329,1.329,0,0,1-1.879,0l-2.878-2.878a18.573,18.573,0,0,1-4.205,1.743v4.07A1.329,1.329,0,0,1,43.2,62.983H35.809a1.329,1.329,0,0,1-1.329-1.329v-4.07a18.574,18.574,0,0,1-4.205-1.743L27.4,58.72a1.329,1.329,0,0,1-1.879,0L20.29,53.493a1.329,1.329,0,0,1,0-1.879l2.878-2.878a18.575,18.575,0,0,1-1.742-4.205h-4.07A1.329,1.329,0,0,1,16.027,43.2V35.809a1.329,1.329,0,0,1,1.329-1.329h4.07a18.582,18.582,0,0,1,1.742-4.205L20.29,27.4a1.329,1.329,0,0,1,0-1.879l5.227-5.227a1.329,1.329,0,0,1,1.879,0l2.878,2.878a18.572,18.572,0,0,1,4.205-1.742v-4.07a1.329,1.329,0,0,1,1.329-1.329H43.2a1.329,1.329,0,0,1,1.329,1.329v4.07a18.582,18.582,0,0,1,4.205,1.743l2.878-2.878a1.329,1.329,0,0,1,1.879,0l5.227,5.227a1.329,1.329,0,0,1,0,1.879l-2.878,2.878a18.585,18.585,0,0,1,1.742,4.205h4.07Zm-1.329,2.658H56.543a1.329,1.329,0,0,1-1.3-1.048,15.964,15.964,0,0,0-2.2-5.3,1.329,1.329,0,0,1,.177-1.66L55.9,26.457,52.553,23.11l-2.674,2.675a1.329,1.329,0,0,1-1.66.177,15.963,15.963,0,0,0-5.3-2.2,1.329,1.329,0,0,1-1.049-1.3V18.685H37.138v3.782a1.329,1.329,0,0,1-1.049,1.3,15.961,15.961,0,0,0-5.3,2.2,1.329,1.329,0,0,1-1.66-.177l-2.675-2.675-3.348,3.348,2.675,2.675a1.329,1.329,0,0,1,.177,1.66,15.964,15.964,0,0,0-2.2,5.3,1.329,1.329,0,0,1-1.3,1.048H18.685v4.734h3.782a1.329,1.329,0,0,1,1.3,1.048,15.967,15.967,0,0,0,2.2,5.3,1.329,1.329,0,0,1-.177,1.66l-2.675,2.675L26.457,55.9l2.675-2.675a1.329,1.329,0,0,1,1.66-.177,15.963,15.963,0,0,0,5.3,2.2,1.329,1.329,0,0,1,1.049,1.3v3.781h4.734V56.543a1.329,1.329,0,0,1,1.049-1.3,15.963,15.963,0,0,0,5.3-2.2,1.329,1.329,0,0,1,1.66.177L52.553,55.9,55.9,52.553l-2.675-2.675a1.329,1.329,0,0,1-.177-1.66,15.961,15.961,0,0,0,2.2-5.3,1.329,1.329,0,0,1,1.3-1.048h3.781Z" transform="translate(415.22 5917.822)"/>
  </g>
</svg>
