<svg xmlns="http://www.w3.org/2000/svg" width="85" height="78" viewBox="0 0 85 78">
  <g id="Grupo_1230134" data-name="Grupo 1230134" transform="translate(-180 -6926.074)">
    <rect id="Rectángulo_423568" data-name="Rectángulo 423568" width="85" height="78" rx="15" transform="translate(180 6926.074)" fill="#eddbfd"/>
    <g id="software-development_1_" data-name="software-development (1)" transform="translate(196.607 6939.182)">
      <path id="Trazado_1064331" data-name="Trazado 1064331" d="M124.41,109.6a14.807,14.807,0,1,0,14.807,14.807A14.824,14.824,0,0,0,124.41,109.6ZM112.227,124.41l5.815-5.815,2.146,2.146-3.67,3.67,3.67,3.67-2.146,2.145Zm10.412,7.389-2.75-1.282,6.293-13.5,2.75,1.282Zm8.139-1.573-2.146-2.146,3.67-3.67-3.67-3.67,2.146-2.145,5.815,5.816Z" transform="translate(-98.517 -98.517)" fill="#aa52f9"/>
      <path id="Trazado_1064332" data-name="Trazado 1064332" d="M50.468,22.492a3.32,3.32,0,0,1-1.592-5.941l1.059-.8L46.7,10.143l-1.227.518a3.318,3.318,0,0,1-4.347-4.347l.518-1.227L36.036,1.851l-.8,1.059a3.32,3.32,0,0,1-5.941-1.592L29.13,0H22.656l-.165,1.317a3.32,3.32,0,0,1-5.941,1.592l-.8-1.059L10.143,5.087l.518,1.227a3.318,3.318,0,0,1-4.347,4.347l-1.227-.518L1.851,15.75l1.059.8a3.32,3.32,0,0,1-1.592,5.941L0,22.656V29.13l1.317.165a3.32,3.32,0,0,1,1.592,5.941l-1.059.8,3.237,5.606,1.227-.518a3.318,3.318,0,0,1,4.347,4.347L10.144,46.7l5.606,3.237.8-1.059a3.32,3.32,0,0,1,5.941,1.592l.165,1.317H29.13l.165-1.317a3.32,3.32,0,0,1,5.941-1.592l.8,1.059L41.642,46.7l-.518-1.227a3.318,3.318,0,0,1,4.347-4.347l1.227.518,3.237-5.606-1.059-.8a3.32,3.32,0,0,1,1.592-5.941l1.317-.164V22.656ZM25.893,43.734A17.842,17.842,0,1,1,43.734,25.893,17.862,17.862,0,0,1,25.893,43.734Z" fill="#aa52f9"/>
    </g>
  </g>
</svg>
