<svg xmlns="http://www.w3.org/2000/svg" xmlns:xlink="http://www.w3.org/1999/xlink" width="108" height="108" viewBox="0 0 108 108">
  <defs>
    <filter id="Trazado_904820" x="0" y="0" width="108" height="108" filterUnits="userSpaceOnUse">
      <feOffset dy="3" input="SourceAlpha"/>
      <feGaussianBlur stdDeviation="3" result="blur"/>
      <feFlood flood-opacity="0.161"/>
      <feComposite operator="in" in2="blur"/>
      <feComposite in="SourceGraphic"/>
    </filter>
  </defs>
  <g id="Grupo_1230145" data-name="Grupo 1230145" transform="translate(-620 -7109.76)">
    <g id="Grupo_1229339" data-name="Grupo 1229339" transform="translate(629 7115.76)">
      <g id="Grupo_1173585" data-name="Grupo 1173585" transform="translate(0 0)">
        <g id="Grupo_1173428" data-name="Grupo 1173428">
          <g id="Grupo_1171958" data-name="Grupo 1171958">
            <g id="Grupo_1167341" data-name="Grupo 1167341">
              <g id="Grupo_1166792" data-name="Grupo 1166792">
                <g transform="matrix(1, 0, 0, 1, -9, -6)" filter="url(#Trazado_904820)">
                  <g id="Trazado_904820-2" data-name="Trazado 904820" transform="translate(9 6)" fill="#e5ebfb">
                    <path d="M 44.99996948242188 88.50004577636719 C 39.12684631347656 88.50004577636719 33.43020629882812 87.35012054443359 28.06828117370605 85.08220672607422 C 22.88851928710938 82.891357421875 18.23629379272461 79.75463104248047 14.2408447265625 75.75917816162109 C 10.24540710449219 71.76373291015625 7.108694553375244 67.11149597167969 4.917831897735596 61.93173217773438 C 2.649931907653809 56.56979370117188 1.500007033348083 50.87314224243164 1.500007033348083 45.00001907348633 C 1.500007033348083 39.12689590454102 2.649931907653809 33.43024444580078 4.917831897735596 28.06830596923828 C 7.108694553375244 22.88853073120117 10.24540710449219 18.23630714416504 14.2408447265625 14.24086952209473 C 18.23629379272461 10.2454195022583 22.88850784301758 7.108694076538086 28.06828117370605 4.917831420898438 C 33.43020629882812 2.649931669235229 39.12684631347656 1.500006556510925 44.99996948242188 1.500006556510925 C 50.87309265136719 1.500006556510925 56.56973266601562 2.649931669235229 61.93165588378906 4.917831420898438 C 67.11143493652344 7.108694076538086 71.76364135742188 10.2454195022583 75.75909423828125 14.24086952209473 C 79.75454711914062 18.23630714416504 82.89125823974609 22.88853073120117 85.08212280273438 28.06830596923828 C 87.35002136230469 33.43024444580078 88.49994659423828 39.12689590454102 88.49994659423828 45.00001907348633 C 88.49994659423828 50.87314224243164 87.35002136230469 56.56979370117188 85.08212280273438 61.93173217773438 C 82.89125823974609 67.11149597167969 79.75454711914062 71.76371765136719 75.75909423828125 75.75917816162109 C 71.76364135742188 79.75463104248047 67.11143493652344 82.891357421875 61.93165588378906 85.08220672607422 C 56.56973266601562 87.35012054443359 50.87309265136719 88.50004577636719 44.99996948242188 88.50004577636719 Z" stroke="none"/>
                    <path d="M 44.99996948242188 3.000007629394531 C 39.32868194580078 3.000007629394531 33.82863998413086 4.110061645507812 28.65261077880859 6.299346923828125 C 23.65164184570312 8.414573669433594 19.15968322753906 11.44334411621094 15.30149841308594 15.30152130126953 C 11.44332885742188 19.15969085693359 8.414566040039062 23.65166473388672 6.299324035644531 28.65263366699219 C 4.110054016113281 33.82867431640625 3 39.32873153686523 3 45.00001907348633 C 3 50.67130661010742 4.110054016113281 56.17136383056641 6.299324035644531 61.34738922119141 C 8.414566040039062 66.34837341308594 11.44332885742188 70.84033203125 15.301513671875 74.69851684570312 C 19.15968322753906 78.55668640136719 23.65164184570312 81.58546447753906 28.65261077880859 83.70069122314453 C 33.82863998413086 85.88997650146484 39.32868194580078 87.00003051757812 44.99996948242188 87.00003051757812 C 50.67125701904297 87.00003051757812 56.17129898071289 85.88997650146484 61.34732818603516 83.70069122314453 C 66.34829711914062 81.58546447753906 70.84025573730469 78.55668640136719 74.69842529296875 74.69851684570312 C 78.55661010742188 70.84033203125 81.58537292480469 66.34837341308594 83.70061492919922 61.34738922119141 C 85.88988494873047 56.17136383056641 86.99993896484375 50.67130661010742 86.99993896484375 45.00001907348633 C 86.99993896484375 39.32873153686523 85.88988494873047 33.82867431640625 83.70061492919922 28.65263366699219 C 81.58537292480469 23.65166473388672 78.55661010742188 19.15969085693359 74.69844055175781 15.30152130126953 C 70.84025573730469 11.44334411621094 66.34829711914062 8.414573669433594 61.34732818603516 6.299346923828125 C 56.17129898071289 4.110061645507812 50.67125701904297 3.000007629394531 44.99996948242188 3.000007629394531 M 44.99996948242188 7.62939453125e-06 C 69.85276794433594 7.62939453125e-06 89.99993896484375 20.14719390869141 89.99993896484375 45.00001907348633 C 89.99993896484375 69.85282897949219 69.85276794433594 90.00003051757812 44.99996948242188 90.00003051757812 C 20.14717102050781 90.00003051757812 0 69.85282897949219 0 45.00001907348633 C 0 20.14719390869141 20.14717102050781 7.62939453125e-06 44.99996948242188 7.62939453125e-06 Z" stroke="none" fill="#0b47db"/>
                  </g>
                </g>
              </g>
            </g>
          </g>
        </g>
      </g>
    </g>
    <g id="api" transform="translate(644.986 7131.746)">
      <g id="Grupo_1229456" data-name="Grupo 1229456" transform="translate(1.904 1.904)">
        <g id="Grupo_1229449" data-name="Grupo 1229449" transform="translate(0 5.422)">
          <path id="Trazado_1064433" data-name="Trazado 1064433" d="M2,15.229V9.807A1.813,1.813,0,0,1,3.807,8H26.4l.063.063L24.989,9.527l1.048,2.087a15.1,15.1,0,0,0-1.663,3.615Z" transform="translate(-2 -8)" fill="#5cd6b3"/>
        </g>
        <g id="Grupo_1229450" data-name="Grupo 1229450" transform="translate(0 12.651)">
          <path id="Trazado_1064434" data-name="Trazado 1064434" d="M47.183,33.531A14.967,14.967,0,0,1,42.5,35.474l-.741,2.214H36.339L35.6,35.474a14.967,14.967,0,0,1-4.681-1.943L28.83,34.579l-3.841-3.841,1.048-2.087a14.967,14.967,0,0,1-1.943-4.681l-2.214-.741V17.807l2.214-.741c.081-.361.181-.714.28-1.066H2V48.532a1.813,1.813,0,0,0,1.807,1.807H48.99v-15.9Z" transform="translate(-2 -16)" fill="#e6e9ed"/>
        </g>
        <g id="Grupo_1229451" data-name="Grupo 1229451" transform="translate(45.183 43.376)">
          <path id="Trazado_1064435" data-name="Trazado 1064435" d="M61.037,50V60.844H52V50h9.037Z" transform="translate(-52 -50)" fill="#f0d0b4"/>
        </g>
        <g id="Grupo_1229452" data-name="Grupo 1229452" transform="translate(32.532 43.376)">
          <path id="Trazado_1064436" data-name="Trazado 1064436" d="M47.037,53.615v7.229H38V50h9.037Z" transform="translate(-38 -50)" fill="#f0d0b4"/>
        </g>
        <g id="Grupo_1229453" data-name="Grupo 1229453" transform="translate(19.881 43.376)">
          <path id="Trazado_1064437" data-name="Trazado 1064437" d="M24,60.844V50h9.037V60.844Z" transform="translate(-24 -50)" fill="#f0d0b4"/>
        </g>
        <g id="Grupo_1229454" data-name="Grupo 1229454" transform="translate(3.615 16.266)">
          <path id="Trazado_1064438" data-name="Trazado 1064438" d="M6,20H18.651v9.037H6Z" transform="translate(-6 -20)" fill="#ef7385"/>
        </g>
        <g id="Grupo_1229455" data-name="Grupo 1229455" transform="translate(19.881)">
          <path id="Trazado_1064439" data-name="Trazado 1064439" d="M58.339,16.459v5.422l-2.214.741A14.967,14.967,0,0,1,54.182,27.3l1.048,2.087L51.39,33.231l-.28-.145-1.807-.9a14.967,14.967,0,0,1-4.681,1.943l-.741,2.214H38.459l-.741-2.214a14.967,14.967,0,0,1-4.681-1.943l-2.087,1.048L27.109,29.39,28.157,27.3a14.967,14.967,0,0,1-1.943-4.681L24,21.881V16.459l2.214-.741c.081-.361.181-.714.28-1.066a15.1,15.1,0,0,1,1.663-3.615L27.109,8.949l1.473-1.464,2.368-2.377,2.087,1.048a14.967,14.967,0,0,1,4.681-1.943L38.459,2h5.422l.741,2.214A14.967,14.967,0,0,1,49.3,6.157L51.39,5.109l3.841,3.841-1.048,2.087a14.967,14.967,0,0,1,1.943,4.681Z" transform="translate(-24 -2)" fill="#fcd770"/>
        </g>
      </g>
      <g id="Grupo_1229457" data-name="Grupo 1229457" transform="translate(1 1)">
        <path id="Trazado_1064440" data-name="Trazado 1064440" d="M33.615,14A3.618,3.618,0,0,0,30,17.615v7.229h1.807V21.229h3.615v3.615h1.807V17.615A3.618,3.618,0,0,0,33.615,14Zm-1.807,5.422V17.615a1.807,1.807,0,0,1,3.615,0v1.807Z" transform="translate(-3.794 -2.252)"/>
        <path id="Trazado_1064441" data-name="Trazado 1064441" d="M43.615,14H40V24.844h1.807V21.229h1.807a3.615,3.615,0,0,0,0-7.229Zm0,5.422H41.807V15.807h1.807a1.807,1.807,0,1,1,0,3.615Z" transform="translate(-4.757 -2.252)"/>
        <path id="Trazado_1064442" data-name="Trazado 1064442" d="M49,15.807h1.807v7.229H49v1.807h5.422V23.037H52.615V15.807h1.807V14H49Z" transform="translate(-5.624 -2.252)"/>
        <path id="Trazado_1064443" data-name="Trazado 1064443" d="M57.027,22.436V15.712l-2.355-.785A16.1,16.1,0,0,0,53,10.9l1.112-2.224L49.355,3.917,47.131,5.029A16.132,16.132,0,0,0,43.1,3.356L42.317,1H35.592l-.786,2.355a16.132,16.132,0,0,0-4.03,1.673L28.552,3.916,26.046,6.422H3.711A2.714,2.714,0,0,0,1,9.133V47.087A2.714,2.714,0,0,0,3.711,49.8h17.17v7.229H31.725V44.376H27.206V42.569H38.05v1.807H33.532V57.027H44.376V44.376H39.858V42.569H50.7v1.807H46.183V57.027H57.027V44.376H52.509V40.761H49.8V33.789l4.313-4.313L53,27.252a16.169,16.169,0,0,0,1.674-4.03ZM42.569,55.22H35.339V46.183h7.229Zm12.651,0H47.991V46.183H55.22ZM3.711,8.229H24.239l-.442.442L24.909,10.9a16.174,16.174,0,0,0-1.273,2.755H2.807V9.132a.9.9,0,0,1,.9-.9ZM29.917,55.22H22.688V46.183h7.229ZM25.4,40.761v3.615H20.881v3.615H3.711a.9.9,0,0,1-.9-.9V15.459H21.638l-.757.252v6.724l2.355.785a16.1,16.1,0,0,0,1.674,4.03L23.8,29.475l4.756,4.755,2.224-1.112a16.132,16.132,0,0,0,4.03,1.673l.784,2.356H38.05v3.615Zm14.459,0V37.147h2.459l.785-2.355a16.132,16.132,0,0,0,4.03-1.673l.858.429v7.213ZM53.033,22.318A14.342,14.342,0,0,1,51.2,26.729l-.269.43.98,1.959L49,32.031l-1.958-.979-.431.269A14.32,14.32,0,0,1,42.2,33.152l-.5.113-.69,2.074h-4.12L36.2,33.266l-.5-.113A14.342,14.342,0,0,1,31.3,31.323l-.431-.269-1.958.979-2.913-2.913.98-1.959-.269-.43a14.342,14.342,0,0,1-1.831-4.411l-.114-.494-2.071-.692v-4.12l2.073-.691.114-.494a14.342,14.342,0,0,1,1.831-4.411l.269-.43L26,9.028l2.913-2.913,1.958.979.431-.269a14.32,14.32,0,0,1,4.411-1.831l.5-.113.69-2.074h4.12l.691,2.073.5.113a14.342,14.342,0,0,1,4.411,1.831l.431.269L49,6.115l2.913,2.913-.98,1.959.269.43a14.342,14.342,0,0,1,1.831,4.411l.114.494,2.071.692v4.12l-2.073.691Z" transform="translate(-1 -1)"/>
        <path id="Trazado_1064444" data-name="Trazado 1064444" d="M27,53h3.615v1.807H27Z" transform="translate(-3.505 -6.009)"/>
        <path id="Trazado_1064445" data-name="Trazado 1064445" d="M27,57h3.615v1.807H27Z" transform="translate(-3.505 -6.395)"/>
        <path id="Trazado_1064446" data-name="Trazado 1064446" d="M41,53h3.615v1.807H41Z" transform="translate(-4.853 -6.009)"/>
        <path id="Trazado_1064447" data-name="Trazado 1064447" d="M41,57h3.615v1.807H41Z" transform="translate(-4.853 -6.395)"/>
        <path id="Trazado_1064448" data-name="Trazado 1064448" d="M55,53h3.615v1.807H55Z" transform="translate(-6.202 -6.009)"/>
        <path id="Trazado_1064449" data-name="Trazado 1064449" d="M55,57h3.615v1.807H55Z" transform="translate(-6.202 -6.395)"/>
        <path id="Trazado_1064450" data-name="Trazado 1064450" d="M9,11h1.807v1.807H9Z" transform="translate(-1.771 -1.963)"/>
        <path id="Trazado_1064451" data-name="Trazado 1064451" d="M5,11H6.807v1.807H5Z" transform="translate(-1.385 -1.963)"/>
        <path id="Trazado_1064452" data-name="Trazado 1064452" d="M13,11h1.807v1.807H13Z" transform="translate(-2.156 -1.963)"/>
        <path id="Trazado_1064453" data-name="Trazado 1064453" d="M5,29.844H19.459V19H5Zm1.807-9.037H17.651v7.229H6.807Z" transform="translate(-1.385 -2.734)"/>
        <path id="Trazado_1064454" data-name="Trazado 1064454" d="M5,33H19.459v1.807H5Z" transform="translate(-1.385 -4.083)"/>
        <path id="Trazado_1064455" data-name="Trazado 1064455" d="M17,37h3.615v1.807H17Z" transform="translate(-2.541 -4.468)"/>
        <path id="Trazado_1064456" data-name="Trazado 1064456" d="M5,37h9.037v1.807H5Z" transform="translate(-1.385 -4.468)"/>
        <path id="Trazado_1064457" data-name="Trazado 1064457" d="M5,41H19.459v1.807H5Z" transform="translate(-1.385 -4.853)"/>
        <path id="Trazado_1064458" data-name="Trazado 1064458" d="M5,45H6.807v1.807H5Z" transform="translate(-1.385 -5.239)"/>
        <path id="Trazado_1064459" data-name="Trazado 1064459" d="M9,45H19.844v1.807H9Z" transform="translate(-1.771 -5.239)"/>
        <path id="Trazado_1064460" data-name="Trazado 1064460" d="M5,49H19.459v1.807H5Z" transform="translate(-1.385 -5.624)"/>
      </g>
    </g>
  </g>
</svg>
