<svg xmlns="http://www.w3.org/2000/svg" xmlns:xlink="http://www.w3.org/1999/xlink" width="108" height="108" viewBox="0 0 108 108">
  <defs>
    <filter id="Trazado_904820" x="0" y="0" width="108" height="108" filterUnits="userSpaceOnUse">
      <feOffset dy="3" input="SourceAlpha"/>
      <feGaussianBlur stdDeviation="3" result="blur"/>
      <feFlood flood-opacity="0.161"/>
      <feComposite operator="in" in2="blur"/>
      <feComposite in="SourceGraphic"/>
    </filter>
  </defs>
  <g id="Grupo_1227790" data-name="Grupo 1227790" transform="translate(9 6)">
    <g id="Grupo_1173585" data-name="Grupo 1173585" transform="translate(0 0)">
      <g id="Grupo_1173428" data-name="Grupo 1173428">
        <g id="Grupo_1171958" data-name="Grupo 1171958">
          <g id="Grupo_1167341" data-name="Grupo 1167341">
            <g id="Grupo_1166792" data-name="Grupo 1166792">
              <g transform="matrix(1, 0, 0, 1, -9, -6)" filter="url(#Trazado_904820)">
                <g id="Trazado_904820-2" data-name="Trazado 904820" transform="translate(9 6)" fill="#f6ecfe">
                  <path d="M 44.99999618530273 88.5 C 39.12687301635742 88.5 33.43022155761719 87.35008239746094 28.06829643249512 85.08216857910156 C 22.88852119445801 82.89131927490234 18.23629570007324 79.75459289550781 14.24084663391113 75.75914001464844 C 10.24540901184082 71.76369476318359 7.108683586120605 67.11146545410156 4.917821407318115 61.93170547485352 C 2.649921178817749 56.56976699829102 1.499996185302734 50.87312698364258 1.499996185302734 45.00000381469727 C 1.499996185302734 39.12688064575195 2.649921178817749 33.43022918701172 4.917821407318115 28.06830406188965 C 7.108683586120605 22.88852882385254 10.24540901184082 18.23630332946777 14.24084663391113 14.24085426330566 C 18.23629570007324 10.24541664123535 22.88852119445801 7.108691215515137 28.06829643249512 4.917829036712646 C 33.43022155761719 2.64992880821228 39.12687301635742 1.500003814697266 44.99999618530273 1.500003814697266 C 50.87311935424805 1.500003814697266 56.56977081298828 2.64992880821228 61.93169784545898 4.917829036712646 C 67.11147308349609 7.108691215515137 71.76369476318359 10.24541664123535 75.75914764404297 14.24085426330566 C 79.75458526611328 18.23630332946777 82.89131164550781 22.88852882385254 85.08216857910156 28.06830406188965 C 87.35007476806641 33.43022918701172 88.5 39.12688064575195 88.5 45.00000381469727 C 88.5 50.87312698364258 87.35007476806641 56.56976699829102 85.08216857910156 61.93170547485352 C 82.89131164550781 67.11146545410156 79.75458526611328 71.76369476318359 75.75914764404297 75.75914001464844 C 71.76369476318359 79.75459289550781 67.11147308349609 82.89131927490234 61.93169784545898 85.08216857910156 C 56.56977081298828 87.35008239746094 50.87311935424805 88.5 44.99999618530273 88.5 Z" stroke="none"/>
                  <path d="M 44.99999618530273 3.000007629394531 C 39.32870864868164 3.000007629394531 33.82865142822266 4.110061645507812 28.65262603759766 6.299346923828125 C 23.65165710449219 8.414573669433594 19.15968322753906 11.44334411621094 15.301513671875 15.30152130126953 C 11.44333648681641 19.15969085693359 8.414566040039062 23.65166473388672 6.299339294433594 28.65263366699219 C 4.110054016113281 33.82865905761719 2.999992370605469 39.32871627807617 2.999992370605469 45.00000381469727 C 2.999992370605469 50.67129135131836 4.110054016113281 56.17133331298828 6.299339294433594 61.34737396240234 C 8.414566040039062 66.34834289550781 11.44333648681641 70.84030151367188 15.301513671875 74.698486328125 C 19.15968322753906 78.55666351318359 23.65165710449219 81.58543395996094 28.65262603759766 83.70066070556641 C 33.82865142822266 85.88994598388672 39.32870864868164 87 44.99999618530273 87 C 50.67128372192383 87 56.17134094238281 85.88994598388672 61.34736633300781 83.70066070556641 C 66.34834289550781 81.58543395996094 70.84030914306641 78.55666351318359 74.69847869873047 74.698486328125 C 78.55665588378906 70.84030151367188 81.58542633056641 66.34834289550781 83.70065307617188 61.34737396240234 C 85.88993835449219 56.17133331298828 87 50.67129135131836 87 45.00000381469727 C 87 39.32871627807617 85.88993835449219 33.82865905761719 83.70065307617188 28.65263366699219 C 81.58542633056641 23.65166473388672 78.55665588378906 19.15969085693359 74.69847869873047 15.30152130126953 C 70.84030914306641 11.44334411621094 66.34834289550781 8.414573669433594 61.34736633300781 6.299346923828125 C 56.17134094238281 4.110061645507812 50.67128372192383 3.000007629394531 44.99999618530273 3.000007629394531 M 44.99999618530273 7.62939453125e-06 C 69.85281372070312 7.62939453125e-06 90 20.14718627929688 90 45.00000381469727 C 90 69.85280609130859 69.85281372070312 90 44.99999618530273 90 C 20.14717864990234 90 -7.62939453125e-06 69.85280609130859 -7.62939453125e-06 45.00000381469727 C -7.62939453125e-06 20.14718627929688 20.14717864990234 7.62939453125e-06 44.99999618530273 7.62939453125e-06 Z" stroke="none" fill="#aa52f9"/>
                </g>
              </g>
            </g>
          </g>
        </g>
      </g>
    </g>
    <g id="Layer_x0020_1" transform="translate(-128.943 -129.943)">
      <path id="Trazado_1064195" data-name="Trazado 1064195" d="M174.828,165.92H158.15a.632.632,0,1,1,0-1.263h16.678A.632.632,0,0,1,174.828,165.92Zm25.427,34.966H147.632a.634.634,0,0,1-.632-.632v-6.791a.634.634,0,0,1,.632-.632h2.116v-30.86a.614.614,0,0,1,.632-.632h2.969V147.632a.634.634,0,0,1,.632-.632h39.925a.634.634,0,0,1,.632.632V161.34h2.969a.614.614,0,0,1,.632.632v30.86h2.116a.634.634,0,0,1,.632.632v6.791A.634.634,0,0,1,200.255,200.887Zm-51.991-1.263h51.36v-5.5H182.251v2.748a.634.634,0,0,1-.632.632H166.268a.634.634,0,0,1-.632-.632v-2.748H148.263Zm32.724-5.5H166.9v2.116h14.088Zm-26.375-9.16h38.662V155.592H154.612ZM153.349,162.6h-2.337v30.228h45.864V162.6h-2.337v23a.634.634,0,0,1-.632.632H153.981a.634.634,0,0,1-.632-.632Zm39.925-8.276v-6.065H154.612v6.065Zm-34.872-.884a2.148,2.148,0,1,1,0-4.3A2.15,2.15,0,0,1,158.4,153.444Zm0-3.032a.884.884,0,0,0,0,1.769A.884.884,0,0,0,158.4,150.411Zm6.191,3.032a2.148,2.148,0,0,1,0-4.3,2.148,2.148,0,1,1,0,4.3Zm0-3.032a.885.885,0,0,0,0,1.769A.885.885,0,0,0,164.594,150.411Zm17.025,14.719a.665.665,0,0,1-.411-.158l-3.222-2.622a.624.624,0,0,1,0-.979l3.222-2.653c.632-.505,1.453.474.79.979l-2.622,2.148L182,164.025A.615.615,0,0,1,181.619,165.131Zm5.812,0a.647.647,0,0,1-.411-1.137l2.622-2.148L187.02,159.7a.639.639,0,0,1,.821-.979l3.222,2.653a.645.645,0,0,1,0,.979l-3.222,2.622A.665.665,0,0,1,187.431,165.131Zm-3.727.442a.637.637,0,0,1-.6-.821l1.643-6.128a.621.621,0,1,1,1.2.316L184.3,165.1A.609.609,0,0,1,183.7,165.573Zm6.949,7.549H174.828a.634.634,0,0,1-.632-.632v-4.138a.634.634,0,0,1,.632-.632h15.825a.634.634,0,0,1,.632.632v4.138A.634.634,0,0,1,190.653,173.122Zm-15.193-1.263h14.561v-2.874H175.459Zm-7.233,11.024H161.5a.634.634,0,0,1-.632-.632v-6.1H158.15a.623.623,0,0,1-.442-1.074l6.7-6.728a.715.715,0,0,1,.916,0l6.728,6.728a.636.636,0,0,1-.442,1.074h-2.748v6.1A.634.634,0,0,1,168.226,182.882Zm-6.1-1.263h5.465v-6.1a.634.634,0,0,1,.632-.632h1.832l-5.212-5.18-5.18,5.18H161.5a.634.634,0,0,1,.632.632Zm25.964-5.212H177.418a.632.632,0,1,1,0-1.263h10.676A.632.632,0,0,1,188.094,176.407Zm2.559,3.253H174.828a.632.632,0,0,1,0-1.263h15.825A.632.632,0,0,1,190.653,179.66Zm0,3.222H174.828a.632.632,0,0,1,0-1.263h15.825A.632.632,0,0,1,190.653,182.882Zm-21.258-23.469H158.15a.632.632,0,1,1,0-1.263h11.245A.632.632,0,1,1,169.395,159.414Zm5.433,3.253H158.15a.632.632,0,1,1,0-1.263h16.678A.632.632,0,0,1,174.828,162.667Z" transform="translate(0 0)" fill-rule="evenodd"/>
      <path id="Trazado_1064196" data-name="Trazado 1064196" d="M481.126,256.769a.884.884,0,0,0,0-1.769A.884.884,0,0,0,481.126,256.769Z" transform="translate(-322.724 -104.589)" fill="#ff3e1a" fill-rule="evenodd"/>
      <path id="Trazado_1064197" data-name="Trazado 1064197" d="M677.853,255a.885.885,0,0,0,0,1.769A.885.885,0,0,0,677.853,255Z" transform="translate(-513.259 -104.589)" fill="#ff3e1a" fill-rule="evenodd"/>
      <path id="Trazado_1064198" data-name="Trazado 1064198" d="M397.981,187.884a2.148,2.148,0,0,1,0,4.3,2.148,2.148,0,1,1,0-4.3ZM388,193.065h38.662V187H388Zm3.79-5.18a2.148,2.148,0,1,1-2.148,2.148A2.148,2.148,0,0,1,391.79,187.884Z" transform="translate(-233.388 -38.737)" fill="#ffa721" fill-rule="evenodd"/>
      <path id="Trazado_1064199" data-name="Trazado 1064199" d="M426.662,419H388v29.375h38.662Zm-35.124,5.812h16.678a.632.632,0,0,1,0,1.263H391.538A.632.632,0,1,1,391.538,424.812Zm0,3.253h16.678a.632.632,0,0,1,0,1.263H391.538A.632.632,0,1,1,391.538,428.065Zm23.058.316-3.222-2.622a.624.624,0,0,1,0-.979l3.222-2.653c.632-.505,1.453.474.79.979l-2.622,2.148,2.622,2.179a.615.615,0,0,1-.379,1.105A.665.665,0,0,1,414.6,428.381Zm1.9-.221,1.642-6.128a.621.621,0,1,1,1.2.316l-1.643,6.159a.609.609,0,0,1-.6.474A.637.637,0,0,1,416.491,428.16Zm4.327.379a.647.647,0,0,1-.411-1.137l2.622-2.148-2.622-2.148a.639.639,0,0,1,.821-.979l3.222,2.653a.645.645,0,0,1,0,.979l-3.222,2.622A.665.665,0,0,1,420.818,428.539Zm-12.6,2.59H424.04a.634.634,0,0,1,.632.632V435.9a.634.634,0,0,1-.632.632H408.215a.634.634,0,0,1-.632-.632v-4.138A.634.634,0,0,1,408.215,431.129Zm-9.508.632,6.728,6.728a.636.636,0,0,1-.442,1.074h-2.748v6.1a.634.634,0,0,1-.632.632h-6.728a.634.634,0,0,1-.632-.632v-6.1h-2.716a.623.623,0,0,1-.442-1.074l6.7-6.728A.715.715,0,0,1,398.708,431.761Zm12.1,6.791h10.676a.632.632,0,0,1,0,1.263H410.805A.632.632,0,1,1,410.805,438.552Zm-2.59,3.253H424.04a.632.632,0,0,1,0,1.263H408.215A.632.632,0,0,1,408.215,441.805Zm0,3.222H424.04a.632.632,0,0,1,0,1.263H408.215A.632.632,0,0,1,408.215,445.027Zm-16.678-23.469h11.245a.632.632,0,1,1,0,1.263H391.538A.632.632,0,1,1,391.538,421.558Z" transform="translate(-233.388 -263.408)" fill="#ffe4af" fill-rule="evenodd"/>
      <path id="Trazado_1064200" data-name="Trazado 1064200" d="M1062.561,843H1048v2.874h14.561Z" transform="translate(-872.54 -674.016)" fill="#ff3e1a" fill-rule="evenodd"/>
      <path id="Trazado_1064201" data-name="Trazado 1064201" d="M558.392,871.18,553.18,866,548,871.18h1.832a.634.634,0,0,1,.632.632v6.1h5.465v-6.1a.634.634,0,0,1,.632-.632Z" transform="translate(-388.334 -696.289)" fill="#ffa721" fill-rule="evenodd"/>
      <path id="Trazado_1064202" data-name="Trazado 1064202" d="M316.895,664.627H276.969a.634.634,0,0,1-.632-.632V641H274v30.228h45.864V641h-2.337v22.995A.634.634,0,0,1,316.895,664.627Z" transform="translate(-122.989 -478.396)" fill="#ededff" fill-rule="evenodd"/>
      <path id="Trazado_1064203" data-name="Trazado 1064203" d="M204.373,1639H187v5.5h51.36V1639H220.987v2.748a.634.634,0,0,1-.632.632H205a.634.634,0,0,1-.632-.632Z" transform="translate(-38.737 -1444.873)" fill="#25738b" fill-rule="evenodd"/>
      <path id="Trazado_1064204" data-name="Trazado 1064204" d="M777,1639v2.116h14.088V1639Z" transform="translate(-610.1 -1444.873)" fill="#e6e6e6" fill-rule="evenodd"/>
    </g>
  </g>
</svg>
