<svg xmlns="http://www.w3.org/2000/svg" width="85" height="78" viewBox="0 0 85 78">
  <g id="Grupo_1230142" data-name="Grupo 1230142" transform="translate(-180.111 -2290)">
    <rect id="Rectángulo_423591" data-name="Rectángulo 423591" width="85" height="78" rx="15" transform="translate(180.111 2290)" fill="#eddbfd"/>
    <g id="codificacion_3_" data-name="codificacion (3)" transform="translate(200.625 2307.013)">
      <path id="Trazado_1064357" data-name="Trazado 1064357" d="M0,164.992a2.848,2.848,0,0,0,2.845,2.845H41.129a2.848,2.848,0,0,0,2.845-2.845V135.5H0Zm39.443-.4h-9a1.288,1.288,0,0,1,0-2.577h9a1.288,1.288,0,1,1,0,2.577Zm0-5.819h-9a1.288,1.288,0,1,1,0-2.577h9a1.288,1.288,0,1,1,0,2.577ZM27.806,141.652H39.443a1.288,1.288,0,1,1,0,2.577H27.806a1.288,1.288,0,0,1,0-2.577Zm-9.413-1.142a1.288,1.288,0,1,1,1.908-1.731l2.64,2.909a1.288,1.288,0,0,1,0,1.731l-2.64,2.909a1.288,1.288,0,1,1-1.908-1.731l1.854-2.044Zm.954,9.87h20.1a1.288,1.288,0,1,1,0,2.577h-20.1a1.288,1.288,0,1,1,0-2.577Zm-8.7-5.107,2.909-5.819a1.288,1.288,0,1,1,2.3,1.152l-2.909,5.819a1.288,1.288,0,1,1-2.3-1.152Zm-7.075-3.585,2.64-2.909a1.288,1.288,0,1,1,1.908,1.731L6.27,142.554,8.124,144.6a1.288,1.288,0,1,1-1.908,1.731l-2.64-2.909a1.288,1.288,0,0,1,0-1.731Zm.954,8.692h9a1.288,1.288,0,1,1,0,2.577h-9a1.288,1.288,0,1,1,0-2.577Zm0,5.819h20.1a1.288,1.288,0,1,1,0,2.577H4.53a1.288,1.288,0,1,1,0-2.577Zm0,5.819h20.1a1.288,1.288,0,0,1,0,2.577H4.53a1.288,1.288,0,0,1,0-2.577Z" transform="translate(0 -123.862)" fill="#aa52f9"/>
      <path id="Trazado_1064358" data-name="Trazado 1064358" d="M41.129,0H2.845A2.848,2.848,0,0,0,0,2.845V9.061H43.974V2.845A2.848,2.848,0,0,0,41.129,0ZM4.53,5.819A1.288,1.288,0,1,1,5.819,4.53,1.311,1.311,0,0,1,4.53,5.819Zm5.819,0A1.288,1.288,0,1,1,11.638,4.53,1.311,1.311,0,0,1,10.349,5.819Zm29.094,0H16.168a1.288,1.288,0,1,1,0-2.577H39.443a1.288,1.288,0,1,1,0,2.577Z" fill="#aa52f9"/>
    </g>
  </g>
</svg>
