<svg xmlns="http://www.w3.org/2000/svg" xmlns:xlink="http://www.w3.org/1999/xlink" width="303.513" height="336.215" viewBox="0 0 303.513 336.215">
  <defs>
    <linearGradient id="linear-gradient" x1="0.5" x2="0.5" y2="1" gradientUnits="objectBoundingBox">
      <stop offset="0" stop-color="#903cdf"/>
      <stop offset="1" stop-color="#481e70"/>
    </linearGradient>
    <clipPath id="clip-path">
      <rect id="Rectángulo_424071" data-name="Rectángulo 424071" width="303.513" height="336.215" fill="none"/>
    </clipPath>
    <clipPath id="clip-path-3">
      <rect id="Rectángulo_424040" data-name="Rectángulo 424040" width="47.715" height="27.634" fill="none"/>
    </clipPath>
    <clipPath id="clip-path-5">
      <rect id="Rectángulo_424047" data-name="Rectángulo 424047" width="6.834" height="3.099" fill="none"/>
    </clipPath>
    <clipPath id="clip-path-6">
      <rect id="Rectángulo_424048" data-name="Rectángulo 424048" width="4.102" height="4.046" fill="none"/>
    </clipPath>
  </defs>
  <g id="Grupo_1229749" data-name="Grupo 1229749" transform="translate(-1000 -2136.617)">
    <rect id="Rectángulo_423259" data-name="Rectángulo 423259" width="155" height="286" rx="13" transform="translate(1073.775 2159.225)" fill="url(#linear-gradient)"/>
    <g id="Grupo_1229748" data-name="Grupo 1229748" transform="translate(1000 2136.617)">
      <g id="Grupo_1229747" data-name="Grupo 1229747" clip-path="url(#clip-path)">
        <g id="Grupo_1229736" data-name="Grupo 1229736">
          <g id="Grupo_1229735" data-name="Grupo 1229735" clip-path="url(#clip-path)">
            <rect id="Rectángulo_424036" data-name="Rectángulo 424036" width="139.82" height="72.56" transform="translate(149.77 111.067)" fill="none" stroke="#3c2e67" stroke-linecap="round" stroke-miterlimit="10" stroke-width="1" stroke-dasharray="2.025 5.063"/>
            <rect id="Rectángulo_424037" data-name="Rectángulo 424037" width="79.048" height="60.954" transform="translate(93.575 27.38)" fill="none" stroke="#3c2e67" stroke-linecap="round" stroke-miterlimit="10" stroke-width="1" stroke-dasharray="2.025 5.063"/>
            <path id="Trazado_1065055" data-name="Trazado 1065055" d="M318.9,56.536a7.007,7.007,0,0,0-7.007-7.007H179.227a7.007,7.007,0,0,0-7.007,7.007v76.4H318.9Z" transform="translate(-40.385 -11.614)" fill="#3c2e67"/>
            <path id="Trazado_1065056" data-name="Trazado 1065056" d="M172.22,159.257v2.3a7.007,7.007,0,0,0,7.007,7.007H311.892a7.007,7.007,0,0,0,7.007-7.007v-2.3Z" transform="translate(-40.385 -37.345)" fill="#bebbc9"/>
            <rect id="Rectángulo_424038" data-name="Rectángulo 424038" width="25.07" height="18.482" transform="translate(192.64 130.627)" fill="#150a2c"/>
            <path id="Trazado_1065057" data-name="Trazado 1065057" d="M294.675,202.365H221.444v-3.79a3.789,3.789,0,0,1,3.789-3.789h65.651a3.789,3.789,0,0,1,3.79,3.789Z" transform="translate(-51.927 -45.676)" fill="#3c2e67"/>
            <path id="Trazado_1065058" data-name="Trazado 1065058" d="M315.786,57.911a2.521,2.521,0,0,0-2.518-2.518H180.6a2.521,2.521,0,0,0-2.519,2.518v7.823h137.7Z" transform="translate(-41.759 -12.989)" fill="#aeabde"/>
            <path id="Trazado_1065059" data-name="Trazado 1065059" d="M178.083,68.9v63.491a2.522,2.522,0,0,0,2.519,2.519H313.267a2.522,2.522,0,0,0,2.518-2.519V68.9Z" transform="translate(-41.759 -16.157)" fill="#150a2c"/>
            <rect id="Rectángulo_424039" data-name="Rectángulo 424039" width="78.898" height="56.563" transform="translate(163.484 62.192)" fill="#fff"/>
            <g id="Grupo_1229734" data-name="Grupo 1229734" transform="translate(175.324 69.1)" opacity="0.15" style="mix-blend-mode: multiply;isolation: isolate">
              <g id="Grupo_1229733" data-name="Grupo 1229733">
                <g id="Grupo_1229732" data-name="Grupo 1229732" clip-path="url(#clip-path-3)">
                  <text id="CSS" transform="translate(0 20.719)" fill="#211915" font-size="25" font-family="SegoeUI, Segoe UI"><tspan x="0" y="0">CSS</tspan></text>
                </g>
              </g>
            </g>
          </g>
        </g>
        <text id="CSS-2" data-name="CSS" transform="translate(175.324 88.187)" fill="#6f6edf" font-size="25" font-family="SegoeUI, Segoe UI"><tspan x="0" y="0">CSS</tspan></text>
        <g id="Grupo_1229744" data-name="Grupo 1229744">
          <g id="Grupo_1229743" data-name="Grupo 1229743" clip-path="url(#clip-path)">
            <rect id="Rectángulo_424042" data-name="Rectángulo 424042" width="53.734" height="2.314" transform="translate(175.323 93.602)" fill="#ffd453"/>
            <rect id="Rectángulo_424043" data-name="Rectángulo 424043" width="53.734" height="2.314" transform="translate(175.323 99.804)" fill="#a6a4b1"/>
            <rect id="Rectángulo_424044" data-name="Rectángulo 424044" width="53.734" height="2.314" transform="translate(175.323 106.006)" fill="#a6a4b1"/>
            <rect id="Rectángulo_424045" data-name="Rectángulo 424045" width="52.632" height="2.545" transform="translate(175.323 111.553)" fill="#a6a4b1"/>
            <rect id="Rectángulo_424046" data-name="Rectángulo 424046" width="105.328" height="6.168" transform="translate(153.622 44.183)" fill="#fff"/>
            <path id="Trazado_1065060" data-name="Trazado 1065060" d="M343.763,61.83a1.036,1.036,0,1,1-1.036-1.036,1.036,1.036,0,0,1,1.036,1.036" transform="translate(-80.125 -14.256)" fill="#7aeaef"/>
            <path id="Trazado_1065061" data-name="Trazado 1065061" d="M348.767,61.83a1.036,1.036,0,1,1-1.036-1.036,1.036,1.036,0,0,1,1.036,1.036" transform="translate(-81.298 -14.256)" fill="#ffd453"/>
            <path id="Trazado_1065062" data-name="Trazado 1065062" d="M353.771,61.83a1.036,1.036,0,1,1-1.036-1.036,1.036,1.036,0,0,1,1.036,1.036" transform="translate(-82.472 -14.256)" fill="#be2952"/>
            <g id="Grupo_1229739" data-name="Grupo 1229739" transform="translate(139.162 46.638)" opacity="0.5">
              <g id="Grupo_1229738" data-name="Grupo 1229738">
                <g id="Grupo_1229737" data-name="Grupo 1229737" clip-path="url(#clip-path-5)">
                  <path id="Trazado_1065063" data-name="Trazado 1065063" d="M184.191,61.291l-2.033,1.269,2.033,1.268" transform="translate(-181.877 -61.011)" fill="none" stroke="#3c2e67" stroke-linecap="round" stroke-linejoin="round" stroke-width="0.733"/>
                  <path id="Trazado_1065064" data-name="Trazado 1065064" d="M187.7,61.291l2.033,1.269L187.7,63.829" transform="translate(-183.176 -61.011)" fill="none" stroke="#3c2e67" stroke-linecap="round" stroke-linejoin="round" stroke-width="0.733"/>
                </g>
              </g>
            </g>
            <g id="Grupo_1229742" data-name="Grupo 1229742" transform="translate(147.795 45.772)" opacity="0.5">
              <g id="Grupo_1229741" data-name="Grupo 1229741">
                <g id="Grupo_1229740" data-name="Grupo 1229740" clip-path="url(#clip-path-6)">
                  <path id="Trazado_1065065" data-name="Trazado 1065065" d="M195.119,60.252l1.591,1.491h-.691V63.38h-1.8V61.744h-.691Zm0-.459a.458.458,0,0,0-.314.124l-1.591,1.491a.459.459,0,0,0,.314.795h.231V63.38a.46.46,0,0,0,.46.459h1.8a.46.46,0,0,0,.46-.459V62.2h.231a.459.459,0,0,0,.314-.795l-1.591-1.491a.458.458,0,0,0-.314-.124" transform="translate(-193.068 -59.793)" fill="#3c2e67"/>
                </g>
              </g>
            </g>
            <path id="Trazado_1065066" data-name="Trazado 1065066" d="M330.374,107.321H312.187a1.444,1.444,0,0,1-1.444-1.444V84.786a1.444,1.444,0,0,1,1.444-1.445h18.187a1.444,1.444,0,0,1,1.444,1.445v21.092a1.444,1.444,0,0,1-1.444,1.444" transform="translate(-72.868 -19.543)" fill="#5857df"/>
            <path id="Trazado_1065067" data-name="Trazado 1065067" d="M324.487,86.3a1.036,1.036,0,1,1-1.036-1.036,1.036,1.036,0,0,1,1.036,1.036" transform="translate(-75.605 -19.994)" fill="#7aeaef"/>
            <path id="Trazado_1065068" data-name="Trazado 1065068" d="M329.491,86.3a1.036,1.036,0,1,1-1.036-1.036,1.036,1.036,0,0,1,1.036,1.036" transform="translate(-76.778 -19.994)" fill="#ffd453"/>
            <path id="Trazado_1065069" data-name="Trazado 1065069" d="M334.5,86.3a1.036,1.036,0,1,1-1.036-1.036A1.036,1.036,0,0,1,334.5,86.3" transform="translate(-77.952 -19.994)" fill="#be2952"/>
            <path id="Trazado_1065070" data-name="Trazado 1065070" d="M313.887,104.981v-15.2h16.262v15.2a1.444,1.444,0,0,1-1.445,1.444H315.331a1.444,1.444,0,0,1-1.444-1.444" transform="translate(-73.605 -21.054)" fill="#fff"/>
            <path id="Trazado_1065071" data-name="Trazado 1065071" d="M324.61,98.413a3.408,3.408,0,1,0-2.888,0,4.023,4.023,0,0,0-2.773,3.821v4.693h8.435v-4.693a4.022,4.022,0,0,0-2.773-3.821" transform="translate(-74.792 -21.555)" fill="#aeabde"/>
            <path id="Trazado_1065072" data-name="Trazado 1065072" d="M131.431,68.676l-8.026-13.513a18.3,18.3,0,1,0-5.807,7.925c5.961,2.431,13.833,5.588,13.833,5.588" transform="translate(-20.626 -7.123)" fill="#ff4656"/>
            <path id="Trazado_1065073" data-name="Trazado 1065073" d="M103.375,53.949a2.569,2.569,0,1,1-2.569-2.569,2.569,2.569,0,0,1,2.569,2.569" transform="translate(-23.036 -12.048)" fill="#fff"/>
            <path id="Trazado_1065074" data-name="Trazado 1065074" d="M113.053,53.949a2.569,2.569,0,1,1-2.569-2.569,2.569,2.569,0,0,1,2.569,2.569" transform="translate(-25.305 -12.048)" fill="#fff"/>
            <path id="Trazado_1065075" data-name="Trazado 1065075" d="M122.731,53.949a2.569,2.569,0,1,1-2.569-2.569,2.569,2.569,0,0,1,2.569,2.569" transform="translate(-27.575 -12.048)" fill="#fff"/>
            <path id="Trazado_1065076" data-name="Trazado 1065076" d="M235.536,12.195h-3.1A12.147,12.147,0,0,0,231.47,9.9l2.113-2.113a1.139,1.139,0,0,0,0-1.611l-3.3-3.3a1.139,1.139,0,0,0-1.611,0l-2.117,2.117a12.12,12.12,0,0,0-2.381-.981V1.139A1.139,1.139,0,0,0,223.035,0h-4.667a1.139,1.139,0,0,0-1.139,1.139V4.012a12.181,12.181,0,0,0-2.46,1.028l-1.948-1.948a1.139,1.139,0,0,0-1.611,0l-3.3,3.3a1.139,1.139,0,0,0,0,1.611l1.979,1.98a12.184,12.184,0,0,0-1,2.519h-2.714a1.139,1.139,0,0,0-1.139,1.139v4.667a1.139,1.139,0,0,0,1.139,1.139h2.819a12.213,12.213,0,0,0,1.09,2.451l-1.957,1.957a1.14,1.14,0,0,0,0,1.611l3.3,3.3a1.139,1.139,0,0,0,1.611,0l2.078-2.078a12.186,12.186,0,0,0,2.419.929V30.5a1.139,1.139,0,0,0,1.139,1.139h4.667A1.139,1.139,0,0,0,224.48,30.5V27.443a12.2,12.2,0,0,0,2.287-1.016l2.121,2.122a1.14,1.14,0,0,0,1.611,0l3.3-3.3a1.139,1.139,0,0,0,0-1.611l-2.216-2.215a12.133,12.133,0,0,0,.908-2.282h3.044A1.139,1.139,0,0,0,236.675,18V13.334a1.139,1.139,0,0,0-1.139-1.139M220.7,21.124a5.35,5.35,0,1,1,5.35-5.35,5.356,5.356,0,0,1-5.35,5.35" transform="translate(-48.08)" fill="#ffd453"/>
            <path id="Trazado_1065077" data-name="Trazado 1065077" d="M225.625,336h-3.8a14.974,14.974,0,0,0-1.184-2.815l2.59-2.59a1.4,1.4,0,0,0,0-1.975l-4.047-4.047a1.4,1.4,0,0,0-1.975,0l-2.6,2.6a14.987,14.987,0,0,0-2.92-1.2v-3.522a1.4,1.4,0,0,0-1.4-1.4h-5.723a1.4,1.4,0,0,0-1.4,1.4v3.522a14.96,14.96,0,0,0-3.016,1.262l-2.389-2.389a1.4,1.4,0,0,0-1.975,0l-4.047,4.046a1.4,1.4,0,0,0,0,1.976l2.427,2.427a14.975,14.975,0,0,0-1.228,3.088h-3.328a1.4,1.4,0,0,0-1.4,1.4V343.5a1.4,1.4,0,0,0,1.4,1.4h3.458a14.939,14.939,0,0,0,1.337,3.005l-2.4,2.4a1.4,1.4,0,0,0,0,1.975l4.047,4.047a1.4,1.4,0,0,0,1.975,0l2.549-2.549a14.98,14.98,0,0,0,2.966,1.139v3.539a1.4,1.4,0,0,0,1.4,1.4h5.723a1.4,1.4,0,0,0,1.4-1.4V354.7a14.956,14.956,0,0,0,2.8-1.245l2.6,2.6a1.4,1.4,0,0,0,1.976,0l4.046-4.047a1.4,1.4,0,0,0,0-1.975l-2.717-2.717a14.919,14.919,0,0,0,1.114-2.8h3.733a1.4,1.4,0,0,0,1.4-1.4V337.4a1.4,1.4,0,0,0-1.4-1.4m-18.191,10.951a6.561,6.561,0,1,1,6.561-6.56,6.568,6.568,0,0,1-6.561,6.56" transform="translate(-44.137 -75.284)" fill="#e33c50"/>
            <path id="Trazado_1065078" data-name="Trazado 1065078" d="M54.3,79.779a6.356,6.356,0,0,0-1.7.236A8.054,8.054,0,0,0,41.6,77.52a10.395,10.395,0,0,0-19.734,4.562c0,.271.014.539.034.8-.114-.008-.228-.017-.344-.017a4.8,4.8,0,1,0,0,9.606H54.3a6.349,6.349,0,1,0,0-12.7" transform="translate(-3.928 -16.811)" fill="#fff"/>
            <path id="Trazado_1065079" data-name="Trazado 1065079" d="M328.645,13.365a8.431,8.431,0,0,1,2.255.314,10.714,10.714,0,0,1,14.643-3.319A13.829,13.829,0,0,1,371.8,16.43c0,.361-.019.717-.046,1.07.152-.011.3-.023.457-.023a6.39,6.39,0,0,1,0,12.78H328.645a8.446,8.446,0,1,1,0-16.892" transform="translate(-75.085 -0.61)" fill="#fff"/>
            <path id="Trazado_1065080" data-name="Trazado 1065080" d="M94.33,98.66V87.894a10.086,10.086,0,0,0,.664,18.652v35.111a3.5,3.5,0,1,0,7.009,0V106.546a10.085,10.085,0,0,0,.665-18.652V98.66Zm5.677,43.158a1.507,1.507,0,1,1-1.508-1.507,1.508,1.508,0,0,1,1.508,1.507" transform="translate(-20.729 -20.611)" fill="#bebbc9"/>
            <path id="Trazado_1065081" data-name="Trazado 1065081" d="M228.222,257.086H159.916a1.553,1.553,0,0,1-1.553-1.553V216.956a1.553,1.553,0,0,1,1.553-1.553h68.306a1.553,1.553,0,0,1,1.553,1.553v38.577a1.553,1.553,0,0,1-1.553,1.553" transform="translate(-37.135 -50.511)" fill="#5857df"/>
            <path id="Trazado_1065082" data-name="Trazado 1065082" d="M161.516,254.669V223.1H228.1v31.568a1.808,1.808,0,0,1-1.808,1.808H163.324a1.808,1.808,0,0,1-1.808-1.808" transform="translate(-37.875 -52.316)" fill="#fff"/>
          </g>
        </g>
        <text id="_" data-name="&lt;/&gt;" transform="translate(141.836 193.482)" fill="#ffd453" font-size="19" font-family="SegoeUI, Segoe UI"><tspan x="0" y="0">&lt;/&gt;</tspan></text>
        <g id="Grupo_1229746" data-name="Grupo 1229746">
          <g id="Grupo_1229745" data-name="Grupo 1229745" clip-path="url(#clip-path)">
            <rect id="Rectángulo_424050" data-name="Rectángulo 424050" width="30.143" height="1.369" transform="translate(127.529 200.412)" fill="#a6a4b1"/>
            <path id="Trazado_1065083" data-name="Trazado 1065083" d="M234.638,219.322a1.114,1.114,0,1,1-1.115-1.115,1.115,1.115,0,0,1,1.115,1.115" transform="translate(-54.499 -51.168)" fill="#7aeaef"/>
            <path id="Trazado_1065084" data-name="Trazado 1065084" d="M240.021,219.322a1.114,1.114,0,1,1-1.115-1.115,1.115,1.115,0,0,1,1.115,1.115" transform="translate(-55.761 -51.168)" fill="#ffd453"/>
            <path id="Trazado_1065085" data-name="Trazado 1065085" d="M245.4,219.322a1.114,1.114,0,1,1-1.115-1.115,1.115,1.115,0,0,1,1.115,1.115" transform="translate(-57.023 -51.168)" fill="#be2952"/>
            <path id="Trazado_1065086" data-name="Trazado 1065086" d="M371.411,252.256h-42v65.039H380.7V261.542Z" transform="translate(-77.244 -59.153)" fill="#e1e6ee"/>
            <path id="Trazado_1065087" data-name="Trazado 1065087" d="M384.279,261.542h9.286l-9.286-9.286Z" transform="translate(-90.111 -59.153)" fill="#cdd0db"/>
            <rect id="Rectángulo_424051" data-name="Rectángulo 424051" width="38.967" height="3.016" transform="translate(258.33 214.52)" fill="#8e8e9a"/>
            <rect id="Rectángulo_424052" data-name="Rectángulo 424052" width="38.967" height="3.016" transform="translate(258.33 208.744)" fill="#8e8e9a"/>
            <rect id="Rectángulo_424053" data-name="Rectángulo 424053" width="38.967" height="3.016" transform="translate(258.33 220.296)" fill="#8e8e9a"/>
            <rect id="Rectángulo_424054" data-name="Rectángulo 424054" width="38.967" height="3.016" transform="translate(258.33 226.072)" fill="#8e8e9a"/>
            <rect id="Rectángulo_424055" data-name="Rectángulo 424055" width="38.967" height="3.016" transform="translate(258.33 231.848)" fill="#8e8e9a"/>
            <rect id="Rectángulo_424056" data-name="Rectángulo 424056" width="38.967" height="3.016" transform="translate(258.33 237.624)" fill="#8e8e9a"/>
            <rect id="Rectángulo_424057" data-name="Rectángulo 424057" width="38.967" height="3.016" transform="translate(258.33 243.4)" fill="#8e8e9a"/>
            <rect id="Rectángulo_424058" data-name="Rectángulo 424058" width="38.967" height="3.016" transform="translate(258.33 249.176)" fill="#8e8e9a"/>
            <path id="Trazado_1065088" data-name="Trazado 1065088" d="M328.979,225.093h-42v65.039h51.291V234.379Z" transform="translate(-67.294 -52.783)" fill="#fff"/>
            <path id="Trazado_1065089" data-name="Trazado 1065089" d="M341.846,234.379h9.286l-9.286-9.286Z" transform="translate(-80.161 -52.783)" fill="#cdd0db"/>
            <rect id="Rectángulo_424059" data-name="Rectángulo 424059" width="38.967" height="3.016" transform="translate(225.848 193.726)" fill="#a6a4b1"/>
            <rect id="Rectángulo_424060" data-name="Rectángulo 424060" width="38.967" height="3.016" transform="translate(225.848 187.951)" fill="#a6a4b1"/>
            <rect id="Rectángulo_424061" data-name="Rectángulo 424061" width="38.967" height="3.016" transform="translate(225.848 199.502)" fill="#a6a4b1"/>
            <rect id="Rectángulo_424062" data-name="Rectángulo 424062" width="38.967" height="3.016" transform="translate(225.848 205.279)" fill="#a6a4b1"/>
            <rect id="Rectángulo_424063" data-name="Rectángulo 424063" width="38.967" height="3.016" transform="translate(225.848 211.054)" fill="#a6a4b1"/>
            <rect id="Rectángulo_424064" data-name="Rectángulo 424064" width="38.967" height="3.016" transform="translate(225.848 216.83)" fill="#a6a4b1"/>
            <rect id="Rectángulo_424065" data-name="Rectángulo 424065" width="38.967" height="3.016" transform="translate(225.848 222.607)" fill="#a6a4b1"/>
            <rect id="Rectángulo_424066" data-name="Rectángulo 424066" width="38.967" height="3.016" transform="translate(225.848 228.382)" fill="#a6a4b1"/>
            <path id="Trazado_1065090" data-name="Trazado 1065090" d="M161.654,300.175h34.673V292.12H161.654a4.028,4.028,0,0,0,0,8.055" transform="translate(-36.963 -68.501)" fill="#e33c50"/>
            <rect id="Rectángulo_424067" data-name="Rectángulo 424067" width="2.453" height="5.959" transform="translate(159.364 224.667)" fill="#bebbc9"/>
            <rect id="Rectángulo_424068" data-name="Rectángulo 424068" width="28.52" height="2.68" transform="translate(161.818 226.307)" fill="#9a9aad"/>
            <path id="Trazado_1065091" data-name="Trazado 1065091" d="M245.753,299.137l8.734-.972v-3.119l-8.734-.973Z" transform="translate(-57.628 -68.959)" fill="#bebbc9"/>
            <path id="Trazado_1065092" data-name="Trazado 1065092" d="M181.867,119.816H148.717a1.709,1.709,0,0,1-1.709-1.709V84.958a1.709,1.709,0,0,1,1.709-1.709h33.149a1.709,1.709,0,0,1,1.709,1.709v33.149a1.709,1.709,0,0,1-1.709,1.709" transform="translate(-34.473 -19.521)" fill="#5857df"/>
            <rect id="Rectángulo_424069" data-name="Rectángulo 424069" width="30.121" height="24.456" transform="translate(115.76 67.041)" fill="#fff"/>
            <path id="Trazado_1065093" data-name="Trazado 1065093" d="M151.219,102.836l8.558-7.751,8.18,7.751,7.2-6.09,6.185,6.09v10.957H151.219Z" transform="translate(-35.46 -22.297)" fill="#aeabde"/>
            <path id="Trazado_1065094" data-name="Trazado 1065094" d="M174.894,94.068a2,2,0,1,1-2-2,2,2,0,0,1,2,2" transform="translate(-40.073 -21.589)" fill="#d99400"/>
            <path id="Trazado_1065095" data-name="Trazado 1065095" d="M54.338,170.594l-.656.243a1.01,1.01,0,0,1-1.33-.7l-.61-2.385-.123-.485c-8.031,3.652-13.415,1.663-16.165-.14l.152.879,1.409,8.183a1.591,1.591,0,0,1-.868,1.7l-.54.265a10.191,10.191,0,0,0,18.733-7.564" transform="translate(-8.314 -39.192)" fill="#ff8f6e"/>
            <path id="Trazado_1065096" data-name="Trazado 1065096" d="M51.342,164.458l-.483-1.889-.949-3.712-.952-3.725L34.583,159.01l-.306.083.447,2.594.453,2.632c2.75,1.8,8.134,3.792,16.164.14" transform="translate(-8.038 -36.378)" fill="#d96d48"/>
            <path id="Trazado_1065097" data-name="Trazado 1065097" d="M136.672,369.458l-.074,2.853c.629.377,1.174,1.911,1.565,2.269,1.284,1.175,2.719,2.417,4.458,2.5a7.549,7.549,0,0,0,3.155-.79,6.03,6.03,0,0,1,.29-2.867l-.317-4.507a10.919,10.919,0,0,1-9.077.545" transform="translate(-32.031 -86.508)" fill="#fff"/>
            <path id="Trazado_1065098" data-name="Trazado 1065098" d="M147.349,389.49c2.117.57,4.226,1.172,6.295,1.9a17.346,17.346,0,0,0,12.554-.177,8.787,8.787,0,0,0-.281-1.857,6.056,6.056,0,0,0-3.639-3.668c-1.513-.7-3.214-.981-4.626-1.862a12.185,12.185,0,0,1-2.45-2.228q-3.351-3.676-6.522-7.51a2.981,2.981,0,0,0-1.08-.944,2.033,2.033,0,0,0-2.416,1.188c-.008.018-.011.037-.018.054a6.03,6.03,0,0,0-.29,2.867,7.548,7.548,0,0,1-3.155.789c-1.738-.08-3.174-1.321-4.458-2.5-.391-.358-.936-1.893-1.565-2.269a.474.474,0,0,0-.582.031c-.379.3-.422,1.806-.517,2.271q-.243,1.188-.485,2.378c-.455,2.233-.888,4.474-1.363,6.7,2.429,2.018,5.973,2.764,8.914,3.55,1.9.508,3.8.769,5.685,1.277" transform="translate(-31.129 -87.475)" fill="#e33c50"/>
            <path id="Trazado_1065099" data-name="Trazado 1065099" d="M151.138,381.953a8.09,8.09,0,0,1,5.462-3.54" transform="translate(-35.441 -88.736)" fill="none" stroke="#2a2343" stroke-linecap="round" stroke-linejoin="round" stroke-width="1.937"/>
            <path id="Trazado_1065100" data-name="Trazado 1065100" d="M153.913,384.08a8.69,8.69,0,0,1,4.08-2.61,1.21,1.21,0,0,1,.938,0" transform="translate(-36.092 -89.43)" fill="none" stroke="#2a2343" stroke-linecap="round" stroke-linejoin="round" stroke-width="1.937"/>
            <path id="Trazado_1065101" data-name="Trazado 1065101" d="M156.751,386.882a8.856,8.856,0,0,1,3.78-2.159,4.375,4.375,0,0,1,1.144-.063" transform="translate(-36.757 -90.198)" fill="none" stroke="#2a2343" stroke-linecap="round" stroke-linejoin="round" stroke-width="1.937"/>
            <path id="Trazado_1065102" data-name="Trazado 1065102" d="M153.483,394.953c-2.068-.73-4.178-1.331-6.295-1.9-1.883-.508-3.788-.769-5.685-1.277-2.94-.786-6.485-1.533-8.914-3.55-.077.361-.145.723-.225,1.082-.178.8-.572,1.5,0,2.215a7.538,7.538,0,0,0,2.876,1.879,24.468,24.468,0,0,0,4.41,1.262c2.992.653,5.989,1.292,8.93,2.146a62.777,62.777,0,0,0,8.109,2.158c2.69.4,8.7.568,9.3-3.01a5.834,5.834,0,0,0,.054-1.179,17.342,17.342,0,0,1-12.554.177" transform="translate(-30.969 -91.036)" fill="#fff"/>
            <path id="Trazado_1065103" data-name="Trazado 1065103" d="M43.787,186.651A12.745,12.745,0,0,0,56.1,170.479l-2.427.9a10.2,10.2,0,0,1-18.733,7.564L32.62,180.08a12.773,12.773,0,0,0,11.167,6.571" transform="translate(-7.649 -39.976)" fill="#2a2343"/>
            <path id="Trazado_1065104" data-name="Trazado 1065104" d="M29.513,140.331,24.9,135.6s1.328-1.983-.909-7.088c0,0,6.929-11.3,13.883-10.232.005.006.765-1.066.826-1.174a7.263,7.263,0,0,0,.6-1.384,6.187,6.187,0,0,0,.262-3.093c-.024-.123-.054-.247-.088-.368a6.268,6.268,0,0,0-3.162-4.174,7.738,7.738,0,0,0-4.386-.421,19.031,19.031,0,0,0-9.276,4.281,28.148,28.148,0,0,0-6.474,7.993,14.693,14.693,0,0,0-2.221,6.906,12.316,12.316,0,0,0,.768,4.143,19.028,19.028,0,0,0,5.653,8.226l6.2,4.262Z" transform="translate(-3.274 -25.218)" fill="#182b51"/>
            <path id="Trazado_1065105" data-name="Trazado 1065105" d="M51.69,144.822a63.364,63.364,0,0,0-2.2-7.053,44.114,44.114,0,0,0-3.838-7.28c-.994-1.564-1.97-3.144-3.067-4.639-1.115-1.52-2.453-2.819-3.592-4.3-6.954-1.072-13.883,10.232-13.883,10.232,2.238,5.1.909,7.088.909,7.088l4.609,4.729L27.7,146.746l-6.2-4.261a4.458,4.458,0,0,0-2.612,5.234,4.175,4.175,0,0,0,3.348,3.035,3.7,3.7,0,0,0,3.689-2.032c2.445,3.455,5.928,7.065,10.095,7.813,4.97.892,9.126-1.566,12.733-4.663,2.112-1.814,3.686-4.26,2.935-7.05" transform="translate(-4.393 -28.486)" fill="#ff8f6e"/>
            <path id="Trazado_1065106" data-name="Trazado 1065106" d="M24.587,154.181a1.813,1.813,0,1,1-1.813-1.813,1.814,1.814,0,0,1,1.813,1.813" transform="translate(-4.915 -35.729)" fill="#d96d48"/>
            <path id="Trazado_1065107" data-name="Trazado 1065107" d="M40.052,136.478c.619.809.834,1.684.482,1.954s-1.141-.168-1.759-.977-.834-1.684-.482-1.954,1.141.168,1.759.977" transform="translate(-8.94 -31.756)" fill="#303b4a"/>
            <path id="Trazado_1065108" data-name="Trazado 1065108" d="M49.714,130.46c.619.809.834,1.684.481,1.954s-1.141-.168-1.759-.977-.834-1.684-.481-1.954,1.141.168,1.759.977" transform="translate(-11.206 -30.344)" fill="#303b4a"/>
            <path id="Trazado_1065109" data-name="Trazado 1065109" d="M46.134,133.7a38.819,38.819,0,0,1,4.114,6.929,11.821,11.821,0,0,1,.6,1.493c.3.988-.281,1.657-1.089,2.143a11.14,11.14,0,0,1-1.91.987" transform="translate(-10.818 -31.352)" fill="none" stroke="#d96d48" stroke-linecap="round" stroke-linejoin="round" stroke-width="0.968"/>
            <path id="Trazado_1065110" data-name="Trazado 1065110" d="M34.681,133.19a3.075,3.075,0,0,1-.094-2.32,3.283,3.283,0,0,1,.583-1.051,1.77,1.77,0,0,1,1.048-.6.414.414,0,0,1,.471.35.4.4,0,0,1-.023.209l-.017.044a5.475,5.475,0,0,1-.4.815,5.672,5.672,0,0,0-.4.722,5.215,5.215,0,0,0-.439,1.677l0,.024a.381.381,0,0,1-.723.132" transform="translate(-8.068 -30.299)" fill="#182b51"/>
            <path id="Trazado_1065111" data-name="Trazado 1065111" d="M43.639,124.995a1.861,1.861,0,0,1,1.62-.292,2.869,2.869,0,0,1,1.466.749.38.38,0,0,1-.373.635l-.021-.005a6.283,6.283,0,0,0-1.241-.24,5.188,5.188,0,0,1-1.257-.13l-.048-.016a.413.413,0,0,1-.146-.7" transform="translate(-10.201 -29.228)" fill="#182b51"/>
            <path id="Trazado_1065112" data-name="Trazado 1065112" d="M49.653,151.626a6.255,6.255,0,0,0-.385-1.326,23.205,23.205,0,0,1-4.075,1.141c-1.234.206-2.483.307-3.73.4.024.061.049.122.075.182a7.165,7.165,0,0,0,.776,1.342,20.05,20.05,0,0,0,3.053-.465,24.385,24.385,0,0,0,4.285-1.278" transform="translate(-9.723 -35.245)" fill="#fff"/>
            <path id="Trazado_1065113" data-name="Trazado 1065113" d="M50.113,155.107a.324.324,0,0,0,.035-.2,21.545,21.545,0,0,0-.233-2.873,24.309,24.309,0,0,1-4.286,1.278,20.042,20.042,0,0,1-3.052.465,6.633,6.633,0,0,0,.874.988,6.487,6.487,0,0,1,4.652-.408,4.86,4.86,0,0,1,1.757.884c.032-.012.07-.024.1-.036a.31.31,0,0,0,.152-.1" transform="translate(-9.984 -35.651)" fill="#9c3f27"/>
            <path id="Trazado_1065114" data-name="Trazado 1065114" d="M43.718,155.4a4.486,4.486,0,0,0,1.347.879c1.461.583,3.627.136,5.063-.4a4.87,4.87,0,0,0-1.758-.884,6.487,6.487,0,0,0-4.652.408" transform="translate(-10.252 -36.285)" fill="#f93e78"/>
            <path id="Trazado_1065115" data-name="Trazado 1065115" d="M69.332,242.6c10.491-4.031,12.895-8.934,12.895-8.934-1.683-9.947-8.723-46.844-8.723-46.844a53.233,53.233,0,0,0-7.8-22.632L52.725,169a12.774,12.774,0,0,1-23.48,9.6L18.227,184s1.959,14.7,7.532,22.886l25.1,36.881s8.2,2.784,18.476-1.166" transform="translate(-4.274 -38.502)" fill="#3c2e67"/>
            <path id="Trazado_1065116" data-name="Trazado 1065116" d="M84.347,254.948s-2.4,4.9-12.895,8.934c-10.28,3.95-18.476,1.166-18.476,1.166a402.353,402.353,0,0,0-8.57,56.622l-17.14,37.645c.1.178.211.335.318.5a10.921,10.921,0,0,0,7.833,4.62,8.946,8.946,0,0,0,1.03.082S57.872,334.525,60.321,328.1s11.172-42.39,11.172-42.39c4.285,0,10.253-3.673,10.253-3.673,2.295,1.99,24.638,18.976,24.638,18.976-.612,7.8,3.826,42.084,3.826,42.084,4.285,1.683,10.559,0,10.559,0l3.672-49.123c-10.1-12.243-40.094-39.023-40.094-39.023" transform="translate(-6.394 -59.784)" fill="#ffd453"/>
            <path id="Trazado_1065117" data-name="Trazado 1065117" d="M38.15,284.78a75.57,75.57,0,0,0,8.114,3.671,16.672,16.672,0,0,0,8.377,1.133c1.52-.144.468,1.618-.157,2-1.438.883-3.411,1.144-5.037,1.549a1.774,1.774,0,0,0-1.19,1.067,2.2,2.2,0,0,0,.051,1.624,11.459,11.459,0,0,0,3.041,4.81c1.762,1.659,3.589,3.009,4.868,5.124a1.843,1.843,0,0,1,.35,1.156.749.749,0,0,1-.849.675,1.075,1.075,0,0,1-.321-.178c-1.627-1.167-3.106-2.516-4.684-3.749a30.663,30.663,0,0,1-3.816-3.039,20.783,20.783,0,0,1,1.512,2.235c1.756,2.493,3.53,4.857,5.479,7.221a2.88,2.88,0,0,1,.6.957.867.867,0,0,1-1.208,1.121,2.8,2.8,0,0,1-.815-.589q-2.353-2.181-4.569-4.5c-1.179-1.236-2.747-2.421-3.471-4.033a61.315,61.315,0,0,1,2.687,7.089,22.928,22.928,0,0,1,.983,3.7c.079.622.19,1.905-.393,2.288a1.035,1.035,0,0,1-1.231-.21,3.023,3.023,0,0,1-.65-1.169,100.687,100.687,0,0,1-3.223-9.572,15.037,15.037,0,0,1-.368,4.9c-.426,1.346-.488,2.776-.909,4.141-.115.372-.3.79-.678.885a.82.82,0,0,1-.854-.446,2.393,2.393,0,0,1-.227-1q-.242-3.068-.484-6.137c-.145-1.847.142-3.706-.445-5.512a32.445,32.445,0,0,0-2.161-4.029c-1.3-2.61-2.63-5.23-3.82-7.895" transform="translate(-7.656 -66.779)" fill="#ff8f6e"/>
            <path id="Trazado_1065118" data-name="Trazado 1065118" d="M29.485,288.477c.782.69,1.577,1.38,2.407,2.066l6.759-6.121s-.845-.864-2.183-2.327q-3.643,3.02-6.983,6.382" transform="translate(-6.914 -66.15)" fill="#2a2343"/>
            <path id="Trazado_1065119" data-name="Trazado 1065119" d="M29.554,260.515c-4.26-4.657-13.569-15.45-16.945-24.3,0,0,5.509-17.9,8.876-23.261-5.573-8.189-7.532-22.886-7.532-22.886S-.7,223.687.025,236.414c0,0,5.722,15.609,22.545,30.483q3.332-3.361,6.984-6.382" transform="translate(0 -44.57)" fill="#3c2e67"/>
            <path id="Trazado_1065120" data-name="Trazado 1065120" d="M162.513,150.32,154.4,144.2l-1.979,2.829q4.257,3.25,8.738,6.187c.85-1.81,1.351-2.894,1.351-2.894" transform="translate(-35.743 -33.814)" fill="#2a2343"/>
            <path id="Trazado_1065121" data-name="Trazado 1065121" d="M135.5,147.894l-17.61,25.176c-11.63-5.509-37.645-12.7-37.645-12.7A53.227,53.227,0,0,1,88.047,183l36.269,8.369c4.529-4.96,15.987-28.922,19.92-37.289q-4.478-2.936-8.738-6.187" transform="translate(-18.817 -34.68)" fill="#3c2e67"/>
            <path id="Trazado_1065122" data-name="Trazado 1065122" d="M153.908,140.343c.6-1.47,1.19-3.171.462-4.581-.557-1.076-1.748-1.675-2.441-2.669-.846-1.216-.823-2.806-.978-4.278-.1-.987-1.055-2.886-.723-3.8.625-1.713,2.211-.388,2.8.459a19.27,19.27,0,0,1,1.75,3.939h17.19s-3.456,10.086-10.9,15.515" transform="translate(-35.211 -29.121)" fill="#ff9b7d"/>
            <path id="Trazado_1065123" data-name="Trazado 1065123" d="M20.947,417.789a70.889,70.889,0,0,1-8.275-11.839l-1.353,1.33a1.232,1.232,0,0,0-.372.524,1.2,1.2,0,0,0,.112.723,28.613,28.613,0,0,0,4.6,7.329,77.2,77.2,0,0,0,4.96,5.933c3.759,3.878,7.961,7.553,13.1,9.446a2.614,2.614,0,0,0,2.952-.818,14,14,0,0,1-3.058-1.6,61.319,61.319,0,0,1-12.663-11.026" transform="translate(-2.562 -95.193)" fill="#fff"/>
            <path id="Trazado_1065124" data-name="Trazado 1065124" d="M27.176,391.942l-1.656,2.325c.312.664-.094,2.241.031,2.757.408,1.692.906,3.523,2.3,4.561a7.554,7.554,0,0,0,3.058,1.108,6.028,6.028,0,0,1,1.843-2.216l2.256-3.915a10.92,10.92,0,0,1-7.833-4.62" transform="translate(-5.984 -91.908)" fill="#fff"/>
            <path id="Trazado_1065125" data-name="Trazado 1065125" d="M37.743,420.031c-.867-1.422-2.117-2.608-2.8-4.129a12.163,12.163,0,0,1-.788-3.216q-.726-4.921-1.213-9.873a2.984,2.984,0,0,0-.369-1.386,2.033,2.033,0,0,0-2.668-.364c-.016.01-.029.024-.045.034a6.026,6.026,0,0,0-1.842,2.216,7.547,7.547,0,0,1-3.058-1.108c-1.4-1.038-1.895-2.869-2.3-4.561-.125-.516.281-2.093-.031-2.757a.474.474,0,0,0-.5-.3c-.479.034-1.359,1.262-1.7,1.595l-1.732,1.7-5.5,5.4a70.957,70.957,0,0,0,8.275,11.838A61.3,61.3,0,0,0,34.146,426.15a13.978,13.978,0,0,0,3.057,1.6,7.507,7.507,0,0,0,1.508-2.645,6.059,6.059,0,0,0-.968-5.076" transform="translate(-3.097 -92.528)" fill="#e33c50"/>
            <path id="Trazado_1065126" data-name="Trazado 1065126" d="M32.167,410.943a8.088,8.088,0,0,1,6.508.116" transform="translate(-7.543 -96.217)" fill="none" stroke="#2a2343" stroke-linecap="round" stroke-linejoin="round" stroke-width="1.937"/>
            <path id="Trazado_1065127" data-name="Trazado 1065127" d="M33.422,414.148a8.682,8.682,0,0,1,4.842.116,1.214,1.214,0,0,1,.777.525" transform="translate(-7.837 -97.048)" fill="none" stroke="#2a2343" stroke-linecap="round" stroke-linejoin="round" stroke-width="1.937"/>
            <path id="Trazado_1065128" data-name="Trazado 1065128" d="M34.291,417.992a8.866,8.866,0,0,1,4.342.322,4.393,4.393,0,0,1,.983.587" transform="translate(-8.041 -97.99)" fill="none" stroke="#2a2343" stroke-linecap="round" stroke-linejoin="round" stroke-width="1.937"/>
          </g>
        </g>
      </g>
    </g>
  </g>
</svg>
