<svg xmlns="http://www.w3.org/2000/svg" xmlns:xlink="http://www.w3.org/1999/xlink" width="367.295" height="286" viewBox="0 0 367.295 286">
  <defs>
    <linearGradient id="linear-gradient" x1="0.5" x2="0.5" y2="1" gradientUnits="objectBoundingBox">
      <stop offset="0" stop-color="#903cdf"/>
      <stop offset="1" stop-color="#481e70"/>
    </linearGradient>
    <clipPath id="clip-path">
      <rect id="Rectángulo_424441" data-name="Rectángulo 424441" width="367.295" height="283.703" fill="none"/>
    </clipPath>
  </defs>
  <g id="Grupo_1229866" data-name="Grupo 1229866" transform="translate(-974 -4332.225)">
    <rect id="Rectángulo_423640" data-name="Rectángulo 423640" width="155" height="286" rx="13" transform="translate(1080 4332.225)" fill="url(#linear-gradient)"/>
    <g id="Grupo_1229865" data-name="Grupo 1229865" transform="translate(974 4334.521)">
      <g id="Grupo_1229865-2" data-name="Grupo 1229865" clip-path="url(#clip-path)">
        <path id="Trazado_1066101" data-name="Trazado 1066101" d="M24.542,156.755c2.9,5.39,7.04,10.34,12.574,12.96s12.606,2.5,17.358-1.365c3.457-2.807,5.322-7.222,5.846-11.643a41.817,41.817,0,0,0-1.062-13.257c-1.86-9.058-4.684-18.072-9.839-25.749s-12.877-13.943-21.924-15.858c-1.955-.414-4.2-.558-5.749.7-1.432,1.16-1.83,3.145-2.112,4.965-2.57,16.6-3.056,34.459,4.908,49.248" transform="translate(-3.231 -18.272)" fill="#ff9489"/>
        <path id="Trazado_1066102" data-name="Trazado 1066102" d="M48.353,92.883c4.1,2.646,9.124,4.355,13.864,3.2,7.249-1.761,11.453-9.541,12.588-16.916,1.471-9.562-.7-19.4-4.549-28.278S60.944,33.951,55.512,25.946c-1.157-1.7-2.691-3.608-4.748-3.492-1.546.088-2.755,1.315-3.764,2.49-8.366,9.744-14.326,21.963-14.747,34.8s5.312,26.172,16.1,33.14" transform="translate(-5.799 -4.039)" fill="#ff9489"/>
        <path id="Trazado_1066103" data-name="Trazado 1066103" d="M92.667,4.575a53.458,53.458,0,0,0-8.3,62.642c2.91,5.318,7.613,10.6,13.675,10.613,6.16.015,10.912-5.394,13.887-10.788a60.094,60.094,0,0,0-2.319-60.67c-1.992-3.037-4.719-6.141-8.344-6.36-3.347-.2-6.279,2.142-8.6,4.563" transform="translate(-14.002 0)" fill="#ff9489"/>
        <path id="Trazado_1066104" data-name="Trazado 1066104" d="M80.573,34.5c6.537,3.648,13.025,7.606,19.29,11.761v12.6L82.985,52.553a.474.474,0,0,0-.332.888l17.209,6.433V70.521a87.765,87.765,0,0,1-15.493-3.3.474.474,0,0,0-.281.905,89.025,89.025,0,0,0,15.774,3.353v100.2h.946V71.2a.4.4,0,0,0,.025-.082.464.464,0,0,0-.025-.205V65.852A121.326,121.326,0,0,0,114,64.125a.473.473,0,1,0-.175-.93A120.543,120.543,0,0,1,100.809,64.9V63.453L114.2,59.968a.474.474,0,0,0-.239-.917l-13.156,3.422V45.015l20.028-9.622a.473.473,0,0,0-.41-.853l-19.618,9.425v-2.17l17.127-12.714a.473.473,0,1,0-.564-.759l-16.563,12.3V38.823h0a.465.465,0,0,0,0-.463V31.173l13.8-10.549a.473.473,0,1,0-.575-.752L100.809,29.982V18.9l10.242-6.313a.474.474,0,1,0-.5-.806l-9.745,6.007v-5a.473.473,0,1,0-.946,0v8.442a109.052,109.052,0,0,0-10.24-10.862.473.473,0,1,0-.642.7A108.084,108.084,0,0,1,99.862,22.7v2.511A75.3,75.3,0,0,0,86.02,14.149a.473.473,0,1,0-.5.8A74.41,74.41,0,0,1,99.7,26.393a.489.489,0,0,0,.157.107V37.72L82.09,27.327a.473.473,0,1,0-.479.816L99.862,38.816v5.767a.468.468,0,0,0,0,.267v.285c-6.123-4.043-12.451-7.9-18.829-11.457a.473.473,0,1,0-.461.826" transform="translate(-14.454 -1.842)" fill="#f7dcdc"/>
        <path id="Trazado_1066105" data-name="Trazado 1066105" d="M19.8,131.715a93.032,93.032,0,0,1,19.893,6.992q.943,2.354,1.849,4.724a63.085,63.085,0,0,0-20.436-.646.474.474,0,0,0,.123.94,62.132,62.132,0,0,1,20.7.741q1.086,2.874,2.116,5.769a.463.463,0,0,0,.1.4.4.4,0,0,0,.061.045c.042.118.085.235.127.353a116.651,116.651,0,0,0-20.863-.324.473.473,0,0,0-.437.508.465.465,0,0,0,.508.436,115.514,115.514,0,0,1,21.132.367q.431,1.234.85,2.472c-6.444-.2-12.966-.125-19.4.244a.473.473,0,0,0,.026.946.163.163,0,0,0,.028,0c6.525-.369,13.141-.445,19.671-.233a307.894,307.894,0,0,1,9.083,33.224h.978q-3.137-14.675-7.691-29a.472.472,0,0,0,.528-.145L59.082,146.88a.473.473,0,1,0-.732-.6L48.01,158.919c-.008.011-.011.023-.018.034q-.616-1.923-1.26-3.838a.456.456,0,0,0,.029-.12.464.464,0,0,0-.2-.39c-.344-1.02-.7-2.036-1.051-3.052a.467.467,0,0,0-.091-.265c-.1-.29-.2-.581-.3-.87l12.6-10.853a.473.473,0,1,0-.618-.718L44.774,149.464q-.83-2.325-1.7-4.636a.512.512,0,0,0,.134.041.472.472,0,0,0,.391-.206c3.141-4.574,6.479-9.109,9.921-13.478a.473.473,0,1,0-.743-.587c-3.456,4.386-6.806,8.937-9.959,13.53l0,.008q-.989-2.618-2.019-5.217a.462.462,0,0,0,.129-.141.475.475,0,0,0-.215-.634c-.093-.046-.189-.088-.282-.134q-1.142-2.838-2.342-5.649a.467.467,0,0,0,.05-.121,105.92,105.92,0,0,1,6.119-19,.474.474,0,0,0-.87-.375,106.974,106.974,0,0,0-5.913,18.051q-2.725-6.308-5.736-12.481a.474.474,0,0,0,.172-.261c1.019-4.013,2.226-8.028,3.589-11.936a.473.473,0,1,0-.894-.311c-1.3,3.717-2.447,7.532-3.435,11.351-.34-.69-.677-1.381-1.023-2.068a.464.464,0,0,0,.216-.376,54.647,54.647,0,0,1,1.109-9.589.474.474,0,0,0-.927-.193,55.689,55.689,0,0,0-1.082,8.814q-1.5-2.945-3.05-5.858a.473.473,0,0,0-.835.446,301.259,301.259,0,0,1,13.584,28.955,93.838,93.838,0,0,0-19.154-6.615.473.473,0,1,0-.21.922" transform="translate(-3.496 -18.834)" fill="#f7dcdc"/>
        <path id="Trazado_1066106" data-name="Trazado 1066106" d="M35.106,67.651A142.266,142.266,0,0,1,58.576,79.543c.007,0,.016,0,.025.007q.54,4.15,1.059,8.306a80.7,80.7,0,0,0-19.4-9.8.473.473,0,1,0-.308.895A79.74,79.74,0,0,1,59.812,89.1c3.612,29.228,6.365,58.639,8.255,88.058h.948c-1.889-29.45-4.646-58.891-8.261-88.151a.47.47,0,0,0-.049-.4q-1.011-8.164-2.1-16.31A91.982,91.982,0,0,0,70.431,58.375a.473.473,0,1,0-.779-.537,91.25,91.25,0,0,1-11.209,13.3q-.458-3.363-.936-6.72a31.485,31.485,0,0,0,7.483-14.208A.473.473,0,1,0,64.069,50a30.538,30.538,0,0,1-6.734,13.178q-.383-2.7-.774-5.405a.466.466,0,0,0-.016-.586l-.085-.1c-.116-.8-.235-1.6-.353-2.393a35.251,35.251,0,0,0,4.541-13.432.472.472,0,0,0-.412-.526.464.464,0,0,0-.526.412,34.327,34.327,0,0,1-3.827,12.017c-.226-1.525-.444-3.054-.675-4.578a.473.473,0,1,0-.936.142c.293,1.928.569,3.861.855,5.791a.464.464,0,0,0,.079.537q.053.363.107.726c-4.054-4.621-8.277-9.174-12.593-13.547a.474.474,0,0,0-.675.665c4.645,4.706,9.19,9.617,13.521,14.6q.491,3.375.965,6.754a.469.469,0,0,0,.024.175q.172,1.225.341,2.451A58.53,58.53,0,0,0,39.082,53.106a.473.473,0,1,0-.422.846A57.589,57.589,0,0,1,56.7,68.086a.477.477,0,0,0,.361.166c.008,0,.016,0,.024,0,.173,1.253.353,2.5.523,3.759a.473.473,0,0,0,.064.466c.265,1.957.513,3.918.77,5.877a143.134,143.134,0,0,0-22.989-11.58.473.473,0,1,0-.348.88" transform="translate(-6.263 -7.329)" fill="#f7dcdc"/>
        <path id="Trazado_1066107" data-name="Trazado 1066107" d="M133.436,83.058A62.214,62.214,0,0,0,129.1,56.443c-.843-2.107-2.082-4.409-4.289-4.936-1.8-.431-3.629.492-5.225,1.437C111.712,57.606,104.478,63.7,99.8,71.569S93.249,89.246,96.1,97.947c1.557,4.763,4.66,9.218,9.176,11.391,6.853,3.3,15.536.447,20.621-5.208s7.1-13.479,7.544-21.072" transform="translate(-17.049 -9.248)" fill="#ff9489"/>
        <path id="Trazado_1066108" data-name="Trazado 1066108" d="M108.469,83.578c1.549,2.753,3.151,5.6,4.854,8.759-7.8,25.361-14.545,61.473-18.42,88.8h.955c3.476-24.477,9.355-56.951,16.044-80.63a92.206,92.206,0,0,1,15.174-2.846.473.473,0,0,0,.423-.518.478.478,0,0,0-.518-.423A93,93,0,0,0,112.2,99.453q.587-2.055,1.187-4.069c.018,0,.033.016.052.016a.482.482,0,0,0,.165-.03A157.073,157.073,0,0,1,131.048,90a.473.473,0,0,0-.226-.919A158.2,158.2,0,0,0,113.7,94.328q1.432-4.741,2.934-9.2a.459.459,0,0,0,.151-.45c.124-.366.248-.733.373-1.1.015,0,.029.012.044.012a.462.462,0,0,0,.218-.054l13.11-6.869a.473.473,0,0,0-.44-.838l-12.235,6.411a.471.471,0,0,0-.018-.15l-.076-.23c1.421-4.027,2.883-7.849,4.387-11.386a.473.473,0,1,0-.872-.37c-1.368,3.217-2.7,6.662-4,10.287l-5.662-17.087a.473.473,0,1,0-.9.3l6.046,18.251c-.179.508-.358,1.008-.535,1.522-2.321-5.268-4.892-10.48-7.673-15.5a.473.473,0,1,0-.828.458c2.934,5.3,5.642,10.8,8.056,16.364-.7,2.076-1.395,4.194-2.073,6.367-1.54-2.838-3-5.442-4.417-7.954-1.555-2.763-3.161-5.618-4.871-8.79a.473.473,0,1,0-.833.449c1.713,3.18,3.323,6.04,4.879,8.805" transform="translate(-17.076 -11.333)" fill="#f7dcdc"/>
        <rect id="Rectángulo_424421" data-name="Rectángulo 424421" width="47.428" height="58.249" transform="translate(47.225 166.616)" fill="#ff9489"/>
        <path id="Trazado_1066109" data-name="Trazado 1066109" d="M104.8,213.018a125.457,125.457,0,0,0-19.028.382,44.655,44.655,0,0,1-9.614.359c-3.108-.374-6.068-1.51-9.126-2.184s-6.406-.845-9.177.613l-.031,0v5.2L84.18,216.1c6.873-.335,13.822-.645,20.619.265Z" transform="translate(-10.404 -37.979)" fill="#f7dcdc"/>
        <path id="Trazado_1066110" data-name="Trazado 1066110" d="M104.8,224.694c-3.433-.008-6.886.26-10.32.381a114.449,114.449,0,0,1-16.262-.586c-6.774-.73-13.68-2.047-20.394-1.515v6.921c9.28.138,18.569-.075,27.85-.3l19.126-.454Z" transform="translate(-10.404 -40.098)" fill="#f7dcdc"/>
        <path id="Trazado_1066111" data-name="Trazado 1066111" d="M104.8,236.157c-7.509.208-15.084-.6-22.608-.23-8.135.405-16.319,2.2-24.368,1.443v3.941a21.354,21.354,0,0,0,5.321.628c3.787-.155,7.322-2.071,11.105-2.315,3.5-.227,6.916.991,10.382,1.543,6.642,1.058,13.458-.324,20.167-.45Z" transform="translate(-10.404 -42.433)" fill="#f7dcdc"/>
        <path id="Trazado_1066112" data-name="Trazado 1066112" d="M104.8,247.708c-13.058-1.271-26.385,1.128-39.594,1.447-2.46.059-4.922.025-7.381-.062v6.391l.025,0c3.43-.263,6.859-.526,10.293-.724,6.171-.357,12.353-.508,18.534-.512q9.066-.006,18.123.411Z" transform="translate(-10.404 -44.505)" fill="#f7dcdc"/>
        <path id="Trazado_1066113" data-name="Trazado 1066113" d="M104.8,262.829c-7.231.262-14.477.155-21.707-.171-6.113-.276-12.233-.7-18.345-.4a62.711,62.711,0,0,0-6.924.705v5.176c3.155-.052,6.3-.532,9.437-.89,6.11-.7,12.269-.823,18.417-.949,6.373-.131,12.764-.26,19.122.1Z" transform="translate(-10.404 -47.17)" fill="#f7dcdc"/>
        <path id="Trazado_1066114" data-name="Trazado 1066114" d="M403.136,28.437a18.2,18.2,0,0,0-7.682-6.831c-3.14-1.546-6.851-2.335-10.155-1.181-2.948,1.028-5.192,3.452-6.977,6.013a37.213,37.213,0,0,0-6.56,23.3l.006.043a165.972,165.972,0,0,0-14.062,25.477,94.758,94.758,0,0,1-4.471-24.983c2.735-3.519,5.824-6.773,8.237-10.518,2.528-3.926,4.3-8.593,3.639-13.215s-4.294-9.009-8.948-9.382c-4-.319-7.83,2.382-9.683,5.941s-2,7.794-1.338,11.752A31.677,31.677,0,0,0,351.5,49.178a96.523,96.523,0,0,0,5.123,28.2.883.883,0,0,0,.09.17,165.567,165.567,0,0,0-12.979,54.442h-7.845a411.621,411.621,0,0,0-2.08-62.435,38.463,38.463,0,0,0,6.461-17.365c.439-3.963.166-8.254-2.175-11.48a11.491,11.491,0,0,0-11.819-4.087,13.9,13.9,0,0,0-9.376,8.641,17.677,17.677,0,0,0,.5,12.941c2.664,6.291,8.31,10.832,14.237,14.229.235-.282.462-.57.689-.858a410.007,410.007,0,0,1,1.866,60.414h-6.547a140.032,140.032,0,0,0-22.74-69.009,7.815,7.815,0,0,0,2.46-2.272,11.164,11.164,0,0,0,1.446-7.256,25.349,25.349,0,0,0-10.412-17.8,33.187,33.187,0,0,0-19.993-6.045l-2.671,1.035c-.053,7.453.923,15.114,4.5,21.652S290.367,64.082,297.8,64.554a13.262,13.262,0,0,0,5.578-.814,138.74,138.74,0,0,1,14.306,28.372c-4.388-2.8-8.559-5.44-12.7-7.964a11.875,11.875,0,0,0-1.958-6.99,20.52,20.52,0,0,0-10.279-7.766,48.96,48.96,0,0,0-12.832-2.479,11.784,11.784,0,0,0-1.224,9.613,21.953,21.953,0,0,0,5.029,8.539c2.665,3,5.959,5.658,9.879,6.5s8.519-.575,10.448-4.09a7.515,7.515,0,0,0,.625-1.535c4.254,2.6,8.54,5.317,13.078,8.22a.839.839,0,0,0,.455.134.828.828,0,0,0,.257-.045,137,137,0,0,1,7.49,37.741H302.907v6.784h1.785v96.206h63.553V138.772h2.5v-6.784H345.426a160.9,160.9,0,0,1,5.274-31.938c4.128-2.941,8.1-5.532,11.98-7.8,3.852.131,7.69.638,11.539.9,4.571.309,9.255.25,13.607-1.184s8.368-4.414,10.17-8.627a13.09,13.09,0,0,0-.514-11.164A13.411,13.411,0,0,0,388.5,65.5a16.518,16.518,0,0,0-11.018,1.9A29.576,29.576,0,0,0,368.9,74.82a37.948,37.948,0,0,0-8.256,16.67q-4.51,2.7-9.222,5.983A166.007,166.007,0,0,1,372.984,51c5.689-.667,13.987-.514,19.2-1.906,5.54-1.478,11.01-5.1,12.513-10.632a13.161,13.161,0,0,0-1.565-10.026" transform="translate(-49.614 -3.083)" fill="#f9f3ef"/>
        <rect id="Rectángulo_424422" data-name="Rectángulo 424422" width="248.88" height="151.057" transform="translate(58.782 78.173)" fill="#002828"/>
        <rect id="Rectángulo_424423" data-name="Rectángulo 424423" width="229.519" height="3.375" transform="translate(67.105 227.658)" fill="#009ca4"/>
        <path id="Trazado_1066115" data-name="Trazado 1066115" d="M311.512,282.711H55.782a2.7,2.7,0,0,0-1.775.681L1.015,329.954c-1.875,1.647-1,4.618,1.366,4.618h362.53c2.367,0,3.242-2.97,1.367-4.618l-52.992-46.562a2.7,2.7,0,0,0-1.775-.681" transform="translate(0 -50.869)" fill="#cfbcb1"/>
        <path id="Trazado_1066116" data-name="Trazado 1066116" d="M309.052,279.526H60.172L7.727,326.391H361.5Z" transform="translate(-1.39 -50.296)" fill="#002828"/>
        <path id="Trazado_1066117" data-name="Trazado 1066117" d="M316.414,303.009,296.593,285.3H97.976L78.154,303.009Z" transform="translate(-14.062 -51.334)" fill="#cfbcb1"/>
        <path id="Trazado_1066118" data-name="Trazado 1066118" d="M301.84,295.9c0,2.7-10.64,4.895-23.764,4.895s-23.763-2.192-23.763-4.895,10.639-4.894,23.763-4.894S301.84,293.2,301.84,295.9" transform="translate(-45.759 -52.362)" fill="#937948"/>
        <path id="Trazado_1066119" data-name="Trazado 1066119" d="M137.91,320.048c0,3.722-13.434,6.74-30.006,6.74S77.9,323.77,77.9,320.048s13.434-6.74,30.005-6.74,30.006,3.018,30.006,6.74" transform="translate(-14.016 -56.374)" fill="#937948"/>
        <path id="Trazado_1066120" data-name="Trazado 1066120" d="M164.942,312.594l-6.326,15.014H264.907l-6.325-15.014Z" transform="translate(-28.54 -56.246)" fill="#937948"/>
        <path id="Trazado_1066121" data-name="Trazado 1066121" d="M360.921,340.716H8.3l-.576-3.729H361.5Z" transform="translate(-1.39 -60.635)" fill="#009ca4"/>
        <rect id="Rectángulo_424424" data-name="Rectángulo 424424" width="240.69" height="135.36" transform="translate(62.584 86.216)" fill="#b9eae7"/>
        <rect id="Rectángulo_424425" data-name="Rectángulo 424425" width="9.347" height="135.36" transform="translate(237.817 86.216)" fill="#009ca4"/>
        <rect id="Rectángulo_424426" data-name="Rectángulo 424426" width="240.69" height="8.086" transform="translate(62.584 86.216)" fill="#009ca4"/>
        <rect id="Rectángulo_424427" data-name="Rectángulo 424427" width="240.69" height="1.905" transform="translate(62.584 85.836)" fill="#247070"/>
        <rect id="Rectángulo_424428" data-name="Rectángulo 424428" width="240.69" height="7.841" transform="translate(62.584 213.735)" fill="#ff9489"/>
        <rect id="Rectángulo_424429" data-name="Rectángulo 424429" width="240.69" height="1.457" transform="translate(62.584 220.119)" fill="#937948"/>
        <path id="Trazado_1066122" data-name="Trazado 1066122" d="M192.013,62.094V231.457h82.128V62.094a11.214,11.214,0,0,0-9.847-11.126v-.092H182.166v.092a11.214,11.214,0,0,1,9.847,11.126" transform="translate(-32.778 -9.154)" fill="#002828"/>
        <path id="Trazado_1066123" data-name="Trazado 1066123" d="M261.818,50.993v-.118H181.061c-5.994-.155-10.379,5.778-11.219,14.354V220.789h82.129V65.23c0-7.333,4.3-13.37,9.847-14.236" transform="translate(-30.56 -9.154)" fill="#cfbcb1"/>
        <rect id="Rectángulo_424430" data-name="Rectángulo 424430" width="26.291" height="1.64" transform="translate(191.518 56.221)" fill="#002828"/>
        <rect id="Rectángulo_424431" data-name="Rectángulo 424431" width="26.291" height="1.64" transform="translate(191.518 66.881)" fill="#002828"/>
        <rect id="Rectángulo_424432" data-name="Rectángulo 424432" width="26.291" height="1.64" transform="translate(191.518 77.541)" fill="#002828"/>
        <path id="Trazado_1066124" data-name="Trazado 1066124" d="M219.232,78.794a19.152,19.152,0,1,1-19.153-19.153,19.153,19.153,0,0,1,19.153,19.153" transform="translate(-32.555 -10.731)" fill="#ff9489"/>
        <path id="Trazado_1066125" data-name="Trazado 1066125" d="M238.118,214.28V89.311a11.214,11.214,0,0,0-9.847-11.126v-.092H146.143v.092a11.214,11.214,0,0,1,9.847,11.126V214.28a12.233,12.233,0,0,0,12.233,12.233h80.12v-.179a12.225,12.225,0,0,1-10.225-12.054" transform="translate(-26.296 -14.052)" fill="#002828"/>
        <path id="Trazado_1066126" data-name="Trazado 1066126" d="M225.33,78.1v-.091H144.573a11.217,11.217,0,0,0-11.218,11.218V210.793h82.128V89.225A11.215,11.215,0,0,1,225.33,78.1" transform="translate(-23.995 -14.036)" fill="#f9f3ef"/>
        <rect id="Rectángulo_424433" data-name="Rectángulo 424433" width="82.128" height="68.312" transform="translate(109.36 128.444)" fill="#f7dcdc"/>
        <path id="Trazado_1066127" data-name="Trazado 1066127" d="M179.656,107.922A19.152,19.152,0,1,1,160.5,88.769a19.153,19.153,0,0,1,19.153,19.153" transform="translate(-25.434 -15.972)" fill="#009ca4"/>
        <path id="Trazado_1066128" data-name="Trazado 1066128" d="M171.27,113.908a6.447,6.447,0,0,0-1.666-3.21,9.231,9.231,0,0,0-1.661-1.216,5.612,5.612,0,0,1-1.928-1.629,5.49,5.49,0,0,1-.661-2.471c.06-.067.128-.122.184-.2a7.273,7.273,0,0,0,1.31-3.566,16.321,16.321,0,0,0-.1-3.809l-.014-.11-.062-.092-.007-.008a2.505,2.505,0,0,0-1.52-2.367c-.161-.511-.793-.691-1.329-.7-1.7-.021-3.267.864-4.853,1.49a1.714,1.714,0,0,0-.9.588,1.608,1.608,0,0,0-.027,1.225c.16.632.337,1.26.525,1.885a12.671,12.671,0,0,0,.057,1.9,7.284,7.284,0,0,0,1.31,3.566c.056.072.124.127.184.194a5.5,5.5,0,0,1-.661,2.471,5.612,5.612,0,0,1-1.928,1.629,9.231,9.231,0,0,0-1.661,1.216,6.446,6.446,0,0,0-1.666,3.211,12.109,12.109,0,0,0-.181,3.611l.029.353.348.069,8.439.048,8.061-.014.53-.1.029-.354a12.086,12.086,0,0,0-.182-3.612m-11.721-12.393a11.244,11.244,0,0,1-.057-1.442,10.191,10.191,0,0,0,.634-2.286,5.406,5.406,0,0,0,3.2.649c.844-.052,1.677-.21,2.515-.33a14.97,14.97,0,0,1,.08,3.41,6.348,6.348,0,0,1-1.12,3.1,1.619,1.619,0,0,1-.153.164l-.113.116a2.471,2.471,0,0,1-1.775.832h-.006l-.113,0a2.452,2.452,0,0,1-1.707-.834l-.154-.158c-.036-.043-.077-.076-.112-.121a6.36,6.36,0,0,1-1.119-3.1m11,15.533-15.626.007a10.711,10.711,0,0,1,.189-2.942,5.519,5.519,0,0,1,1.411-2.749,8.223,8.223,0,0,1,1.5-1.087,6.4,6.4,0,0,0,2.223-1.925,5.482,5.482,0,0,0,.734-2.218,3.05,3.05,0,0,0,1.666.529l.074,0,.113,0a3.052,3.052,0,0,0,1.666-.529,5.486,5.486,0,0,0,.734,2.218,6.391,6.391,0,0,0,2.223,1.925,8.251,8.251,0,0,1,1.5,1.087,5.519,5.519,0,0,1,1.411,2.749,10.624,10.624,0,0,1,.189,2.935" transform="translate(-27.703 -17.01)" fill="#f9f3ef"/>
        <path id="Trazado_1066129" data-name="Trazado 1066129" d="M179.656,194.861A19.152,19.152,0,1,1,160.5,175.708a19.153,19.153,0,0,1,19.153,19.153" transform="translate(-25.434 -31.616)" fill="#ff9489"/>
        <path id="Trazado_1066130" data-name="Trazado 1066130" d="M170.788,204.2a6.457,6.457,0,0,0-1.666-3.211,9.185,9.185,0,0,0-1.661-1.215,5.592,5.592,0,0,1-1.929-1.63,3.351,3.351,0,0,1-.313-.659,1.384,1.384,0,0,0,1.658-.029,2.414,2.414,0,0,0,.9-1.73,5.373,5.373,0,0,0-.262-1.982,14.052,14.052,0,0,0-1.094-2.7c.006-.16.007-.315.007-.472a4.029,4.029,0,0,0-.666-4.4,4.814,4.814,0,0,0-4.881-1.188,4.674,4.674,0,0,0-2.8,2.321,3.778,3.778,0,0,0-.008,3.327c0,.139,0,.276.008.417a14.05,14.05,0,0,0-1.094,2.7,5.338,5.338,0,0,0-.262,1.982,2.413,2.413,0,0,0,.9,1.73,1.385,1.385,0,0,0,1.659.029,3.351,3.351,0,0,1-.313.659,5.606,5.606,0,0,1-1.928,1.63,9.156,9.156,0,0,0-1.661,1.215,6.443,6.443,0,0,0-1.666,3.211,12.05,12.05,0,0,0-.182,3.611l.1.37.35.066,8.364.035,8.065-.016.525-.1.029-.354a12.112,12.112,0,0,0-.181-3.611m-10.6-9.292a6.351,6.351,0,0,1-1.12-3.1,12.539,12.539,0,0,1-.024-2.283,1.61,1.61,0,0,1,.567-.588,3.6,3.6,0,0,1,1.419-.407,18.98,18.98,0,0,1,2.838-.149,2.207,2.207,0,0,1,1.543.511,13.706,13.706,0,0,1,.028,2.916,6.359,6.359,0,0,1-1.12,3.1,2.608,2.608,0,0,1-1.967,1.113l-.078,0-.117,0a2.608,2.608,0,0,1-1.968-1.113m9.879,12.432-15.626.009a10.7,10.7,0,0,1,.189-2.946,5.517,5.517,0,0,1,1.411-2.749,8.3,8.3,0,0,1,1.5-1.087,6.394,6.394,0,0,0,2.223-1.923,5.5,5.5,0,0,0,.734-2.218c.011.007.025.012.036.02v0a3.119,3.119,0,0,0,1.626.511l.077,0,.118,0a3.1,3.1,0,0,0,1.6-.494.642.642,0,0,0,.061-.034,5.482,5.482,0,0,0,.734,2.218,6.393,6.393,0,0,0,2.224,1.924,8.258,8.258,0,0,1,1.5,1.086,5.53,5.53,0,0,1,1.411,2.749,10.671,10.671,0,0,1,.189,2.937" transform="translate(-27.616 -33.245)" fill="#f9f3ef"/>
        <rect id="Rectángulo_424434" data-name="Rectángulo 424434" width="26.29" height="1.64" transform="translate(158.804 79.444)" fill="#002828"/>
        <rect id="Rectángulo_424435" data-name="Rectángulo 424435" width="26.29" height="1.64" transform="translate(158.804 90.103)" fill="#002828"/>
        <rect id="Rectángulo_424436" data-name="Rectángulo 424436" width="26.29" height="1.64" transform="translate(158.804 100.762)" fill="#002828"/>
        <rect id="Rectángulo_424437" data-name="Rectángulo 424437" width="26.29" height="1.64" transform="translate(158.804 154.365)" fill="#002828"/>
        <rect id="Rectángulo_424438" data-name="Rectángulo 424438" width="26.29" height="1.64" transform="translate(158.804 165.025)" fill="#002828"/>
        <rect id="Rectángulo_424439" data-name="Rectángulo 424439" width="26.29" height="1.64" transform="translate(158.804 175.684)" fill="#002828"/>
        <path id="Trazado_1066131" data-name="Trazado 1066131" d="M323.34,83.454l-1.194-1.525a3.911,3.911,0,0,0-3.081-1.5h-5.353A3.913,3.913,0,0,0,309.8,84.34v18.309a3.914,3.914,0,0,0,3.913,3.913h25a3.913,3.913,0,0,0,3.913-3.913V88.868a3.912,3.912,0,0,0-3.913-3.913H326.422a3.912,3.912,0,0,1-3.082-1.5" transform="translate(-55.743 -14.471)" fill="#002828"/>
        <path id="Trazado_1066132" data-name="Trazado 1066132" d="M320.1,77.057,318.9,75.532a3.911,3.911,0,0,0-3.081-1.5H310.47a3.913,3.913,0,0,0-3.913,3.913V96.252a3.914,3.914,0,0,0,3.913,3.913h25a3.913,3.913,0,0,0,3.913-3.913V82.471a3.912,3.912,0,0,0-3.913-3.913H323.181a3.912,3.912,0,0,1-3.082-1.5" transform="translate(-55.16 -13.32)" fill="#b9eae7"/>
        <path id="Trazado_1066133" data-name="Trazado 1066133" d="M320.1,79.133,318.9,77.608a3.911,3.911,0,0,0-3.081-1.5H310.47a3.913,3.913,0,0,0-3.913,3.913V98.328a3.914,3.914,0,0,0,3.913,3.913h25a3.913,3.913,0,0,0,3.913-3.913V84.547a3.912,3.912,0,0,0-3.913-3.913H323.181a3.912,3.912,0,0,1-3.082-1.5" transform="translate(-55.16 -13.694)" fill="#009ca4"/>
        <path id="Trazado_1066134" data-name="Trazado 1066134" d="M318.47,170.508l-.645-.824a2.114,2.114,0,0,0-1.665-.81H313.27a2.113,2.113,0,0,0-2.113,2.113v9.889a2.114,2.114,0,0,0,2.113,2.113h13.5a2.113,2.113,0,0,0,2.113-2.113v-7.443a2.113,2.113,0,0,0-2.113-2.113h-6.639a2.113,2.113,0,0,1-1.664-.811" transform="translate(-55.987 -30.386)" fill="#009ca4"/>
        <path id="Trazado_1066135" data-name="Trazado 1066135" d="M316.72,168.174l-.645-.824a2.114,2.114,0,0,0-1.665-.81H311.52a2.113,2.113,0,0,0-2.113,2.113v9.888a2.114,2.114,0,0,0,2.113,2.113h13.5a2.113,2.113,0,0,0,2.113-2.113V171.1a2.113,2.113,0,0,0-2.113-2.113h-6.639a2.113,2.113,0,0,1-1.664-.811" transform="translate(-55.673 -29.966)" fill="#f9f3ef"/>
        <path id="Trazado_1066136" data-name="Trazado 1066136" d="M318.47,204.429l-.645-.824a2.114,2.114,0,0,0-1.665-.81H313.27a2.113,2.113,0,0,0-2.113,2.112V214.8a2.114,2.114,0,0,0,2.113,2.113h13.5a2.113,2.113,0,0,0,2.113-2.113v-7.443a2.113,2.113,0,0,0-2.113-2.113h-6.639a2.113,2.113,0,0,1-1.664-.811" transform="translate(-55.987 -36.49)" fill="#009ca4"/>
        <path id="Trazado_1066137" data-name="Trazado 1066137" d="M316.72,202.1l-.645-.824a2.114,2.114,0,0,0-1.665-.81H311.52a2.113,2.113,0,0,0-2.113,2.113v9.888a2.114,2.114,0,0,0,2.113,2.113h13.5a2.113,2.113,0,0,0,2.113-2.113V205.02a2.113,2.113,0,0,0-2.113-2.113h-6.639a2.113,2.113,0,0,1-1.664-.811" transform="translate(-55.673 -36.07)" fill="#f9f3ef"/>
        <path id="Trazado_1066138" data-name="Trazado 1066138" d="M318.47,238.349l-.645-.824a2.114,2.114,0,0,0-1.665-.81H313.27a2.113,2.113,0,0,0-2.113,2.113v9.888a2.114,2.114,0,0,0,2.113,2.113h13.5a2.113,2.113,0,0,0,2.113-2.113v-7.443a2.113,2.113,0,0,0-2.113-2.113h-6.639a2.113,2.113,0,0,1-1.664-.811" transform="translate(-55.987 -42.593)" fill="#009ca4"/>
        <path id="Trazado_1066139" data-name="Trazado 1066139" d="M316.72,236.016l-.645-.824a2.114,2.114,0,0,0-1.665-.81H311.52a2.113,2.113,0,0,0-2.113,2.113v9.888a2.114,2.114,0,0,0,2.113,2.113h13.5a2.113,2.113,0,0,0,2.113-2.113v-7.443a2.113,2.113,0,0,0-2.113-2.113h-6.639a2.113,2.113,0,0,1-1.664-.811" transform="translate(-55.673 -42.173)" fill="#f9f3ef"/>
        <path id="Trazado_1066140" data-name="Trazado 1066140" d="M346.533,221.922l-.645-.824a2.114,2.114,0,0,0-1.665-.81h-2.891a2.113,2.113,0,0,0-2.113,2.113v9.888a2.114,2.114,0,0,0,2.113,2.113h13.5a2.113,2.113,0,0,0,2.113-2.113v-7.443a2.113,2.113,0,0,0-2.113-2.113H348.2a2.113,2.113,0,0,1-1.664-.811" transform="translate(-61.037 -39.637)" fill="#009ca4"/>
        <path id="Trazado_1066141" data-name="Trazado 1066141" d="M344.782,219.588l-.645-.824a2.114,2.114,0,0,0-1.664-.81h-2.892a2.113,2.113,0,0,0-2.113,2.113v9.888a2.114,2.114,0,0,0,2.113,2.113h13.5a2.113,2.113,0,0,0,2.113-2.113v-7.443a2.113,2.113,0,0,0-2.113-2.113h-6.639a2.113,2.113,0,0,1-1.664-.811" transform="translate(-60.722 -39.217)" fill="#f9f3ef"/>
        <path id="Trazado_1066142" data-name="Trazado 1066142" d="M84.293,122.907H76.122v24.411h8.171a6.558,6.558,0,0,0,6.558-6.558V129.465a6.558,6.558,0,0,0-6.558-6.558" transform="translate(-13.697 -22.115)" fill="#002828"/>
        <path id="Trazado_1066143" data-name="Trazado 1066143" d="M70.05,142.129H25.6a6.559,6.559,0,0,1-6.558-6.558V124.276a6.559,6.559,0,0,1,6.558-6.559H70.05a6.558,6.558,0,0,1,6.558,6.559v11.295a6.558,6.558,0,0,1-6.558,6.558" transform="translate(-3.426 -21.181)" fill="#009ca4"/>
        <path id="Trazado_1066144" data-name="Trazado 1066144" d="M69.069,126.761H29.45a.409.409,0,0,1,0-.818H69.069a.409.409,0,1,1,0,.818" transform="translate(-5.226 -22.661)" fill="#f9f3ef"/>
        <path id="Trazado_1066145" data-name="Trazado 1066145" d="M69.069,133.223H29.45a.409.409,0,0,1,0-.818H69.069a.409.409,0,0,1,0,.818" transform="translate(-5.226 -23.824)" fill="#f9f3ef"/>
        <path id="Trazado_1066146" data-name="Trazado 1066146" d="M69.069,139.685H29.45a.409.409,0,0,1,0-.818H69.069a.409.409,0,1,1,0,.818" transform="translate(-5.226 -24.987)" fill="#f9f3ef"/>
        <path id="Trazado_1066147" data-name="Trazado 1066147" d="M360.757,125.322H325.1a6.558,6.558,0,0,0-6.558,6.558v11.295a6.558,6.558,0,0,0,6.558,6.559h35.653Z" transform="translate(-57.317 -22.55)" fill="#002828"/>
        <path id="Trazado_1066148" data-name="Trazado 1066148" d="M369.555,144.034H325.1a6.559,6.559,0,0,1-6.559-6.558V126.181a6.559,6.559,0,0,1,6.559-6.559h44.45a6.558,6.558,0,0,1,6.558,6.559v11.295a6.558,6.558,0,0,1-6.558,6.558" transform="translate(-57.317 -21.524)" fill="#009ca4"/>
        <path id="Trazado_1066149" data-name="Trazado 1066149" d="M368.574,128.666h-39.62a.409.409,0,0,1,0-.818h39.62a.409.409,0,0,1,0,.818" transform="translate(-59.116 -23.004)" fill="#f9f3ef"/>
        <path id="Trazado_1066150" data-name="Trazado 1066150" d="M368.574,135.128h-39.62a.409.409,0,0,1,0-.818h39.62a.409.409,0,0,1,0,.818" transform="translate(-59.116 -24.167)" fill="#f9f3ef"/>
        <path id="Trazado_1066151" data-name="Trazado 1066151" d="M368.574,141.59h-39.62a.409.409,0,0,1,0-.818h39.62a.409.409,0,0,1,0,.818" transform="translate(-59.116 -25.33)" fill="#f9f3ef"/>
        <path id="Trazado_1066152" data-name="Trazado 1066152" d="M113.137,131.254c-1.865-.2-4.136-1.333-5.945-1.83-.506,2.227-1.665,7.9-3.255,10.559l-.617.844c4.371,3.1,8.857,4.627,14.051,5.941a37.1,37.1,0,0,1-4.234-15.515" transform="translate(-18.591 -23.288)" fill="#ff9489"/>
        <path id="Trazado_1066153" data-name="Trazado 1066153" d="M120.973,120.155A32.369,32.369,0,0,1,122,126.8a11.593,11.593,0,0,1-.006,2.953c-.327,1.87-1.538,3.441-2.458,5.1a4.1,4.1,0,0,1-1.593,1.928,3.213,3.213,0,0,1-2.318-.075,13.34,13.34,0,0,1-7.2-5.819,8.972,8.972,0,0,1-1.418-5.937,7.768,7.768,0,0,1,4.9-5.713,11.939,11.939,0,0,1,7.73-.09Z" transform="translate(-19.239 -21.331)" fill="#ff9489"/>
        <path id="Trazado_1066154" data-name="Trazado 1066154" d="M113.16,130.446c2.9-1.449,7.629-3.521,8.455-7.25a20.988,20.988,0,0,0-.642-3.041l-1.331-1.01a11.928,11.928,0,0,0-7.73.09,7.768,7.768,0,0,0-4.9,5.713,8.72,8.72,0,0,0,1.191,5.531c.7.321,1.768.96,4.961-.033" transform="translate(-19.239 -21.33)" fill="#002828"/>
        <path id="Trazado_1066155" data-name="Trazado 1066155" d="M119.516,113.458a11.2,11.2,0,0,0-6.884-3.732,4.853,4.853,0,0,0-2.859.315,2.326,2.326,0,0,0-1.335,2.371,7.693,7.693,0,0,0-5.7,3.359,9.791,9.791,0,0,0-1.547,6.524,6.289,6.289,0,0,0,1.575,3.816c1.292,1.3,2.3,2.459,4.136,2.47,2.979.017,6.953-1.5,9.514-3.019a13.116,13.116,0,0,0,5.667-6.684,5.787,5.787,0,0,0-.145-5Z" transform="translate(-18.198 -19.73)" fill="#937948"/>
        <path id="Trazado_1066156" data-name="Trazado 1066156" d="M102.162,117.83a10.556,10.556,0,0,0-.189,4.692l.617-1.6a3.19,3.19,0,0,0,2.11,4.153,3.909,3.909,0,0,1,.289-3.787c-.31.279.035.846.452.868a1.5,1.5,0,0,0,1.064-.579,14.234,14.234,0,0,0,3.816-7.688,3.519,3.519,0,0,0-.613-3.11,2.8,2.8,0,0,0-3.106-.255,6.054,6.054,0,0,0-2.524,2.458,16.4,16.4,0,0,0-1.365,3.3Z" transform="translate(-18.316 -19.825)" fill="#002828"/>
        <path id="Trazado_1066157" data-name="Trazado 1066157" d="M106.869,117.881a1.992,1.992,0,0,1-2-.111,2.033,2.033,0,0,1-.419-1.853A7.58,7.58,0,0,1,108.9,110.2a1.655,1.655,0,0,1,1.46-.083,1.628,1.628,0,0,1,.618,1.338,6.541,6.541,0,0,1-4.107,6.424" transform="translate(-18.786 -19.789)" fill="#ff9489"/>
        <path id="Trazado_1066158" data-name="Trazado 1066158" d="M121.4,127.578a4.287,4.287,0,0,0-.126-1.817,1.535,1.535,0,0,0-1.345-1.074,1.879,1.879,0,0,0-1.418.963,5.1,5.1,0,0,0-.625,4.324,1.886,1.886,0,0,0,.577.951.854.854,0,0,0,1.044.043Z" transform="translate(-21.17 -22.435)" fill="#ff9489"/>
        <path id="Trazado_1066159" data-name="Trazado 1066159" d="M106.607,105.875a5.67,5.67,0,0,0-4.3-.355A9.461,9.461,0,0,0,98.56,107.8a14.4,14.4,0,0,0-3.814,6.031,5.044,5.044,0,0,0,.165,4.3,3.975,3.975,0,0,0,3.984,1.44,9.488,9.488,0,0,0,3.962-2c3.215-2.434,4.176-3.255,5.585-7.032l.32-1.059a4.076,4.076,0,0,0-2.153-3.612" transform="translate(-16.976 -18.94)" fill="#937948"/>
        <path id="Trazado_1066160" data-name="Trazado 1066160" d="M141.632,305.248c-4.223-2.065-6.961-5.615-9.291-9.27-4.49-31.675.02-28.689-1.46-42H117.473a80.55,80.55,0,0,0,2.8,24.557,162.925,162.925,0,0,0,5.92,17.44,8.479,8.479,0,0,1,.225,4.732,3.072,3.072,0,0,0,.091,2.733c1.32,1.817,2.617,1.379,4.979,2.142,2.757.89,2.19,2.726,7.768,2.866a5.581,5.581,0,0,0,3.144-.53,1.532,1.532,0,0,0,.742-.905c.2-.884-.768-1.406-1.506-1.768" transform="translate(-21.12 -45.7)" fill="#ff9489"/>
        <path id="Trazado_1066161" data-name="Trazado 1066161" d="M143.556,315.548c-.417-.2-.808-.432-1.2-.663a5.725,5.725,0,0,1-4.252,1.015c-3.622-.4-6.827-2.734-9.829-4.676a2.868,2.868,0,0,0,.149,2.519c1.319,1.817,2.617,1.379,4.979,2.142,2.757.89,2.19,2.726,7.768,2.866a5.581,5.581,0,0,0,3.144-.53,1.532,1.532,0,0,0,.742-.905c.2-.884-.768-1.406-1.506-1.768" transform="translate(-23.043 -56)" fill="#ff1d22"/>
        <path id="Trazado_1066162" data-name="Trazado 1066162" d="M131.146,261a41.92,41.92,0,0,0-.264-7.015H117.474a75.556,75.556,0,0,0,1.494,18.86A33.872,33.872,0,0,1,131.146,261" transform="translate(-21.12 -45.7)" fill="#002828"/>
        <path id="Trazado_1066163" data-name="Trazado 1066163" d="M116.19,311.3c-.015-.007-2.262-1.739-2.272-1.753a9,9,0,0,1-1.808-7.024c1.917-14.288,4.174-29.353,6.563-43.477H104.814a126.411,126.411,0,0,0,1.582,44.011,14.356,14.356,0,0,1,.154,5.2q-.253,1.685-.436,3.376c-.116,1.078-.173,2.3.454,3.015.512.584,2.417.286,3.91.935,3.906,1.7,8.323,2.093,11.1.714,1.649-1.156-1.883-3.116-5.388-5" transform="translate(-18.641 -46.611)" fill="#ff9489"/>
        <path id="Trazado_1066164" data-name="Trazado 1066164" d="M120.04,324.716a4.125,4.125,0,0,1-2.433,1.419c-1.588.37-3.861-.286-5.348-.819-1.806-.646-3.705-1.755-5.612-2.128a4.042,4.042,0,0,0,.456,3c.511.584,2.417.286,3.909.935,3.907,1.7,8.323,2.093,11.1.714,1.1-.771-.108-1.9-2.071-3.124" transform="translate(-19.176 -58.152)" fill="#ff1d22"/>
        <path id="Trazado_1066165" data-name="Trazado 1066165" d="M117.829,266.37c.407-2.46.817-4.909,1.232-7.322H104.953q-.378,2.7-.638,5.408a18.54,18.54,0,0,0,13.514,1.914" transform="translate(-18.77 -46.611)" fill="#002828"/>
        <path id="Trazado_1066166" data-name="Trazado 1066166" d="M126.861,214.8c-9.448,1.948-15.644,1.688-27.132-.13l-3.91-.6c-.162,6.253,2.155,12.166,3.7,18.153a74.932,74.932,0,0,1,2.234,22.7c10.763,2.077,20.6,1.05,26.345-3.245-.393-11.166-.458-25.008-1.237-36.887" transform="translate(-17.24 -38.519)" fill="#937948"/>
        <path id="Trazado_1066167" data-name="Trazado 1066167" d="M127.186,221.617c-.121-3.1-.132-3.883-.325-6.816-9.447,1.948-15.643,1.688-27.132-.13l-3.91-.6a35.322,35.322,0,0,0,1.374,9.813c10.1,2.988,20,.453,29.992-2.272" transform="translate(-17.24 -38.519)" fill="#002828"/>
        <path id="Trazado_1066168" data-name="Trazado 1066168" d="M118.68,153.375a7.72,7.72,0,0,1-.635-2.8,2.623,2.623,0,0,1,1.382-2.367,2.555,2.555,0,0,1,2.343.3,6.488,6.488,0,0,1,1.692,1.766c5.573,7.747,7.26,17.723,12.594,25.638l-7.121,5.739q-5.127-14.136-10.255-28.272" transform="translate(-21.24 -26.637)" fill="#ff1d22"/>
        <path id="Trazado_1066169" data-name="Trazado 1066169" d="M121.919,206.238c.62-10.523,1.639-19.028,1.137-29.558s-1.528-21.143-4.927-31.122c6.278,2.827,9.485,9.646,10.828,16.4s.875,13.716.832,20.6c-.048,7.753.245,15.2,2.93,23.255-3.3,1.283-7.276.072-10.8.426" transform="translate(-21.255 -26.191)" fill="#8e141a"/>
        <path id="Trazado_1066170" data-name="Trazado 1066170" d="M130.763,186.113c.043-6.884.513-13.848-.832-20.6-.013-.065-.03-.129-.043-.193L124.151,186.6c-.024,4.658-.294,9.061-.611,13.622l7.914-.55a93.878,93.878,0,0,1-.691-13.554" transform="translate(-22.229 -29.747)" fill="#002828"/>
        <path id="Trazado_1066171" data-name="Trazado 1066171" d="M95.776,144.781c-2.233,2.161-2.833,5.565-2.459,8.65a31.5,31.5,0,0,0,4.332,12c2,3.4,3.6,7.449,2.561,12.366a41.346,41.346,0,0,1-2.483,7.024A48.73,48.73,0,0,0,94.1,203.443a4.34,4.34,0,0,0,.771,2.942,4.493,4.493,0,0,0,3.233,1.051,168.514,168.514,0,0,0,24.65-.613L121.33,171c-.226-5.693-.494-11.564-2.924-16.717A21.529,21.529,0,0,0,107.7,143.857c-3.874-1.7-8.879-2.017-11.92.924" transform="translate(-16.772 -25.653)" fill="#ff1d22"/>
        <path id="Trazado_1066172" data-name="Trazado 1066172" d="M108.721,211.72a32.573,32.573,0,0,1,.824-11.092c.135-.677.275-1.374.412-2.11.089-.479.218-.966.343-1.438a10.8,10.8,0,0,0,.461-2.552c.007-.644-.042-1.3-.089-1.941-.049-.67-.1-1.363-.089-2.053a22.978,22.978,0,0,1,.972-5.445c.14-.532.28-1.064.408-1.6.476-1.984.911-4.554.035-6.833a13.9,13.9,0,0,0-1.852-3.07c-.3-.418-.608-.837-.892-1.266-1.26-1.907-1.7-3.636-1.322-5.14l.6.152c-.338,1.329.079,2.893,1.239,4.649.279.422.577.833.877,1.245a14.333,14.333,0,0,1,1.928,3.211c.937,2.437.485,5.127-.011,7.2-.13.537-.271,1.073-.412,1.61a22.466,22.466,0,0,0-.952,5.3c-.011.661.039,1.341.088,2s.1,1.324.091,1.994a11.232,11.232,0,0,1-.481,2.7c-.127.482-.247.937-.333,1.395-.138.737-.278,1.438-.413,2.116a31.663,31.663,0,0,0-.817,10.905Z" transform="translate(-19.397 -30.082)" fill="#8e141a"/>
        <path id="Trazado_1066173" data-name="Trazado 1066173" d="M97.332,150.78c-.955,1.639-.062,3.7.889,5.343a38.656,38.656,0,0,0,6.373,8.543,19.656,19.656,0,0,0,9.174,5.229,3.98,3.98,0,0,0,3.327-.363,3.434,3.434,0,0,0,1.019-3.054,12.757,12.757,0,0,0-1.978-5.089,35.391,35.391,0,0,0-5.615-7.673,15.831,15.831,0,0,0-8.24-4.505c-1.819-.309-4.022-.024-4.949,1.57" transform="translate(-17.44 -26.828)" fill="#002828"/>
        <path id="Trazado_1066174" data-name="Trazado 1066174" d="M132.918,187.186c2,.672,4.2-.048,6.045-1.07a19.115,19.115,0,0,0,5.795-4.963,6.947,6.947,0,0,1-4.126-4.881,20.26,20.26,0,0,1-5.3,1.392,7.54,7.54,0,0,0-4.744,2.528,4.574,4.574,0,0,0-.6,4.081,4.737,4.737,0,0,0,2.936,2.913" transform="translate(-23.346 -31.717)" fill="#ff1d22"/>
        <path id="Trazado_1066175" data-name="Trazado 1066175" d="M135.92,193.7H125.75l8.534-33.87h10.17Z" transform="translate(-22.627 -28.758)" fill="#009ca4"/>
        <path id="Trazado_1066176" data-name="Trazado 1066176" d="M147.312,174.854a5.3,5.3,0,0,0-.159-1.148c-.4-1.415-1.872-2.434-1.96-3.9a5.651,5.651,0,0,0-.666,2.06,10,10,0,0,0-2.3.142c-.246.054-.529.17-.575.417a.47.47,0,0,0,.222.449,1.369,1.369,0,0,0,.494.177,2.567,2.567,0,0,0-.691.486.866.866,0,0,0-.235.78.531.531,0,0,0,.65.382,1.3,1.3,0,0,0-.517.666c-.061.28.17.629.449.566a.719.719,0,0,0-.116.934,4.959,4.959,0,0,0,.685.773,8.466,8.466,0,0,1,.919,1.616,2.085,2.085,0,0,0,1.365,1.173,2.965,2.965,0,0,0,2.317-1.387,2.549,2.549,0,0,0,.188-1.114q.018-1.535-.074-3.068" transform="translate(-25.447 -30.553)" fill="#ff9489"/>
        <path id="Trazado_1066177" data-name="Trazado 1066177" d="M156.725,143.694a7.347,7.347,0,0,0-2.705,3.493l-4.305-3.706a8.059,8.059,0,0,0,2.591-3.9,19.628,19.628,0,0,1,1.891-4.342,1.405,1.405,0,0,1,.679-.6,3.082,3.082,0,0,1,.784-.035,3.147,3.147,0,0,0,1.639-.764l5.549-4.069c.759,1.4-.7,2.088-3.151,4.269a1.746,1.746,0,0,1,1.456,1.281,4.723,4.723,0,0,0-.029,1.558c.137.417.511.83.333,1.231-.1.223-.345.351-.453.571-.149.3.012.66.029,1a2.312,2.312,0,0,1-.714,1.489,7.057,7.057,0,0,1-1.88,1.768c-.546.3-1.165.458-1.714.757" transform="translate(-26.939 -23.35)" fill="#ff9489"/>
        <path id="Trazado_1066178" data-name="Trazado 1066178" d="M141.4,143.171c-5.667,5.9-7.656,7.7-13.323,13.592-3.9-.188-7.538-1.994-10.831-4.091s-6.506-4.313-9.915-6.215c-2.257-1.26-5.036-2.457-7.675-1.931a5.937,5.937,0,0,0-4.536,5.49c-.182,2.654,1.428,4.835,3.341,6.488a24.165,24.165,0,0,0,5.626,3.386,75.007,75.007,0,0,0,29.1,7.441c6.572-7.527,9.2-10.612,13.8-19.485-1.371-2.434-3.936-3.5-5.582-4.674" transform="translate(-17.114 -25.761)" fill="#ff1d22"/>
        <path id="Trazado_1066179" data-name="Trazado 1066179" d="M131.457,167.474a9.341,9.341,0,0,1-2.133-.33c-7.758-1.839-15.781-3.739-23.347-6.7-4-1.569-8.874-3.937-11.05-8.37a.307.307,0,0,1,.552-.271c2.083,4.241,6.824,6.539,10.722,8.068,7.526,2.95,15.527,4.846,23.264,6.679a6.131,6.131,0,0,0,2.795.221c1.435-.353,2.4-1.742,3.259-3.134,2.227-3.6,3.534-5.671,4.842-7.743s2.61-4.136,4.832-7.724a.307.307,0,0,1,.523.323c-2.223,3.592-3.53,5.661-4.834,7.729s-2.614,4.141-4.841,7.738c-.928,1.5-1.974,3-3.635,3.409a4,4,0,0,1-.95.109" transform="translate(-17.075 -26.634)" fill="#8e141a"/>
        <path id="Trazado_1066180" data-name="Trazado 1066180" d="M288.019,137.947c-1.574,1.278-4.845,1.948-6.8,2.485a19.4,19.4,0,0,1-2.214,8.868,84.926,84.926,0,0,1,11.355-.968c-1.257-3.553-1.084-6.832-2.34-10.385" transform="translate(-50.202 -24.821)" fill="#ff9489"/>
        <path id="Trazado_1066181" data-name="Trazado 1066181" d="M284.43,127.875c-2.493-2.41-8.589-3.317-11.465-1.379-.194,1.752-.787,3.8-.1,4.82a3.657,3.657,0,0,1,.367.672c-.061,2.024-1.78,3.767-1.866,5.818a14.057,14.057,0,0,0,2.343.83l.061.014c.378.886.618,1.386,1.157,2.51a3.039,3.039,0,0,0,1.512,1.743,7.3,7.3,0,0,0,3.534-.536,14.216,14.216,0,0,0,6.28-5.306c1.84-2.939.668-6.775-1.825-9.186" transform="translate(-48.828 -22.572)" fill="#ff9489"/>
        <path id="Trazado_1066182" data-name="Trazado 1066182" d="M275.856,132.671a.306.306,0,0,1-.107-.019,4.349,4.349,0,0,0-2.088-.237.3.3,0,0,1-.346-.264.309.309,0,0,1,.266-.345,4.982,4.982,0,0,1,2.382.269.308.308,0,0,1-.107.6" transform="translate(-49.178 -23.709)" fill="#002828"/>
        <path id="Trazado_1066183" data-name="Trazado 1066183" d="M274.234,134a1.624,1.624,0,0,0,.139.663c.079.176.262.362.438.281.134-.061.162-.24.15-.388a1.491,1.491,0,0,0-.225-.672c-.081-.128-.232-.257-.369-.19a.325.325,0,0,0-.133.306" transform="translate(-49.344 -24.053)" fill="#002828"/>
        <path id="Trazado_1066184" data-name="Trazado 1066184" d="M273.9,126.86a.611.611,0,0,0-.408.328c-.089.284.227.518.5.64a25.946,25.946,0,0,1,3.744,1.643,12.091,12.091,0,0,1,2.768,2.825,12.874,12.874,0,0,0,2.743,2.852,4.259,4.259,0,0,0,3.766.67c-2.554-2.377-3.607-6.16-6.474-8.154a7.264,7.264,0,0,0-6.638-.8" transform="translate(-49.208 -22.743)" fill="#002828"/>
        <path id="Trazado_1066185" data-name="Trazado 1066185" d="M274.232,123.283a4.231,4.231,0,0,0-1.5,1.272,1.621,1.621,0,0,0-.006,1.857c.643.772,1.856.467,2.86.485,2.145.038,3.822,1.821,5.056,3.576s2.434,3.735,4.421,4.545a2.509,2.509,0,0,0,2.793-.348,3.189,3.189,0,0,0,.613-1.6c.6-3.308.762-7.1-1.458-9.624a7.821,7.821,0,0,0-6.271-2.381,14.505,14.505,0,0,0-6.507,2.214" transform="translate(-49.02 -21.782)" fill="#937948"/>
        <path id="Trazado_1066186" data-name="Trazado 1066186" d="M230.964,154.207c-2.468-.116-3.474-.795-5.065-1.066a1.635,1.635,0,0,0-.794.058.317.317,0,0,0-.175.486.645.645,0,0,0,.331.243c.816.36,3.128.979,2.905,1.561-1.166-.1-2.738-.465-3.905-.565-.242-.02-.611.061-.678.294-.078.275.431.461.709.527.753.177,1.619.479,2.372.657.437.1,1.136.415,1.075.632.048.22-.545.456-1.04.5-.736.07-2.116.257-2.851.326-.326.031-.766.228-.651.535.069.184.3.232.5.254,1.2.134,3.359-.039,4.195.34a24.22,24.22,0,0,1-2.978,1.289c-.136.052-.288.118-.336.256a.347.347,0,0,0,.254.407,1,1,0,0,0,.529-.029l3.393-.8a18.574,18.574,0,0,1,3.973-.64,6.221,6.221,0,0,1,3.811,1.08,8.85,8.85,0,0,1,1.4-3.042,5.134,5.134,0,0,1-3.687-2.824c-.629-1.339-.663-2.938-1.5-4.157a1.91,1.91,0,0,0-.608,1.953c.134.466.446.967.212,1.391-.246.445-.878.358-1.387.335" transform="translate(-40.157 -27.085)" fill="#ff9489"/>
        <path id="Trazado_1066187" data-name="Trazado 1066187" d="M240.2,162.29l-3.313-.6a12.63,12.63,0,0,1,.782-4.92,15.7,15.7,0,0,0,3.363.982,15.685,15.685,0,0,0-.832,4.542" transform="translate(-42.622 -28.207)" fill="#937948"/>
        <path id="Trazado_1066188" data-name="Trazado 1066188" d="M281.266,149.591a5.509,5.509,0,0,0-5.45-1.465,13.02,13.02,0,0,0-3.166,1.571,48.951,48.951,0,0,1-15.448,6.182,36.358,36.358,0,0,1-16.569-.358c-.462,1.357-1.533,3.4-1.338,5.154,8.452,4.779,19.335,5.985,28.852,4.065,4.258-.859,8.537-2.51,11.463-5.721,1.693-1.857,3.471-4.185,2.963-6.858a5.087,5.087,0,0,0-1.307-2.57" transform="translate(-43.053 -26.616)" fill="#937948"/>
        <path id="Trazado_1066189" data-name="Trazado 1066189" d="M286.69,152.161a5.093,5.093,0,0,0-1.307-2.57,5.509,5.509,0,0,0-5.45-1.465,12.98,12.98,0,0,0-3.166,1.572,54.8,54.8,0,0,1-5.5,2.907c-4.872,4.468-5.067,9.53-9.116,12.979a45.154,45.154,0,0,0,10.118-.845c4.257-.859,8.537-2.509,11.462-5.721,1.693-1.857,3.471-4.185,2.964-6.858" transform="translate(-47.169 -26.616)" fill="#002828"/>
        <path id="Trazado_1066190" data-name="Trazado 1066190" d="M301.617,281.485l-4.993,2.065a4.854,4.854,0,0,1,.247,2.284c2.32,1.047,4.391-.163,5.817-2.023a16.584,16.584,0,0,1-1.07-2.326" transform="translate(-53.372 -50.648)" fill="#f9f3ef"/>
        <path id="Trazado_1066191" data-name="Trazado 1066191" d="M295.288,286.273a3.144,3.144,0,0,1-.294.829,19.4,19.4,0,0,1-4.026,4.3,6.227,6.227,0,0,0-1.623,1.715,1.98,1.98,0,0,0,.109,2.226l6.412-2.449a5.072,5.072,0,0,0,1.563-.817,8.839,8.839,0,0,0,1.054-1.3,2.237,2.237,0,0,1,1.346-.931c.553-.08.656.27,1.2.868a18.99,18.99,0,0,0,2.833-1.345,6.792,6.792,0,0,0-1.842-4.081c-.267-.318-.259-.833-.464-1.183-1.644.775-3.948,3.212-6.267,2.164" transform="translate(-52.011 -51.121)" fill="#002828"/>
        <path id="Trazado_1066192" data-name="Trazado 1066192" d="M293.2,198.023H281.16a16.117,16.117,0,0,0-1.488,3.049c-1.706,4.721-1.547,9.973-1.095,15.02,1.662,18.557,6.947,36.609,14.416,53.4,1.775.774,5.67-1.043,7.618-3.12-4.531-10.98-6.13-22.109-6.237-34.139-.1-11.423.407-22.932-1.172-34.211" transform="translate(-50.071 -35.631)" fill="#247070"/>
        <path id="Trazado_1066193" data-name="Trazado 1066193" d="M296.1,275.68a160.741,160.741,0,0,1-10.366-37.2l.609-.093a159.968,159.968,0,0,0,10.325,37.06Z" transform="translate(-51.414 -42.893)" fill="#009ca4"/>
        <path id="Trazado_1066194" data-name="Trazado 1066194" d="M290.032,208.5c1.726,11.416-4.127,20.94-4.517,34.312-2.726-4.674-1.4-11.975-.964-17.823a32.7,32.7,0,0,1,5.481-16.489" transform="translate(-51.073 -37.516)" fill="#002828"/>
        <path id="Trazado_1066195" data-name="Trazado 1066195" d="M280.243,289.977l-5.4.025a4.861,4.861,0,0,1-.635,2.208c1.752,1.847,4.126,1.508,6.15.326a16.461,16.461,0,0,1-.112-2.558" transform="translate(-49.339 -52.176)" fill="#f9f3ef"/>
        <path id="Trazado_1066196" data-name="Trazado 1066196" d="M272.013,292.559a3.119,3.119,0,0,1-.584.657,19.4,19.4,0,0,1-5.354,2.462,6.235,6.235,0,0,0-2.151.974,1.981,1.981,0,0,0-.741,2.1l6.863.157a5.047,5.047,0,0,0,1.756-.166,8.836,8.836,0,0,0,1.466-.8,2.236,2.236,0,0,1,1.6-.353c.543.134.506.5.782,1.256a18.839,18.839,0,0,0,3.132-.175,6.81,6.81,0,0,0-.163-4.473c-.128-.4.074-.87.017-1.271-1.816.1-4.87,1.482-6.621-.365" transform="translate(-47.34 -52.641)" fill="#002828"/>
        <path id="Trazado_1066197" data-name="Trazado 1066197" d="M287.49,198.088l-16.209-.065-1.78.259a173.4,173.4,0,0,0,.132,54.6c1.216,7.489,2.93,14.919,3.272,22.515,2.3-.186,5.794-.656,8.093-.841-.144-11.2-1.43-21.915-1.075-31.386.556-14.83,10.292-29.889,7.566-45.077" transform="translate(-48.115 -35.631)" fill="#009ca4"/>
        <path id="Trazado_1066198" data-name="Trazado 1066198" d="M277.309,275.423C274,249.878,273.9,225.576,277,203.192l.609.084c-3.1,22.33-2.991,46.576.311,72.067Z" transform="translate(-49.436 -36.561)" fill="#247070"/>
        <path id="Trazado_1066199" data-name="Trazado 1066199" d="M292.214,203.975l-22,.325.325-4.09,21.225-.13Z" transform="translate(-48.62 -36.001)" fill="#002828"/>
        <rect id="Rectángulo_424440" data-name="Rectángulo 424440" width="1.623" height="4.868" transform="translate(234.247 164.274)" fill="#009ca4"/>
        <path id="Trazado_1066200" data-name="Trazado 1066200" d="M267.55,185.364c.1,1.464-1.269,2.885-1.3,4.349-.024,1.229,1.757,2.792,2.986,2.792l23.035-.39c-.219-.2,1.525-3.635,1.5-3.7-2.169-5.995-3.092-9.1-2.28-15.42.763-5.932,2.64-12.712.046-18.458-.67-1.484-2.188-4.118-3.788-4.775-8.384-3.206-16.425,3.682-19.715,10.919-1.733,3.813-1.935,8.152-1.59,12.326s.822,8.178,1.1,12.357" transform="translate(-47.907 -26.802)" fill="#937948"/>
        <path id="Trazado_1066201" data-name="Trazado 1066201" d="M291.992,151.619a25.126,25.126,0,0,0-13.874-.534q-.207-1.055-.412-2.109a32.043,32.043,0,0,1,13.233-2.84,11.313,11.313,0,0,0,1.052,5.483" transform="translate(-49.969 -26.295)" fill="#937948"/>
        <path id="Trazado_1066202" data-name="Trazado 1066202" d="M281.448,171.629a27.719,27.719,0,0,0,1.474-4.313,17.964,17.964,0,0,0,1.732-9.058,3.256,3.256,0,0,0-.976-2.388c-.964-.741-2.362-.325-3.443.234-5.442,2.812-8.99,8.275-11.615,13.81-.981,2.066-1.888,4.286-1.682,6.564a3.433,3.433,0,0,0,1.233,2.541c-.427,1.394.5,2.874,1.106,4.245a9.752,9.752,0,0,1,.691,5.53,12.338,12.338,0,0,0-.348,2.417,2.272,2.272,0,0,0,1.127,2.031,3.18,3.18,0,0,0,1.857.066l5.385-.89a2.674,2.674,0,0,0,1.824-.822c.711-.985-.16-2.284-.778-3.329a11.383,11.383,0,0,1-.785-8.5,56.455,56.455,0,0,1,3.2-8.138" transform="translate(-48.026 -27.974)" fill="#002828"/>
        <path id="Trazado_1066203" data-name="Trazado 1066203" d="M238.646,186.845c-.963-.025-2.06.2-2.747-.459a3.871,3.871,0,0,0-2.56-1.381.867.867,0,0,0-.873.539c-.063.266.082.549.016.814-.078.312-.406.479-.7.607l-2.062.9a1.867,1.867,0,0,0-.6.358.637.637,0,0,0-.183.641c.072.2.271.333.312.538.079.387-.438.672-.441,1.067s.457.6.585.963a1.611,1.611,0,0,1,0,.683.691.691,0,0,0,.194.629c.276.207.75.017.968.285.167.207.045.535.179.763.143.246.49.254.773.232l2.515-.2c.239-.019.531-.077.6-.306.03-.093.012-.2.037-.289.065-.247.422-.293.627-.375.86-.344,1.693-.754,2.532-1.146a10.4,10.4,0,0,1,2.257-.64Z" transform="translate(-41.17 -33.288)" fill="#ff9489"/>
        <path id="Trazado_1066204" data-name="Trazado 1066204" d="M240.6,186.731a.5.5,0,0,0-.045.321,11.555,11.555,0,0,0,1.345,4.511l3.487-.838a18.521,18.521,0,0,1-1.226-4.961l-3.232.791a.517.517,0,0,0-.329.176" transform="translate(-43.284 -33.425)" fill="#937948"/>
        <path id="Trazado_1066205" data-name="Trazado 1066205" d="M279.507,151.456a4.382,4.382,0,0,0-4.719-.584,11.016,11.016,0,0,0-3.835,3.207c-3.955,4.656-7.012,9.819-11.313,14.158-5.077,5.124-8.37,7.633-16.061,10.36a17.694,17.694,0,0,0,1.85,6.62c5.549-.584,10.5-3.687,15.873-6.907a53.014,53.014,0,0,0,14.282-12.07,22.391,22.391,0,0,0,4.941-9.873c.3-1.716.225-3.694-1.019-4.913" transform="translate(-43.828 -27.071)" fill="#937948"/>
        <path id="Trazado_1066206" data-name="Trazado 1066206" d="M124.218,114.856a5.9,5.9,0,0,1-2.559-.182c-2.08-.6-4.387-2.744-6.6-2.574q-.1.747-.2,1.493a3.293,3.293,0,0,1,1.34-.538,1.125,1.125,0,0,1,1.181.654c.122.367.012.857.331,1.075.439.3,1.049-.349,1.533-.129.467.213.394,1.046.884,1.2.423.133.947-.38,1.274-.08.26.238.057.749.327.973.135.112.332.1.5.153a1.954,1.954,0,0,1,1.142,1.529,3.7,3.7,0,0,0,.853-3.575" transform="translate(-20.666 -20.169)" fill="#cfbcb1"/>
        <path id="Trazado_1066207" data-name="Trazado 1066207" d="M282.036,133.183a2.921,2.921,0,0,0,1-1.379,1.661,1.661,0,0,1,.523-1.246,1.142,1.142,0,0,1,1.445.3,2.954,2.954,0,0,1,.56,1.5,5.39,5.39,0,0,1,.043,1.915,2.285,2.285,0,0,1-1.029,1.559,1.471,1.471,0,0,1-1.771-.205Z" transform="translate(-50.748 -23.465)" fill="#ff9489"/>
        <path id="Trazado_1066208" data-name="Trazado 1066208" d="M279.6,128.519a13.559,13.559,0,0,1,1.153,5.566l.959.066c.22-1.219.623-1.685.842-2.9-.716-.9-1.871-2.345-2.955-2.728" transform="translate(-50.309 -23.125)" fill="#937948"/>
      </g>
    </g>
  </g>
</svg>
