<svg xmlns="http://www.w3.org/2000/svg" width="78.786" height="81.054" viewBox="0 0 78.786 81.054">
  <g id="Grupo_1229409" data-name="Grupo 1229409" transform="translate(-1064.173 -2830.905)">
    <g id="Grupo_1228978" data-name="Grupo 1228978" transform="translate(63.105 -33.876)">
      <circle id="Elipse_12863" data-name="Elipse 12863" cx="27.545" cy="27.545" r="27.545" transform="translate(1001.068 2864.781)" fill="#c3b7ef"/>
    </g>
    <g id="css" transform="translate(1069.937 2838.937)">
      <path id="Trazado_1064211" data-name="Trazado 1064211" d="M8.4,61.206h9.1v6.435a5.387,5.387,0,0,0,5.38,5.38H67.641a5.387,5.387,0,0,0,5.38-5.38V18.023c0-.023-.012-.044-.013-.068a1.063,1.063,0,0,0-.055-.277,1.043,1.043,0,0,0-.036-.1,1.062,1.062,0,0,0-.211-.316L57.749,2.315a1.062,1.062,0,0,0-.314-.209,1.042,1.042,0,0,0-.106-.038,1.064,1.064,0,0,0-.27-.054c-.025,0-.047-.014-.071-.014h-34.1a5.387,5.387,0,0,0-5.38,5.38v20.37H7.381A5.387,5.387,0,0,0,2,33.132V54.815a6.4,6.4,0,0,0,6.4,6.392Zm0-2.152a4.25,4.25,0,0,1-4.25-4.24,4.25,4.25,0,0,1,4.25-4.25h9.1v8.49ZM58.064,5.673l5.592,5.588,5.691,5.687H61.292a3.232,3.232,0,0,1-3.228-3.228V5.673ZM19.659,7.381a3.232,3.232,0,0,1,3.228-3.228H55.912v9.566a5.387,5.387,0,0,0,5.38,5.38H70.87V67.641a3.232,3.232,0,0,1-3.228,3.228H22.887a3.232,3.232,0,0,1-3.228-3.228V50.564H40.7a5.387,5.387,0,0,0,5.38-5.38V33.132a5.387,5.387,0,0,0-5.38-5.38H19.659ZM4.153,33.132A3.232,3.232,0,0,1,7.381,29.9H40.7a3.232,3.232,0,0,1,3.228,3.228V45.184A3.232,3.232,0,0,1,40.7,48.412H8.4a6.527,6.527,0,0,0-1.1.1c-.033.006-.067.008-.1.015a6.332,6.332,0,0,0-1,.278c-.046.017-.092.031-.138.049a6.242,6.242,0,0,0-.9.441c-.048.028-.095.056-.142.085a6.264,6.264,0,0,0-.8.6c-.019.017-.042.028-.061.045Z"/>
      <path id="Trazado_1064212" data-name="Trazado 1064212" d="M13.322,41.714a5.4,5.4,0,0,0,3.259-1.109,1.076,1.076,0,0,0-1.294-1.72,3.259,3.259,0,0,1-1.966.677c-2.02,0-3.663-1.931-3.663-4.3s1.643-4.3,3.663-4.3a3.259,3.259,0,0,1,1.966.677,1.076,1.076,0,0,0,1.294-1.72A5.4,5.4,0,0,0,13.322,28.8c-3.206,0-5.815,2.9-5.815,6.456s2.609,6.456,5.815,6.456Z" transform="translate(0.801 3.9)"/>
      <path id="Trazado_1064213" data-name="Trazado 1064213" d="M22.725,39.562a1.616,1.616,0,0,1-1.614-1.614,1.076,1.076,0,1,0-2.152,0,3.766,3.766,0,1,0,3.766-3.766,1.614,1.614,0,1,1,1.614-1.614,1.076,1.076,0,0,0,2.152,0,3.766,3.766,0,1,0-3.766,3.766,1.614,1.614,0,0,1,0,3.228Z" transform="translate(2.468 3.9)"/>
      <path id="Trazado_1064214" data-name="Trazado 1064214" d="M32.161,39.562a1.616,1.616,0,0,1-1.614-1.614,1.076,1.076,0,1,0-2.152,0,3.766,3.766,0,1,0,3.766-3.766,1.614,1.614,0,1,1,1.614-1.614,1.076,1.076,0,0,0,2.152,0,3.766,3.766,0,1,0-3.766,3.766,1.614,1.614,0,1,1,0,3.228Z" transform="translate(3.841 3.9)"/>
      <path id="Trazado_1064215" data-name="Trazado 1064215" d="M29.56,9.181a1.076,1.076,0,0,0-1.513-.167L22.2,13.7a1.076,1.076,0,0,0,0,1.679l5.844,4.686a1.076,1.076,0,0,0,1.346-1.679l-4.8-3.847,4.8-3.847a1.076,1.076,0,0,0,.167-1.513Z" transform="translate(2.881 0.986)"/>
      <path id="Trazado_1064216" data-name="Trazado 1064216" d="M37.043,19.9a1.076,1.076,0,0,0,1.513.167L44.4,15.38a1.076,1.076,0,0,0,0-1.679L38.556,9.015a1.076,1.076,0,1,0-1.346,1.679l4.8,3.847-4.8,3.847a1.076,1.076,0,0,0-.167,1.513Z" transform="translate(5.065 0.986)"/>
      <path id="Trazado_1064217" data-name="Trazado 1064217" d="M35.4,6.429a1.076,1.076,0,0,0-1.314.768l-3.9,14.835a1.076,1.076,0,0,0,2.082.546l3.9-14.835A1.077,1.077,0,0,0,35.4,6.429Z" transform="translate(4.097 0.639)"/>
      <path id="Trazado_1064218" data-name="Trazado 1064218" d="M44.8,29.358H60.155a1.076,1.076,0,1,0,0-2.152H44.8a1.076,1.076,0,0,0,0,2.152Z" transform="translate(6.071 3.668)"/>
      <path id="Trazado_1064219" data-name="Trazado 1064219" d="M60.155,34.236H44.8a1.076,1.076,0,1,0,0,2.152H60.155a1.076,1.076,0,1,0,0-2.152Z" transform="translate(6.071 4.691)"/>
      <path id="Trazado_1064220" data-name="Trazado 1064220" d="M60.155,41.267H44.8a1.076,1.076,0,1,0,0,2.152H60.155a1.076,1.076,0,1,0,0-2.152Z" transform="translate(6.071 5.714)"/>
      <path id="Trazado_1064221" data-name="Trazado 1064221" d="M22.017,50.45H29.4a1.076,1.076,0,0,0,0-2.152H22.017a1.076,1.076,0,1,0,0,2.152Z" transform="translate(2.756 6.737)"/>
      <path id="Trazado_1064222" data-name="Trazado 1064222" d="M61.585,48.3H34.968a1.076,1.076,0,0,0,0,2.152H61.585a1.076,1.076,0,1,0,0-2.152Z" transform="translate(4.641 6.737)"/>
      <path id="Trazado_1064223" data-name="Trazado 1064223" d="M49.5,55.328H22.017a1.076,1.076,0,1,0,0,2.152H49.5a1.076,1.076,0,0,0,0-2.152Z" transform="translate(2.756 7.76)"/>
      <path id="Trazado_1064224" data-name="Trazado 1064224" d="M58.955,55.328H53.042a1.076,1.076,0,0,0,0,2.152h5.913a1.076,1.076,0,1,0,0-2.152Z" transform="translate(7.271 7.76)"/>
    </g>
  </g>
</svg>
